%TF.GenerationSoftware,KiCad,Pcbnew,10.0.3*%
%TF.CreationDate,2026-09-10T12:51:26+03:00*%
%TF.ProjectId,atc-roip-gateway,6174632d-726f-4697-902d-676174657761,rev?*%
%TF.SameCoordinates,Original*%
%TF.FileFunction,Soldermask,Bot*%
%TF.FilePolarity,Negative*%
%FSLAX46Y46*%
G04 Gerber Fmt 4.6, Leading zero omitted, Abs format (unit mm)*
G04 Created by KiCad (PCBNEW 10.0.3) date 2026-09-10 12:51:26*
%MOMM*%
%LPD*%
G01*
G04 APERTURE LIST*
G04 Aperture macros list*
%AMRoundRect*
0 Rectangle with rounded corners*
0 $1 Rounding radius*
0 $2 $3 $4 $5 $6 $7 $8 $9 X,Y pos of 4 corners*
0 Add a 4 corners polygon primitive as box body*
4,1,4,$2,$3,$4,$5,$6,$7,$8,$9,$2,$3,0*
0 Add four circle primitives for the rounded corners*
1,1,$1+$1,$2,$3*
1,1,$1+$1,$4,$5*
1,1,$1+$1,$6,$7*
1,1,$1+$1,$8,$9*
0 Add four rect primitives between the rounded corners*
20,1,$1+$1,$2,$3,$4,$5,0*
20,1,$1+$1,$4,$5,$6,$7,0*
20,1,$1+$1,$6,$7,$8,$9,0*
20,1,$1+$1,$8,$9,$2,$3,0*%
G04 Aperture macros list end*
%ADD10RoundRect,0.250000X-0.550000X-0.550000X0.550000X-0.550000X0.550000X0.550000X-0.550000X0.550000X0*%
%ADD11C,1.600000*%
%ADD12RoundRect,0.250000X1.050000X1.050000X-1.050000X1.050000X-1.050000X-1.050000X1.050000X-1.050000X0*%
%ADD13C,2.600000*%
%ADD14C,3.250000*%
%ADD15C,1.890000*%
%ADD16R,1.900000X1.900000*%
%ADD17C,1.900000*%
%ADD18C,3.200000*%
%ADD19R,1.600000X1.600000*%
%ADD20C,4.000000*%
%ADD21R,1.700000X1.700000*%
%ADD22C,1.700000*%
G04 APERTURE END LIST*
D10*
%TO.C,U6*%
X193000000Y-155000000D03*
D11*
X193000000Y-157540000D03*
X200620000Y-157540000D03*
X200620000Y-155000000D03*
%TD*%
D12*
%TO.C,J1*%
X110000000Y-180000000D03*
D13*
X105000000Y-180000000D03*
%TD*%
D14*
%TO.C,J4*%
X107160000Y-130730000D03*
X107160000Y-142160000D03*
D15*
X103780000Y-142770000D03*
X102260000Y-140230000D03*
X103780000Y-132660000D03*
X102260000Y-130120000D03*
D16*
X113500000Y-132000000D03*
D17*
X116040000Y-133270000D03*
X113500000Y-134540000D03*
X116040000Y-135810000D03*
X113500000Y-137080000D03*
X116040000Y-138350000D03*
X113500000Y-139620000D03*
X116040000Y-140890000D03*
D13*
X110210000Y-128670000D03*
X110210000Y-144220000D03*
%TD*%
D18*
%TO.C,H1*%
X105000000Y-105000000D03*
%TD*%
D19*
%TO.C,J5*%
X214000000Y-147000000D03*
D11*
X214000000Y-144230000D03*
X214000000Y-141460000D03*
X214000000Y-138690000D03*
X214000000Y-135920000D03*
X214000000Y-133150000D03*
X214000000Y-130380000D03*
X214000000Y-127610000D03*
X214000000Y-124840000D03*
X214000000Y-122070000D03*
X214000000Y-119300000D03*
X214000000Y-116530000D03*
X214000000Y-113760000D03*
X216840000Y-145615000D03*
X216840000Y-142845000D03*
X216840000Y-140075000D03*
X216840000Y-137305000D03*
X216840000Y-134535000D03*
X216840000Y-131765000D03*
X216840000Y-128995000D03*
X216840000Y-126225000D03*
X216840000Y-123455000D03*
X216840000Y-120685000D03*
X216840000Y-117915000D03*
X216840000Y-115145000D03*
D20*
X215420000Y-153930000D03*
X215420000Y-106830000D03*
%TD*%
D21*
%TO.C,J2*%
X140000000Y-107000000D03*
D22*
X142540000Y-107000000D03*
X145080000Y-107000000D03*
X147620000Y-107000000D03*
X150160000Y-107000000D03*
%TD*%
D10*
%TO.C,U8*%
X193000000Y-168000000D03*
D11*
X193000000Y-170540000D03*
X200620000Y-170540000D03*
X200620000Y-168000000D03*
%TD*%
D18*
%TO.C,H2*%
X196000000Y-103600000D03*
%TD*%
%TO.C,H3*%
X105000000Y-190000000D03*
%TD*%
D10*
%TO.C,U9*%
X193000000Y-174500000D03*
D11*
X193000000Y-177040000D03*
X200620000Y-177040000D03*
X200620000Y-174500000D03*
%TD*%
D10*
%TO.C,T4*%
X196000000Y-148000000D03*
D11*
X196000000Y-150540000D03*
X206160000Y-150540000D03*
X206160000Y-148000000D03*
%TD*%
D18*
%TO.C,H4*%
X196000000Y-191400000D03*
%TD*%
D10*
%TO.C,T2*%
X196000000Y-124000000D03*
D11*
X196000000Y-126540000D03*
X206160000Y-126540000D03*
X206160000Y-124000000D03*
%TD*%
D10*
%TO.C,T1*%
X196000000Y-112000000D03*
D11*
X196000000Y-114540000D03*
X206160000Y-114540000D03*
X206160000Y-112000000D03*
%TD*%
D21*
%TO.C,J3*%
X157000000Y-107000000D03*
D22*
X159540000Y-107000000D03*
X162080000Y-107000000D03*
X164620000Y-107000000D03*
%TD*%
D10*
%TO.C,U7*%
X193000000Y-161500000D03*
D11*
X193000000Y-164040000D03*
X200620000Y-164040000D03*
X200620000Y-161500000D03*
%TD*%
D10*
%TO.C,T3*%
X196000000Y-136000000D03*
D11*
X196000000Y-138540000D03*
X206160000Y-138540000D03*
X206160000Y-136000000D03*
%TD*%
M02*
