%TF.GenerationSoftware,KiCad,Pcbnew,10.0.3*%
%TF.CreationDate,2026-09-10T12:51:26+03:00*%
%TF.ProjectId,atc-roip-gateway,6174632d-726f-4697-902d-676174657761,rev?*%
%TF.SameCoordinates,Original*%
%TF.FileFunction,Legend,Top*%
%TF.FilePolarity,Positive*%
%FSLAX46Y46*%
G04 Gerber Fmt 4.6, Leading zero omitted, Abs format (unit mm)*
G04 Created by KiCad (PCBNEW 10.0.3) date 2026-09-10 12:51:26*
%MOMM*%
%LPD*%
G01*
G04 APERTURE LIST*
%ADD10C,0.130000*%
%ADD11C,0.120000*%
G04 APERTURE END LIST*
D10*
X196195476Y-152218335D02*
X196195476Y-152865954D01*
X196195476Y-152865954D02*
X196233571Y-152942144D01*
X196233571Y-152942144D02*
X196271666Y-152980240D01*
X196271666Y-152980240D02*
X196347857Y-153018335D01*
X196347857Y-153018335D02*
X196500238Y-153018335D01*
X196500238Y-153018335D02*
X196576428Y-152980240D01*
X196576428Y-152980240D02*
X196614523Y-152942144D01*
X196614523Y-152942144D02*
X196652619Y-152865954D01*
X196652619Y-152865954D02*
X196652619Y-152218335D01*
X197376428Y-152218335D02*
X197224047Y-152218335D01*
X197224047Y-152218335D02*
X197147856Y-152256430D01*
X197147856Y-152256430D02*
X197109761Y-152294525D01*
X197109761Y-152294525D02*
X197033571Y-152408811D01*
X197033571Y-152408811D02*
X196995475Y-152561192D01*
X196995475Y-152561192D02*
X196995475Y-152865954D01*
X196995475Y-152865954D02*
X197033571Y-152942144D01*
X197033571Y-152942144D02*
X197071666Y-152980240D01*
X197071666Y-152980240D02*
X197147856Y-153018335D01*
X197147856Y-153018335D02*
X197300237Y-153018335D01*
X197300237Y-153018335D02*
X197376428Y-152980240D01*
X197376428Y-152980240D02*
X197414523Y-152942144D01*
X197414523Y-152942144D02*
X197452618Y-152865954D01*
X197452618Y-152865954D02*
X197452618Y-152675478D01*
X197452618Y-152675478D02*
X197414523Y-152599287D01*
X197414523Y-152599287D02*
X197376428Y-152561192D01*
X197376428Y-152561192D02*
X197300237Y-152523097D01*
X197300237Y-152523097D02*
X197147856Y-152523097D01*
X197147856Y-152523097D02*
X197071666Y-152561192D01*
X197071666Y-152561192D02*
X197033571Y-152599287D01*
X197033571Y-152599287D02*
X196995475Y-152675478D01*
X122497024Y-180788335D02*
X122497024Y-179988335D01*
X122497024Y-179988335D02*
X122687500Y-179988335D01*
X122687500Y-179988335D02*
X122801786Y-180026430D01*
X122801786Y-180026430D02*
X122877976Y-180102620D01*
X122877976Y-180102620D02*
X122916071Y-180178811D01*
X122916071Y-180178811D02*
X122954167Y-180331192D01*
X122954167Y-180331192D02*
X122954167Y-180445478D01*
X122954167Y-180445478D02*
X122916071Y-180597859D01*
X122916071Y-180597859D02*
X122877976Y-180674049D01*
X122877976Y-180674049D02*
X122801786Y-180750240D01*
X122801786Y-180750240D02*
X122687500Y-180788335D01*
X122687500Y-180788335D02*
X122497024Y-180788335D01*
X123258928Y-180064525D02*
X123297024Y-180026430D01*
X123297024Y-180026430D02*
X123373214Y-179988335D01*
X123373214Y-179988335D02*
X123563690Y-179988335D01*
X123563690Y-179988335D02*
X123639881Y-180026430D01*
X123639881Y-180026430D02*
X123677976Y-180064525D01*
X123677976Y-180064525D02*
X123716071Y-180140716D01*
X123716071Y-180140716D02*
X123716071Y-180216906D01*
X123716071Y-180216906D02*
X123677976Y-180331192D01*
X123677976Y-180331192D02*
X123220833Y-180788335D01*
X123220833Y-180788335D02*
X123716071Y-180788335D01*
X107233333Y-173373335D02*
X107233333Y-173944763D01*
X107233333Y-173944763D02*
X107195238Y-174059049D01*
X107195238Y-174059049D02*
X107119047Y-174135240D01*
X107119047Y-174135240D02*
X107004762Y-174173335D01*
X107004762Y-174173335D02*
X106928571Y-174173335D01*
X108033333Y-174173335D02*
X107576190Y-174173335D01*
X107804762Y-174173335D02*
X107804762Y-173373335D01*
X107804762Y-173373335D02*
X107728571Y-173487620D01*
X107728571Y-173487620D02*
X107652381Y-173563811D01*
X107652381Y-173563811D02*
X107576190Y-173601906D01*
X105485714Y-114808335D02*
X105219047Y-114427382D01*
X105028571Y-114808335D02*
X105028571Y-114008335D01*
X105028571Y-114008335D02*
X105333333Y-114008335D01*
X105333333Y-114008335D02*
X105409523Y-114046430D01*
X105409523Y-114046430D02*
X105447618Y-114084525D01*
X105447618Y-114084525D02*
X105485714Y-114160716D01*
X105485714Y-114160716D02*
X105485714Y-114275001D01*
X105485714Y-114275001D02*
X105447618Y-114351192D01*
X105447618Y-114351192D02*
X105409523Y-114389287D01*
X105409523Y-114389287D02*
X105333333Y-114427382D01*
X105333333Y-114427382D02*
X105028571Y-114427382D01*
X106247618Y-114808335D02*
X105790475Y-114808335D01*
X106019047Y-114808335D02*
X106019047Y-114008335D01*
X106019047Y-114008335D02*
X105942856Y-114122620D01*
X105942856Y-114122620D02*
X105866666Y-114198811D01*
X105866666Y-114198811D02*
X105790475Y-114236906D01*
X106514285Y-114008335D02*
X107009523Y-114008335D01*
X107009523Y-114008335D02*
X106742857Y-114313097D01*
X106742857Y-114313097D02*
X106857142Y-114313097D01*
X106857142Y-114313097D02*
X106933333Y-114351192D01*
X106933333Y-114351192D02*
X106971428Y-114389287D01*
X106971428Y-114389287D02*
X107009523Y-114465478D01*
X107009523Y-114465478D02*
X107009523Y-114655954D01*
X107009523Y-114655954D02*
X106971428Y-114732144D01*
X106971428Y-114732144D02*
X106933333Y-114770240D01*
X106933333Y-114770240D02*
X106857142Y-114808335D01*
X106857142Y-114808335D02*
X106628571Y-114808335D01*
X106628571Y-114808335D02*
X106552380Y-114770240D01*
X106552380Y-114770240D02*
X106514285Y-114732144D01*
X156390476Y-120008335D02*
X156390476Y-120655954D01*
X156390476Y-120655954D02*
X156428571Y-120732144D01*
X156428571Y-120732144D02*
X156466666Y-120770240D01*
X156466666Y-120770240D02*
X156542857Y-120808335D01*
X156542857Y-120808335D02*
X156695238Y-120808335D01*
X156695238Y-120808335D02*
X156771428Y-120770240D01*
X156771428Y-120770240D02*
X156809523Y-120732144D01*
X156809523Y-120732144D02*
X156847619Y-120655954D01*
X156847619Y-120655954D02*
X156847619Y-120008335D01*
X157152380Y-120008335D02*
X157647618Y-120008335D01*
X157647618Y-120008335D02*
X157380952Y-120313097D01*
X157380952Y-120313097D02*
X157495237Y-120313097D01*
X157495237Y-120313097D02*
X157571428Y-120351192D01*
X157571428Y-120351192D02*
X157609523Y-120389287D01*
X157609523Y-120389287D02*
X157647618Y-120465478D01*
X157647618Y-120465478D02*
X157647618Y-120655954D01*
X157647618Y-120655954D02*
X157609523Y-120732144D01*
X157609523Y-120732144D02*
X157571428Y-120770240D01*
X157571428Y-120770240D02*
X157495237Y-120808335D01*
X157495237Y-120808335D02*
X157266666Y-120808335D01*
X157266666Y-120808335D02*
X157190475Y-120770240D01*
X157190475Y-120770240D02*
X157152380Y-120732144D01*
X170485714Y-142482144D02*
X170447618Y-142520240D01*
X170447618Y-142520240D02*
X170333333Y-142558335D01*
X170333333Y-142558335D02*
X170257142Y-142558335D01*
X170257142Y-142558335D02*
X170142856Y-142520240D01*
X170142856Y-142520240D02*
X170066666Y-142444049D01*
X170066666Y-142444049D02*
X170028571Y-142367859D01*
X170028571Y-142367859D02*
X169990475Y-142215478D01*
X169990475Y-142215478D02*
X169990475Y-142101192D01*
X169990475Y-142101192D02*
X170028571Y-141948811D01*
X170028571Y-141948811D02*
X170066666Y-141872620D01*
X170066666Y-141872620D02*
X170142856Y-141796430D01*
X170142856Y-141796430D02*
X170257142Y-141758335D01*
X170257142Y-141758335D02*
X170333333Y-141758335D01*
X170333333Y-141758335D02*
X170447618Y-141796430D01*
X170447618Y-141796430D02*
X170485714Y-141834525D01*
X171247618Y-142558335D02*
X170790475Y-142558335D01*
X171019047Y-142558335D02*
X171019047Y-141758335D01*
X171019047Y-141758335D02*
X170942856Y-141872620D01*
X170942856Y-141872620D02*
X170866666Y-141948811D01*
X170866666Y-141948811D02*
X170790475Y-141986906D01*
X171933333Y-142025001D02*
X171933333Y-142558335D01*
X171742857Y-141720240D02*
X171552380Y-142291668D01*
X171552380Y-142291668D02*
X172047619Y-142291668D01*
X169866667Y-104808335D02*
X169600000Y-104427382D01*
X169409524Y-104808335D02*
X169409524Y-104008335D01*
X169409524Y-104008335D02*
X169714286Y-104008335D01*
X169714286Y-104008335D02*
X169790476Y-104046430D01*
X169790476Y-104046430D02*
X169828571Y-104084525D01*
X169828571Y-104084525D02*
X169866667Y-104160716D01*
X169866667Y-104160716D02*
X169866667Y-104275001D01*
X169866667Y-104275001D02*
X169828571Y-104351192D01*
X169828571Y-104351192D02*
X169790476Y-104389287D01*
X169790476Y-104389287D02*
X169714286Y-104427382D01*
X169714286Y-104427382D02*
X169409524Y-104427382D01*
X170133333Y-104008335D02*
X170666667Y-104008335D01*
X170666667Y-104008335D02*
X170323809Y-104808335D01*
X174389524Y-108768335D02*
X174389524Y-107968335D01*
X174389524Y-107968335D02*
X174580000Y-107968335D01*
X174580000Y-107968335D02*
X174694286Y-108006430D01*
X174694286Y-108006430D02*
X174770476Y-108082620D01*
X174770476Y-108082620D02*
X174808571Y-108158811D01*
X174808571Y-108158811D02*
X174846667Y-108311192D01*
X174846667Y-108311192D02*
X174846667Y-108425478D01*
X174846667Y-108425478D02*
X174808571Y-108577859D01*
X174808571Y-108577859D02*
X174770476Y-108654049D01*
X174770476Y-108654049D02*
X174694286Y-108730240D01*
X174694286Y-108730240D02*
X174580000Y-108768335D01*
X174580000Y-108768335D02*
X174389524Y-108768335D01*
X175532381Y-107968335D02*
X175380000Y-107968335D01*
X175380000Y-107968335D02*
X175303809Y-108006430D01*
X175303809Y-108006430D02*
X175265714Y-108044525D01*
X175265714Y-108044525D02*
X175189524Y-108158811D01*
X175189524Y-108158811D02*
X175151428Y-108311192D01*
X175151428Y-108311192D02*
X175151428Y-108615954D01*
X175151428Y-108615954D02*
X175189524Y-108692144D01*
X175189524Y-108692144D02*
X175227619Y-108730240D01*
X175227619Y-108730240D02*
X175303809Y-108768335D01*
X175303809Y-108768335D02*
X175456190Y-108768335D01*
X175456190Y-108768335D02*
X175532381Y-108730240D01*
X175532381Y-108730240D02*
X175570476Y-108692144D01*
X175570476Y-108692144D02*
X175608571Y-108615954D01*
X175608571Y-108615954D02*
X175608571Y-108425478D01*
X175608571Y-108425478D02*
X175570476Y-108349287D01*
X175570476Y-108349287D02*
X175532381Y-108311192D01*
X175532381Y-108311192D02*
X175456190Y-108273097D01*
X175456190Y-108273097D02*
X175303809Y-108273097D01*
X175303809Y-108273097D02*
X175227619Y-108311192D01*
X175227619Y-108311192D02*
X175189524Y-108349287D01*
X175189524Y-108349287D02*
X175151428Y-108425478D01*
X191724167Y-178432144D02*
X191686071Y-178470240D01*
X191686071Y-178470240D02*
X191571786Y-178508335D01*
X191571786Y-178508335D02*
X191495595Y-178508335D01*
X191495595Y-178508335D02*
X191381309Y-178470240D01*
X191381309Y-178470240D02*
X191305119Y-178394049D01*
X191305119Y-178394049D02*
X191267024Y-178317859D01*
X191267024Y-178317859D02*
X191228928Y-178165478D01*
X191228928Y-178165478D02*
X191228928Y-178051192D01*
X191228928Y-178051192D02*
X191267024Y-177898811D01*
X191267024Y-177898811D02*
X191305119Y-177822620D01*
X191305119Y-177822620D02*
X191381309Y-177746430D01*
X191381309Y-177746430D02*
X191495595Y-177708335D01*
X191495595Y-177708335D02*
X191571786Y-177708335D01*
X191571786Y-177708335D02*
X191686071Y-177746430D01*
X191686071Y-177746430D02*
X191724167Y-177784525D01*
X191990833Y-177708335D02*
X192486071Y-177708335D01*
X192486071Y-177708335D02*
X192219405Y-178013097D01*
X192219405Y-178013097D02*
X192333690Y-178013097D01*
X192333690Y-178013097D02*
X192409881Y-178051192D01*
X192409881Y-178051192D02*
X192447976Y-178089287D01*
X192447976Y-178089287D02*
X192486071Y-178165478D01*
X192486071Y-178165478D02*
X192486071Y-178355954D01*
X192486071Y-178355954D02*
X192447976Y-178432144D01*
X192447976Y-178432144D02*
X192409881Y-178470240D01*
X192409881Y-178470240D02*
X192333690Y-178508335D01*
X192333690Y-178508335D02*
X192105119Y-178508335D01*
X192105119Y-178508335D02*
X192028928Y-178470240D01*
X192028928Y-178470240D02*
X191990833Y-178432144D01*
X179390476Y-125543335D02*
X179390476Y-126190954D01*
X179390476Y-126190954D02*
X179428571Y-126267144D01*
X179428571Y-126267144D02*
X179466666Y-126305240D01*
X179466666Y-126305240D02*
X179542857Y-126343335D01*
X179542857Y-126343335D02*
X179695238Y-126343335D01*
X179695238Y-126343335D02*
X179771428Y-126305240D01*
X179771428Y-126305240D02*
X179809523Y-126267144D01*
X179809523Y-126267144D02*
X179847619Y-126190954D01*
X179847619Y-126190954D02*
X179847619Y-125543335D01*
X180609523Y-125543335D02*
X180228571Y-125543335D01*
X180228571Y-125543335D02*
X180190475Y-125924287D01*
X180190475Y-125924287D02*
X180228571Y-125886192D01*
X180228571Y-125886192D02*
X180304761Y-125848097D01*
X180304761Y-125848097D02*
X180495237Y-125848097D01*
X180495237Y-125848097D02*
X180571428Y-125886192D01*
X180571428Y-125886192D02*
X180609523Y-125924287D01*
X180609523Y-125924287D02*
X180647618Y-126000478D01*
X180647618Y-126000478D02*
X180647618Y-126190954D01*
X180647618Y-126190954D02*
X180609523Y-126267144D01*
X180609523Y-126267144D02*
X180571428Y-126305240D01*
X180571428Y-126305240D02*
X180495237Y-126343335D01*
X180495237Y-126343335D02*
X180304761Y-126343335D01*
X180304761Y-126343335D02*
X180228571Y-126305240D01*
X180228571Y-126305240D02*
X180190475Y-126267144D01*
X122055714Y-125058335D02*
X121789047Y-124677382D01*
X121598571Y-125058335D02*
X121598571Y-124258335D01*
X121598571Y-124258335D02*
X121903333Y-124258335D01*
X121903333Y-124258335D02*
X121979523Y-124296430D01*
X121979523Y-124296430D02*
X122017618Y-124334525D01*
X122017618Y-124334525D02*
X122055714Y-124410716D01*
X122055714Y-124410716D02*
X122055714Y-124525001D01*
X122055714Y-124525001D02*
X122017618Y-124601192D01*
X122017618Y-124601192D02*
X121979523Y-124639287D01*
X121979523Y-124639287D02*
X121903333Y-124677382D01*
X121903333Y-124677382D02*
X121598571Y-124677382D01*
X122817618Y-125058335D02*
X122360475Y-125058335D01*
X122589047Y-125058335D02*
X122589047Y-124258335D01*
X122589047Y-124258335D02*
X122512856Y-124372620D01*
X122512856Y-124372620D02*
X122436666Y-124448811D01*
X122436666Y-124448811D02*
X122360475Y-124486906D01*
X123274761Y-124601192D02*
X123198571Y-124563097D01*
X123198571Y-124563097D02*
X123160476Y-124525001D01*
X123160476Y-124525001D02*
X123122380Y-124448811D01*
X123122380Y-124448811D02*
X123122380Y-124410716D01*
X123122380Y-124410716D02*
X123160476Y-124334525D01*
X123160476Y-124334525D02*
X123198571Y-124296430D01*
X123198571Y-124296430D02*
X123274761Y-124258335D01*
X123274761Y-124258335D02*
X123427142Y-124258335D01*
X123427142Y-124258335D02*
X123503333Y-124296430D01*
X123503333Y-124296430D02*
X123541428Y-124334525D01*
X123541428Y-124334525D02*
X123579523Y-124410716D01*
X123579523Y-124410716D02*
X123579523Y-124448811D01*
X123579523Y-124448811D02*
X123541428Y-124525001D01*
X123541428Y-124525001D02*
X123503333Y-124563097D01*
X123503333Y-124563097D02*
X123427142Y-124601192D01*
X123427142Y-124601192D02*
X123274761Y-124601192D01*
X123274761Y-124601192D02*
X123198571Y-124639287D01*
X123198571Y-124639287D02*
X123160476Y-124677382D01*
X123160476Y-124677382D02*
X123122380Y-124753573D01*
X123122380Y-124753573D02*
X123122380Y-124905954D01*
X123122380Y-124905954D02*
X123160476Y-124982144D01*
X123160476Y-124982144D02*
X123198571Y-125020240D01*
X123198571Y-125020240D02*
X123274761Y-125058335D01*
X123274761Y-125058335D02*
X123427142Y-125058335D01*
X123427142Y-125058335D02*
X123503333Y-125020240D01*
X123503333Y-125020240D02*
X123541428Y-124982144D01*
X123541428Y-124982144D02*
X123579523Y-124905954D01*
X123579523Y-124905954D02*
X123579523Y-124753573D01*
X123579523Y-124753573D02*
X123541428Y-124677382D01*
X123541428Y-124677382D02*
X123503333Y-124639287D01*
X123503333Y-124639287D02*
X123427142Y-124601192D01*
X171485714Y-118732144D02*
X171447618Y-118770240D01*
X171447618Y-118770240D02*
X171333333Y-118808335D01*
X171333333Y-118808335D02*
X171257142Y-118808335D01*
X171257142Y-118808335D02*
X171142856Y-118770240D01*
X171142856Y-118770240D02*
X171066666Y-118694049D01*
X171066666Y-118694049D02*
X171028571Y-118617859D01*
X171028571Y-118617859D02*
X170990475Y-118465478D01*
X170990475Y-118465478D02*
X170990475Y-118351192D01*
X170990475Y-118351192D02*
X171028571Y-118198811D01*
X171028571Y-118198811D02*
X171066666Y-118122620D01*
X171066666Y-118122620D02*
X171142856Y-118046430D01*
X171142856Y-118046430D02*
X171257142Y-118008335D01*
X171257142Y-118008335D02*
X171333333Y-118008335D01*
X171333333Y-118008335D02*
X171447618Y-118046430D01*
X171447618Y-118046430D02*
X171485714Y-118084525D01*
X171790475Y-118084525D02*
X171828571Y-118046430D01*
X171828571Y-118046430D02*
X171904761Y-118008335D01*
X171904761Y-118008335D02*
X172095237Y-118008335D01*
X172095237Y-118008335D02*
X172171428Y-118046430D01*
X172171428Y-118046430D02*
X172209523Y-118084525D01*
X172209523Y-118084525D02*
X172247618Y-118160716D01*
X172247618Y-118160716D02*
X172247618Y-118236906D01*
X172247618Y-118236906D02*
X172209523Y-118351192D01*
X172209523Y-118351192D02*
X171752380Y-118808335D01*
X171752380Y-118808335D02*
X172247618Y-118808335D01*
X172742857Y-118008335D02*
X172819047Y-118008335D01*
X172819047Y-118008335D02*
X172895238Y-118046430D01*
X172895238Y-118046430D02*
X172933333Y-118084525D01*
X172933333Y-118084525D02*
X172971428Y-118160716D01*
X172971428Y-118160716D02*
X173009523Y-118313097D01*
X173009523Y-118313097D02*
X173009523Y-118503573D01*
X173009523Y-118503573D02*
X172971428Y-118655954D01*
X172971428Y-118655954D02*
X172933333Y-118732144D01*
X172933333Y-118732144D02*
X172895238Y-118770240D01*
X172895238Y-118770240D02*
X172819047Y-118808335D01*
X172819047Y-118808335D02*
X172742857Y-118808335D01*
X172742857Y-118808335D02*
X172666666Y-118770240D01*
X172666666Y-118770240D02*
X172628571Y-118732144D01*
X172628571Y-118732144D02*
X172590476Y-118655954D01*
X172590476Y-118655954D02*
X172552380Y-118503573D01*
X172552380Y-118503573D02*
X172552380Y-118313097D01*
X172552380Y-118313097D02*
X172590476Y-118160716D01*
X172590476Y-118160716D02*
X172628571Y-118084525D01*
X172628571Y-118084525D02*
X172666666Y-118046430D01*
X172666666Y-118046430D02*
X172742857Y-118008335D01*
X179866667Y-104808335D02*
X179600000Y-104427382D01*
X179409524Y-104808335D02*
X179409524Y-104008335D01*
X179409524Y-104008335D02*
X179714286Y-104008335D01*
X179714286Y-104008335D02*
X179790476Y-104046430D01*
X179790476Y-104046430D02*
X179828571Y-104084525D01*
X179828571Y-104084525D02*
X179866667Y-104160716D01*
X179866667Y-104160716D02*
X179866667Y-104275001D01*
X179866667Y-104275001D02*
X179828571Y-104351192D01*
X179828571Y-104351192D02*
X179790476Y-104389287D01*
X179790476Y-104389287D02*
X179714286Y-104427382D01*
X179714286Y-104427382D02*
X179409524Y-104427382D01*
X180247619Y-104808335D02*
X180400000Y-104808335D01*
X180400000Y-104808335D02*
X180476190Y-104770240D01*
X180476190Y-104770240D02*
X180514286Y-104732144D01*
X180514286Y-104732144D02*
X180590476Y-104617859D01*
X180590476Y-104617859D02*
X180628571Y-104465478D01*
X180628571Y-104465478D02*
X180628571Y-104160716D01*
X180628571Y-104160716D02*
X180590476Y-104084525D01*
X180590476Y-104084525D02*
X180552381Y-104046430D01*
X180552381Y-104046430D02*
X180476190Y-104008335D01*
X180476190Y-104008335D02*
X180323809Y-104008335D01*
X180323809Y-104008335D02*
X180247619Y-104046430D01*
X180247619Y-104046430D02*
X180209524Y-104084525D01*
X180209524Y-104084525D02*
X180171428Y-104160716D01*
X180171428Y-104160716D02*
X180171428Y-104351192D01*
X180171428Y-104351192D02*
X180209524Y-104427382D01*
X180209524Y-104427382D02*
X180247619Y-104465478D01*
X180247619Y-104465478D02*
X180323809Y-104503573D01*
X180323809Y-104503573D02*
X180476190Y-104503573D01*
X180476190Y-104503573D02*
X180552381Y-104465478D01*
X180552381Y-104465478D02*
X180590476Y-104427382D01*
X180590476Y-104427382D02*
X180628571Y-104351192D01*
X128202976Y-128138335D02*
X128202976Y-128785954D01*
X128202976Y-128785954D02*
X128241071Y-128862144D01*
X128241071Y-128862144D02*
X128279166Y-128900240D01*
X128279166Y-128900240D02*
X128355357Y-128938335D01*
X128355357Y-128938335D02*
X128507738Y-128938335D01*
X128507738Y-128938335D02*
X128583928Y-128900240D01*
X128583928Y-128900240D02*
X128622023Y-128862144D01*
X128622023Y-128862144D02*
X128660119Y-128785954D01*
X128660119Y-128785954D02*
X128660119Y-128138335D01*
X129383928Y-128405001D02*
X129383928Y-128938335D01*
X129193452Y-128100240D02*
X129002975Y-128671668D01*
X129002975Y-128671668D02*
X129498214Y-128671668D01*
X215333333Y-181269287D02*
X215066667Y-181269287D01*
X215066667Y-181688335D02*
X215066667Y-180888335D01*
X215066667Y-180888335D02*
X215447619Y-180888335D01*
X216019047Y-181269287D02*
X216133333Y-181307382D01*
X216133333Y-181307382D02*
X216171428Y-181345478D01*
X216171428Y-181345478D02*
X216209524Y-181421668D01*
X216209524Y-181421668D02*
X216209524Y-181535954D01*
X216209524Y-181535954D02*
X216171428Y-181612144D01*
X216171428Y-181612144D02*
X216133333Y-181650240D01*
X216133333Y-181650240D02*
X216057143Y-181688335D01*
X216057143Y-181688335D02*
X215752381Y-181688335D01*
X215752381Y-181688335D02*
X215752381Y-180888335D01*
X215752381Y-180888335D02*
X216019047Y-180888335D01*
X216019047Y-180888335D02*
X216095238Y-180926430D01*
X216095238Y-180926430D02*
X216133333Y-180964525D01*
X216133333Y-180964525D02*
X216171428Y-181040716D01*
X216171428Y-181040716D02*
X216171428Y-181116906D01*
X216171428Y-181116906D02*
X216133333Y-181193097D01*
X216133333Y-181193097D02*
X216095238Y-181231192D01*
X216095238Y-181231192D02*
X216019047Y-181269287D01*
X216019047Y-181269287D02*
X215752381Y-181269287D01*
X216971428Y-181688335D02*
X216514285Y-181688335D01*
X216742857Y-181688335D02*
X216742857Y-180888335D01*
X216742857Y-180888335D02*
X216666666Y-181002620D01*
X216666666Y-181002620D02*
X216590476Y-181078811D01*
X216590476Y-181078811D02*
X216514285Y-181116906D01*
X136485714Y-136058335D02*
X136219047Y-135677382D01*
X136028571Y-136058335D02*
X136028571Y-135258335D01*
X136028571Y-135258335D02*
X136333333Y-135258335D01*
X136333333Y-135258335D02*
X136409523Y-135296430D01*
X136409523Y-135296430D02*
X136447618Y-135334525D01*
X136447618Y-135334525D02*
X136485714Y-135410716D01*
X136485714Y-135410716D02*
X136485714Y-135525001D01*
X136485714Y-135525001D02*
X136447618Y-135601192D01*
X136447618Y-135601192D02*
X136409523Y-135639287D01*
X136409523Y-135639287D02*
X136333333Y-135677382D01*
X136333333Y-135677382D02*
X136028571Y-135677382D01*
X137247618Y-136058335D02*
X136790475Y-136058335D01*
X137019047Y-136058335D02*
X137019047Y-135258335D01*
X137019047Y-135258335D02*
X136942856Y-135372620D01*
X136942856Y-135372620D02*
X136866666Y-135448811D01*
X136866666Y-135448811D02*
X136790475Y-135486906D01*
X137742857Y-135258335D02*
X137819047Y-135258335D01*
X137819047Y-135258335D02*
X137895238Y-135296430D01*
X137895238Y-135296430D02*
X137933333Y-135334525D01*
X137933333Y-135334525D02*
X137971428Y-135410716D01*
X137971428Y-135410716D02*
X138009523Y-135563097D01*
X138009523Y-135563097D02*
X138009523Y-135753573D01*
X138009523Y-135753573D02*
X137971428Y-135905954D01*
X137971428Y-135905954D02*
X137933333Y-135982144D01*
X137933333Y-135982144D02*
X137895238Y-136020240D01*
X137895238Y-136020240D02*
X137819047Y-136058335D01*
X137819047Y-136058335D02*
X137742857Y-136058335D01*
X137742857Y-136058335D02*
X137666666Y-136020240D01*
X137666666Y-136020240D02*
X137628571Y-135982144D01*
X137628571Y-135982144D02*
X137590476Y-135905954D01*
X137590476Y-135905954D02*
X137552380Y-135753573D01*
X137552380Y-135753573D02*
X137552380Y-135563097D01*
X137552380Y-135563097D02*
X137590476Y-135410716D01*
X137590476Y-135410716D02*
X137628571Y-135334525D01*
X137628571Y-135334525D02*
X137666666Y-135296430D01*
X137666666Y-135296430D02*
X137742857Y-135258335D01*
X105866667Y-170813335D02*
X105600000Y-170432382D01*
X105409524Y-170813335D02*
X105409524Y-170013335D01*
X105409524Y-170013335D02*
X105714286Y-170013335D01*
X105714286Y-170013335D02*
X105790476Y-170051430D01*
X105790476Y-170051430D02*
X105828571Y-170089525D01*
X105828571Y-170089525D02*
X105866667Y-170165716D01*
X105866667Y-170165716D02*
X105866667Y-170280001D01*
X105866667Y-170280001D02*
X105828571Y-170356192D01*
X105828571Y-170356192D02*
X105790476Y-170394287D01*
X105790476Y-170394287D02*
X105714286Y-170432382D01*
X105714286Y-170432382D02*
X105409524Y-170432382D01*
X106628571Y-170813335D02*
X106171428Y-170813335D01*
X106400000Y-170813335D02*
X106400000Y-170013335D01*
X106400000Y-170013335D02*
X106323809Y-170127620D01*
X106323809Y-170127620D02*
X106247619Y-170203811D01*
X106247619Y-170203811D02*
X106171428Y-170241906D01*
X215333333Y-185269287D02*
X215066667Y-185269287D01*
X215066667Y-185688335D02*
X215066667Y-184888335D01*
X215066667Y-184888335D02*
X215447619Y-184888335D01*
X216019047Y-185269287D02*
X216133333Y-185307382D01*
X216133333Y-185307382D02*
X216171428Y-185345478D01*
X216171428Y-185345478D02*
X216209524Y-185421668D01*
X216209524Y-185421668D02*
X216209524Y-185535954D01*
X216209524Y-185535954D02*
X216171428Y-185612144D01*
X216171428Y-185612144D02*
X216133333Y-185650240D01*
X216133333Y-185650240D02*
X216057143Y-185688335D01*
X216057143Y-185688335D02*
X215752381Y-185688335D01*
X215752381Y-185688335D02*
X215752381Y-184888335D01*
X215752381Y-184888335D02*
X216019047Y-184888335D01*
X216019047Y-184888335D02*
X216095238Y-184926430D01*
X216095238Y-184926430D02*
X216133333Y-184964525D01*
X216133333Y-184964525D02*
X216171428Y-185040716D01*
X216171428Y-185040716D02*
X216171428Y-185116906D01*
X216171428Y-185116906D02*
X216133333Y-185193097D01*
X216133333Y-185193097D02*
X216095238Y-185231192D01*
X216095238Y-185231192D02*
X216019047Y-185269287D01*
X216019047Y-185269287D02*
X215752381Y-185269287D01*
X216514285Y-184964525D02*
X216552381Y-184926430D01*
X216552381Y-184926430D02*
X216628571Y-184888335D01*
X216628571Y-184888335D02*
X216819047Y-184888335D01*
X216819047Y-184888335D02*
X216895238Y-184926430D01*
X216895238Y-184926430D02*
X216933333Y-184964525D01*
X216933333Y-184964525D02*
X216971428Y-185040716D01*
X216971428Y-185040716D02*
X216971428Y-185116906D01*
X216971428Y-185116906D02*
X216933333Y-185231192D01*
X216933333Y-185231192D02*
X216476190Y-185688335D01*
X216476190Y-185688335D02*
X216971428Y-185688335D01*
X199866667Y-180982144D02*
X199828571Y-181020240D01*
X199828571Y-181020240D02*
X199714286Y-181058335D01*
X199714286Y-181058335D02*
X199638095Y-181058335D01*
X199638095Y-181058335D02*
X199523809Y-181020240D01*
X199523809Y-181020240D02*
X199447619Y-180944049D01*
X199447619Y-180944049D02*
X199409524Y-180867859D01*
X199409524Y-180867859D02*
X199371428Y-180715478D01*
X199371428Y-180715478D02*
X199371428Y-180601192D01*
X199371428Y-180601192D02*
X199409524Y-180448811D01*
X199409524Y-180448811D02*
X199447619Y-180372620D01*
X199447619Y-180372620D02*
X199523809Y-180296430D01*
X199523809Y-180296430D02*
X199638095Y-180258335D01*
X199638095Y-180258335D02*
X199714286Y-180258335D01*
X199714286Y-180258335D02*
X199828571Y-180296430D01*
X199828571Y-180296430D02*
X199866667Y-180334525D01*
X200552381Y-180525001D02*
X200552381Y-181058335D01*
X200361905Y-180220240D02*
X200171428Y-180791668D01*
X200171428Y-180791668D02*
X200666667Y-180791668D01*
X128485714Y-116732144D02*
X128447618Y-116770240D01*
X128447618Y-116770240D02*
X128333333Y-116808335D01*
X128333333Y-116808335D02*
X128257142Y-116808335D01*
X128257142Y-116808335D02*
X128142856Y-116770240D01*
X128142856Y-116770240D02*
X128066666Y-116694049D01*
X128066666Y-116694049D02*
X128028571Y-116617859D01*
X128028571Y-116617859D02*
X127990475Y-116465478D01*
X127990475Y-116465478D02*
X127990475Y-116351192D01*
X127990475Y-116351192D02*
X128028571Y-116198811D01*
X128028571Y-116198811D02*
X128066666Y-116122620D01*
X128066666Y-116122620D02*
X128142856Y-116046430D01*
X128142856Y-116046430D02*
X128257142Y-116008335D01*
X128257142Y-116008335D02*
X128333333Y-116008335D01*
X128333333Y-116008335D02*
X128447618Y-116046430D01*
X128447618Y-116046430D02*
X128485714Y-116084525D01*
X129171428Y-116275001D02*
X129171428Y-116808335D01*
X128980952Y-115970240D02*
X128790475Y-116541668D01*
X128790475Y-116541668D02*
X129285714Y-116541668D01*
X129742857Y-116008335D02*
X129819047Y-116008335D01*
X129819047Y-116008335D02*
X129895238Y-116046430D01*
X129895238Y-116046430D02*
X129933333Y-116084525D01*
X129933333Y-116084525D02*
X129971428Y-116160716D01*
X129971428Y-116160716D02*
X130009523Y-116313097D01*
X130009523Y-116313097D02*
X130009523Y-116503573D01*
X130009523Y-116503573D02*
X129971428Y-116655954D01*
X129971428Y-116655954D02*
X129933333Y-116732144D01*
X129933333Y-116732144D02*
X129895238Y-116770240D01*
X129895238Y-116770240D02*
X129819047Y-116808335D01*
X129819047Y-116808335D02*
X129742857Y-116808335D01*
X129742857Y-116808335D02*
X129666666Y-116770240D01*
X129666666Y-116770240D02*
X129628571Y-116732144D01*
X129628571Y-116732144D02*
X129590476Y-116655954D01*
X129590476Y-116655954D02*
X129552380Y-116503573D01*
X129552380Y-116503573D02*
X129552380Y-116313097D01*
X129552380Y-116313097D02*
X129590476Y-116160716D01*
X129590476Y-116160716D02*
X129628571Y-116084525D01*
X129628571Y-116084525D02*
X129666666Y-116046430D01*
X129666666Y-116046430D02*
X129742857Y-116008335D01*
X128619048Y-141407382D02*
X128619048Y-141788335D01*
X128352381Y-140988335D02*
X128619048Y-141407382D01*
X128619048Y-141407382D02*
X128885714Y-140988335D01*
X129114285Y-141064525D02*
X129152381Y-141026430D01*
X129152381Y-141026430D02*
X129228571Y-140988335D01*
X129228571Y-140988335D02*
X129419047Y-140988335D01*
X129419047Y-140988335D02*
X129495238Y-141026430D01*
X129495238Y-141026430D02*
X129533333Y-141064525D01*
X129533333Y-141064525D02*
X129571428Y-141140716D01*
X129571428Y-141140716D02*
X129571428Y-141216906D01*
X129571428Y-141216906D02*
X129533333Y-141331192D01*
X129533333Y-141331192D02*
X129076190Y-141788335D01*
X129076190Y-141788335D02*
X129571428Y-141788335D01*
X142514167Y-178062144D02*
X142476071Y-178100240D01*
X142476071Y-178100240D02*
X142361786Y-178138335D01*
X142361786Y-178138335D02*
X142285595Y-178138335D01*
X142285595Y-178138335D02*
X142171309Y-178100240D01*
X142171309Y-178100240D02*
X142095119Y-178024049D01*
X142095119Y-178024049D02*
X142057024Y-177947859D01*
X142057024Y-177947859D02*
X142018928Y-177795478D01*
X142018928Y-177795478D02*
X142018928Y-177681192D01*
X142018928Y-177681192D02*
X142057024Y-177528811D01*
X142057024Y-177528811D02*
X142095119Y-177452620D01*
X142095119Y-177452620D02*
X142171309Y-177376430D01*
X142171309Y-177376430D02*
X142285595Y-177338335D01*
X142285595Y-177338335D02*
X142361786Y-177338335D01*
X142361786Y-177338335D02*
X142476071Y-177376430D01*
X142476071Y-177376430D02*
X142514167Y-177414525D01*
X143276071Y-178138335D02*
X142818928Y-178138335D01*
X143047500Y-178138335D02*
X143047500Y-177338335D01*
X143047500Y-177338335D02*
X142971309Y-177452620D01*
X142971309Y-177452620D02*
X142895119Y-177528811D01*
X142895119Y-177528811D02*
X142818928Y-177566906D01*
X106863333Y-125608335D02*
X106863333Y-126179763D01*
X106863333Y-126179763D02*
X106825238Y-126294049D01*
X106825238Y-126294049D02*
X106749047Y-126370240D01*
X106749047Y-126370240D02*
X106634762Y-126408335D01*
X106634762Y-126408335D02*
X106558571Y-126408335D01*
X107587143Y-125875001D02*
X107587143Y-126408335D01*
X107396667Y-125570240D02*
X107206190Y-126141668D01*
X107206190Y-126141668D02*
X107701429Y-126141668D01*
X179485714Y-139732144D02*
X179447618Y-139770240D01*
X179447618Y-139770240D02*
X179333333Y-139808335D01*
X179333333Y-139808335D02*
X179257142Y-139808335D01*
X179257142Y-139808335D02*
X179142856Y-139770240D01*
X179142856Y-139770240D02*
X179066666Y-139694049D01*
X179066666Y-139694049D02*
X179028571Y-139617859D01*
X179028571Y-139617859D02*
X178990475Y-139465478D01*
X178990475Y-139465478D02*
X178990475Y-139351192D01*
X178990475Y-139351192D02*
X179028571Y-139198811D01*
X179028571Y-139198811D02*
X179066666Y-139122620D01*
X179066666Y-139122620D02*
X179142856Y-139046430D01*
X179142856Y-139046430D02*
X179257142Y-139008335D01*
X179257142Y-139008335D02*
X179333333Y-139008335D01*
X179333333Y-139008335D02*
X179447618Y-139046430D01*
X179447618Y-139046430D02*
X179485714Y-139084525D01*
X179790475Y-139084525D02*
X179828571Y-139046430D01*
X179828571Y-139046430D02*
X179904761Y-139008335D01*
X179904761Y-139008335D02*
X180095237Y-139008335D01*
X180095237Y-139008335D02*
X180171428Y-139046430D01*
X180171428Y-139046430D02*
X180209523Y-139084525D01*
X180209523Y-139084525D02*
X180247618Y-139160716D01*
X180247618Y-139160716D02*
X180247618Y-139236906D01*
X180247618Y-139236906D02*
X180209523Y-139351192D01*
X180209523Y-139351192D02*
X179752380Y-139808335D01*
X179752380Y-139808335D02*
X180247618Y-139808335D01*
X180628571Y-139808335D02*
X180780952Y-139808335D01*
X180780952Y-139808335D02*
X180857142Y-139770240D01*
X180857142Y-139770240D02*
X180895238Y-139732144D01*
X180895238Y-139732144D02*
X180971428Y-139617859D01*
X180971428Y-139617859D02*
X181009523Y-139465478D01*
X181009523Y-139465478D02*
X181009523Y-139160716D01*
X181009523Y-139160716D02*
X180971428Y-139084525D01*
X180971428Y-139084525D02*
X180933333Y-139046430D01*
X180933333Y-139046430D02*
X180857142Y-139008335D01*
X180857142Y-139008335D02*
X180704761Y-139008335D01*
X180704761Y-139008335D02*
X180628571Y-139046430D01*
X180628571Y-139046430D02*
X180590476Y-139084525D01*
X180590476Y-139084525D02*
X180552380Y-139160716D01*
X180552380Y-139160716D02*
X180552380Y-139351192D01*
X180552380Y-139351192D02*
X180590476Y-139427382D01*
X180590476Y-139427382D02*
X180628571Y-139465478D01*
X180628571Y-139465478D02*
X180704761Y-139503573D01*
X180704761Y-139503573D02*
X180857142Y-139503573D01*
X180857142Y-139503573D02*
X180933333Y-139465478D01*
X180933333Y-139465478D02*
X180971428Y-139427382D01*
X180971428Y-139427382D02*
X181009523Y-139351192D01*
X122485714Y-130058335D02*
X122219047Y-129677382D01*
X122028571Y-130058335D02*
X122028571Y-129258335D01*
X122028571Y-129258335D02*
X122333333Y-129258335D01*
X122333333Y-129258335D02*
X122409523Y-129296430D01*
X122409523Y-129296430D02*
X122447618Y-129334525D01*
X122447618Y-129334525D02*
X122485714Y-129410716D01*
X122485714Y-129410716D02*
X122485714Y-129525001D01*
X122485714Y-129525001D02*
X122447618Y-129601192D01*
X122447618Y-129601192D02*
X122409523Y-129639287D01*
X122409523Y-129639287D02*
X122333333Y-129677382D01*
X122333333Y-129677382D02*
X122028571Y-129677382D01*
X123247618Y-130058335D02*
X122790475Y-130058335D01*
X123019047Y-130058335D02*
X123019047Y-129258335D01*
X123019047Y-129258335D02*
X122942856Y-129372620D01*
X122942856Y-129372620D02*
X122866666Y-129448811D01*
X122866666Y-129448811D02*
X122790475Y-129486906D01*
X123628571Y-130058335D02*
X123780952Y-130058335D01*
X123780952Y-130058335D02*
X123857142Y-130020240D01*
X123857142Y-130020240D02*
X123895238Y-129982144D01*
X123895238Y-129982144D02*
X123971428Y-129867859D01*
X123971428Y-129867859D02*
X124009523Y-129715478D01*
X124009523Y-129715478D02*
X124009523Y-129410716D01*
X124009523Y-129410716D02*
X123971428Y-129334525D01*
X123971428Y-129334525D02*
X123933333Y-129296430D01*
X123933333Y-129296430D02*
X123857142Y-129258335D01*
X123857142Y-129258335D02*
X123704761Y-129258335D01*
X123704761Y-129258335D02*
X123628571Y-129296430D01*
X123628571Y-129296430D02*
X123590476Y-129334525D01*
X123590476Y-129334525D02*
X123552380Y-129410716D01*
X123552380Y-129410716D02*
X123552380Y-129601192D01*
X123552380Y-129601192D02*
X123590476Y-129677382D01*
X123590476Y-129677382D02*
X123628571Y-129715478D01*
X123628571Y-129715478D02*
X123704761Y-129753573D01*
X123704761Y-129753573D02*
X123857142Y-129753573D01*
X123857142Y-129753573D02*
X123933333Y-129715478D01*
X123933333Y-129715478D02*
X123971428Y-129677382D01*
X123971428Y-129677382D02*
X124009523Y-129601192D01*
X163866667Y-114058335D02*
X163600000Y-113677382D01*
X163409524Y-114058335D02*
X163409524Y-113258335D01*
X163409524Y-113258335D02*
X163714286Y-113258335D01*
X163714286Y-113258335D02*
X163790476Y-113296430D01*
X163790476Y-113296430D02*
X163828571Y-113334525D01*
X163828571Y-113334525D02*
X163866667Y-113410716D01*
X163866667Y-113410716D02*
X163866667Y-113525001D01*
X163866667Y-113525001D02*
X163828571Y-113601192D01*
X163828571Y-113601192D02*
X163790476Y-113639287D01*
X163790476Y-113639287D02*
X163714286Y-113677382D01*
X163714286Y-113677382D02*
X163409524Y-113677382D01*
X164552381Y-113258335D02*
X164400000Y-113258335D01*
X164400000Y-113258335D02*
X164323809Y-113296430D01*
X164323809Y-113296430D02*
X164285714Y-113334525D01*
X164285714Y-113334525D02*
X164209524Y-113448811D01*
X164209524Y-113448811D02*
X164171428Y-113601192D01*
X164171428Y-113601192D02*
X164171428Y-113905954D01*
X164171428Y-113905954D02*
X164209524Y-113982144D01*
X164209524Y-113982144D02*
X164247619Y-114020240D01*
X164247619Y-114020240D02*
X164323809Y-114058335D01*
X164323809Y-114058335D02*
X164476190Y-114058335D01*
X164476190Y-114058335D02*
X164552381Y-114020240D01*
X164552381Y-114020240D02*
X164590476Y-113982144D01*
X164590476Y-113982144D02*
X164628571Y-113905954D01*
X164628571Y-113905954D02*
X164628571Y-113715478D01*
X164628571Y-113715478D02*
X164590476Y-113639287D01*
X164590476Y-113639287D02*
X164552381Y-113601192D01*
X164552381Y-113601192D02*
X164476190Y-113563097D01*
X164476190Y-113563097D02*
X164323809Y-113563097D01*
X164323809Y-113563097D02*
X164247619Y-113601192D01*
X164247619Y-113601192D02*
X164209524Y-113639287D01*
X164209524Y-113639287D02*
X164171428Y-113715478D01*
X122485714Y-135058335D02*
X122219047Y-134677382D01*
X122028571Y-135058335D02*
X122028571Y-134258335D01*
X122028571Y-134258335D02*
X122333333Y-134258335D01*
X122333333Y-134258335D02*
X122409523Y-134296430D01*
X122409523Y-134296430D02*
X122447618Y-134334525D01*
X122447618Y-134334525D02*
X122485714Y-134410716D01*
X122485714Y-134410716D02*
X122485714Y-134525001D01*
X122485714Y-134525001D02*
X122447618Y-134601192D01*
X122447618Y-134601192D02*
X122409523Y-134639287D01*
X122409523Y-134639287D02*
X122333333Y-134677382D01*
X122333333Y-134677382D02*
X122028571Y-134677382D01*
X122790475Y-134334525D02*
X122828571Y-134296430D01*
X122828571Y-134296430D02*
X122904761Y-134258335D01*
X122904761Y-134258335D02*
X123095237Y-134258335D01*
X123095237Y-134258335D02*
X123171428Y-134296430D01*
X123171428Y-134296430D02*
X123209523Y-134334525D01*
X123209523Y-134334525D02*
X123247618Y-134410716D01*
X123247618Y-134410716D02*
X123247618Y-134486906D01*
X123247618Y-134486906D02*
X123209523Y-134601192D01*
X123209523Y-134601192D02*
X122752380Y-135058335D01*
X122752380Y-135058335D02*
X123247618Y-135058335D01*
X123742857Y-134258335D02*
X123819047Y-134258335D01*
X123819047Y-134258335D02*
X123895238Y-134296430D01*
X123895238Y-134296430D02*
X123933333Y-134334525D01*
X123933333Y-134334525D02*
X123971428Y-134410716D01*
X123971428Y-134410716D02*
X124009523Y-134563097D01*
X124009523Y-134563097D02*
X124009523Y-134753573D01*
X124009523Y-134753573D02*
X123971428Y-134905954D01*
X123971428Y-134905954D02*
X123933333Y-134982144D01*
X123933333Y-134982144D02*
X123895238Y-135020240D01*
X123895238Y-135020240D02*
X123819047Y-135058335D01*
X123819047Y-135058335D02*
X123742857Y-135058335D01*
X123742857Y-135058335D02*
X123666666Y-135020240D01*
X123666666Y-135020240D02*
X123628571Y-134982144D01*
X123628571Y-134982144D02*
X123590476Y-134905954D01*
X123590476Y-134905954D02*
X123552380Y-134753573D01*
X123552380Y-134753573D02*
X123552380Y-134563097D01*
X123552380Y-134563097D02*
X123590476Y-134410716D01*
X123590476Y-134410716D02*
X123628571Y-134334525D01*
X123628571Y-134334525D02*
X123666666Y-134296430D01*
X123666666Y-134296430D02*
X123742857Y-134258335D01*
X155866667Y-114058335D02*
X155600000Y-113677382D01*
X155409524Y-114058335D02*
X155409524Y-113258335D01*
X155409524Y-113258335D02*
X155714286Y-113258335D01*
X155714286Y-113258335D02*
X155790476Y-113296430D01*
X155790476Y-113296430D02*
X155828571Y-113334525D01*
X155828571Y-113334525D02*
X155866667Y-113410716D01*
X155866667Y-113410716D02*
X155866667Y-113525001D01*
X155866667Y-113525001D02*
X155828571Y-113601192D01*
X155828571Y-113601192D02*
X155790476Y-113639287D01*
X155790476Y-113639287D02*
X155714286Y-113677382D01*
X155714286Y-113677382D02*
X155409524Y-113677382D01*
X156552381Y-113525001D02*
X156552381Y-114058335D01*
X156361905Y-113220240D02*
X156171428Y-113791668D01*
X156171428Y-113791668D02*
X156666667Y-113791668D01*
X104390476Y-101088335D02*
X104390476Y-100288335D01*
X104390476Y-100669287D02*
X104847619Y-100669287D01*
X104847619Y-101088335D02*
X104847619Y-100288335D01*
X105647618Y-101088335D02*
X105190475Y-101088335D01*
X105419047Y-101088335D02*
X105419047Y-100288335D01*
X105419047Y-100288335D02*
X105342856Y-100402620D01*
X105342856Y-100402620D02*
X105266666Y-100478811D01*
X105266666Y-100478811D02*
X105190475Y-100516906D01*
X221058664Y-102068335D02*
X221058664Y-102639763D01*
X221058664Y-102639763D02*
X221020569Y-102754049D01*
X221020569Y-102754049D02*
X220944378Y-102830240D01*
X220944378Y-102830240D02*
X220830093Y-102868335D01*
X220830093Y-102868335D02*
X220753902Y-102868335D01*
X221820569Y-102068335D02*
X221439617Y-102068335D01*
X221439617Y-102068335D02*
X221401521Y-102449287D01*
X221401521Y-102449287D02*
X221439617Y-102411192D01*
X221439617Y-102411192D02*
X221515807Y-102373097D01*
X221515807Y-102373097D02*
X221706283Y-102373097D01*
X221706283Y-102373097D02*
X221782474Y-102411192D01*
X221782474Y-102411192D02*
X221820569Y-102449287D01*
X221820569Y-102449287D02*
X221858664Y-102525478D01*
X221858664Y-102525478D02*
X221858664Y-102715954D01*
X221858664Y-102715954D02*
X221820569Y-102792144D01*
X221820569Y-102792144D02*
X221782474Y-102830240D01*
X221782474Y-102830240D02*
X221706283Y-102868335D01*
X221706283Y-102868335D02*
X221515807Y-102868335D01*
X221515807Y-102868335D02*
X221439617Y-102830240D01*
X221439617Y-102830240D02*
X221401521Y-102792144D01*
X177485714Y-121982144D02*
X177447618Y-122020240D01*
X177447618Y-122020240D02*
X177333333Y-122058335D01*
X177333333Y-122058335D02*
X177257142Y-122058335D01*
X177257142Y-122058335D02*
X177142856Y-122020240D01*
X177142856Y-122020240D02*
X177066666Y-121944049D01*
X177066666Y-121944049D02*
X177028571Y-121867859D01*
X177028571Y-121867859D02*
X176990475Y-121715478D01*
X176990475Y-121715478D02*
X176990475Y-121601192D01*
X176990475Y-121601192D02*
X177028571Y-121448811D01*
X177028571Y-121448811D02*
X177066666Y-121372620D01*
X177066666Y-121372620D02*
X177142856Y-121296430D01*
X177142856Y-121296430D02*
X177257142Y-121258335D01*
X177257142Y-121258335D02*
X177333333Y-121258335D01*
X177333333Y-121258335D02*
X177447618Y-121296430D01*
X177447618Y-121296430D02*
X177485714Y-121334525D01*
X177752380Y-121258335D02*
X178247618Y-121258335D01*
X178247618Y-121258335D02*
X177980952Y-121563097D01*
X177980952Y-121563097D02*
X178095237Y-121563097D01*
X178095237Y-121563097D02*
X178171428Y-121601192D01*
X178171428Y-121601192D02*
X178209523Y-121639287D01*
X178209523Y-121639287D02*
X178247618Y-121715478D01*
X178247618Y-121715478D02*
X178247618Y-121905954D01*
X178247618Y-121905954D02*
X178209523Y-121982144D01*
X178209523Y-121982144D02*
X178171428Y-122020240D01*
X178171428Y-122020240D02*
X178095237Y-122058335D01*
X178095237Y-122058335D02*
X177866666Y-122058335D01*
X177866666Y-122058335D02*
X177790475Y-122020240D01*
X177790475Y-122020240D02*
X177752380Y-121982144D01*
X179009523Y-122058335D02*
X178552380Y-122058335D01*
X178780952Y-122058335D02*
X178780952Y-121258335D01*
X178780952Y-121258335D02*
X178704761Y-121372620D01*
X178704761Y-121372620D02*
X178628571Y-121448811D01*
X178628571Y-121448811D02*
X178552380Y-121486906D01*
X171485714Y-112732144D02*
X171447618Y-112770240D01*
X171447618Y-112770240D02*
X171333333Y-112808335D01*
X171333333Y-112808335D02*
X171257142Y-112808335D01*
X171257142Y-112808335D02*
X171142856Y-112770240D01*
X171142856Y-112770240D02*
X171066666Y-112694049D01*
X171066666Y-112694049D02*
X171028571Y-112617859D01*
X171028571Y-112617859D02*
X170990475Y-112465478D01*
X170990475Y-112465478D02*
X170990475Y-112351192D01*
X170990475Y-112351192D02*
X171028571Y-112198811D01*
X171028571Y-112198811D02*
X171066666Y-112122620D01*
X171066666Y-112122620D02*
X171142856Y-112046430D01*
X171142856Y-112046430D02*
X171257142Y-112008335D01*
X171257142Y-112008335D02*
X171333333Y-112008335D01*
X171333333Y-112008335D02*
X171447618Y-112046430D01*
X171447618Y-112046430D02*
X171485714Y-112084525D01*
X171752380Y-112008335D02*
X172247618Y-112008335D01*
X172247618Y-112008335D02*
X171980952Y-112313097D01*
X171980952Y-112313097D02*
X172095237Y-112313097D01*
X172095237Y-112313097D02*
X172171428Y-112351192D01*
X172171428Y-112351192D02*
X172209523Y-112389287D01*
X172209523Y-112389287D02*
X172247618Y-112465478D01*
X172247618Y-112465478D02*
X172247618Y-112655954D01*
X172247618Y-112655954D02*
X172209523Y-112732144D01*
X172209523Y-112732144D02*
X172171428Y-112770240D01*
X172171428Y-112770240D02*
X172095237Y-112808335D01*
X172095237Y-112808335D02*
X171866666Y-112808335D01*
X171866666Y-112808335D02*
X171790475Y-112770240D01*
X171790475Y-112770240D02*
X171752380Y-112732144D01*
X172933333Y-112275001D02*
X172933333Y-112808335D01*
X172742857Y-111970240D02*
X172552380Y-112541668D01*
X172552380Y-112541668D02*
X173047619Y-112541668D01*
X144813333Y-103968335D02*
X144813333Y-104539763D01*
X144813333Y-104539763D02*
X144775238Y-104654049D01*
X144775238Y-104654049D02*
X144699047Y-104730240D01*
X144699047Y-104730240D02*
X144584762Y-104768335D01*
X144584762Y-104768335D02*
X144508571Y-104768335D01*
X145156190Y-104044525D02*
X145194286Y-104006430D01*
X145194286Y-104006430D02*
X145270476Y-103968335D01*
X145270476Y-103968335D02*
X145460952Y-103968335D01*
X145460952Y-103968335D02*
X145537143Y-104006430D01*
X145537143Y-104006430D02*
X145575238Y-104044525D01*
X145575238Y-104044525D02*
X145613333Y-104120716D01*
X145613333Y-104120716D02*
X145613333Y-104196906D01*
X145613333Y-104196906D02*
X145575238Y-104311192D01*
X145575238Y-104311192D02*
X145118095Y-104768335D01*
X145118095Y-104768335D02*
X145613333Y-104768335D01*
X109485714Y-145882144D02*
X109447618Y-145920240D01*
X109447618Y-145920240D02*
X109333333Y-145958335D01*
X109333333Y-145958335D02*
X109257142Y-145958335D01*
X109257142Y-145958335D02*
X109142856Y-145920240D01*
X109142856Y-145920240D02*
X109066666Y-145844049D01*
X109066666Y-145844049D02*
X109028571Y-145767859D01*
X109028571Y-145767859D02*
X108990475Y-145615478D01*
X108990475Y-145615478D02*
X108990475Y-145501192D01*
X108990475Y-145501192D02*
X109028571Y-145348811D01*
X109028571Y-145348811D02*
X109066666Y-145272620D01*
X109066666Y-145272620D02*
X109142856Y-145196430D01*
X109142856Y-145196430D02*
X109257142Y-145158335D01*
X109257142Y-145158335D02*
X109333333Y-145158335D01*
X109333333Y-145158335D02*
X109447618Y-145196430D01*
X109447618Y-145196430D02*
X109485714Y-145234525D01*
X109790475Y-145234525D02*
X109828571Y-145196430D01*
X109828571Y-145196430D02*
X109904761Y-145158335D01*
X109904761Y-145158335D02*
X110095237Y-145158335D01*
X110095237Y-145158335D02*
X110171428Y-145196430D01*
X110171428Y-145196430D02*
X110209523Y-145234525D01*
X110209523Y-145234525D02*
X110247618Y-145310716D01*
X110247618Y-145310716D02*
X110247618Y-145386906D01*
X110247618Y-145386906D02*
X110209523Y-145501192D01*
X110209523Y-145501192D02*
X109752380Y-145958335D01*
X109752380Y-145958335D02*
X110247618Y-145958335D01*
X110933333Y-145158335D02*
X110780952Y-145158335D01*
X110780952Y-145158335D02*
X110704761Y-145196430D01*
X110704761Y-145196430D02*
X110666666Y-145234525D01*
X110666666Y-145234525D02*
X110590476Y-145348811D01*
X110590476Y-145348811D02*
X110552380Y-145501192D01*
X110552380Y-145501192D02*
X110552380Y-145805954D01*
X110552380Y-145805954D02*
X110590476Y-145882144D01*
X110590476Y-145882144D02*
X110628571Y-145920240D01*
X110628571Y-145920240D02*
X110704761Y-145958335D01*
X110704761Y-145958335D02*
X110857142Y-145958335D01*
X110857142Y-145958335D02*
X110933333Y-145920240D01*
X110933333Y-145920240D02*
X110971428Y-145882144D01*
X110971428Y-145882144D02*
X111009523Y-145805954D01*
X111009523Y-145805954D02*
X111009523Y-145615478D01*
X111009523Y-145615478D02*
X110971428Y-145539287D01*
X110971428Y-145539287D02*
X110933333Y-145501192D01*
X110933333Y-145501192D02*
X110857142Y-145463097D01*
X110857142Y-145463097D02*
X110704761Y-145463097D01*
X110704761Y-145463097D02*
X110628571Y-145501192D01*
X110628571Y-145501192D02*
X110590476Y-145539287D01*
X110590476Y-145539287D02*
X110552380Y-145615478D01*
X174485714Y-122058335D02*
X174219047Y-121677382D01*
X174028571Y-122058335D02*
X174028571Y-121258335D01*
X174028571Y-121258335D02*
X174333333Y-121258335D01*
X174333333Y-121258335D02*
X174409523Y-121296430D01*
X174409523Y-121296430D02*
X174447618Y-121334525D01*
X174447618Y-121334525D02*
X174485714Y-121410716D01*
X174485714Y-121410716D02*
X174485714Y-121525001D01*
X174485714Y-121525001D02*
X174447618Y-121601192D01*
X174447618Y-121601192D02*
X174409523Y-121639287D01*
X174409523Y-121639287D02*
X174333333Y-121677382D01*
X174333333Y-121677382D02*
X174028571Y-121677382D01*
X174790475Y-121334525D02*
X174828571Y-121296430D01*
X174828571Y-121296430D02*
X174904761Y-121258335D01*
X174904761Y-121258335D02*
X175095237Y-121258335D01*
X175095237Y-121258335D02*
X175171428Y-121296430D01*
X175171428Y-121296430D02*
X175209523Y-121334525D01*
X175209523Y-121334525D02*
X175247618Y-121410716D01*
X175247618Y-121410716D02*
X175247618Y-121486906D01*
X175247618Y-121486906D02*
X175209523Y-121601192D01*
X175209523Y-121601192D02*
X174752380Y-122058335D01*
X174752380Y-122058335D02*
X175247618Y-122058335D01*
X176009523Y-122058335D02*
X175552380Y-122058335D01*
X175780952Y-122058335D02*
X175780952Y-121258335D01*
X175780952Y-121258335D02*
X175704761Y-121372620D01*
X175704761Y-121372620D02*
X175628571Y-121448811D01*
X175628571Y-121448811D02*
X175552380Y-121486906D01*
X131342024Y-179188335D02*
X131342024Y-178388335D01*
X131342024Y-178388335D02*
X131532500Y-178388335D01*
X131532500Y-178388335D02*
X131646786Y-178426430D01*
X131646786Y-178426430D02*
X131722976Y-178502620D01*
X131722976Y-178502620D02*
X131761071Y-178578811D01*
X131761071Y-178578811D02*
X131799167Y-178731192D01*
X131799167Y-178731192D02*
X131799167Y-178845478D01*
X131799167Y-178845478D02*
X131761071Y-178997859D01*
X131761071Y-178997859D02*
X131722976Y-179074049D01*
X131722976Y-179074049D02*
X131646786Y-179150240D01*
X131646786Y-179150240D02*
X131532500Y-179188335D01*
X131532500Y-179188335D02*
X131342024Y-179188335D01*
X132561071Y-179188335D02*
X132103928Y-179188335D01*
X132332500Y-179188335D02*
X132332500Y-178388335D01*
X132332500Y-178388335D02*
X132256309Y-178502620D01*
X132256309Y-178502620D02*
X132180119Y-178578811D01*
X132180119Y-178578811D02*
X132103928Y-178616906D01*
X123485714Y-140058335D02*
X123219047Y-139677382D01*
X123028571Y-140058335D02*
X123028571Y-139258335D01*
X123028571Y-139258335D02*
X123333333Y-139258335D01*
X123333333Y-139258335D02*
X123409523Y-139296430D01*
X123409523Y-139296430D02*
X123447618Y-139334525D01*
X123447618Y-139334525D02*
X123485714Y-139410716D01*
X123485714Y-139410716D02*
X123485714Y-139525001D01*
X123485714Y-139525001D02*
X123447618Y-139601192D01*
X123447618Y-139601192D02*
X123409523Y-139639287D01*
X123409523Y-139639287D02*
X123333333Y-139677382D01*
X123333333Y-139677382D02*
X123028571Y-139677382D01*
X124247618Y-140058335D02*
X123790475Y-140058335D01*
X124019047Y-140058335D02*
X124019047Y-139258335D01*
X124019047Y-139258335D02*
X123942856Y-139372620D01*
X123942856Y-139372620D02*
X123866666Y-139448811D01*
X123866666Y-139448811D02*
X123790475Y-139486906D01*
X124971428Y-139258335D02*
X124590476Y-139258335D01*
X124590476Y-139258335D02*
X124552380Y-139639287D01*
X124552380Y-139639287D02*
X124590476Y-139601192D01*
X124590476Y-139601192D02*
X124666666Y-139563097D01*
X124666666Y-139563097D02*
X124857142Y-139563097D01*
X124857142Y-139563097D02*
X124933333Y-139601192D01*
X124933333Y-139601192D02*
X124971428Y-139639287D01*
X124971428Y-139639287D02*
X125009523Y-139715478D01*
X125009523Y-139715478D02*
X125009523Y-139905954D01*
X125009523Y-139905954D02*
X124971428Y-139982144D01*
X124971428Y-139982144D02*
X124933333Y-140020240D01*
X124933333Y-140020240D02*
X124857142Y-140058335D01*
X124857142Y-140058335D02*
X124666666Y-140058335D01*
X124666666Y-140058335D02*
X124590476Y-140020240D01*
X124590476Y-140020240D02*
X124552380Y-139982144D01*
X196195476Y-165218335D02*
X196195476Y-165865954D01*
X196195476Y-165865954D02*
X196233571Y-165942144D01*
X196233571Y-165942144D02*
X196271666Y-165980240D01*
X196271666Y-165980240D02*
X196347857Y-166018335D01*
X196347857Y-166018335D02*
X196500238Y-166018335D01*
X196500238Y-166018335D02*
X196576428Y-165980240D01*
X196576428Y-165980240D02*
X196614523Y-165942144D01*
X196614523Y-165942144D02*
X196652619Y-165865954D01*
X196652619Y-165865954D02*
X196652619Y-165218335D01*
X197147856Y-165561192D02*
X197071666Y-165523097D01*
X197071666Y-165523097D02*
X197033571Y-165485001D01*
X197033571Y-165485001D02*
X196995475Y-165408811D01*
X196995475Y-165408811D02*
X196995475Y-165370716D01*
X196995475Y-165370716D02*
X197033571Y-165294525D01*
X197033571Y-165294525D02*
X197071666Y-165256430D01*
X197071666Y-165256430D02*
X197147856Y-165218335D01*
X197147856Y-165218335D02*
X197300237Y-165218335D01*
X197300237Y-165218335D02*
X197376428Y-165256430D01*
X197376428Y-165256430D02*
X197414523Y-165294525D01*
X197414523Y-165294525D02*
X197452618Y-165370716D01*
X197452618Y-165370716D02*
X197452618Y-165408811D01*
X197452618Y-165408811D02*
X197414523Y-165485001D01*
X197414523Y-165485001D02*
X197376428Y-165523097D01*
X197376428Y-165523097D02*
X197300237Y-165561192D01*
X197300237Y-165561192D02*
X197147856Y-165561192D01*
X197147856Y-165561192D02*
X197071666Y-165599287D01*
X197071666Y-165599287D02*
X197033571Y-165637382D01*
X197033571Y-165637382D02*
X196995475Y-165713573D01*
X196995475Y-165713573D02*
X196995475Y-165865954D01*
X196995475Y-165865954D02*
X197033571Y-165942144D01*
X197033571Y-165942144D02*
X197071666Y-165980240D01*
X197071666Y-165980240D02*
X197147856Y-166018335D01*
X197147856Y-166018335D02*
X197300237Y-166018335D01*
X197300237Y-166018335D02*
X197376428Y-165980240D01*
X197376428Y-165980240D02*
X197414523Y-165942144D01*
X197414523Y-165942144D02*
X197452618Y-165865954D01*
X197452618Y-165865954D02*
X197452618Y-165713573D01*
X197452618Y-165713573D02*
X197414523Y-165637382D01*
X197414523Y-165637382D02*
X197376428Y-165599287D01*
X197376428Y-165599287D02*
X197300237Y-165561192D01*
X141485714Y-118732144D02*
X141447618Y-118770240D01*
X141447618Y-118770240D02*
X141333333Y-118808335D01*
X141333333Y-118808335D02*
X141257142Y-118808335D01*
X141257142Y-118808335D02*
X141142856Y-118770240D01*
X141142856Y-118770240D02*
X141066666Y-118694049D01*
X141066666Y-118694049D02*
X141028571Y-118617859D01*
X141028571Y-118617859D02*
X140990475Y-118465478D01*
X140990475Y-118465478D02*
X140990475Y-118351192D01*
X140990475Y-118351192D02*
X141028571Y-118198811D01*
X141028571Y-118198811D02*
X141066666Y-118122620D01*
X141066666Y-118122620D02*
X141142856Y-118046430D01*
X141142856Y-118046430D02*
X141257142Y-118008335D01*
X141257142Y-118008335D02*
X141333333Y-118008335D01*
X141333333Y-118008335D02*
X141447618Y-118046430D01*
X141447618Y-118046430D02*
X141485714Y-118084525D01*
X142247618Y-118808335D02*
X141790475Y-118808335D01*
X142019047Y-118808335D02*
X142019047Y-118008335D01*
X142019047Y-118008335D02*
X141942856Y-118122620D01*
X141942856Y-118122620D02*
X141866666Y-118198811D01*
X141866666Y-118198811D02*
X141790475Y-118236906D01*
X142971428Y-118008335D02*
X142590476Y-118008335D01*
X142590476Y-118008335D02*
X142552380Y-118389287D01*
X142552380Y-118389287D02*
X142590476Y-118351192D01*
X142590476Y-118351192D02*
X142666666Y-118313097D01*
X142666666Y-118313097D02*
X142857142Y-118313097D01*
X142857142Y-118313097D02*
X142933333Y-118351192D01*
X142933333Y-118351192D02*
X142971428Y-118389287D01*
X142971428Y-118389287D02*
X143009523Y-118465478D01*
X143009523Y-118465478D02*
X143009523Y-118655954D01*
X143009523Y-118655954D02*
X142971428Y-118732144D01*
X142971428Y-118732144D02*
X142933333Y-118770240D01*
X142933333Y-118770240D02*
X142857142Y-118808335D01*
X142857142Y-118808335D02*
X142666666Y-118808335D01*
X142666666Y-118808335D02*
X142590476Y-118770240D01*
X142590476Y-118770240D02*
X142552380Y-118732144D01*
X151866667Y-114058335D02*
X151600000Y-113677382D01*
X151409524Y-114058335D02*
X151409524Y-113258335D01*
X151409524Y-113258335D02*
X151714286Y-113258335D01*
X151714286Y-113258335D02*
X151790476Y-113296430D01*
X151790476Y-113296430D02*
X151828571Y-113334525D01*
X151828571Y-113334525D02*
X151866667Y-113410716D01*
X151866667Y-113410716D02*
X151866667Y-113525001D01*
X151866667Y-113525001D02*
X151828571Y-113601192D01*
X151828571Y-113601192D02*
X151790476Y-113639287D01*
X151790476Y-113639287D02*
X151714286Y-113677382D01*
X151714286Y-113677382D02*
X151409524Y-113677382D01*
X152133333Y-113258335D02*
X152628571Y-113258335D01*
X152628571Y-113258335D02*
X152361905Y-113563097D01*
X152361905Y-113563097D02*
X152476190Y-113563097D01*
X152476190Y-113563097D02*
X152552381Y-113601192D01*
X152552381Y-113601192D02*
X152590476Y-113639287D01*
X152590476Y-113639287D02*
X152628571Y-113715478D01*
X152628571Y-113715478D02*
X152628571Y-113905954D01*
X152628571Y-113905954D02*
X152590476Y-113982144D01*
X152590476Y-113982144D02*
X152552381Y-114020240D01*
X152552381Y-114020240D02*
X152476190Y-114058335D01*
X152476190Y-114058335D02*
X152247619Y-114058335D01*
X152247619Y-114058335D02*
X152171428Y-114020240D01*
X152171428Y-114020240D02*
X152133333Y-113982144D01*
X181485714Y-112482144D02*
X181447618Y-112520240D01*
X181447618Y-112520240D02*
X181333333Y-112558335D01*
X181333333Y-112558335D02*
X181257142Y-112558335D01*
X181257142Y-112558335D02*
X181142856Y-112520240D01*
X181142856Y-112520240D02*
X181066666Y-112444049D01*
X181066666Y-112444049D02*
X181028571Y-112367859D01*
X181028571Y-112367859D02*
X180990475Y-112215478D01*
X180990475Y-112215478D02*
X180990475Y-112101192D01*
X180990475Y-112101192D02*
X181028571Y-111948811D01*
X181028571Y-111948811D02*
X181066666Y-111872620D01*
X181066666Y-111872620D02*
X181142856Y-111796430D01*
X181142856Y-111796430D02*
X181257142Y-111758335D01*
X181257142Y-111758335D02*
X181333333Y-111758335D01*
X181333333Y-111758335D02*
X181447618Y-111796430D01*
X181447618Y-111796430D02*
X181485714Y-111834525D01*
X181752380Y-111758335D02*
X182247618Y-111758335D01*
X182247618Y-111758335D02*
X181980952Y-112063097D01*
X181980952Y-112063097D02*
X182095237Y-112063097D01*
X182095237Y-112063097D02*
X182171428Y-112101192D01*
X182171428Y-112101192D02*
X182209523Y-112139287D01*
X182209523Y-112139287D02*
X182247618Y-112215478D01*
X182247618Y-112215478D02*
X182247618Y-112405954D01*
X182247618Y-112405954D02*
X182209523Y-112482144D01*
X182209523Y-112482144D02*
X182171428Y-112520240D01*
X182171428Y-112520240D02*
X182095237Y-112558335D01*
X182095237Y-112558335D02*
X181866666Y-112558335D01*
X181866666Y-112558335D02*
X181790475Y-112520240D01*
X181790475Y-112520240D02*
X181752380Y-112482144D01*
X182933333Y-111758335D02*
X182780952Y-111758335D01*
X182780952Y-111758335D02*
X182704761Y-111796430D01*
X182704761Y-111796430D02*
X182666666Y-111834525D01*
X182666666Y-111834525D02*
X182590476Y-111948811D01*
X182590476Y-111948811D02*
X182552380Y-112101192D01*
X182552380Y-112101192D02*
X182552380Y-112405954D01*
X182552380Y-112405954D02*
X182590476Y-112482144D01*
X182590476Y-112482144D02*
X182628571Y-112520240D01*
X182628571Y-112520240D02*
X182704761Y-112558335D01*
X182704761Y-112558335D02*
X182857142Y-112558335D01*
X182857142Y-112558335D02*
X182933333Y-112520240D01*
X182933333Y-112520240D02*
X182971428Y-112482144D01*
X182971428Y-112482144D02*
X183009523Y-112405954D01*
X183009523Y-112405954D02*
X183009523Y-112215478D01*
X183009523Y-112215478D02*
X182971428Y-112139287D01*
X182971428Y-112139287D02*
X182933333Y-112101192D01*
X182933333Y-112101192D02*
X182857142Y-112063097D01*
X182857142Y-112063097D02*
X182704761Y-112063097D01*
X182704761Y-112063097D02*
X182628571Y-112101192D01*
X182628571Y-112101192D02*
X182590476Y-112139287D01*
X182590476Y-112139287D02*
X182552380Y-112215478D01*
X122055714Y-120058335D02*
X121789047Y-119677382D01*
X121598571Y-120058335D02*
X121598571Y-119258335D01*
X121598571Y-119258335D02*
X121903333Y-119258335D01*
X121903333Y-119258335D02*
X121979523Y-119296430D01*
X121979523Y-119296430D02*
X122017618Y-119334525D01*
X122017618Y-119334525D02*
X122055714Y-119410716D01*
X122055714Y-119410716D02*
X122055714Y-119525001D01*
X122055714Y-119525001D02*
X122017618Y-119601192D01*
X122017618Y-119601192D02*
X121979523Y-119639287D01*
X121979523Y-119639287D02*
X121903333Y-119677382D01*
X121903333Y-119677382D02*
X121598571Y-119677382D01*
X122817618Y-120058335D02*
X122360475Y-120058335D01*
X122589047Y-120058335D02*
X122589047Y-119258335D01*
X122589047Y-119258335D02*
X122512856Y-119372620D01*
X122512856Y-119372620D02*
X122436666Y-119448811D01*
X122436666Y-119448811D02*
X122360475Y-119486906D01*
X123084285Y-119258335D02*
X123617619Y-119258335D01*
X123617619Y-119258335D02*
X123274761Y-120058335D01*
X123915714Y-124058335D02*
X123649047Y-123677382D01*
X123458571Y-124058335D02*
X123458571Y-123258335D01*
X123458571Y-123258335D02*
X123763333Y-123258335D01*
X123763333Y-123258335D02*
X123839523Y-123296430D01*
X123839523Y-123296430D02*
X123877618Y-123334525D01*
X123877618Y-123334525D02*
X123915714Y-123410716D01*
X123915714Y-123410716D02*
X123915714Y-123525001D01*
X123915714Y-123525001D02*
X123877618Y-123601192D01*
X123877618Y-123601192D02*
X123839523Y-123639287D01*
X123839523Y-123639287D02*
X123763333Y-123677382D01*
X123763333Y-123677382D02*
X123458571Y-123677382D01*
X124677618Y-124058335D02*
X124220475Y-124058335D01*
X124449047Y-124058335D02*
X124449047Y-123258335D01*
X124449047Y-123258335D02*
X124372856Y-123372620D01*
X124372856Y-123372620D02*
X124296666Y-123448811D01*
X124296666Y-123448811D02*
X124220475Y-123486906D01*
X125439523Y-124058335D02*
X124982380Y-124058335D01*
X125210952Y-124058335D02*
X125210952Y-123258335D01*
X125210952Y-123258335D02*
X125134761Y-123372620D01*
X125134761Y-123372620D02*
X125058571Y-123448811D01*
X125058571Y-123448811D02*
X124982380Y-123486906D01*
X206390476Y-176450835D02*
X206390476Y-177098454D01*
X206390476Y-177098454D02*
X206428571Y-177174644D01*
X206428571Y-177174644D02*
X206466666Y-177212740D01*
X206466666Y-177212740D02*
X206542857Y-177250835D01*
X206542857Y-177250835D02*
X206695238Y-177250835D01*
X206695238Y-177250835D02*
X206771428Y-177212740D01*
X206771428Y-177212740D02*
X206809523Y-177174644D01*
X206809523Y-177174644D02*
X206847619Y-177098454D01*
X206847619Y-177098454D02*
X206847619Y-176450835D01*
X207190475Y-176527025D02*
X207228571Y-176488930D01*
X207228571Y-176488930D02*
X207304761Y-176450835D01*
X207304761Y-176450835D02*
X207495237Y-176450835D01*
X207495237Y-176450835D02*
X207571428Y-176488930D01*
X207571428Y-176488930D02*
X207609523Y-176527025D01*
X207609523Y-176527025D02*
X207647618Y-176603216D01*
X207647618Y-176603216D02*
X207647618Y-176679406D01*
X207647618Y-176679406D02*
X207609523Y-176793692D01*
X207609523Y-176793692D02*
X207152380Y-177250835D01*
X207152380Y-177250835D02*
X207647618Y-177250835D01*
X185485714Y-167058335D02*
X185219047Y-166677382D01*
X185028571Y-167058335D02*
X185028571Y-166258335D01*
X185028571Y-166258335D02*
X185333333Y-166258335D01*
X185333333Y-166258335D02*
X185409523Y-166296430D01*
X185409523Y-166296430D02*
X185447618Y-166334525D01*
X185447618Y-166334525D02*
X185485714Y-166410716D01*
X185485714Y-166410716D02*
X185485714Y-166525001D01*
X185485714Y-166525001D02*
X185447618Y-166601192D01*
X185447618Y-166601192D02*
X185409523Y-166639287D01*
X185409523Y-166639287D02*
X185333333Y-166677382D01*
X185333333Y-166677382D02*
X185028571Y-166677382D01*
X185752380Y-166258335D02*
X186247618Y-166258335D01*
X186247618Y-166258335D02*
X185980952Y-166563097D01*
X185980952Y-166563097D02*
X186095237Y-166563097D01*
X186095237Y-166563097D02*
X186171428Y-166601192D01*
X186171428Y-166601192D02*
X186209523Y-166639287D01*
X186209523Y-166639287D02*
X186247618Y-166715478D01*
X186247618Y-166715478D02*
X186247618Y-166905954D01*
X186247618Y-166905954D02*
X186209523Y-166982144D01*
X186209523Y-166982144D02*
X186171428Y-167020240D01*
X186171428Y-167020240D02*
X186095237Y-167058335D01*
X186095237Y-167058335D02*
X185866666Y-167058335D01*
X185866666Y-167058335D02*
X185790475Y-167020240D01*
X185790475Y-167020240D02*
X185752380Y-166982144D01*
X186552380Y-166334525D02*
X186590476Y-166296430D01*
X186590476Y-166296430D02*
X186666666Y-166258335D01*
X186666666Y-166258335D02*
X186857142Y-166258335D01*
X186857142Y-166258335D02*
X186933333Y-166296430D01*
X186933333Y-166296430D02*
X186971428Y-166334525D01*
X186971428Y-166334525D02*
X187009523Y-166410716D01*
X187009523Y-166410716D02*
X187009523Y-166486906D01*
X187009523Y-166486906D02*
X186971428Y-166601192D01*
X186971428Y-166601192D02*
X186514285Y-167058335D01*
X186514285Y-167058335D02*
X187009523Y-167058335D01*
X110389524Y-171768335D02*
X110389524Y-170968335D01*
X110389524Y-170968335D02*
X110580000Y-170968335D01*
X110580000Y-170968335D02*
X110694286Y-171006430D01*
X110694286Y-171006430D02*
X110770476Y-171082620D01*
X110770476Y-171082620D02*
X110808571Y-171158811D01*
X110808571Y-171158811D02*
X110846667Y-171311192D01*
X110846667Y-171311192D02*
X110846667Y-171425478D01*
X110846667Y-171425478D02*
X110808571Y-171577859D01*
X110808571Y-171577859D02*
X110770476Y-171654049D01*
X110770476Y-171654049D02*
X110694286Y-171730240D01*
X110694286Y-171730240D02*
X110580000Y-171768335D01*
X110580000Y-171768335D02*
X110389524Y-171768335D01*
X111532381Y-171235001D02*
X111532381Y-171768335D01*
X111341905Y-170930240D02*
X111151428Y-171501668D01*
X111151428Y-171501668D02*
X111646667Y-171501668D01*
X195390476Y-99688335D02*
X195390476Y-98888335D01*
X195390476Y-99269287D02*
X195847619Y-99269287D01*
X195847619Y-99688335D02*
X195847619Y-98888335D01*
X196190475Y-98964525D02*
X196228571Y-98926430D01*
X196228571Y-98926430D02*
X196304761Y-98888335D01*
X196304761Y-98888335D02*
X196495237Y-98888335D01*
X196495237Y-98888335D02*
X196571428Y-98926430D01*
X196571428Y-98926430D02*
X196609523Y-98964525D01*
X196609523Y-98964525D02*
X196647618Y-99040716D01*
X196647618Y-99040716D02*
X196647618Y-99116906D01*
X196647618Y-99116906D02*
X196609523Y-99231192D01*
X196609523Y-99231192D02*
X196152380Y-99688335D01*
X196152380Y-99688335D02*
X196647618Y-99688335D01*
X176485714Y-112732144D02*
X176447618Y-112770240D01*
X176447618Y-112770240D02*
X176333333Y-112808335D01*
X176333333Y-112808335D02*
X176257142Y-112808335D01*
X176257142Y-112808335D02*
X176142856Y-112770240D01*
X176142856Y-112770240D02*
X176066666Y-112694049D01*
X176066666Y-112694049D02*
X176028571Y-112617859D01*
X176028571Y-112617859D02*
X175990475Y-112465478D01*
X175990475Y-112465478D02*
X175990475Y-112351192D01*
X175990475Y-112351192D02*
X176028571Y-112198811D01*
X176028571Y-112198811D02*
X176066666Y-112122620D01*
X176066666Y-112122620D02*
X176142856Y-112046430D01*
X176142856Y-112046430D02*
X176257142Y-112008335D01*
X176257142Y-112008335D02*
X176333333Y-112008335D01*
X176333333Y-112008335D02*
X176447618Y-112046430D01*
X176447618Y-112046430D02*
X176485714Y-112084525D01*
X176752380Y-112008335D02*
X177247618Y-112008335D01*
X177247618Y-112008335D02*
X176980952Y-112313097D01*
X176980952Y-112313097D02*
X177095237Y-112313097D01*
X177095237Y-112313097D02*
X177171428Y-112351192D01*
X177171428Y-112351192D02*
X177209523Y-112389287D01*
X177209523Y-112389287D02*
X177247618Y-112465478D01*
X177247618Y-112465478D02*
X177247618Y-112655954D01*
X177247618Y-112655954D02*
X177209523Y-112732144D01*
X177209523Y-112732144D02*
X177171428Y-112770240D01*
X177171428Y-112770240D02*
X177095237Y-112808335D01*
X177095237Y-112808335D02*
X176866666Y-112808335D01*
X176866666Y-112808335D02*
X176790475Y-112770240D01*
X176790475Y-112770240D02*
X176752380Y-112732144D01*
X177971428Y-112008335D02*
X177590476Y-112008335D01*
X177590476Y-112008335D02*
X177552380Y-112389287D01*
X177552380Y-112389287D02*
X177590476Y-112351192D01*
X177590476Y-112351192D02*
X177666666Y-112313097D01*
X177666666Y-112313097D02*
X177857142Y-112313097D01*
X177857142Y-112313097D02*
X177933333Y-112351192D01*
X177933333Y-112351192D02*
X177971428Y-112389287D01*
X177971428Y-112389287D02*
X178009523Y-112465478D01*
X178009523Y-112465478D02*
X178009523Y-112655954D01*
X178009523Y-112655954D02*
X177971428Y-112732144D01*
X177971428Y-112732144D02*
X177933333Y-112770240D01*
X177933333Y-112770240D02*
X177857142Y-112808335D01*
X177857142Y-112808335D02*
X177666666Y-112808335D01*
X177666666Y-112808335D02*
X177590476Y-112770240D01*
X177590476Y-112770240D02*
X177552380Y-112732144D01*
X150485714Y-147732144D02*
X150447618Y-147770240D01*
X150447618Y-147770240D02*
X150333333Y-147808335D01*
X150333333Y-147808335D02*
X150257142Y-147808335D01*
X150257142Y-147808335D02*
X150142856Y-147770240D01*
X150142856Y-147770240D02*
X150066666Y-147694049D01*
X150066666Y-147694049D02*
X150028571Y-147617859D01*
X150028571Y-147617859D02*
X149990475Y-147465478D01*
X149990475Y-147465478D02*
X149990475Y-147351192D01*
X149990475Y-147351192D02*
X150028571Y-147198811D01*
X150028571Y-147198811D02*
X150066666Y-147122620D01*
X150066666Y-147122620D02*
X150142856Y-147046430D01*
X150142856Y-147046430D02*
X150257142Y-147008335D01*
X150257142Y-147008335D02*
X150333333Y-147008335D01*
X150333333Y-147008335D02*
X150447618Y-147046430D01*
X150447618Y-147046430D02*
X150485714Y-147084525D01*
X151247618Y-147808335D02*
X150790475Y-147808335D01*
X151019047Y-147808335D02*
X151019047Y-147008335D01*
X151019047Y-147008335D02*
X150942856Y-147122620D01*
X150942856Y-147122620D02*
X150866666Y-147198811D01*
X150866666Y-147198811D02*
X150790475Y-147236906D01*
X152009523Y-147808335D02*
X151552380Y-147808335D01*
X151780952Y-147808335D02*
X151780952Y-147008335D01*
X151780952Y-147008335D02*
X151704761Y-147122620D01*
X151704761Y-147122620D02*
X151628571Y-147198811D01*
X151628571Y-147198811D02*
X151552380Y-147236906D01*
X219866667Y-180762144D02*
X219828571Y-180800240D01*
X219828571Y-180800240D02*
X219714286Y-180838335D01*
X219714286Y-180838335D02*
X219638095Y-180838335D01*
X219638095Y-180838335D02*
X219523809Y-180800240D01*
X219523809Y-180800240D02*
X219447619Y-180724049D01*
X219447619Y-180724049D02*
X219409524Y-180647859D01*
X219409524Y-180647859D02*
X219371428Y-180495478D01*
X219371428Y-180495478D02*
X219371428Y-180381192D01*
X219371428Y-180381192D02*
X219409524Y-180228811D01*
X219409524Y-180228811D02*
X219447619Y-180152620D01*
X219447619Y-180152620D02*
X219523809Y-180076430D01*
X219523809Y-180076430D02*
X219638095Y-180038335D01*
X219638095Y-180038335D02*
X219714286Y-180038335D01*
X219714286Y-180038335D02*
X219828571Y-180076430D01*
X219828571Y-180076430D02*
X219866667Y-180114525D01*
X220133333Y-180038335D02*
X220666667Y-180038335D01*
X220666667Y-180038335D02*
X220323809Y-180838335D01*
X170782024Y-186538335D02*
X170782024Y-185738335D01*
X170782024Y-185738335D02*
X170972500Y-185738335D01*
X170972500Y-185738335D02*
X171086786Y-185776430D01*
X171086786Y-185776430D02*
X171162976Y-185852620D01*
X171162976Y-185852620D02*
X171201071Y-185928811D01*
X171201071Y-185928811D02*
X171239167Y-186081192D01*
X171239167Y-186081192D02*
X171239167Y-186195478D01*
X171239167Y-186195478D02*
X171201071Y-186347859D01*
X171201071Y-186347859D02*
X171162976Y-186424049D01*
X171162976Y-186424049D02*
X171086786Y-186500240D01*
X171086786Y-186500240D02*
X170972500Y-186538335D01*
X170972500Y-186538335D02*
X170782024Y-186538335D01*
X171505833Y-185738335D02*
X172001071Y-185738335D01*
X172001071Y-185738335D02*
X171734405Y-186043097D01*
X171734405Y-186043097D02*
X171848690Y-186043097D01*
X171848690Y-186043097D02*
X171924881Y-186081192D01*
X171924881Y-186081192D02*
X171962976Y-186119287D01*
X171962976Y-186119287D02*
X172001071Y-186195478D01*
X172001071Y-186195478D02*
X172001071Y-186385954D01*
X172001071Y-186385954D02*
X171962976Y-186462144D01*
X171962976Y-186462144D02*
X171924881Y-186500240D01*
X171924881Y-186500240D02*
X171848690Y-186538335D01*
X171848690Y-186538335D02*
X171620119Y-186538335D01*
X171620119Y-186538335D02*
X171543928Y-186500240D01*
X171543928Y-186500240D02*
X171505833Y-186462144D01*
X202916667Y-173374644D02*
X202878571Y-173412740D01*
X202878571Y-173412740D02*
X202764286Y-173450835D01*
X202764286Y-173450835D02*
X202688095Y-173450835D01*
X202688095Y-173450835D02*
X202573809Y-173412740D01*
X202573809Y-173412740D02*
X202497619Y-173336549D01*
X202497619Y-173336549D02*
X202459524Y-173260359D01*
X202459524Y-173260359D02*
X202421428Y-173107978D01*
X202421428Y-173107978D02*
X202421428Y-172993692D01*
X202421428Y-172993692D02*
X202459524Y-172841311D01*
X202459524Y-172841311D02*
X202497619Y-172765120D01*
X202497619Y-172765120D02*
X202573809Y-172688930D01*
X202573809Y-172688930D02*
X202688095Y-172650835D01*
X202688095Y-172650835D02*
X202764286Y-172650835D01*
X202764286Y-172650835D02*
X202878571Y-172688930D01*
X202878571Y-172688930D02*
X202916667Y-172727025D01*
X203640476Y-172650835D02*
X203259524Y-172650835D01*
X203259524Y-172650835D02*
X203221428Y-173031787D01*
X203221428Y-173031787D02*
X203259524Y-172993692D01*
X203259524Y-172993692D02*
X203335714Y-172955597D01*
X203335714Y-172955597D02*
X203526190Y-172955597D01*
X203526190Y-172955597D02*
X203602381Y-172993692D01*
X203602381Y-172993692D02*
X203640476Y-173031787D01*
X203640476Y-173031787D02*
X203678571Y-173107978D01*
X203678571Y-173107978D02*
X203678571Y-173298454D01*
X203678571Y-173298454D02*
X203640476Y-173374644D01*
X203640476Y-173374644D02*
X203602381Y-173412740D01*
X203602381Y-173412740D02*
X203526190Y-173450835D01*
X203526190Y-173450835D02*
X203335714Y-173450835D01*
X203335714Y-173450835D02*
X203259524Y-173412740D01*
X203259524Y-173412740D02*
X203221428Y-173374644D01*
X187985714Y-107058335D02*
X187719047Y-106677382D01*
X187528571Y-107058335D02*
X187528571Y-106258335D01*
X187528571Y-106258335D02*
X187833333Y-106258335D01*
X187833333Y-106258335D02*
X187909523Y-106296430D01*
X187909523Y-106296430D02*
X187947618Y-106334525D01*
X187947618Y-106334525D02*
X187985714Y-106410716D01*
X187985714Y-106410716D02*
X187985714Y-106525001D01*
X187985714Y-106525001D02*
X187947618Y-106601192D01*
X187947618Y-106601192D02*
X187909523Y-106639287D01*
X187909523Y-106639287D02*
X187833333Y-106677382D01*
X187833333Y-106677382D02*
X187528571Y-106677382D01*
X188290475Y-106334525D02*
X188328571Y-106296430D01*
X188328571Y-106296430D02*
X188404761Y-106258335D01*
X188404761Y-106258335D02*
X188595237Y-106258335D01*
X188595237Y-106258335D02*
X188671428Y-106296430D01*
X188671428Y-106296430D02*
X188709523Y-106334525D01*
X188709523Y-106334525D02*
X188747618Y-106410716D01*
X188747618Y-106410716D02*
X188747618Y-106486906D01*
X188747618Y-106486906D02*
X188709523Y-106601192D01*
X188709523Y-106601192D02*
X188252380Y-107058335D01*
X188252380Y-107058335D02*
X188747618Y-107058335D01*
X189014285Y-106258335D02*
X189509523Y-106258335D01*
X189509523Y-106258335D02*
X189242857Y-106563097D01*
X189242857Y-106563097D02*
X189357142Y-106563097D01*
X189357142Y-106563097D02*
X189433333Y-106601192D01*
X189433333Y-106601192D02*
X189471428Y-106639287D01*
X189471428Y-106639287D02*
X189509523Y-106715478D01*
X189509523Y-106715478D02*
X189509523Y-106905954D01*
X189509523Y-106905954D02*
X189471428Y-106982144D01*
X189471428Y-106982144D02*
X189433333Y-107020240D01*
X189433333Y-107020240D02*
X189357142Y-107058335D01*
X189357142Y-107058335D02*
X189128571Y-107058335D01*
X189128571Y-107058335D02*
X189052380Y-107020240D01*
X189052380Y-107020240D02*
X189014285Y-106982144D01*
X187985714Y-112058335D02*
X187719047Y-111677382D01*
X187528571Y-112058335D02*
X187528571Y-111258335D01*
X187528571Y-111258335D02*
X187833333Y-111258335D01*
X187833333Y-111258335D02*
X187909523Y-111296430D01*
X187909523Y-111296430D02*
X187947618Y-111334525D01*
X187947618Y-111334525D02*
X187985714Y-111410716D01*
X187985714Y-111410716D02*
X187985714Y-111525001D01*
X187985714Y-111525001D02*
X187947618Y-111601192D01*
X187947618Y-111601192D02*
X187909523Y-111639287D01*
X187909523Y-111639287D02*
X187833333Y-111677382D01*
X187833333Y-111677382D02*
X187528571Y-111677382D01*
X188290475Y-111334525D02*
X188328571Y-111296430D01*
X188328571Y-111296430D02*
X188404761Y-111258335D01*
X188404761Y-111258335D02*
X188595237Y-111258335D01*
X188595237Y-111258335D02*
X188671428Y-111296430D01*
X188671428Y-111296430D02*
X188709523Y-111334525D01*
X188709523Y-111334525D02*
X188747618Y-111410716D01*
X188747618Y-111410716D02*
X188747618Y-111486906D01*
X188747618Y-111486906D02*
X188709523Y-111601192D01*
X188709523Y-111601192D02*
X188252380Y-112058335D01*
X188252380Y-112058335D02*
X188747618Y-112058335D01*
X189433333Y-111525001D02*
X189433333Y-112058335D01*
X189242857Y-111220240D02*
X189052380Y-111791668D01*
X189052380Y-111791668D02*
X189547619Y-111791668D01*
X187985714Y-131058335D02*
X187719047Y-130677382D01*
X187528571Y-131058335D02*
X187528571Y-130258335D01*
X187528571Y-130258335D02*
X187833333Y-130258335D01*
X187833333Y-130258335D02*
X187909523Y-130296430D01*
X187909523Y-130296430D02*
X187947618Y-130334525D01*
X187947618Y-130334525D02*
X187985714Y-130410716D01*
X187985714Y-130410716D02*
X187985714Y-130525001D01*
X187985714Y-130525001D02*
X187947618Y-130601192D01*
X187947618Y-130601192D02*
X187909523Y-130639287D01*
X187909523Y-130639287D02*
X187833333Y-130677382D01*
X187833333Y-130677382D02*
X187528571Y-130677382D01*
X188290475Y-130334525D02*
X188328571Y-130296430D01*
X188328571Y-130296430D02*
X188404761Y-130258335D01*
X188404761Y-130258335D02*
X188595237Y-130258335D01*
X188595237Y-130258335D02*
X188671428Y-130296430D01*
X188671428Y-130296430D02*
X188709523Y-130334525D01*
X188709523Y-130334525D02*
X188747618Y-130410716D01*
X188747618Y-130410716D02*
X188747618Y-130486906D01*
X188747618Y-130486906D02*
X188709523Y-130601192D01*
X188709523Y-130601192D02*
X188252380Y-131058335D01*
X188252380Y-131058335D02*
X188747618Y-131058335D01*
X189204761Y-130601192D02*
X189128571Y-130563097D01*
X189128571Y-130563097D02*
X189090476Y-130525001D01*
X189090476Y-130525001D02*
X189052380Y-130448811D01*
X189052380Y-130448811D02*
X189052380Y-130410716D01*
X189052380Y-130410716D02*
X189090476Y-130334525D01*
X189090476Y-130334525D02*
X189128571Y-130296430D01*
X189128571Y-130296430D02*
X189204761Y-130258335D01*
X189204761Y-130258335D02*
X189357142Y-130258335D01*
X189357142Y-130258335D02*
X189433333Y-130296430D01*
X189433333Y-130296430D02*
X189471428Y-130334525D01*
X189471428Y-130334525D02*
X189509523Y-130410716D01*
X189509523Y-130410716D02*
X189509523Y-130448811D01*
X189509523Y-130448811D02*
X189471428Y-130525001D01*
X189471428Y-130525001D02*
X189433333Y-130563097D01*
X189433333Y-130563097D02*
X189357142Y-130601192D01*
X189357142Y-130601192D02*
X189204761Y-130601192D01*
X189204761Y-130601192D02*
X189128571Y-130639287D01*
X189128571Y-130639287D02*
X189090476Y-130677382D01*
X189090476Y-130677382D02*
X189052380Y-130753573D01*
X189052380Y-130753573D02*
X189052380Y-130905954D01*
X189052380Y-130905954D02*
X189090476Y-130982144D01*
X189090476Y-130982144D02*
X189128571Y-131020240D01*
X189128571Y-131020240D02*
X189204761Y-131058335D01*
X189204761Y-131058335D02*
X189357142Y-131058335D01*
X189357142Y-131058335D02*
X189433333Y-131020240D01*
X189433333Y-131020240D02*
X189471428Y-130982144D01*
X189471428Y-130982144D02*
X189509523Y-130905954D01*
X189509523Y-130905954D02*
X189509523Y-130753573D01*
X189509523Y-130753573D02*
X189471428Y-130677382D01*
X189471428Y-130677382D02*
X189433333Y-130639287D01*
X189433333Y-130639287D02*
X189357142Y-130601192D01*
X117768333Y-179839287D02*
X117501667Y-179839287D01*
X117501667Y-180258335D02*
X117501667Y-179458335D01*
X117501667Y-179458335D02*
X117882619Y-179458335D01*
X118606428Y-180258335D02*
X118149285Y-180258335D01*
X118377857Y-180258335D02*
X118377857Y-179458335D01*
X118377857Y-179458335D02*
X118301666Y-179572620D01*
X118301666Y-179572620D02*
X118225476Y-179648811D01*
X118225476Y-179648811D02*
X118149285Y-179686906D01*
X104390476Y-186088335D02*
X104390476Y-185288335D01*
X104390476Y-185669287D02*
X104847619Y-185669287D01*
X104847619Y-186088335D02*
X104847619Y-185288335D01*
X105152380Y-185288335D02*
X105647618Y-185288335D01*
X105647618Y-185288335D02*
X105380952Y-185593097D01*
X105380952Y-185593097D02*
X105495237Y-185593097D01*
X105495237Y-185593097D02*
X105571428Y-185631192D01*
X105571428Y-185631192D02*
X105609523Y-185669287D01*
X105609523Y-185669287D02*
X105647618Y-185745478D01*
X105647618Y-185745478D02*
X105647618Y-185935954D01*
X105647618Y-185935954D02*
X105609523Y-186012144D01*
X105609523Y-186012144D02*
X105571428Y-186050240D01*
X105571428Y-186050240D02*
X105495237Y-186088335D01*
X105495237Y-186088335D02*
X105266666Y-186088335D01*
X105266666Y-186088335D02*
X105190475Y-186050240D01*
X105190475Y-186050240D02*
X105152380Y-186012144D01*
X187985714Y-144058335D02*
X187719047Y-143677382D01*
X187528571Y-144058335D02*
X187528571Y-143258335D01*
X187528571Y-143258335D02*
X187833333Y-143258335D01*
X187833333Y-143258335D02*
X187909523Y-143296430D01*
X187909523Y-143296430D02*
X187947618Y-143334525D01*
X187947618Y-143334525D02*
X187985714Y-143410716D01*
X187985714Y-143410716D02*
X187985714Y-143525001D01*
X187985714Y-143525001D02*
X187947618Y-143601192D01*
X187947618Y-143601192D02*
X187909523Y-143639287D01*
X187909523Y-143639287D02*
X187833333Y-143677382D01*
X187833333Y-143677382D02*
X187528571Y-143677382D01*
X188252380Y-143258335D02*
X188747618Y-143258335D01*
X188747618Y-143258335D02*
X188480952Y-143563097D01*
X188480952Y-143563097D02*
X188595237Y-143563097D01*
X188595237Y-143563097D02*
X188671428Y-143601192D01*
X188671428Y-143601192D02*
X188709523Y-143639287D01*
X188709523Y-143639287D02*
X188747618Y-143715478D01*
X188747618Y-143715478D02*
X188747618Y-143905954D01*
X188747618Y-143905954D02*
X188709523Y-143982144D01*
X188709523Y-143982144D02*
X188671428Y-144020240D01*
X188671428Y-144020240D02*
X188595237Y-144058335D01*
X188595237Y-144058335D02*
X188366666Y-144058335D01*
X188366666Y-144058335D02*
X188290475Y-144020240D01*
X188290475Y-144020240D02*
X188252380Y-143982144D01*
X189242857Y-143258335D02*
X189319047Y-143258335D01*
X189319047Y-143258335D02*
X189395238Y-143296430D01*
X189395238Y-143296430D02*
X189433333Y-143334525D01*
X189433333Y-143334525D02*
X189471428Y-143410716D01*
X189471428Y-143410716D02*
X189509523Y-143563097D01*
X189509523Y-143563097D02*
X189509523Y-143753573D01*
X189509523Y-143753573D02*
X189471428Y-143905954D01*
X189471428Y-143905954D02*
X189433333Y-143982144D01*
X189433333Y-143982144D02*
X189395238Y-144020240D01*
X189395238Y-144020240D02*
X189319047Y-144058335D01*
X189319047Y-144058335D02*
X189242857Y-144058335D01*
X189242857Y-144058335D02*
X189166666Y-144020240D01*
X189166666Y-144020240D02*
X189128571Y-143982144D01*
X189128571Y-143982144D02*
X189090476Y-143905954D01*
X189090476Y-143905954D02*
X189052380Y-143753573D01*
X189052380Y-143753573D02*
X189052380Y-143563097D01*
X189052380Y-143563097D02*
X189090476Y-143410716D01*
X189090476Y-143410716D02*
X189128571Y-143334525D01*
X189128571Y-143334525D02*
X189166666Y-143296430D01*
X189166666Y-143296430D02*
X189242857Y-143258335D01*
X185485714Y-157058335D02*
X185219047Y-156677382D01*
X185028571Y-157058335D02*
X185028571Y-156258335D01*
X185028571Y-156258335D02*
X185333333Y-156258335D01*
X185333333Y-156258335D02*
X185409523Y-156296430D01*
X185409523Y-156296430D02*
X185447618Y-156334525D01*
X185447618Y-156334525D02*
X185485714Y-156410716D01*
X185485714Y-156410716D02*
X185485714Y-156525001D01*
X185485714Y-156525001D02*
X185447618Y-156601192D01*
X185447618Y-156601192D02*
X185409523Y-156639287D01*
X185409523Y-156639287D02*
X185333333Y-156677382D01*
X185333333Y-156677382D02*
X185028571Y-156677382D01*
X185790475Y-156334525D02*
X185828571Y-156296430D01*
X185828571Y-156296430D02*
X185904761Y-156258335D01*
X185904761Y-156258335D02*
X186095237Y-156258335D01*
X186095237Y-156258335D02*
X186171428Y-156296430D01*
X186171428Y-156296430D02*
X186209523Y-156334525D01*
X186209523Y-156334525D02*
X186247618Y-156410716D01*
X186247618Y-156410716D02*
X186247618Y-156486906D01*
X186247618Y-156486906D02*
X186209523Y-156601192D01*
X186209523Y-156601192D02*
X185752380Y-157058335D01*
X185752380Y-157058335D02*
X186247618Y-157058335D01*
X186514285Y-156258335D02*
X187047619Y-156258335D01*
X187047619Y-156258335D02*
X186704761Y-157058335D01*
X180485714Y-122058335D02*
X180219047Y-121677382D01*
X180028571Y-122058335D02*
X180028571Y-121258335D01*
X180028571Y-121258335D02*
X180333333Y-121258335D01*
X180333333Y-121258335D02*
X180409523Y-121296430D01*
X180409523Y-121296430D02*
X180447618Y-121334525D01*
X180447618Y-121334525D02*
X180485714Y-121410716D01*
X180485714Y-121410716D02*
X180485714Y-121525001D01*
X180485714Y-121525001D02*
X180447618Y-121601192D01*
X180447618Y-121601192D02*
X180409523Y-121639287D01*
X180409523Y-121639287D02*
X180333333Y-121677382D01*
X180333333Y-121677382D02*
X180028571Y-121677382D01*
X180790475Y-121334525D02*
X180828571Y-121296430D01*
X180828571Y-121296430D02*
X180904761Y-121258335D01*
X180904761Y-121258335D02*
X181095237Y-121258335D01*
X181095237Y-121258335D02*
X181171428Y-121296430D01*
X181171428Y-121296430D02*
X181209523Y-121334525D01*
X181209523Y-121334525D02*
X181247618Y-121410716D01*
X181247618Y-121410716D02*
X181247618Y-121486906D01*
X181247618Y-121486906D02*
X181209523Y-121601192D01*
X181209523Y-121601192D02*
X180752380Y-122058335D01*
X180752380Y-122058335D02*
X181247618Y-122058335D01*
X181552380Y-121334525D02*
X181590476Y-121296430D01*
X181590476Y-121296430D02*
X181666666Y-121258335D01*
X181666666Y-121258335D02*
X181857142Y-121258335D01*
X181857142Y-121258335D02*
X181933333Y-121296430D01*
X181933333Y-121296430D02*
X181971428Y-121334525D01*
X181971428Y-121334525D02*
X182009523Y-121410716D01*
X182009523Y-121410716D02*
X182009523Y-121486906D01*
X182009523Y-121486906D02*
X181971428Y-121601192D01*
X181971428Y-121601192D02*
X181514285Y-122058335D01*
X181514285Y-122058335D02*
X182009523Y-122058335D01*
X145619048Y-141407382D02*
X145619048Y-141788335D01*
X145352381Y-140988335D02*
X145619048Y-141407382D01*
X145619048Y-141407382D02*
X145885714Y-140988335D01*
X146571428Y-141788335D02*
X146114285Y-141788335D01*
X146342857Y-141788335D02*
X146342857Y-140988335D01*
X146342857Y-140988335D02*
X146266666Y-141102620D01*
X146266666Y-141102620D02*
X146190476Y-141178811D01*
X146190476Y-141178811D02*
X146114285Y-141216906D01*
X187985714Y-120058335D02*
X187719047Y-119677382D01*
X187528571Y-120058335D02*
X187528571Y-119258335D01*
X187528571Y-119258335D02*
X187833333Y-119258335D01*
X187833333Y-119258335D02*
X187909523Y-119296430D01*
X187909523Y-119296430D02*
X187947618Y-119334525D01*
X187947618Y-119334525D02*
X187985714Y-119410716D01*
X187985714Y-119410716D02*
X187985714Y-119525001D01*
X187985714Y-119525001D02*
X187947618Y-119601192D01*
X187947618Y-119601192D02*
X187909523Y-119639287D01*
X187909523Y-119639287D02*
X187833333Y-119677382D01*
X187833333Y-119677382D02*
X187528571Y-119677382D01*
X188290475Y-119334525D02*
X188328571Y-119296430D01*
X188328571Y-119296430D02*
X188404761Y-119258335D01*
X188404761Y-119258335D02*
X188595237Y-119258335D01*
X188595237Y-119258335D02*
X188671428Y-119296430D01*
X188671428Y-119296430D02*
X188709523Y-119334525D01*
X188709523Y-119334525D02*
X188747618Y-119410716D01*
X188747618Y-119410716D02*
X188747618Y-119486906D01*
X188747618Y-119486906D02*
X188709523Y-119601192D01*
X188709523Y-119601192D02*
X188252380Y-120058335D01*
X188252380Y-120058335D02*
X188747618Y-120058335D01*
X189471428Y-119258335D02*
X189090476Y-119258335D01*
X189090476Y-119258335D02*
X189052380Y-119639287D01*
X189052380Y-119639287D02*
X189090476Y-119601192D01*
X189090476Y-119601192D02*
X189166666Y-119563097D01*
X189166666Y-119563097D02*
X189357142Y-119563097D01*
X189357142Y-119563097D02*
X189433333Y-119601192D01*
X189433333Y-119601192D02*
X189471428Y-119639287D01*
X189471428Y-119639287D02*
X189509523Y-119715478D01*
X189509523Y-119715478D02*
X189509523Y-119905954D01*
X189509523Y-119905954D02*
X189471428Y-119982144D01*
X189471428Y-119982144D02*
X189433333Y-120020240D01*
X189433333Y-120020240D02*
X189357142Y-120058335D01*
X189357142Y-120058335D02*
X189166666Y-120058335D01*
X189166666Y-120058335D02*
X189090476Y-120020240D01*
X189090476Y-120020240D02*
X189052380Y-119982144D01*
X171485714Y-121982144D02*
X171447618Y-122020240D01*
X171447618Y-122020240D02*
X171333333Y-122058335D01*
X171333333Y-122058335D02*
X171257142Y-122058335D01*
X171257142Y-122058335D02*
X171142856Y-122020240D01*
X171142856Y-122020240D02*
X171066666Y-121944049D01*
X171066666Y-121944049D02*
X171028571Y-121867859D01*
X171028571Y-121867859D02*
X170990475Y-121715478D01*
X170990475Y-121715478D02*
X170990475Y-121601192D01*
X170990475Y-121601192D02*
X171028571Y-121448811D01*
X171028571Y-121448811D02*
X171066666Y-121372620D01*
X171066666Y-121372620D02*
X171142856Y-121296430D01*
X171142856Y-121296430D02*
X171257142Y-121258335D01*
X171257142Y-121258335D02*
X171333333Y-121258335D01*
X171333333Y-121258335D02*
X171447618Y-121296430D01*
X171447618Y-121296430D02*
X171485714Y-121334525D01*
X171752380Y-121258335D02*
X172247618Y-121258335D01*
X172247618Y-121258335D02*
X171980952Y-121563097D01*
X171980952Y-121563097D02*
X172095237Y-121563097D01*
X172095237Y-121563097D02*
X172171428Y-121601192D01*
X172171428Y-121601192D02*
X172209523Y-121639287D01*
X172209523Y-121639287D02*
X172247618Y-121715478D01*
X172247618Y-121715478D02*
X172247618Y-121905954D01*
X172247618Y-121905954D02*
X172209523Y-121982144D01*
X172209523Y-121982144D02*
X172171428Y-122020240D01*
X172171428Y-122020240D02*
X172095237Y-122058335D01*
X172095237Y-122058335D02*
X171866666Y-122058335D01*
X171866666Y-122058335D02*
X171790475Y-122020240D01*
X171790475Y-122020240D02*
X171752380Y-121982144D01*
X172742857Y-121258335D02*
X172819047Y-121258335D01*
X172819047Y-121258335D02*
X172895238Y-121296430D01*
X172895238Y-121296430D02*
X172933333Y-121334525D01*
X172933333Y-121334525D02*
X172971428Y-121410716D01*
X172971428Y-121410716D02*
X173009523Y-121563097D01*
X173009523Y-121563097D02*
X173009523Y-121753573D01*
X173009523Y-121753573D02*
X172971428Y-121905954D01*
X172971428Y-121905954D02*
X172933333Y-121982144D01*
X172933333Y-121982144D02*
X172895238Y-122020240D01*
X172895238Y-122020240D02*
X172819047Y-122058335D01*
X172819047Y-122058335D02*
X172742857Y-122058335D01*
X172742857Y-122058335D02*
X172666666Y-122020240D01*
X172666666Y-122020240D02*
X172628571Y-121982144D01*
X172628571Y-121982144D02*
X172590476Y-121905954D01*
X172590476Y-121905954D02*
X172552380Y-121753573D01*
X172552380Y-121753573D02*
X172552380Y-121563097D01*
X172552380Y-121563097D02*
X172590476Y-121410716D01*
X172590476Y-121410716D02*
X172628571Y-121334525D01*
X172628571Y-121334525D02*
X172666666Y-121296430D01*
X172666666Y-121296430D02*
X172742857Y-121258335D01*
X185485714Y-152058335D02*
X185219047Y-151677382D01*
X185028571Y-152058335D02*
X185028571Y-151258335D01*
X185028571Y-151258335D02*
X185333333Y-151258335D01*
X185333333Y-151258335D02*
X185409523Y-151296430D01*
X185409523Y-151296430D02*
X185447618Y-151334525D01*
X185447618Y-151334525D02*
X185485714Y-151410716D01*
X185485714Y-151410716D02*
X185485714Y-151525001D01*
X185485714Y-151525001D02*
X185447618Y-151601192D01*
X185447618Y-151601192D02*
X185409523Y-151639287D01*
X185409523Y-151639287D02*
X185333333Y-151677382D01*
X185333333Y-151677382D02*
X185028571Y-151677382D01*
X185790475Y-151334525D02*
X185828571Y-151296430D01*
X185828571Y-151296430D02*
X185904761Y-151258335D01*
X185904761Y-151258335D02*
X186095237Y-151258335D01*
X186095237Y-151258335D02*
X186171428Y-151296430D01*
X186171428Y-151296430D02*
X186209523Y-151334525D01*
X186209523Y-151334525D02*
X186247618Y-151410716D01*
X186247618Y-151410716D02*
X186247618Y-151486906D01*
X186247618Y-151486906D02*
X186209523Y-151601192D01*
X186209523Y-151601192D02*
X185752380Y-152058335D01*
X185752380Y-152058335D02*
X186247618Y-152058335D01*
X186933333Y-151258335D02*
X186780952Y-151258335D01*
X186780952Y-151258335D02*
X186704761Y-151296430D01*
X186704761Y-151296430D02*
X186666666Y-151334525D01*
X186666666Y-151334525D02*
X186590476Y-151448811D01*
X186590476Y-151448811D02*
X186552380Y-151601192D01*
X186552380Y-151601192D02*
X186552380Y-151905954D01*
X186552380Y-151905954D02*
X186590476Y-151982144D01*
X186590476Y-151982144D02*
X186628571Y-152020240D01*
X186628571Y-152020240D02*
X186704761Y-152058335D01*
X186704761Y-152058335D02*
X186857142Y-152058335D01*
X186857142Y-152058335D02*
X186933333Y-152020240D01*
X186933333Y-152020240D02*
X186971428Y-151982144D01*
X186971428Y-151982144D02*
X187009523Y-151905954D01*
X187009523Y-151905954D02*
X187009523Y-151715478D01*
X187009523Y-151715478D02*
X186971428Y-151639287D01*
X186971428Y-151639287D02*
X186933333Y-151601192D01*
X186933333Y-151601192D02*
X186857142Y-151563097D01*
X186857142Y-151563097D02*
X186704761Y-151563097D01*
X186704761Y-151563097D02*
X186628571Y-151601192D01*
X186628571Y-151601192D02*
X186590476Y-151639287D01*
X186590476Y-151639287D02*
X186552380Y-151715478D01*
X196195476Y-171718335D02*
X196195476Y-172365954D01*
X196195476Y-172365954D02*
X196233571Y-172442144D01*
X196233571Y-172442144D02*
X196271666Y-172480240D01*
X196271666Y-172480240D02*
X196347857Y-172518335D01*
X196347857Y-172518335D02*
X196500238Y-172518335D01*
X196500238Y-172518335D02*
X196576428Y-172480240D01*
X196576428Y-172480240D02*
X196614523Y-172442144D01*
X196614523Y-172442144D02*
X196652619Y-172365954D01*
X196652619Y-172365954D02*
X196652619Y-171718335D01*
X197071666Y-172518335D02*
X197224047Y-172518335D01*
X197224047Y-172518335D02*
X197300237Y-172480240D01*
X197300237Y-172480240D02*
X197338333Y-172442144D01*
X197338333Y-172442144D02*
X197414523Y-172327859D01*
X197414523Y-172327859D02*
X197452618Y-172175478D01*
X197452618Y-172175478D02*
X197452618Y-171870716D01*
X197452618Y-171870716D02*
X197414523Y-171794525D01*
X197414523Y-171794525D02*
X197376428Y-171756430D01*
X197376428Y-171756430D02*
X197300237Y-171718335D01*
X197300237Y-171718335D02*
X197147856Y-171718335D01*
X197147856Y-171718335D02*
X197071666Y-171756430D01*
X197071666Y-171756430D02*
X197033571Y-171794525D01*
X197033571Y-171794525D02*
X196995475Y-171870716D01*
X196995475Y-171870716D02*
X196995475Y-172061192D01*
X196995475Y-172061192D02*
X197033571Y-172137382D01*
X197033571Y-172137382D02*
X197071666Y-172175478D01*
X197071666Y-172175478D02*
X197147856Y-172213573D01*
X197147856Y-172213573D02*
X197300237Y-172213573D01*
X197300237Y-172213573D02*
X197376428Y-172175478D01*
X197376428Y-172175478D02*
X197414523Y-172137382D01*
X197414523Y-172137382D02*
X197452618Y-172061192D01*
X111333333Y-114269287D02*
X111066667Y-114269287D01*
X111066667Y-114688335D02*
X111066667Y-113888335D01*
X111066667Y-113888335D02*
X111447619Y-113888335D01*
X112019047Y-114269287D02*
X112133333Y-114307382D01*
X112133333Y-114307382D02*
X112171428Y-114345478D01*
X112171428Y-114345478D02*
X112209524Y-114421668D01*
X112209524Y-114421668D02*
X112209524Y-114535954D01*
X112209524Y-114535954D02*
X112171428Y-114612144D01*
X112171428Y-114612144D02*
X112133333Y-114650240D01*
X112133333Y-114650240D02*
X112057143Y-114688335D01*
X112057143Y-114688335D02*
X111752381Y-114688335D01*
X111752381Y-114688335D02*
X111752381Y-113888335D01*
X111752381Y-113888335D02*
X112019047Y-113888335D01*
X112019047Y-113888335D02*
X112095238Y-113926430D01*
X112095238Y-113926430D02*
X112133333Y-113964525D01*
X112133333Y-113964525D02*
X112171428Y-114040716D01*
X112171428Y-114040716D02*
X112171428Y-114116906D01*
X112171428Y-114116906D02*
X112133333Y-114193097D01*
X112133333Y-114193097D02*
X112095238Y-114231192D01*
X112095238Y-114231192D02*
X112019047Y-114269287D01*
X112019047Y-114269287D02*
X111752381Y-114269287D01*
X112476190Y-113888335D02*
X112971428Y-113888335D01*
X112971428Y-113888335D02*
X112704762Y-114193097D01*
X112704762Y-114193097D02*
X112819047Y-114193097D01*
X112819047Y-114193097D02*
X112895238Y-114231192D01*
X112895238Y-114231192D02*
X112933333Y-114269287D01*
X112933333Y-114269287D02*
X112971428Y-114345478D01*
X112971428Y-114345478D02*
X112971428Y-114535954D01*
X112971428Y-114535954D02*
X112933333Y-114612144D01*
X112933333Y-114612144D02*
X112895238Y-114650240D01*
X112895238Y-114650240D02*
X112819047Y-114688335D01*
X112819047Y-114688335D02*
X112590476Y-114688335D01*
X112590476Y-114688335D02*
X112514285Y-114650240D01*
X112514285Y-114650240D02*
X112476190Y-114612144D01*
X179389524Y-108768335D02*
X179389524Y-107968335D01*
X179389524Y-107968335D02*
X179580000Y-107968335D01*
X179580000Y-107968335D02*
X179694286Y-108006430D01*
X179694286Y-108006430D02*
X179770476Y-108082620D01*
X179770476Y-108082620D02*
X179808571Y-108158811D01*
X179808571Y-108158811D02*
X179846667Y-108311192D01*
X179846667Y-108311192D02*
X179846667Y-108425478D01*
X179846667Y-108425478D02*
X179808571Y-108577859D01*
X179808571Y-108577859D02*
X179770476Y-108654049D01*
X179770476Y-108654049D02*
X179694286Y-108730240D01*
X179694286Y-108730240D02*
X179580000Y-108768335D01*
X179580000Y-108768335D02*
X179389524Y-108768335D01*
X180113333Y-107968335D02*
X180646667Y-107968335D01*
X180646667Y-107968335D02*
X180303809Y-108768335D01*
X184485714Y-143482144D02*
X184447618Y-143520240D01*
X184447618Y-143520240D02*
X184333333Y-143558335D01*
X184333333Y-143558335D02*
X184257142Y-143558335D01*
X184257142Y-143558335D02*
X184142856Y-143520240D01*
X184142856Y-143520240D02*
X184066666Y-143444049D01*
X184066666Y-143444049D02*
X184028571Y-143367859D01*
X184028571Y-143367859D02*
X183990475Y-143215478D01*
X183990475Y-143215478D02*
X183990475Y-143101192D01*
X183990475Y-143101192D02*
X184028571Y-142948811D01*
X184028571Y-142948811D02*
X184066666Y-142872620D01*
X184066666Y-142872620D02*
X184142856Y-142796430D01*
X184142856Y-142796430D02*
X184257142Y-142758335D01*
X184257142Y-142758335D02*
X184333333Y-142758335D01*
X184333333Y-142758335D02*
X184447618Y-142796430D01*
X184447618Y-142796430D02*
X184485714Y-142834525D01*
X184752380Y-142758335D02*
X185247618Y-142758335D01*
X185247618Y-142758335D02*
X184980952Y-143063097D01*
X184980952Y-143063097D02*
X185095237Y-143063097D01*
X185095237Y-143063097D02*
X185171428Y-143101192D01*
X185171428Y-143101192D02*
X185209523Y-143139287D01*
X185209523Y-143139287D02*
X185247618Y-143215478D01*
X185247618Y-143215478D02*
X185247618Y-143405954D01*
X185247618Y-143405954D02*
X185209523Y-143482144D01*
X185209523Y-143482144D02*
X185171428Y-143520240D01*
X185171428Y-143520240D02*
X185095237Y-143558335D01*
X185095237Y-143558335D02*
X184866666Y-143558335D01*
X184866666Y-143558335D02*
X184790475Y-143520240D01*
X184790475Y-143520240D02*
X184752380Y-143482144D01*
X185514285Y-142758335D02*
X186009523Y-142758335D01*
X186009523Y-142758335D02*
X185742857Y-143063097D01*
X185742857Y-143063097D02*
X185857142Y-143063097D01*
X185857142Y-143063097D02*
X185933333Y-143101192D01*
X185933333Y-143101192D02*
X185971428Y-143139287D01*
X185971428Y-143139287D02*
X186009523Y-143215478D01*
X186009523Y-143215478D02*
X186009523Y-143405954D01*
X186009523Y-143405954D02*
X185971428Y-143482144D01*
X185971428Y-143482144D02*
X185933333Y-143520240D01*
X185933333Y-143520240D02*
X185857142Y-143558335D01*
X185857142Y-143558335D02*
X185628571Y-143558335D01*
X185628571Y-143558335D02*
X185552380Y-143520240D01*
X185552380Y-143520240D02*
X185514285Y-143482144D01*
X123485714Y-147732144D02*
X123447618Y-147770240D01*
X123447618Y-147770240D02*
X123333333Y-147808335D01*
X123333333Y-147808335D02*
X123257142Y-147808335D01*
X123257142Y-147808335D02*
X123142856Y-147770240D01*
X123142856Y-147770240D02*
X123066666Y-147694049D01*
X123066666Y-147694049D02*
X123028571Y-147617859D01*
X123028571Y-147617859D02*
X122990475Y-147465478D01*
X122990475Y-147465478D02*
X122990475Y-147351192D01*
X122990475Y-147351192D02*
X123028571Y-147198811D01*
X123028571Y-147198811D02*
X123066666Y-147122620D01*
X123066666Y-147122620D02*
X123142856Y-147046430D01*
X123142856Y-147046430D02*
X123257142Y-147008335D01*
X123257142Y-147008335D02*
X123333333Y-147008335D01*
X123333333Y-147008335D02*
X123447618Y-147046430D01*
X123447618Y-147046430D02*
X123485714Y-147084525D01*
X123790475Y-147084525D02*
X123828571Y-147046430D01*
X123828571Y-147046430D02*
X123904761Y-147008335D01*
X123904761Y-147008335D02*
X124095237Y-147008335D01*
X124095237Y-147008335D02*
X124171428Y-147046430D01*
X124171428Y-147046430D02*
X124209523Y-147084525D01*
X124209523Y-147084525D02*
X124247618Y-147160716D01*
X124247618Y-147160716D02*
X124247618Y-147236906D01*
X124247618Y-147236906D02*
X124209523Y-147351192D01*
X124209523Y-147351192D02*
X123752380Y-147808335D01*
X123752380Y-147808335D02*
X124247618Y-147808335D01*
X124552380Y-147084525D02*
X124590476Y-147046430D01*
X124590476Y-147046430D02*
X124666666Y-147008335D01*
X124666666Y-147008335D02*
X124857142Y-147008335D01*
X124857142Y-147008335D02*
X124933333Y-147046430D01*
X124933333Y-147046430D02*
X124971428Y-147084525D01*
X124971428Y-147084525D02*
X125009523Y-147160716D01*
X125009523Y-147160716D02*
X125009523Y-147236906D01*
X125009523Y-147236906D02*
X124971428Y-147351192D01*
X124971428Y-147351192D02*
X124514285Y-147808335D01*
X124514285Y-147808335D02*
X125009523Y-147808335D01*
X166485714Y-118732144D02*
X166447618Y-118770240D01*
X166447618Y-118770240D02*
X166333333Y-118808335D01*
X166333333Y-118808335D02*
X166257142Y-118808335D01*
X166257142Y-118808335D02*
X166142856Y-118770240D01*
X166142856Y-118770240D02*
X166066666Y-118694049D01*
X166066666Y-118694049D02*
X166028571Y-118617859D01*
X166028571Y-118617859D02*
X165990475Y-118465478D01*
X165990475Y-118465478D02*
X165990475Y-118351192D01*
X165990475Y-118351192D02*
X166028571Y-118198811D01*
X166028571Y-118198811D02*
X166066666Y-118122620D01*
X166066666Y-118122620D02*
X166142856Y-118046430D01*
X166142856Y-118046430D02*
X166257142Y-118008335D01*
X166257142Y-118008335D02*
X166333333Y-118008335D01*
X166333333Y-118008335D02*
X166447618Y-118046430D01*
X166447618Y-118046430D02*
X166485714Y-118084525D01*
X167247618Y-118808335D02*
X166790475Y-118808335D01*
X167019047Y-118808335D02*
X167019047Y-118008335D01*
X167019047Y-118008335D02*
X166942856Y-118122620D01*
X166942856Y-118122620D02*
X166866666Y-118198811D01*
X166866666Y-118198811D02*
X166790475Y-118236906D01*
X167628571Y-118808335D02*
X167780952Y-118808335D01*
X167780952Y-118808335D02*
X167857142Y-118770240D01*
X167857142Y-118770240D02*
X167895238Y-118732144D01*
X167895238Y-118732144D02*
X167971428Y-118617859D01*
X167971428Y-118617859D02*
X168009523Y-118465478D01*
X168009523Y-118465478D02*
X168009523Y-118160716D01*
X168009523Y-118160716D02*
X167971428Y-118084525D01*
X167971428Y-118084525D02*
X167933333Y-118046430D01*
X167933333Y-118046430D02*
X167857142Y-118008335D01*
X167857142Y-118008335D02*
X167704761Y-118008335D01*
X167704761Y-118008335D02*
X167628571Y-118046430D01*
X167628571Y-118046430D02*
X167590476Y-118084525D01*
X167590476Y-118084525D02*
X167552380Y-118160716D01*
X167552380Y-118160716D02*
X167552380Y-118351192D01*
X167552380Y-118351192D02*
X167590476Y-118427382D01*
X167590476Y-118427382D02*
X167628571Y-118465478D01*
X167628571Y-118465478D02*
X167704761Y-118503573D01*
X167704761Y-118503573D02*
X167857142Y-118503573D01*
X167857142Y-118503573D02*
X167933333Y-118465478D01*
X167933333Y-118465478D02*
X167971428Y-118427382D01*
X167971428Y-118427382D02*
X168009523Y-118351192D01*
X149286667Y-180762144D02*
X149248571Y-180800240D01*
X149248571Y-180800240D02*
X149134286Y-180838335D01*
X149134286Y-180838335D02*
X149058095Y-180838335D01*
X149058095Y-180838335D02*
X148943809Y-180800240D01*
X148943809Y-180800240D02*
X148867619Y-180724049D01*
X148867619Y-180724049D02*
X148829524Y-180647859D01*
X148829524Y-180647859D02*
X148791428Y-180495478D01*
X148791428Y-180495478D02*
X148791428Y-180381192D01*
X148791428Y-180381192D02*
X148829524Y-180228811D01*
X148829524Y-180228811D02*
X148867619Y-180152620D01*
X148867619Y-180152620D02*
X148943809Y-180076430D01*
X148943809Y-180076430D02*
X149058095Y-180038335D01*
X149058095Y-180038335D02*
X149134286Y-180038335D01*
X149134286Y-180038335D02*
X149248571Y-180076430D01*
X149248571Y-180076430D02*
X149286667Y-180114525D01*
X149591428Y-180114525D02*
X149629524Y-180076430D01*
X149629524Y-180076430D02*
X149705714Y-180038335D01*
X149705714Y-180038335D02*
X149896190Y-180038335D01*
X149896190Y-180038335D02*
X149972381Y-180076430D01*
X149972381Y-180076430D02*
X150010476Y-180114525D01*
X150010476Y-180114525D02*
X150048571Y-180190716D01*
X150048571Y-180190716D02*
X150048571Y-180266906D01*
X150048571Y-180266906D02*
X150010476Y-180381192D01*
X150010476Y-180381192D02*
X149553333Y-180838335D01*
X149553333Y-180838335D02*
X150048571Y-180838335D01*
X178866666Y-172938335D02*
X178485714Y-172938335D01*
X178485714Y-172938335D02*
X178485714Y-172138335D01*
X179552380Y-172938335D02*
X179095237Y-172938335D01*
X179323809Y-172938335D02*
X179323809Y-172138335D01*
X179323809Y-172138335D02*
X179247618Y-172252620D01*
X179247618Y-172252620D02*
X179171428Y-172328811D01*
X179171428Y-172328811D02*
X179095237Y-172366906D01*
X158515476Y-175088335D02*
X158515476Y-175735954D01*
X158515476Y-175735954D02*
X158553571Y-175812144D01*
X158553571Y-175812144D02*
X158591666Y-175850240D01*
X158591666Y-175850240D02*
X158667857Y-175888335D01*
X158667857Y-175888335D02*
X158820238Y-175888335D01*
X158820238Y-175888335D02*
X158896428Y-175850240D01*
X158896428Y-175850240D02*
X158934523Y-175812144D01*
X158934523Y-175812144D02*
X158972619Y-175735954D01*
X158972619Y-175735954D02*
X158972619Y-175088335D01*
X159772618Y-175888335D02*
X159315475Y-175888335D01*
X159544047Y-175888335D02*
X159544047Y-175088335D01*
X159544047Y-175088335D02*
X159467856Y-175202620D01*
X159467856Y-175202620D02*
X159391666Y-175278811D01*
X159391666Y-175278811D02*
X159315475Y-175316906D01*
X200470476Y-145218335D02*
X200927619Y-145218335D01*
X200699047Y-146018335D02*
X200699047Y-145218335D01*
X201537143Y-145485001D02*
X201537143Y-146018335D01*
X201346667Y-145180240D02*
X201156190Y-145751668D01*
X201156190Y-145751668D02*
X201651429Y-145751668D01*
X184485714Y-139482144D02*
X184447618Y-139520240D01*
X184447618Y-139520240D02*
X184333333Y-139558335D01*
X184333333Y-139558335D02*
X184257142Y-139558335D01*
X184257142Y-139558335D02*
X184142856Y-139520240D01*
X184142856Y-139520240D02*
X184066666Y-139444049D01*
X184066666Y-139444049D02*
X184028571Y-139367859D01*
X184028571Y-139367859D02*
X183990475Y-139215478D01*
X183990475Y-139215478D02*
X183990475Y-139101192D01*
X183990475Y-139101192D02*
X184028571Y-138948811D01*
X184028571Y-138948811D02*
X184066666Y-138872620D01*
X184066666Y-138872620D02*
X184142856Y-138796430D01*
X184142856Y-138796430D02*
X184257142Y-138758335D01*
X184257142Y-138758335D02*
X184333333Y-138758335D01*
X184333333Y-138758335D02*
X184447618Y-138796430D01*
X184447618Y-138796430D02*
X184485714Y-138834525D01*
X184752380Y-138758335D02*
X185247618Y-138758335D01*
X185247618Y-138758335D02*
X184980952Y-139063097D01*
X184980952Y-139063097D02*
X185095237Y-139063097D01*
X185095237Y-139063097D02*
X185171428Y-139101192D01*
X185171428Y-139101192D02*
X185209523Y-139139287D01*
X185209523Y-139139287D02*
X185247618Y-139215478D01*
X185247618Y-139215478D02*
X185247618Y-139405954D01*
X185247618Y-139405954D02*
X185209523Y-139482144D01*
X185209523Y-139482144D02*
X185171428Y-139520240D01*
X185171428Y-139520240D02*
X185095237Y-139558335D01*
X185095237Y-139558335D02*
X184866666Y-139558335D01*
X184866666Y-139558335D02*
X184790475Y-139520240D01*
X184790475Y-139520240D02*
X184752380Y-139482144D01*
X185552380Y-138834525D02*
X185590476Y-138796430D01*
X185590476Y-138796430D02*
X185666666Y-138758335D01*
X185666666Y-138758335D02*
X185857142Y-138758335D01*
X185857142Y-138758335D02*
X185933333Y-138796430D01*
X185933333Y-138796430D02*
X185971428Y-138834525D01*
X185971428Y-138834525D02*
X186009523Y-138910716D01*
X186009523Y-138910716D02*
X186009523Y-138986906D01*
X186009523Y-138986906D02*
X185971428Y-139101192D01*
X185971428Y-139101192D02*
X185514285Y-139558335D01*
X185514285Y-139558335D02*
X186009523Y-139558335D01*
X195390476Y-187488335D02*
X195390476Y-186688335D01*
X195390476Y-187069287D02*
X195847619Y-187069287D01*
X195847619Y-187488335D02*
X195847619Y-186688335D01*
X196571428Y-186955001D02*
X196571428Y-187488335D01*
X196380952Y-186650240D02*
X196190475Y-187221668D01*
X196190475Y-187221668D02*
X196685714Y-187221668D01*
X134485714Y-124058335D02*
X134219047Y-123677382D01*
X134028571Y-124058335D02*
X134028571Y-123258335D01*
X134028571Y-123258335D02*
X134333333Y-123258335D01*
X134333333Y-123258335D02*
X134409523Y-123296430D01*
X134409523Y-123296430D02*
X134447618Y-123334525D01*
X134447618Y-123334525D02*
X134485714Y-123410716D01*
X134485714Y-123410716D02*
X134485714Y-123525001D01*
X134485714Y-123525001D02*
X134447618Y-123601192D01*
X134447618Y-123601192D02*
X134409523Y-123639287D01*
X134409523Y-123639287D02*
X134333333Y-123677382D01*
X134333333Y-123677382D02*
X134028571Y-123677382D01*
X135247618Y-124058335D02*
X134790475Y-124058335D01*
X135019047Y-124058335D02*
X135019047Y-123258335D01*
X135019047Y-123258335D02*
X134942856Y-123372620D01*
X134942856Y-123372620D02*
X134866666Y-123448811D01*
X134866666Y-123448811D02*
X134790475Y-123486906D01*
X135552380Y-123334525D02*
X135590476Y-123296430D01*
X135590476Y-123296430D02*
X135666666Y-123258335D01*
X135666666Y-123258335D02*
X135857142Y-123258335D01*
X135857142Y-123258335D02*
X135933333Y-123296430D01*
X135933333Y-123296430D02*
X135971428Y-123334525D01*
X135971428Y-123334525D02*
X136009523Y-123410716D01*
X136009523Y-123410716D02*
X136009523Y-123486906D01*
X136009523Y-123486906D02*
X135971428Y-123601192D01*
X135971428Y-123601192D02*
X135514285Y-124058335D01*
X135514285Y-124058335D02*
X136009523Y-124058335D01*
X140485714Y-147732144D02*
X140447618Y-147770240D01*
X140447618Y-147770240D02*
X140333333Y-147808335D01*
X140333333Y-147808335D02*
X140257142Y-147808335D01*
X140257142Y-147808335D02*
X140142856Y-147770240D01*
X140142856Y-147770240D02*
X140066666Y-147694049D01*
X140066666Y-147694049D02*
X140028571Y-147617859D01*
X140028571Y-147617859D02*
X139990475Y-147465478D01*
X139990475Y-147465478D02*
X139990475Y-147351192D01*
X139990475Y-147351192D02*
X140028571Y-147198811D01*
X140028571Y-147198811D02*
X140066666Y-147122620D01*
X140066666Y-147122620D02*
X140142856Y-147046430D01*
X140142856Y-147046430D02*
X140257142Y-147008335D01*
X140257142Y-147008335D02*
X140333333Y-147008335D01*
X140333333Y-147008335D02*
X140447618Y-147046430D01*
X140447618Y-147046430D02*
X140485714Y-147084525D01*
X141247618Y-147808335D02*
X140790475Y-147808335D01*
X141019047Y-147808335D02*
X141019047Y-147008335D01*
X141019047Y-147008335D02*
X140942856Y-147122620D01*
X140942856Y-147122620D02*
X140866666Y-147198811D01*
X140866666Y-147198811D02*
X140790475Y-147236906D01*
X141742857Y-147008335D02*
X141819047Y-147008335D01*
X141819047Y-147008335D02*
X141895238Y-147046430D01*
X141895238Y-147046430D02*
X141933333Y-147084525D01*
X141933333Y-147084525D02*
X141971428Y-147160716D01*
X141971428Y-147160716D02*
X142009523Y-147313097D01*
X142009523Y-147313097D02*
X142009523Y-147503573D01*
X142009523Y-147503573D02*
X141971428Y-147655954D01*
X141971428Y-147655954D02*
X141933333Y-147732144D01*
X141933333Y-147732144D02*
X141895238Y-147770240D01*
X141895238Y-147770240D02*
X141819047Y-147808335D01*
X141819047Y-147808335D02*
X141742857Y-147808335D01*
X141742857Y-147808335D02*
X141666666Y-147770240D01*
X141666666Y-147770240D02*
X141628571Y-147732144D01*
X141628571Y-147732144D02*
X141590476Y-147655954D01*
X141590476Y-147655954D02*
X141552380Y-147503573D01*
X141552380Y-147503573D02*
X141552380Y-147313097D01*
X141552380Y-147313097D02*
X141590476Y-147160716D01*
X141590476Y-147160716D02*
X141628571Y-147084525D01*
X141628571Y-147084525D02*
X141666666Y-147046430D01*
X141666666Y-147046430D02*
X141742857Y-147008335D01*
X200470476Y-121218335D02*
X200927619Y-121218335D01*
X200699047Y-122018335D02*
X200699047Y-121218335D01*
X201156190Y-121294525D02*
X201194286Y-121256430D01*
X201194286Y-121256430D02*
X201270476Y-121218335D01*
X201270476Y-121218335D02*
X201460952Y-121218335D01*
X201460952Y-121218335D02*
X201537143Y-121256430D01*
X201537143Y-121256430D02*
X201575238Y-121294525D01*
X201575238Y-121294525D02*
X201613333Y-121370716D01*
X201613333Y-121370716D02*
X201613333Y-121446906D01*
X201613333Y-121446906D02*
X201575238Y-121561192D01*
X201575238Y-121561192D02*
X201118095Y-122018335D01*
X201118095Y-122018335D02*
X201613333Y-122018335D01*
X185485714Y-162058335D02*
X185219047Y-161677382D01*
X185028571Y-162058335D02*
X185028571Y-161258335D01*
X185028571Y-161258335D02*
X185333333Y-161258335D01*
X185333333Y-161258335D02*
X185409523Y-161296430D01*
X185409523Y-161296430D02*
X185447618Y-161334525D01*
X185447618Y-161334525D02*
X185485714Y-161410716D01*
X185485714Y-161410716D02*
X185485714Y-161525001D01*
X185485714Y-161525001D02*
X185447618Y-161601192D01*
X185447618Y-161601192D02*
X185409523Y-161639287D01*
X185409523Y-161639287D02*
X185333333Y-161677382D01*
X185333333Y-161677382D02*
X185028571Y-161677382D01*
X185752380Y-161258335D02*
X186247618Y-161258335D01*
X186247618Y-161258335D02*
X185980952Y-161563097D01*
X185980952Y-161563097D02*
X186095237Y-161563097D01*
X186095237Y-161563097D02*
X186171428Y-161601192D01*
X186171428Y-161601192D02*
X186209523Y-161639287D01*
X186209523Y-161639287D02*
X186247618Y-161715478D01*
X186247618Y-161715478D02*
X186247618Y-161905954D01*
X186247618Y-161905954D02*
X186209523Y-161982144D01*
X186209523Y-161982144D02*
X186171428Y-162020240D01*
X186171428Y-162020240D02*
X186095237Y-162058335D01*
X186095237Y-162058335D02*
X185866666Y-162058335D01*
X185866666Y-162058335D02*
X185790475Y-162020240D01*
X185790475Y-162020240D02*
X185752380Y-161982144D01*
X187009523Y-162058335D02*
X186552380Y-162058335D01*
X186780952Y-162058335D02*
X186780952Y-161258335D01*
X186780952Y-161258335D02*
X186704761Y-161372620D01*
X186704761Y-161372620D02*
X186628571Y-161448811D01*
X186628571Y-161448811D02*
X186552380Y-161486906D01*
X212866667Y-173762144D02*
X212828571Y-173800240D01*
X212828571Y-173800240D02*
X212714286Y-173838335D01*
X212714286Y-173838335D02*
X212638095Y-173838335D01*
X212638095Y-173838335D02*
X212523809Y-173800240D01*
X212523809Y-173800240D02*
X212447619Y-173724049D01*
X212447619Y-173724049D02*
X212409524Y-173647859D01*
X212409524Y-173647859D02*
X212371428Y-173495478D01*
X212371428Y-173495478D02*
X212371428Y-173381192D01*
X212371428Y-173381192D02*
X212409524Y-173228811D01*
X212409524Y-173228811D02*
X212447619Y-173152620D01*
X212447619Y-173152620D02*
X212523809Y-173076430D01*
X212523809Y-173076430D02*
X212638095Y-173038335D01*
X212638095Y-173038335D02*
X212714286Y-173038335D01*
X212714286Y-173038335D02*
X212828571Y-173076430D01*
X212828571Y-173076430D02*
X212866667Y-173114525D01*
X213552381Y-173038335D02*
X213400000Y-173038335D01*
X213400000Y-173038335D02*
X213323809Y-173076430D01*
X213323809Y-173076430D02*
X213285714Y-173114525D01*
X213285714Y-173114525D02*
X213209524Y-173228811D01*
X213209524Y-173228811D02*
X213171428Y-173381192D01*
X213171428Y-173381192D02*
X213171428Y-173685954D01*
X213171428Y-173685954D02*
X213209524Y-173762144D01*
X213209524Y-173762144D02*
X213247619Y-173800240D01*
X213247619Y-173800240D02*
X213323809Y-173838335D01*
X213323809Y-173838335D02*
X213476190Y-173838335D01*
X213476190Y-173838335D02*
X213552381Y-173800240D01*
X213552381Y-173800240D02*
X213590476Y-173762144D01*
X213590476Y-173762144D02*
X213628571Y-173685954D01*
X213628571Y-173685954D02*
X213628571Y-173495478D01*
X213628571Y-173495478D02*
X213590476Y-173419287D01*
X213590476Y-173419287D02*
X213552381Y-173381192D01*
X213552381Y-173381192D02*
X213476190Y-173343097D01*
X213476190Y-173343097D02*
X213323809Y-173343097D01*
X213323809Y-173343097D02*
X213247619Y-173381192D01*
X213247619Y-173381192D02*
X213209524Y-173419287D01*
X213209524Y-173419287D02*
X213171428Y-173495478D01*
X169389524Y-108768335D02*
X169389524Y-107968335D01*
X169389524Y-107968335D02*
X169580000Y-107968335D01*
X169580000Y-107968335D02*
X169694286Y-108006430D01*
X169694286Y-108006430D02*
X169770476Y-108082620D01*
X169770476Y-108082620D02*
X169808571Y-108158811D01*
X169808571Y-108158811D02*
X169846667Y-108311192D01*
X169846667Y-108311192D02*
X169846667Y-108425478D01*
X169846667Y-108425478D02*
X169808571Y-108577859D01*
X169808571Y-108577859D02*
X169770476Y-108654049D01*
X169770476Y-108654049D02*
X169694286Y-108730240D01*
X169694286Y-108730240D02*
X169580000Y-108768335D01*
X169580000Y-108768335D02*
X169389524Y-108768335D01*
X170570476Y-107968335D02*
X170189524Y-107968335D01*
X170189524Y-107968335D02*
X170151428Y-108349287D01*
X170151428Y-108349287D02*
X170189524Y-108311192D01*
X170189524Y-108311192D02*
X170265714Y-108273097D01*
X170265714Y-108273097D02*
X170456190Y-108273097D01*
X170456190Y-108273097D02*
X170532381Y-108311192D01*
X170532381Y-108311192D02*
X170570476Y-108349287D01*
X170570476Y-108349287D02*
X170608571Y-108425478D01*
X170608571Y-108425478D02*
X170608571Y-108615954D01*
X170608571Y-108615954D02*
X170570476Y-108692144D01*
X170570476Y-108692144D02*
X170532381Y-108730240D01*
X170532381Y-108730240D02*
X170456190Y-108768335D01*
X170456190Y-108768335D02*
X170265714Y-108768335D01*
X170265714Y-108768335D02*
X170189524Y-108730240D01*
X170189524Y-108730240D02*
X170151428Y-108692144D01*
X117485714Y-114808335D02*
X117219047Y-114427382D01*
X117028571Y-114808335D02*
X117028571Y-114008335D01*
X117028571Y-114008335D02*
X117333333Y-114008335D01*
X117333333Y-114008335D02*
X117409523Y-114046430D01*
X117409523Y-114046430D02*
X117447618Y-114084525D01*
X117447618Y-114084525D02*
X117485714Y-114160716D01*
X117485714Y-114160716D02*
X117485714Y-114275001D01*
X117485714Y-114275001D02*
X117447618Y-114351192D01*
X117447618Y-114351192D02*
X117409523Y-114389287D01*
X117409523Y-114389287D02*
X117333333Y-114427382D01*
X117333333Y-114427382D02*
X117028571Y-114427382D01*
X118247618Y-114808335D02*
X117790475Y-114808335D01*
X118019047Y-114808335D02*
X118019047Y-114008335D01*
X118019047Y-114008335D02*
X117942856Y-114122620D01*
X117942856Y-114122620D02*
X117866666Y-114198811D01*
X117866666Y-114198811D02*
X117790475Y-114236906D01*
X118933333Y-114275001D02*
X118933333Y-114808335D01*
X118742857Y-113970240D02*
X118552380Y-114541668D01*
X118552380Y-114541668D02*
X119047619Y-114541668D01*
X187985714Y-136058335D02*
X187719047Y-135677382D01*
X187528571Y-136058335D02*
X187528571Y-135258335D01*
X187528571Y-135258335D02*
X187833333Y-135258335D01*
X187833333Y-135258335D02*
X187909523Y-135296430D01*
X187909523Y-135296430D02*
X187947618Y-135334525D01*
X187947618Y-135334525D02*
X187985714Y-135410716D01*
X187985714Y-135410716D02*
X187985714Y-135525001D01*
X187985714Y-135525001D02*
X187947618Y-135601192D01*
X187947618Y-135601192D02*
X187909523Y-135639287D01*
X187909523Y-135639287D02*
X187833333Y-135677382D01*
X187833333Y-135677382D02*
X187528571Y-135677382D01*
X188290475Y-135334525D02*
X188328571Y-135296430D01*
X188328571Y-135296430D02*
X188404761Y-135258335D01*
X188404761Y-135258335D02*
X188595237Y-135258335D01*
X188595237Y-135258335D02*
X188671428Y-135296430D01*
X188671428Y-135296430D02*
X188709523Y-135334525D01*
X188709523Y-135334525D02*
X188747618Y-135410716D01*
X188747618Y-135410716D02*
X188747618Y-135486906D01*
X188747618Y-135486906D02*
X188709523Y-135601192D01*
X188709523Y-135601192D02*
X188252380Y-136058335D01*
X188252380Y-136058335D02*
X188747618Y-136058335D01*
X189128571Y-136058335D02*
X189280952Y-136058335D01*
X189280952Y-136058335D02*
X189357142Y-136020240D01*
X189357142Y-136020240D02*
X189395238Y-135982144D01*
X189395238Y-135982144D02*
X189471428Y-135867859D01*
X189471428Y-135867859D02*
X189509523Y-135715478D01*
X189509523Y-135715478D02*
X189509523Y-135410716D01*
X189509523Y-135410716D02*
X189471428Y-135334525D01*
X189471428Y-135334525D02*
X189433333Y-135296430D01*
X189433333Y-135296430D02*
X189357142Y-135258335D01*
X189357142Y-135258335D02*
X189204761Y-135258335D01*
X189204761Y-135258335D02*
X189128571Y-135296430D01*
X189128571Y-135296430D02*
X189090476Y-135334525D01*
X189090476Y-135334525D02*
X189052380Y-135410716D01*
X189052380Y-135410716D02*
X189052380Y-135601192D01*
X189052380Y-135601192D02*
X189090476Y-135677382D01*
X189090476Y-135677382D02*
X189128571Y-135715478D01*
X189128571Y-135715478D02*
X189204761Y-135753573D01*
X189204761Y-135753573D02*
X189357142Y-135753573D01*
X189357142Y-135753573D02*
X189433333Y-135715478D01*
X189433333Y-135715478D02*
X189471428Y-135677382D01*
X189471428Y-135677382D02*
X189509523Y-135601192D01*
X146485714Y-118732144D02*
X146447618Y-118770240D01*
X146447618Y-118770240D02*
X146333333Y-118808335D01*
X146333333Y-118808335D02*
X146257142Y-118808335D01*
X146257142Y-118808335D02*
X146142856Y-118770240D01*
X146142856Y-118770240D02*
X146066666Y-118694049D01*
X146066666Y-118694049D02*
X146028571Y-118617859D01*
X146028571Y-118617859D02*
X145990475Y-118465478D01*
X145990475Y-118465478D02*
X145990475Y-118351192D01*
X145990475Y-118351192D02*
X146028571Y-118198811D01*
X146028571Y-118198811D02*
X146066666Y-118122620D01*
X146066666Y-118122620D02*
X146142856Y-118046430D01*
X146142856Y-118046430D02*
X146257142Y-118008335D01*
X146257142Y-118008335D02*
X146333333Y-118008335D01*
X146333333Y-118008335D02*
X146447618Y-118046430D01*
X146447618Y-118046430D02*
X146485714Y-118084525D01*
X147247618Y-118808335D02*
X146790475Y-118808335D01*
X147019047Y-118808335D02*
X147019047Y-118008335D01*
X147019047Y-118008335D02*
X146942856Y-118122620D01*
X146942856Y-118122620D02*
X146866666Y-118198811D01*
X146866666Y-118198811D02*
X146790475Y-118236906D01*
X147933333Y-118008335D02*
X147780952Y-118008335D01*
X147780952Y-118008335D02*
X147704761Y-118046430D01*
X147704761Y-118046430D02*
X147666666Y-118084525D01*
X147666666Y-118084525D02*
X147590476Y-118198811D01*
X147590476Y-118198811D02*
X147552380Y-118351192D01*
X147552380Y-118351192D02*
X147552380Y-118655954D01*
X147552380Y-118655954D02*
X147590476Y-118732144D01*
X147590476Y-118732144D02*
X147628571Y-118770240D01*
X147628571Y-118770240D02*
X147704761Y-118808335D01*
X147704761Y-118808335D02*
X147857142Y-118808335D01*
X147857142Y-118808335D02*
X147933333Y-118770240D01*
X147933333Y-118770240D02*
X147971428Y-118732144D01*
X147971428Y-118732144D02*
X148009523Y-118655954D01*
X148009523Y-118655954D02*
X148009523Y-118465478D01*
X148009523Y-118465478D02*
X147971428Y-118389287D01*
X147971428Y-118389287D02*
X147933333Y-118351192D01*
X147933333Y-118351192D02*
X147857142Y-118313097D01*
X147857142Y-118313097D02*
X147704761Y-118313097D01*
X147704761Y-118313097D02*
X147628571Y-118351192D01*
X147628571Y-118351192D02*
X147590476Y-118389287D01*
X147590476Y-118389287D02*
X147552380Y-118465478D01*
X159866667Y-114058335D02*
X159600000Y-113677382D01*
X159409524Y-114058335D02*
X159409524Y-113258335D01*
X159409524Y-113258335D02*
X159714286Y-113258335D01*
X159714286Y-113258335D02*
X159790476Y-113296430D01*
X159790476Y-113296430D02*
X159828571Y-113334525D01*
X159828571Y-113334525D02*
X159866667Y-113410716D01*
X159866667Y-113410716D02*
X159866667Y-113525001D01*
X159866667Y-113525001D02*
X159828571Y-113601192D01*
X159828571Y-113601192D02*
X159790476Y-113639287D01*
X159790476Y-113639287D02*
X159714286Y-113677382D01*
X159714286Y-113677382D02*
X159409524Y-113677382D01*
X160590476Y-113258335D02*
X160209524Y-113258335D01*
X160209524Y-113258335D02*
X160171428Y-113639287D01*
X160171428Y-113639287D02*
X160209524Y-113601192D01*
X160209524Y-113601192D02*
X160285714Y-113563097D01*
X160285714Y-113563097D02*
X160476190Y-113563097D01*
X160476190Y-113563097D02*
X160552381Y-113601192D01*
X160552381Y-113601192D02*
X160590476Y-113639287D01*
X160590476Y-113639287D02*
X160628571Y-113715478D01*
X160628571Y-113715478D02*
X160628571Y-113905954D01*
X160628571Y-113905954D02*
X160590476Y-113982144D01*
X160590476Y-113982144D02*
X160552381Y-114020240D01*
X160552381Y-114020240D02*
X160476190Y-114058335D01*
X160476190Y-114058335D02*
X160285714Y-114058335D01*
X160285714Y-114058335D02*
X160209524Y-114020240D01*
X160209524Y-114020240D02*
X160171428Y-113982144D01*
X123485714Y-143732144D02*
X123447618Y-143770240D01*
X123447618Y-143770240D02*
X123333333Y-143808335D01*
X123333333Y-143808335D02*
X123257142Y-143808335D01*
X123257142Y-143808335D02*
X123142856Y-143770240D01*
X123142856Y-143770240D02*
X123066666Y-143694049D01*
X123066666Y-143694049D02*
X123028571Y-143617859D01*
X123028571Y-143617859D02*
X122990475Y-143465478D01*
X122990475Y-143465478D02*
X122990475Y-143351192D01*
X122990475Y-143351192D02*
X123028571Y-143198811D01*
X123028571Y-143198811D02*
X123066666Y-143122620D01*
X123066666Y-143122620D02*
X123142856Y-143046430D01*
X123142856Y-143046430D02*
X123257142Y-143008335D01*
X123257142Y-143008335D02*
X123333333Y-143008335D01*
X123333333Y-143008335D02*
X123447618Y-143046430D01*
X123447618Y-143046430D02*
X123485714Y-143084525D01*
X123790475Y-143084525D02*
X123828571Y-143046430D01*
X123828571Y-143046430D02*
X123904761Y-143008335D01*
X123904761Y-143008335D02*
X124095237Y-143008335D01*
X124095237Y-143008335D02*
X124171428Y-143046430D01*
X124171428Y-143046430D02*
X124209523Y-143084525D01*
X124209523Y-143084525D02*
X124247618Y-143160716D01*
X124247618Y-143160716D02*
X124247618Y-143236906D01*
X124247618Y-143236906D02*
X124209523Y-143351192D01*
X124209523Y-143351192D02*
X123752380Y-143808335D01*
X123752380Y-143808335D02*
X124247618Y-143808335D01*
X124971428Y-143008335D02*
X124590476Y-143008335D01*
X124590476Y-143008335D02*
X124552380Y-143389287D01*
X124552380Y-143389287D02*
X124590476Y-143351192D01*
X124590476Y-143351192D02*
X124666666Y-143313097D01*
X124666666Y-143313097D02*
X124857142Y-143313097D01*
X124857142Y-143313097D02*
X124933333Y-143351192D01*
X124933333Y-143351192D02*
X124971428Y-143389287D01*
X124971428Y-143389287D02*
X125009523Y-143465478D01*
X125009523Y-143465478D02*
X125009523Y-143655954D01*
X125009523Y-143655954D02*
X124971428Y-143732144D01*
X124971428Y-143732144D02*
X124933333Y-143770240D01*
X124933333Y-143770240D02*
X124857142Y-143808335D01*
X124857142Y-143808335D02*
X124666666Y-143808335D01*
X124666666Y-143808335D02*
X124590476Y-143770240D01*
X124590476Y-143770240D02*
X124552380Y-143732144D01*
X141485714Y-114732144D02*
X141447618Y-114770240D01*
X141447618Y-114770240D02*
X141333333Y-114808335D01*
X141333333Y-114808335D02*
X141257142Y-114808335D01*
X141257142Y-114808335D02*
X141142856Y-114770240D01*
X141142856Y-114770240D02*
X141066666Y-114694049D01*
X141066666Y-114694049D02*
X141028571Y-114617859D01*
X141028571Y-114617859D02*
X140990475Y-114465478D01*
X140990475Y-114465478D02*
X140990475Y-114351192D01*
X140990475Y-114351192D02*
X141028571Y-114198811D01*
X141028571Y-114198811D02*
X141066666Y-114122620D01*
X141066666Y-114122620D02*
X141142856Y-114046430D01*
X141142856Y-114046430D02*
X141257142Y-114008335D01*
X141257142Y-114008335D02*
X141333333Y-114008335D01*
X141333333Y-114008335D02*
X141447618Y-114046430D01*
X141447618Y-114046430D02*
X141485714Y-114084525D01*
X142247618Y-114808335D02*
X141790475Y-114808335D01*
X142019047Y-114808335D02*
X142019047Y-114008335D01*
X142019047Y-114008335D02*
X141942856Y-114122620D01*
X141942856Y-114122620D02*
X141866666Y-114198811D01*
X141866666Y-114198811D02*
X141790475Y-114236906D01*
X142552380Y-114084525D02*
X142590476Y-114046430D01*
X142590476Y-114046430D02*
X142666666Y-114008335D01*
X142666666Y-114008335D02*
X142857142Y-114008335D01*
X142857142Y-114008335D02*
X142933333Y-114046430D01*
X142933333Y-114046430D02*
X142971428Y-114084525D01*
X142971428Y-114084525D02*
X143009523Y-114160716D01*
X143009523Y-114160716D02*
X143009523Y-114236906D01*
X143009523Y-114236906D02*
X142971428Y-114351192D01*
X142971428Y-114351192D02*
X142514285Y-114808335D01*
X142514285Y-114808335D02*
X143009523Y-114808335D01*
X123915714Y-119982144D02*
X123877618Y-120020240D01*
X123877618Y-120020240D02*
X123763333Y-120058335D01*
X123763333Y-120058335D02*
X123687142Y-120058335D01*
X123687142Y-120058335D02*
X123572856Y-120020240D01*
X123572856Y-120020240D02*
X123496666Y-119944049D01*
X123496666Y-119944049D02*
X123458571Y-119867859D01*
X123458571Y-119867859D02*
X123420475Y-119715478D01*
X123420475Y-119715478D02*
X123420475Y-119601192D01*
X123420475Y-119601192D02*
X123458571Y-119448811D01*
X123458571Y-119448811D02*
X123496666Y-119372620D01*
X123496666Y-119372620D02*
X123572856Y-119296430D01*
X123572856Y-119296430D02*
X123687142Y-119258335D01*
X123687142Y-119258335D02*
X123763333Y-119258335D01*
X123763333Y-119258335D02*
X123877618Y-119296430D01*
X123877618Y-119296430D02*
X123915714Y-119334525D01*
X124220475Y-119334525D02*
X124258571Y-119296430D01*
X124258571Y-119296430D02*
X124334761Y-119258335D01*
X124334761Y-119258335D02*
X124525237Y-119258335D01*
X124525237Y-119258335D02*
X124601428Y-119296430D01*
X124601428Y-119296430D02*
X124639523Y-119334525D01*
X124639523Y-119334525D02*
X124677618Y-119410716D01*
X124677618Y-119410716D02*
X124677618Y-119486906D01*
X124677618Y-119486906D02*
X124639523Y-119601192D01*
X124639523Y-119601192D02*
X124182380Y-120058335D01*
X124182380Y-120058335D02*
X124677618Y-120058335D01*
X125363333Y-119525001D02*
X125363333Y-120058335D01*
X125172857Y-119220240D02*
X124982380Y-119791668D01*
X124982380Y-119791668D02*
X125477619Y-119791668D01*
X200470476Y-109218335D02*
X200927619Y-109218335D01*
X200699047Y-110018335D02*
X200699047Y-109218335D01*
X201613333Y-110018335D02*
X201156190Y-110018335D01*
X201384762Y-110018335D02*
X201384762Y-109218335D01*
X201384762Y-109218335D02*
X201308571Y-109332620D01*
X201308571Y-109332620D02*
X201232381Y-109408811D01*
X201232381Y-109408811D02*
X201156190Y-109446906D01*
X165485714Y-142482144D02*
X165447618Y-142520240D01*
X165447618Y-142520240D02*
X165333333Y-142558335D01*
X165333333Y-142558335D02*
X165257142Y-142558335D01*
X165257142Y-142558335D02*
X165142856Y-142520240D01*
X165142856Y-142520240D02*
X165066666Y-142444049D01*
X165066666Y-142444049D02*
X165028571Y-142367859D01*
X165028571Y-142367859D02*
X164990475Y-142215478D01*
X164990475Y-142215478D02*
X164990475Y-142101192D01*
X164990475Y-142101192D02*
X165028571Y-141948811D01*
X165028571Y-141948811D02*
X165066666Y-141872620D01*
X165066666Y-141872620D02*
X165142856Y-141796430D01*
X165142856Y-141796430D02*
X165257142Y-141758335D01*
X165257142Y-141758335D02*
X165333333Y-141758335D01*
X165333333Y-141758335D02*
X165447618Y-141796430D01*
X165447618Y-141796430D02*
X165485714Y-141834525D01*
X166247618Y-142558335D02*
X165790475Y-142558335D01*
X166019047Y-142558335D02*
X166019047Y-141758335D01*
X166019047Y-141758335D02*
X165942856Y-141872620D01*
X165942856Y-141872620D02*
X165866666Y-141948811D01*
X165866666Y-141948811D02*
X165790475Y-141986906D01*
X166514285Y-141758335D02*
X167009523Y-141758335D01*
X167009523Y-141758335D02*
X166742857Y-142063097D01*
X166742857Y-142063097D02*
X166857142Y-142063097D01*
X166857142Y-142063097D02*
X166933333Y-142101192D01*
X166933333Y-142101192D02*
X166971428Y-142139287D01*
X166971428Y-142139287D02*
X167009523Y-142215478D01*
X167009523Y-142215478D02*
X167009523Y-142405954D01*
X167009523Y-142405954D02*
X166971428Y-142482144D01*
X166971428Y-142482144D02*
X166933333Y-142520240D01*
X166933333Y-142520240D02*
X166857142Y-142558335D01*
X166857142Y-142558335D02*
X166628571Y-142558335D01*
X166628571Y-142558335D02*
X166552380Y-142520240D01*
X166552380Y-142520240D02*
X166514285Y-142482144D01*
X160543333Y-103968335D02*
X160543333Y-104539763D01*
X160543333Y-104539763D02*
X160505238Y-104654049D01*
X160505238Y-104654049D02*
X160429047Y-104730240D01*
X160429047Y-104730240D02*
X160314762Y-104768335D01*
X160314762Y-104768335D02*
X160238571Y-104768335D01*
X160848095Y-103968335D02*
X161343333Y-103968335D01*
X161343333Y-103968335D02*
X161076667Y-104273097D01*
X161076667Y-104273097D02*
X161190952Y-104273097D01*
X161190952Y-104273097D02*
X161267143Y-104311192D01*
X161267143Y-104311192D02*
X161305238Y-104349287D01*
X161305238Y-104349287D02*
X161343333Y-104425478D01*
X161343333Y-104425478D02*
X161343333Y-104615954D01*
X161343333Y-104615954D02*
X161305238Y-104692144D01*
X161305238Y-104692144D02*
X161267143Y-104730240D01*
X161267143Y-104730240D02*
X161190952Y-104768335D01*
X161190952Y-104768335D02*
X160962381Y-104768335D01*
X160962381Y-104768335D02*
X160886190Y-104730240D01*
X160886190Y-104730240D02*
X160848095Y-104692144D01*
X176485714Y-118482144D02*
X176447618Y-118520240D01*
X176447618Y-118520240D02*
X176333333Y-118558335D01*
X176333333Y-118558335D02*
X176257142Y-118558335D01*
X176257142Y-118558335D02*
X176142856Y-118520240D01*
X176142856Y-118520240D02*
X176066666Y-118444049D01*
X176066666Y-118444049D02*
X176028571Y-118367859D01*
X176028571Y-118367859D02*
X175990475Y-118215478D01*
X175990475Y-118215478D02*
X175990475Y-118101192D01*
X175990475Y-118101192D02*
X176028571Y-117948811D01*
X176028571Y-117948811D02*
X176066666Y-117872620D01*
X176066666Y-117872620D02*
X176142856Y-117796430D01*
X176142856Y-117796430D02*
X176257142Y-117758335D01*
X176257142Y-117758335D02*
X176333333Y-117758335D01*
X176333333Y-117758335D02*
X176447618Y-117796430D01*
X176447618Y-117796430D02*
X176485714Y-117834525D01*
X176790475Y-117834525D02*
X176828571Y-117796430D01*
X176828571Y-117796430D02*
X176904761Y-117758335D01*
X176904761Y-117758335D02*
X177095237Y-117758335D01*
X177095237Y-117758335D02*
X177171428Y-117796430D01*
X177171428Y-117796430D02*
X177209523Y-117834525D01*
X177209523Y-117834525D02*
X177247618Y-117910716D01*
X177247618Y-117910716D02*
X177247618Y-117986906D01*
X177247618Y-117986906D02*
X177209523Y-118101192D01*
X177209523Y-118101192D02*
X176752380Y-118558335D01*
X176752380Y-118558335D02*
X177247618Y-118558335D01*
X178009523Y-118558335D02*
X177552380Y-118558335D01*
X177780952Y-118558335D02*
X177780952Y-117758335D01*
X177780952Y-117758335D02*
X177704761Y-117872620D01*
X177704761Y-117872620D02*
X177628571Y-117948811D01*
X177628571Y-117948811D02*
X177552380Y-117986906D01*
X174485714Y-139482144D02*
X174447618Y-139520240D01*
X174447618Y-139520240D02*
X174333333Y-139558335D01*
X174333333Y-139558335D02*
X174257142Y-139558335D01*
X174257142Y-139558335D02*
X174142856Y-139520240D01*
X174142856Y-139520240D02*
X174066666Y-139444049D01*
X174066666Y-139444049D02*
X174028571Y-139367859D01*
X174028571Y-139367859D02*
X173990475Y-139215478D01*
X173990475Y-139215478D02*
X173990475Y-139101192D01*
X173990475Y-139101192D02*
X174028571Y-138948811D01*
X174028571Y-138948811D02*
X174066666Y-138872620D01*
X174066666Y-138872620D02*
X174142856Y-138796430D01*
X174142856Y-138796430D02*
X174257142Y-138758335D01*
X174257142Y-138758335D02*
X174333333Y-138758335D01*
X174333333Y-138758335D02*
X174447618Y-138796430D01*
X174447618Y-138796430D02*
X174485714Y-138834525D01*
X174790475Y-138834525D02*
X174828571Y-138796430D01*
X174828571Y-138796430D02*
X174904761Y-138758335D01*
X174904761Y-138758335D02*
X175095237Y-138758335D01*
X175095237Y-138758335D02*
X175171428Y-138796430D01*
X175171428Y-138796430D02*
X175209523Y-138834525D01*
X175209523Y-138834525D02*
X175247618Y-138910716D01*
X175247618Y-138910716D02*
X175247618Y-138986906D01*
X175247618Y-138986906D02*
X175209523Y-139101192D01*
X175209523Y-139101192D02*
X174752380Y-139558335D01*
X174752380Y-139558335D02*
X175247618Y-139558335D01*
X175704761Y-139101192D02*
X175628571Y-139063097D01*
X175628571Y-139063097D02*
X175590476Y-139025001D01*
X175590476Y-139025001D02*
X175552380Y-138948811D01*
X175552380Y-138948811D02*
X175552380Y-138910716D01*
X175552380Y-138910716D02*
X175590476Y-138834525D01*
X175590476Y-138834525D02*
X175628571Y-138796430D01*
X175628571Y-138796430D02*
X175704761Y-138758335D01*
X175704761Y-138758335D02*
X175857142Y-138758335D01*
X175857142Y-138758335D02*
X175933333Y-138796430D01*
X175933333Y-138796430D02*
X175971428Y-138834525D01*
X175971428Y-138834525D02*
X176009523Y-138910716D01*
X176009523Y-138910716D02*
X176009523Y-138948811D01*
X176009523Y-138948811D02*
X175971428Y-139025001D01*
X175971428Y-139025001D02*
X175933333Y-139063097D01*
X175933333Y-139063097D02*
X175857142Y-139101192D01*
X175857142Y-139101192D02*
X175704761Y-139101192D01*
X175704761Y-139101192D02*
X175628571Y-139139287D01*
X175628571Y-139139287D02*
X175590476Y-139177382D01*
X175590476Y-139177382D02*
X175552380Y-139253573D01*
X175552380Y-139253573D02*
X175552380Y-139405954D01*
X175552380Y-139405954D02*
X175590476Y-139482144D01*
X175590476Y-139482144D02*
X175628571Y-139520240D01*
X175628571Y-139520240D02*
X175704761Y-139558335D01*
X175704761Y-139558335D02*
X175857142Y-139558335D01*
X175857142Y-139558335D02*
X175933333Y-139520240D01*
X175933333Y-139520240D02*
X175971428Y-139482144D01*
X175971428Y-139482144D02*
X176009523Y-139405954D01*
X176009523Y-139405954D02*
X176009523Y-139253573D01*
X176009523Y-139253573D02*
X175971428Y-139177382D01*
X175971428Y-139177382D02*
X175933333Y-139139287D01*
X175933333Y-139139287D02*
X175857142Y-139101192D01*
X134485714Y-119982144D02*
X134447618Y-120020240D01*
X134447618Y-120020240D02*
X134333333Y-120058335D01*
X134333333Y-120058335D02*
X134257142Y-120058335D01*
X134257142Y-120058335D02*
X134142856Y-120020240D01*
X134142856Y-120020240D02*
X134066666Y-119944049D01*
X134066666Y-119944049D02*
X134028571Y-119867859D01*
X134028571Y-119867859D02*
X133990475Y-119715478D01*
X133990475Y-119715478D02*
X133990475Y-119601192D01*
X133990475Y-119601192D02*
X134028571Y-119448811D01*
X134028571Y-119448811D02*
X134066666Y-119372620D01*
X134066666Y-119372620D02*
X134142856Y-119296430D01*
X134142856Y-119296430D02*
X134257142Y-119258335D01*
X134257142Y-119258335D02*
X134333333Y-119258335D01*
X134333333Y-119258335D02*
X134447618Y-119296430D01*
X134447618Y-119296430D02*
X134485714Y-119334525D01*
X135171428Y-119525001D02*
X135171428Y-120058335D01*
X134980952Y-119220240D02*
X134790475Y-119791668D01*
X134790475Y-119791668D02*
X135285714Y-119791668D01*
X136009523Y-120058335D02*
X135552380Y-120058335D01*
X135780952Y-120058335D02*
X135780952Y-119258335D01*
X135780952Y-119258335D02*
X135704761Y-119372620D01*
X135704761Y-119372620D02*
X135628571Y-119448811D01*
X135628571Y-119448811D02*
X135552380Y-119486906D01*
X222866667Y-180982144D02*
X222828571Y-181020240D01*
X222828571Y-181020240D02*
X222714286Y-181058335D01*
X222714286Y-181058335D02*
X222638095Y-181058335D01*
X222638095Y-181058335D02*
X222523809Y-181020240D01*
X222523809Y-181020240D02*
X222447619Y-180944049D01*
X222447619Y-180944049D02*
X222409524Y-180867859D01*
X222409524Y-180867859D02*
X222371428Y-180715478D01*
X222371428Y-180715478D02*
X222371428Y-180601192D01*
X222371428Y-180601192D02*
X222409524Y-180448811D01*
X222409524Y-180448811D02*
X222447619Y-180372620D01*
X222447619Y-180372620D02*
X222523809Y-180296430D01*
X222523809Y-180296430D02*
X222638095Y-180258335D01*
X222638095Y-180258335D02*
X222714286Y-180258335D01*
X222714286Y-180258335D02*
X222828571Y-180296430D01*
X222828571Y-180296430D02*
X222866667Y-180334525D01*
X223323809Y-180601192D02*
X223247619Y-180563097D01*
X223247619Y-180563097D02*
X223209524Y-180525001D01*
X223209524Y-180525001D02*
X223171428Y-180448811D01*
X223171428Y-180448811D02*
X223171428Y-180410716D01*
X223171428Y-180410716D02*
X223209524Y-180334525D01*
X223209524Y-180334525D02*
X223247619Y-180296430D01*
X223247619Y-180296430D02*
X223323809Y-180258335D01*
X223323809Y-180258335D02*
X223476190Y-180258335D01*
X223476190Y-180258335D02*
X223552381Y-180296430D01*
X223552381Y-180296430D02*
X223590476Y-180334525D01*
X223590476Y-180334525D02*
X223628571Y-180410716D01*
X223628571Y-180410716D02*
X223628571Y-180448811D01*
X223628571Y-180448811D02*
X223590476Y-180525001D01*
X223590476Y-180525001D02*
X223552381Y-180563097D01*
X223552381Y-180563097D02*
X223476190Y-180601192D01*
X223476190Y-180601192D02*
X223323809Y-180601192D01*
X223323809Y-180601192D02*
X223247619Y-180639287D01*
X223247619Y-180639287D02*
X223209524Y-180677382D01*
X223209524Y-180677382D02*
X223171428Y-180753573D01*
X223171428Y-180753573D02*
X223171428Y-180905954D01*
X223171428Y-180905954D02*
X223209524Y-180982144D01*
X223209524Y-180982144D02*
X223247619Y-181020240D01*
X223247619Y-181020240D02*
X223323809Y-181058335D01*
X223323809Y-181058335D02*
X223476190Y-181058335D01*
X223476190Y-181058335D02*
X223552381Y-181020240D01*
X223552381Y-181020240D02*
X223590476Y-180982144D01*
X223590476Y-180982144D02*
X223628571Y-180905954D01*
X223628571Y-180905954D02*
X223628571Y-180753573D01*
X223628571Y-180753573D02*
X223590476Y-180677382D01*
X223590476Y-180677382D02*
X223552381Y-180639287D01*
X223552381Y-180639287D02*
X223476190Y-180601192D01*
X133485714Y-147732144D02*
X133447618Y-147770240D01*
X133447618Y-147770240D02*
X133333333Y-147808335D01*
X133333333Y-147808335D02*
X133257142Y-147808335D01*
X133257142Y-147808335D02*
X133142856Y-147770240D01*
X133142856Y-147770240D02*
X133066666Y-147694049D01*
X133066666Y-147694049D02*
X133028571Y-147617859D01*
X133028571Y-147617859D02*
X132990475Y-147465478D01*
X132990475Y-147465478D02*
X132990475Y-147351192D01*
X132990475Y-147351192D02*
X133028571Y-147198811D01*
X133028571Y-147198811D02*
X133066666Y-147122620D01*
X133066666Y-147122620D02*
X133142856Y-147046430D01*
X133142856Y-147046430D02*
X133257142Y-147008335D01*
X133257142Y-147008335D02*
X133333333Y-147008335D01*
X133333333Y-147008335D02*
X133447618Y-147046430D01*
X133447618Y-147046430D02*
X133485714Y-147084525D01*
X133790475Y-147084525D02*
X133828571Y-147046430D01*
X133828571Y-147046430D02*
X133904761Y-147008335D01*
X133904761Y-147008335D02*
X134095237Y-147008335D01*
X134095237Y-147008335D02*
X134171428Y-147046430D01*
X134171428Y-147046430D02*
X134209523Y-147084525D01*
X134209523Y-147084525D02*
X134247618Y-147160716D01*
X134247618Y-147160716D02*
X134247618Y-147236906D01*
X134247618Y-147236906D02*
X134209523Y-147351192D01*
X134209523Y-147351192D02*
X133752380Y-147808335D01*
X133752380Y-147808335D02*
X134247618Y-147808335D01*
X134514285Y-147008335D02*
X135009523Y-147008335D01*
X135009523Y-147008335D02*
X134742857Y-147313097D01*
X134742857Y-147313097D02*
X134857142Y-147313097D01*
X134857142Y-147313097D02*
X134933333Y-147351192D01*
X134933333Y-147351192D02*
X134971428Y-147389287D01*
X134971428Y-147389287D02*
X135009523Y-147465478D01*
X135009523Y-147465478D02*
X135009523Y-147655954D01*
X135009523Y-147655954D02*
X134971428Y-147732144D01*
X134971428Y-147732144D02*
X134933333Y-147770240D01*
X134933333Y-147770240D02*
X134857142Y-147808335D01*
X134857142Y-147808335D02*
X134628571Y-147808335D01*
X134628571Y-147808335D02*
X134552380Y-147770240D01*
X134552380Y-147770240D02*
X134514285Y-147732144D01*
X151485714Y-118732144D02*
X151447618Y-118770240D01*
X151447618Y-118770240D02*
X151333333Y-118808335D01*
X151333333Y-118808335D02*
X151257142Y-118808335D01*
X151257142Y-118808335D02*
X151142856Y-118770240D01*
X151142856Y-118770240D02*
X151066666Y-118694049D01*
X151066666Y-118694049D02*
X151028571Y-118617859D01*
X151028571Y-118617859D02*
X150990475Y-118465478D01*
X150990475Y-118465478D02*
X150990475Y-118351192D01*
X150990475Y-118351192D02*
X151028571Y-118198811D01*
X151028571Y-118198811D02*
X151066666Y-118122620D01*
X151066666Y-118122620D02*
X151142856Y-118046430D01*
X151142856Y-118046430D02*
X151257142Y-118008335D01*
X151257142Y-118008335D02*
X151333333Y-118008335D01*
X151333333Y-118008335D02*
X151447618Y-118046430D01*
X151447618Y-118046430D02*
X151485714Y-118084525D01*
X152247618Y-118808335D02*
X151790475Y-118808335D01*
X152019047Y-118808335D02*
X152019047Y-118008335D01*
X152019047Y-118008335D02*
X151942856Y-118122620D01*
X151942856Y-118122620D02*
X151866666Y-118198811D01*
X151866666Y-118198811D02*
X151790475Y-118236906D01*
X152514285Y-118008335D02*
X153047619Y-118008335D01*
X153047619Y-118008335D02*
X152704761Y-118808335D01*
X196195476Y-158718335D02*
X196195476Y-159365954D01*
X196195476Y-159365954D02*
X196233571Y-159442144D01*
X196233571Y-159442144D02*
X196271666Y-159480240D01*
X196271666Y-159480240D02*
X196347857Y-159518335D01*
X196347857Y-159518335D02*
X196500238Y-159518335D01*
X196500238Y-159518335D02*
X196576428Y-159480240D01*
X196576428Y-159480240D02*
X196614523Y-159442144D01*
X196614523Y-159442144D02*
X196652619Y-159365954D01*
X196652619Y-159365954D02*
X196652619Y-158718335D01*
X196957380Y-158718335D02*
X197490714Y-158718335D01*
X197490714Y-158718335D02*
X197147856Y-159518335D01*
X146866667Y-114058335D02*
X146600000Y-113677382D01*
X146409524Y-114058335D02*
X146409524Y-113258335D01*
X146409524Y-113258335D02*
X146714286Y-113258335D01*
X146714286Y-113258335D02*
X146790476Y-113296430D01*
X146790476Y-113296430D02*
X146828571Y-113334525D01*
X146828571Y-113334525D02*
X146866667Y-113410716D01*
X146866667Y-113410716D02*
X146866667Y-113525001D01*
X146866667Y-113525001D02*
X146828571Y-113601192D01*
X146828571Y-113601192D02*
X146790476Y-113639287D01*
X146790476Y-113639287D02*
X146714286Y-113677382D01*
X146714286Y-113677382D02*
X146409524Y-113677382D01*
X147171428Y-113334525D02*
X147209524Y-113296430D01*
X147209524Y-113296430D02*
X147285714Y-113258335D01*
X147285714Y-113258335D02*
X147476190Y-113258335D01*
X147476190Y-113258335D02*
X147552381Y-113296430D01*
X147552381Y-113296430D02*
X147590476Y-113334525D01*
X147590476Y-113334525D02*
X147628571Y-113410716D01*
X147628571Y-113410716D02*
X147628571Y-113486906D01*
X147628571Y-113486906D02*
X147590476Y-113601192D01*
X147590476Y-113601192D02*
X147133333Y-114058335D01*
X147133333Y-114058335D02*
X147628571Y-114058335D01*
X115485714Y-145882144D02*
X115447618Y-145920240D01*
X115447618Y-145920240D02*
X115333333Y-145958335D01*
X115333333Y-145958335D02*
X115257142Y-145958335D01*
X115257142Y-145958335D02*
X115142856Y-145920240D01*
X115142856Y-145920240D02*
X115066666Y-145844049D01*
X115066666Y-145844049D02*
X115028571Y-145767859D01*
X115028571Y-145767859D02*
X114990475Y-145615478D01*
X114990475Y-145615478D02*
X114990475Y-145501192D01*
X114990475Y-145501192D02*
X115028571Y-145348811D01*
X115028571Y-145348811D02*
X115066666Y-145272620D01*
X115066666Y-145272620D02*
X115142856Y-145196430D01*
X115142856Y-145196430D02*
X115257142Y-145158335D01*
X115257142Y-145158335D02*
X115333333Y-145158335D01*
X115333333Y-145158335D02*
X115447618Y-145196430D01*
X115447618Y-145196430D02*
X115485714Y-145234525D01*
X115790475Y-145234525D02*
X115828571Y-145196430D01*
X115828571Y-145196430D02*
X115904761Y-145158335D01*
X115904761Y-145158335D02*
X116095237Y-145158335D01*
X116095237Y-145158335D02*
X116171428Y-145196430D01*
X116171428Y-145196430D02*
X116209523Y-145234525D01*
X116209523Y-145234525D02*
X116247618Y-145310716D01*
X116247618Y-145310716D02*
X116247618Y-145386906D01*
X116247618Y-145386906D02*
X116209523Y-145501192D01*
X116209523Y-145501192D02*
X115752380Y-145958335D01*
X115752380Y-145958335D02*
X116247618Y-145958335D01*
X116514285Y-145158335D02*
X117047619Y-145158335D01*
X117047619Y-145158335D02*
X116704761Y-145958335D01*
X161485714Y-118732144D02*
X161447618Y-118770240D01*
X161447618Y-118770240D02*
X161333333Y-118808335D01*
X161333333Y-118808335D02*
X161257142Y-118808335D01*
X161257142Y-118808335D02*
X161142856Y-118770240D01*
X161142856Y-118770240D02*
X161066666Y-118694049D01*
X161066666Y-118694049D02*
X161028571Y-118617859D01*
X161028571Y-118617859D02*
X160990475Y-118465478D01*
X160990475Y-118465478D02*
X160990475Y-118351192D01*
X160990475Y-118351192D02*
X161028571Y-118198811D01*
X161028571Y-118198811D02*
X161066666Y-118122620D01*
X161066666Y-118122620D02*
X161142856Y-118046430D01*
X161142856Y-118046430D02*
X161257142Y-118008335D01*
X161257142Y-118008335D02*
X161333333Y-118008335D01*
X161333333Y-118008335D02*
X161447618Y-118046430D01*
X161447618Y-118046430D02*
X161485714Y-118084525D01*
X162247618Y-118808335D02*
X161790475Y-118808335D01*
X162019047Y-118808335D02*
X162019047Y-118008335D01*
X162019047Y-118008335D02*
X161942856Y-118122620D01*
X161942856Y-118122620D02*
X161866666Y-118198811D01*
X161866666Y-118198811D02*
X161790475Y-118236906D01*
X162704761Y-118351192D02*
X162628571Y-118313097D01*
X162628571Y-118313097D02*
X162590476Y-118275001D01*
X162590476Y-118275001D02*
X162552380Y-118198811D01*
X162552380Y-118198811D02*
X162552380Y-118160716D01*
X162552380Y-118160716D02*
X162590476Y-118084525D01*
X162590476Y-118084525D02*
X162628571Y-118046430D01*
X162628571Y-118046430D02*
X162704761Y-118008335D01*
X162704761Y-118008335D02*
X162857142Y-118008335D01*
X162857142Y-118008335D02*
X162933333Y-118046430D01*
X162933333Y-118046430D02*
X162971428Y-118084525D01*
X162971428Y-118084525D02*
X163009523Y-118160716D01*
X163009523Y-118160716D02*
X163009523Y-118198811D01*
X163009523Y-118198811D02*
X162971428Y-118275001D01*
X162971428Y-118275001D02*
X162933333Y-118313097D01*
X162933333Y-118313097D02*
X162857142Y-118351192D01*
X162857142Y-118351192D02*
X162704761Y-118351192D01*
X162704761Y-118351192D02*
X162628571Y-118389287D01*
X162628571Y-118389287D02*
X162590476Y-118427382D01*
X162590476Y-118427382D02*
X162552380Y-118503573D01*
X162552380Y-118503573D02*
X162552380Y-118655954D01*
X162552380Y-118655954D02*
X162590476Y-118732144D01*
X162590476Y-118732144D02*
X162628571Y-118770240D01*
X162628571Y-118770240D02*
X162704761Y-118808335D01*
X162704761Y-118808335D02*
X162857142Y-118808335D01*
X162857142Y-118808335D02*
X162933333Y-118770240D01*
X162933333Y-118770240D02*
X162971428Y-118732144D01*
X162971428Y-118732144D02*
X163009523Y-118655954D01*
X163009523Y-118655954D02*
X163009523Y-118503573D01*
X163009523Y-118503573D02*
X162971428Y-118427382D01*
X162971428Y-118427382D02*
X162933333Y-118389287D01*
X162933333Y-118389287D02*
X162857142Y-118351192D01*
X174866667Y-104808335D02*
X174600000Y-104427382D01*
X174409524Y-104808335D02*
X174409524Y-104008335D01*
X174409524Y-104008335D02*
X174714286Y-104008335D01*
X174714286Y-104008335D02*
X174790476Y-104046430D01*
X174790476Y-104046430D02*
X174828571Y-104084525D01*
X174828571Y-104084525D02*
X174866667Y-104160716D01*
X174866667Y-104160716D02*
X174866667Y-104275001D01*
X174866667Y-104275001D02*
X174828571Y-104351192D01*
X174828571Y-104351192D02*
X174790476Y-104389287D01*
X174790476Y-104389287D02*
X174714286Y-104427382D01*
X174714286Y-104427382D02*
X174409524Y-104427382D01*
X175323809Y-104351192D02*
X175247619Y-104313097D01*
X175247619Y-104313097D02*
X175209524Y-104275001D01*
X175209524Y-104275001D02*
X175171428Y-104198811D01*
X175171428Y-104198811D02*
X175171428Y-104160716D01*
X175171428Y-104160716D02*
X175209524Y-104084525D01*
X175209524Y-104084525D02*
X175247619Y-104046430D01*
X175247619Y-104046430D02*
X175323809Y-104008335D01*
X175323809Y-104008335D02*
X175476190Y-104008335D01*
X175476190Y-104008335D02*
X175552381Y-104046430D01*
X175552381Y-104046430D02*
X175590476Y-104084525D01*
X175590476Y-104084525D02*
X175628571Y-104160716D01*
X175628571Y-104160716D02*
X175628571Y-104198811D01*
X175628571Y-104198811D02*
X175590476Y-104275001D01*
X175590476Y-104275001D02*
X175552381Y-104313097D01*
X175552381Y-104313097D02*
X175476190Y-104351192D01*
X175476190Y-104351192D02*
X175323809Y-104351192D01*
X175323809Y-104351192D02*
X175247619Y-104389287D01*
X175247619Y-104389287D02*
X175209524Y-104427382D01*
X175209524Y-104427382D02*
X175171428Y-104503573D01*
X175171428Y-104503573D02*
X175171428Y-104655954D01*
X175171428Y-104655954D02*
X175209524Y-104732144D01*
X175209524Y-104732144D02*
X175247619Y-104770240D01*
X175247619Y-104770240D02*
X175323809Y-104808335D01*
X175323809Y-104808335D02*
X175476190Y-104808335D01*
X175476190Y-104808335D02*
X175552381Y-104770240D01*
X175552381Y-104770240D02*
X175590476Y-104732144D01*
X175590476Y-104732144D02*
X175628571Y-104655954D01*
X175628571Y-104655954D02*
X175628571Y-104503573D01*
X175628571Y-104503573D02*
X175590476Y-104427382D01*
X175590476Y-104427382D02*
X175552381Y-104389287D01*
X175552381Y-104389287D02*
X175476190Y-104351192D01*
X200470476Y-133218335D02*
X200927619Y-133218335D01*
X200699047Y-134018335D02*
X200699047Y-133218335D01*
X201118095Y-133218335D02*
X201613333Y-133218335D01*
X201613333Y-133218335D02*
X201346667Y-133523097D01*
X201346667Y-133523097D02*
X201460952Y-133523097D01*
X201460952Y-133523097D02*
X201537143Y-133561192D01*
X201537143Y-133561192D02*
X201575238Y-133599287D01*
X201575238Y-133599287D02*
X201613333Y-133675478D01*
X201613333Y-133675478D02*
X201613333Y-133865954D01*
X201613333Y-133865954D02*
X201575238Y-133942144D01*
X201575238Y-133942144D02*
X201537143Y-133980240D01*
X201537143Y-133980240D02*
X201460952Y-134018335D01*
X201460952Y-134018335D02*
X201232381Y-134018335D01*
X201232381Y-134018335D02*
X201156190Y-133980240D01*
X201156190Y-133980240D02*
X201118095Y-133942144D01*
%TO.C,U6*%
D11*
X194160000Y-153670000D02*
X194160000Y-158870000D01*
X194160000Y-158870000D02*
X199460000Y-158870000D01*
X195810000Y-153670000D02*
X194160000Y-153670000D01*
X199460000Y-153670000D02*
X197810000Y-153670000D01*
X199460000Y-158870000D02*
X199460000Y-153670000D01*
X197810000Y-153670000D02*
G75*
G02*
X195810000Y-153670000I-1000000J0D01*
G01*
%TO.C,D2*%
X119600000Y-181350000D02*
X119600000Y-184650000D01*
X119600000Y-181350000D02*
X125110000Y-181350000D01*
X119600000Y-184650000D02*
X125110000Y-184650000D01*
%TO.C,J1*%
X102380000Y-175280000D02*
X109700000Y-175280000D01*
X102380000Y-185320000D02*
X102380000Y-175280000D01*
X110300000Y-175280000D02*
X112620000Y-175280000D01*
X112620000Y-175280000D02*
X112620000Y-185320000D01*
X112620000Y-175900000D02*
X102380000Y-175900000D01*
X112620000Y-177400000D02*
X102380000Y-177400000D01*
X112620000Y-182300000D02*
X102380000Y-182300000D01*
X112620000Y-185320000D02*
X102380000Y-185320000D01*
X110000000Y-175280000D02*
X109560000Y-174670000D01*
X110440000Y-174670000D01*
X110000000Y-175280000D01*
G36*
X110000000Y-175280000D02*
G01*
X109560000Y-174670000D01*
X110440000Y-174670000D01*
X110000000Y-175280000D01*
G37*
%TO.C,R13*%
X105762742Y-115477500D02*
X106237258Y-115477500D01*
X105762742Y-116522500D02*
X106237258Y-116522500D01*
%TO.C,U3*%
X149890000Y-122890000D02*
X150590000Y-122890000D01*
X149890000Y-123590000D02*
X149890000Y-122890000D01*
X149890000Y-137110000D02*
X149890000Y-136410000D01*
X150590000Y-137110000D02*
X149890000Y-137110000D01*
X163410000Y-122890000D02*
X164110000Y-122890000D01*
X164110000Y-122890000D02*
X164110000Y-123590000D01*
X164110000Y-136410000D02*
X164110000Y-137110000D01*
X164110000Y-137110000D02*
X163410000Y-137110000D01*
X149250000Y-123590000D02*
X148910000Y-123120000D01*
X149590000Y-123120000D01*
X149250000Y-123590000D01*
G36*
X149250000Y-123590000D02*
G01*
X148910000Y-123120000D01*
X149590000Y-123120000D01*
X149250000Y-123590000D01*
G37*
%TO.C,C14*%
X170738748Y-143265000D02*
X171261252Y-143265000D01*
X170738748Y-144735000D02*
X171261252Y-144735000D01*
%TO.C,R7*%
X169762742Y-105477500D02*
X170237258Y-105477500D01*
X169762742Y-106522500D02*
X170237258Y-106522500D01*
%TO.C,D6*%
X173515000Y-109265000D02*
X173515000Y-110735000D01*
X173515000Y-110735000D02*
X175800000Y-110735000D01*
X175800000Y-109265000D02*
X173515000Y-109265000D01*
%TO.C,C3*%
X186500000Y-180860000D02*
X187500000Y-180860000D01*
X187000000Y-180360000D02*
X187000000Y-181360000D01*
X187740000Y-180174437D02*
X187740000Y-181860000D01*
X187740000Y-180174437D02*
X188804437Y-179110000D01*
X187740000Y-186565563D02*
X187740000Y-184880000D01*
X187740000Y-186565563D02*
X188804437Y-187630000D01*
X188804437Y-179110000D02*
X196260000Y-179110000D01*
X188804437Y-187630000D02*
X196260000Y-187630000D01*
X196260000Y-179110000D02*
X196260000Y-181860000D01*
X196260000Y-187630000D02*
X196260000Y-184880000D01*
%TO.C,U5*%
X177690000Y-127040000D02*
X182310000Y-127040000D01*
X177690000Y-127315000D02*
X177690000Y-127040000D01*
X177690000Y-136960000D02*
X177690000Y-136685000D01*
X182310000Y-127040000D02*
X182310000Y-127315000D01*
X182310000Y-136685000D02*
X182310000Y-136960000D01*
X182310000Y-136960000D02*
X177690000Y-136960000D01*
X177050000Y-127310000D02*
X176710000Y-126840000D01*
X177390000Y-126840000D01*
X177050000Y-127310000D01*
G36*
X177050000Y-127310000D02*
G01*
X176710000Y-126840000D01*
X177390000Y-126840000D01*
X177050000Y-127310000D01*
G37*
%TO.C,R18*%
X122047500Y-127237258D02*
X122047500Y-126762742D01*
X123092500Y-127237258D02*
X123092500Y-126762742D01*
%TO.C,C20*%
X171859420Y-119490000D02*
X172140580Y-119490000D01*
X171859420Y-120510000D02*
X172140580Y-120510000D01*
%TO.C,R9*%
X179762742Y-105477500D02*
X180237258Y-105477500D01*
X179762742Y-106522500D02*
X180237258Y-106522500D01*
%TO.C,U4*%
X126890000Y-129890000D02*
X127365000Y-129890000D01*
X126890000Y-130365000D02*
X126890000Y-129890000D01*
X126890000Y-134110000D02*
X126890000Y-133635000D01*
X127365000Y-134110000D02*
X126890000Y-134110000D01*
X130635000Y-129890000D02*
X131110000Y-129890000D01*
X131110000Y-129890000D02*
X131110000Y-130365000D01*
X131110000Y-133635000D02*
X131110000Y-134110000D01*
X131110000Y-134110000D02*
X130635000Y-134110000D01*
X126390000Y-130750000D02*
X126060000Y-130990000D01*
X126060000Y-130510000D01*
X126390000Y-130750000D01*
G36*
X126390000Y-130750000D02*
G01*
X126060000Y-130990000D01*
X126060000Y-130510000D01*
X126390000Y-130750000D01*
G37*
%TO.C,FB1*%
X215600378Y-182440000D02*
X216399622Y-182440000D01*
X215600378Y-183560000D02*
X216399622Y-183560000D01*
%TO.C,R10*%
X136477500Y-138237258D02*
X136477500Y-137762742D01*
X137522500Y-138237258D02*
X137522500Y-137762742D01*
%TO.C,R1*%
X105477500Y-172992258D02*
X105477500Y-172517742D01*
X106522500Y-172992258D02*
X106522500Y-172517742D01*
%TO.C,FB2*%
X215600378Y-186440000D02*
X216399622Y-186440000D01*
X215600378Y-187560000D02*
X216399622Y-187560000D01*
%TO.C,C4*%
X199490000Y-183140580D02*
X199490000Y-182859420D01*
X200510000Y-183140580D02*
X200510000Y-182859420D01*
%TO.C,C40*%
X128859420Y-117490000D02*
X129140580Y-117490000D01*
X128859420Y-118510000D02*
X129140580Y-118510000D01*
%TO.C,Y2*%
X126940000Y-142290000D02*
X126940000Y-145710000D01*
X126940000Y-145710000D02*
X131060000Y-145710000D01*
%TO.C,C1*%
X137290000Y-180490000D02*
X138290000Y-180490000D01*
X137790000Y-179990000D02*
X137790000Y-180990000D01*
X138530000Y-179804437D02*
X138530000Y-181490000D01*
X138530000Y-179804437D02*
X139594437Y-178740000D01*
X138530000Y-186195563D02*
X138530000Y-184510000D01*
X138530000Y-186195563D02*
X139594437Y-187260000D01*
X139594437Y-178740000D02*
X147050000Y-178740000D01*
X139594437Y-187260000D02*
X147050000Y-187260000D01*
X147050000Y-178740000D02*
X147050000Y-181490000D01*
X147050000Y-187260000D02*
X147050000Y-184510000D01*
%TO.C,J4*%
X96170000Y-128470000D02*
X108610000Y-128470000D01*
X96170000Y-144420000D02*
X96170000Y-128470000D01*
X108610000Y-144420000D02*
X96170000Y-144420000D01*
X111810000Y-128470000D02*
X118090000Y-128470000D01*
X114500000Y-128270000D02*
X112500000Y-128270000D01*
X118090000Y-128470000D02*
X118090000Y-144420000D01*
X118090000Y-144420000D02*
X111810000Y-144420000D01*
%TO.C,C29*%
X179859420Y-140490000D02*
X180140580Y-140490000D01*
X179859420Y-141510000D02*
X180140580Y-141510000D01*
%TO.C,R19*%
X122477500Y-132237258D02*
X122477500Y-131762742D01*
X123522500Y-132237258D02*
X123522500Y-131762742D01*
%TO.C,R6*%
X163477500Y-116237258D02*
X163477500Y-115762742D01*
X164522500Y-116237258D02*
X164522500Y-115762742D01*
%TO.C,R20*%
X122477500Y-137237258D02*
X122477500Y-136762742D01*
X123522500Y-137237258D02*
X123522500Y-136762742D01*
%TO.C,R4*%
X155477500Y-116237258D02*
X155477500Y-115762742D01*
X156522500Y-116237258D02*
X156522500Y-115762742D01*
%TO.C,J5*%
X211245662Y-146750000D02*
X211678675Y-147000000D01*
X211245662Y-147250000D02*
X211245662Y-146750000D01*
X211678675Y-147000000D02*
X211245662Y-147250000D01*
X212140000Y-103770000D02*
X224480000Y-103770000D01*
X212140000Y-156990000D02*
X212140000Y-103770000D01*
X224480000Y-156990000D02*
X212140000Y-156990000D01*
%TO.C,C31*%
X177490000Y-124140580D02*
X177490000Y-123859420D01*
X178510000Y-124140580D02*
X178510000Y-123859420D01*
%TO.C,C34*%
X171859420Y-113490000D02*
X172140580Y-113490000D01*
X171859420Y-114510000D02*
X172140580Y-114510000D01*
%TO.C,J2*%
X138620000Y-108380000D02*
X138620000Y-107000000D01*
X140000000Y-108380000D02*
X138620000Y-108380000D01*
X141270000Y-105620000D02*
X151540000Y-105620000D01*
X141270000Y-108380000D02*
X141270000Y-105620000D01*
X141270000Y-108380000D02*
X151540000Y-108380000D01*
X151540000Y-108380000D02*
X151540000Y-105620000D01*
%TO.C,C26*%
X109859420Y-146640000D02*
X110140580Y-146640000D01*
X109859420Y-147660000D02*
X110140580Y-147660000D01*
%TO.C,R21*%
X174477500Y-124237258D02*
X174477500Y-123762742D01*
X175522500Y-124237258D02*
X175522500Y-123762742D01*
%TO.C,D1*%
X127045000Y-179750000D02*
X135555000Y-179750000D01*
X127045000Y-186250000D02*
X127045000Y-179750000D01*
X127045000Y-186250000D02*
X135555000Y-186250000D01*
%TO.C,R15*%
X123477500Y-142237258D02*
X123477500Y-141762742D01*
X124522500Y-142237258D02*
X124522500Y-141762742D01*
%TO.C,U8*%
X194160000Y-166670000D02*
X194160000Y-171870000D01*
X194160000Y-171870000D02*
X199460000Y-171870000D01*
X195810000Y-166670000D02*
X194160000Y-166670000D01*
X199460000Y-166670000D02*
X197810000Y-166670000D01*
X199460000Y-171870000D02*
X199460000Y-166670000D01*
X197810000Y-166670000D02*
G75*
G02*
X195810000Y-166670000I-1000000J0D01*
G01*
%TO.C,C15*%
X141859420Y-119490000D02*
X142140580Y-119490000D01*
X141859420Y-120510000D02*
X142140580Y-120510000D01*
%TO.C,R3*%
X151477500Y-116237258D02*
X151477500Y-115762742D01*
X152522500Y-116237258D02*
X152522500Y-115762742D01*
%TO.C,C36*%
X181738748Y-113265000D02*
X182261252Y-113265000D01*
X181738748Y-114735000D02*
X182261252Y-114735000D01*
%TO.C,R17*%
X122047500Y-122237258D02*
X122047500Y-121762742D01*
X123092500Y-122237258D02*
X123092500Y-121762742D01*
%TO.C,R11*%
X123907500Y-126237258D02*
X123907500Y-125762742D01*
X124952500Y-126237258D02*
X124952500Y-125762742D01*
%TO.C,U2*%
X205150000Y-177977500D02*
X208910000Y-177977500D01*
X205150000Y-184797500D02*
X208910000Y-184797500D01*
X208910000Y-177977500D02*
X208910000Y-179237500D01*
X208910000Y-184797500D02*
X208910000Y-183537500D01*
X203870000Y-178077500D02*
X203630000Y-177747500D01*
X204110000Y-177747500D01*
X203870000Y-178077500D01*
G36*
X203870000Y-178077500D02*
G01*
X203630000Y-177747500D01*
X204110000Y-177747500D01*
X203870000Y-178077500D01*
G37*
%TO.C,R32*%
X185477500Y-169237258D02*
X185477500Y-168762742D01*
X186522500Y-169237258D02*
X186522500Y-168762742D01*
%TO.C,D4*%
X109515000Y-172265000D02*
X109515000Y-173735000D01*
X109515000Y-173735000D02*
X111800000Y-173735000D01*
X111800000Y-172265000D02*
X109515000Y-172265000D01*
%TO.C,C35*%
X176859420Y-113490000D02*
X177140580Y-113490000D01*
X176859420Y-114510000D02*
X177140580Y-114510000D01*
%TO.C,C11*%
X150859420Y-148490000D02*
X151140580Y-148490000D01*
X150859420Y-149510000D02*
X151140580Y-149510000D01*
%TO.C,C7*%
X219265000Y-183261252D02*
X219265000Y-182738748D01*
X220735000Y-183261252D02*
X220735000Y-182738748D01*
%TO.C,D3*%
X167885000Y-187100000D02*
X167885000Y-190400000D01*
X167885000Y-187100000D02*
X173395000Y-187100000D01*
X167885000Y-190400000D02*
X173395000Y-190400000D01*
%TO.C,C5*%
X202315000Y-175873752D02*
X202315000Y-175351248D01*
X203785000Y-175873752D02*
X203785000Y-175351248D01*
%TO.C,R23*%
X187977500Y-109237258D02*
X187977500Y-108762742D01*
X189022500Y-109237258D02*
X189022500Y-108762742D01*
%TO.C,R24*%
X187977500Y-114237258D02*
X187977500Y-113762742D01*
X189022500Y-114237258D02*
X189022500Y-113762742D01*
%TO.C,R28*%
X187977500Y-133237258D02*
X187977500Y-132762742D01*
X189022500Y-133237258D02*
X189022500Y-132762742D01*
%TO.C,F1*%
X117125000Y-183602064D02*
X117125000Y-182397936D01*
X118945000Y-183602064D02*
X118945000Y-182397936D01*
%TO.C,R30*%
X187977500Y-146237258D02*
X187977500Y-145762742D01*
X189022500Y-146237258D02*
X189022500Y-145762742D01*
%TO.C,R27*%
X185477500Y-159237258D02*
X185477500Y-158762742D01*
X186522500Y-159237258D02*
X186522500Y-158762742D01*
%TO.C,R22*%
X180477500Y-124237258D02*
X180477500Y-123762742D01*
X181522500Y-124237258D02*
X181522500Y-123762742D01*
%TO.C,Y1*%
X143940000Y-142290000D02*
X143940000Y-145710000D01*
X143940000Y-145710000D02*
X148060000Y-145710000D01*
%TO.C,R25*%
X187977500Y-122237258D02*
X187977500Y-121762742D01*
X189022500Y-122237258D02*
X189022500Y-121762742D01*
%TO.C,C30*%
X171490000Y-124140580D02*
X171490000Y-123859420D01*
X172510000Y-124140580D02*
X172510000Y-123859420D01*
%TO.C,R26*%
X185477500Y-154237258D02*
X185477500Y-153762742D01*
X186522500Y-154237258D02*
X186522500Y-153762742D01*
%TO.C,U9*%
X194160000Y-173170000D02*
X194160000Y-178370000D01*
X194160000Y-178370000D02*
X199460000Y-178370000D01*
X195810000Y-173170000D02*
X194160000Y-173170000D01*
X199460000Y-173170000D02*
X197810000Y-173170000D01*
X199460000Y-178370000D02*
X199460000Y-173170000D01*
X197810000Y-173170000D02*
G75*
G02*
X195810000Y-173170000I-1000000J0D01*
G01*
%TO.C,FB3*%
X111600378Y-115440000D02*
X112399622Y-115440000D01*
X111600378Y-116560000D02*
X112399622Y-116560000D01*
%TO.C,D7*%
X178515000Y-109265000D02*
X178515000Y-110735000D01*
X178515000Y-110735000D02*
X180800000Y-110735000D01*
X180800000Y-109265000D02*
X178515000Y-109265000D01*
%TO.C,C33*%
X184738748Y-144265000D02*
X185261252Y-144265000D01*
X184738748Y-145735000D02*
X185261252Y-145735000D01*
%TO.C,C22*%
X123859420Y-148490000D02*
X124140580Y-148490000D01*
X123859420Y-149510000D02*
X124140580Y-149510000D01*
%TO.C,C19*%
X166859420Y-119490000D02*
X167140580Y-119490000D01*
X166859420Y-120510000D02*
X167140580Y-120510000D01*
%TO.C,C2*%
X148685000Y-183261252D02*
X148685000Y-182738748D01*
X150155000Y-183261252D02*
X150155000Y-182738748D01*
%TO.C,L1*%
X172700000Y-173700000D02*
X185300000Y-173700000D01*
X172700000Y-176700000D02*
X172700000Y-173700000D01*
X172700000Y-186300000D02*
X172700000Y-183300000D01*
X185300000Y-173700000D02*
X185300000Y-176700000D01*
X185300000Y-183300000D02*
X185300000Y-186300000D01*
X185300000Y-186300000D02*
X172700000Y-186300000D01*
%TO.C,U1*%
X156175000Y-176800000D02*
X156175000Y-177750000D01*
X156175000Y-187200000D02*
X156175000Y-186250000D01*
X157540000Y-176800000D02*
X156175000Y-176800000D01*
X157540000Y-187200000D02*
X156175000Y-187200000D01*
X153350000Y-177790000D02*
X153010000Y-177320000D01*
X153690000Y-177320000D01*
X153350000Y-177790000D01*
G36*
X153350000Y-177790000D02*
G01*
X153010000Y-177320000D01*
X153690000Y-177320000D01*
X153350000Y-177790000D01*
G37*
%TO.C,T4*%
X197845000Y-146670000D02*
X197845000Y-151870000D01*
X197845000Y-151870000D02*
X204315000Y-151870000D01*
X200080000Y-146670000D02*
X197845000Y-146670000D01*
X204315000Y-146670000D02*
X202080000Y-146670000D01*
X204315000Y-151870000D02*
X204315000Y-146670000D01*
X202080000Y-146670000D02*
G75*
G02*
X200080000Y-146670000I-1000000J0D01*
G01*
%TO.C,C32*%
X184738748Y-140265000D02*
X185261252Y-140265000D01*
X184738748Y-141735000D02*
X185261252Y-141735000D01*
%TO.C,R12*%
X134477500Y-126237258D02*
X134477500Y-125762742D01*
X135522500Y-126237258D02*
X135522500Y-125762742D01*
%TO.C,C10*%
X140859420Y-148490000D02*
X141140580Y-148490000D01*
X140859420Y-149510000D02*
X141140580Y-149510000D01*
%TO.C,T2*%
X197845000Y-122670000D02*
X197845000Y-127870000D01*
X197845000Y-127870000D02*
X204315000Y-127870000D01*
X200080000Y-122670000D02*
X197845000Y-122670000D01*
X204315000Y-122670000D02*
X202080000Y-122670000D01*
X204315000Y-127870000D02*
X204315000Y-122670000D01*
X202080000Y-122670000D02*
G75*
G02*
X200080000Y-122670000I-1000000J0D01*
G01*
%TO.C,R31*%
X185477500Y-164237258D02*
X185477500Y-163762742D01*
X186522500Y-164237258D02*
X186522500Y-163762742D01*
%TO.C,C6*%
X212265000Y-176261252D02*
X212265000Y-175738748D01*
X213735000Y-176261252D02*
X213735000Y-175738748D01*
%TO.C,D5*%
X168515000Y-109265000D02*
X168515000Y-110735000D01*
X168515000Y-110735000D02*
X170800000Y-110735000D01*
X170800000Y-109265000D02*
X168515000Y-109265000D01*
%TO.C,R14*%
X117762742Y-115477500D02*
X118237258Y-115477500D01*
X117762742Y-116522500D02*
X118237258Y-116522500D01*
%TO.C,R29*%
X187977500Y-138237258D02*
X187977500Y-137762742D01*
X189022500Y-138237258D02*
X189022500Y-137762742D01*
%TO.C,C16*%
X146859420Y-119490000D02*
X147140580Y-119490000D01*
X146859420Y-120510000D02*
X147140580Y-120510000D01*
%TO.C,R5*%
X159477500Y-116237258D02*
X159477500Y-115762742D01*
X160522500Y-116237258D02*
X160522500Y-115762742D01*
%TO.C,C25*%
X123859420Y-144490000D02*
X124140580Y-144490000D01*
X123859420Y-145510000D02*
X124140580Y-145510000D01*
%TO.C,C12*%
X141859420Y-115490000D02*
X142140580Y-115490000D01*
X141859420Y-116510000D02*
X142140580Y-116510000D01*
%TO.C,C24*%
X123920000Y-122140580D02*
X123920000Y-121859420D01*
X124940000Y-122140580D02*
X124940000Y-121859420D01*
%TO.C,T1*%
X197845000Y-110670000D02*
X197845000Y-115870000D01*
X197845000Y-115870000D02*
X204315000Y-115870000D01*
X200080000Y-110670000D02*
X197845000Y-110670000D01*
X204315000Y-110670000D02*
X202080000Y-110670000D01*
X204315000Y-115870000D02*
X204315000Y-110670000D01*
X202080000Y-110670000D02*
G75*
G02*
X200080000Y-110670000I-1000000J0D01*
G01*
%TO.C,C13*%
X165738748Y-143265000D02*
X166261252Y-143265000D01*
X165738748Y-144735000D02*
X166261252Y-144735000D01*
%TO.C,J3*%
X155620000Y-108380000D02*
X155620000Y-107000000D01*
X157000000Y-108380000D02*
X155620000Y-108380000D01*
X158270000Y-105620000D02*
X166000000Y-105620000D01*
X158270000Y-108380000D02*
X158270000Y-105620000D01*
X158270000Y-108380000D02*
X166000000Y-108380000D01*
X166000000Y-108380000D02*
X166000000Y-105620000D01*
%TO.C,C21*%
X176738748Y-119265000D02*
X177261252Y-119265000D01*
X176738748Y-120735000D02*
X177261252Y-120735000D01*
%TO.C,C28*%
X174738748Y-140265000D02*
X175261252Y-140265000D01*
X174738748Y-141735000D02*
X175261252Y-141735000D01*
%TO.C,C41*%
X134490000Y-122140580D02*
X134490000Y-121859420D01*
X135510000Y-122140580D02*
X135510000Y-121859420D01*
%TO.C,C8*%
X222490000Y-183140580D02*
X222490000Y-182859420D01*
X223510000Y-183140580D02*
X223510000Y-182859420D01*
%TO.C,C23*%
X133859420Y-148490000D02*
X134140580Y-148490000D01*
X133859420Y-149510000D02*
X134140580Y-149510000D01*
%TO.C,C17*%
X151859420Y-119490000D02*
X152140580Y-119490000D01*
X151859420Y-120510000D02*
X152140580Y-120510000D01*
%TO.C,U7*%
X194160000Y-160170000D02*
X194160000Y-165370000D01*
X194160000Y-165370000D02*
X199460000Y-165370000D01*
X195810000Y-160170000D02*
X194160000Y-160170000D01*
X199460000Y-160170000D02*
X197810000Y-160170000D01*
X199460000Y-165370000D02*
X199460000Y-160170000D01*
X197810000Y-160170000D02*
G75*
G02*
X195810000Y-160170000I-1000000J0D01*
G01*
%TO.C,R2*%
X146477500Y-116237258D02*
X146477500Y-115762742D01*
X147522500Y-116237258D02*
X147522500Y-115762742D01*
%TO.C,C27*%
X115859420Y-146640000D02*
X116140580Y-146640000D01*
X115859420Y-147660000D02*
X116140580Y-147660000D01*
%TO.C,C18*%
X161859420Y-119490000D02*
X162140580Y-119490000D01*
X161859420Y-120510000D02*
X162140580Y-120510000D01*
%TO.C,R8*%
X174762742Y-105477500D02*
X175237258Y-105477500D01*
X174762742Y-106522500D02*
X175237258Y-106522500D01*
%TO.C,T3*%
X197845000Y-134670000D02*
X197845000Y-139870000D01*
X197845000Y-139870000D02*
X204315000Y-139870000D01*
X200080000Y-134670000D02*
X197845000Y-134670000D01*
X204315000Y-134670000D02*
X202080000Y-134670000D01*
X204315000Y-139870000D02*
X204315000Y-134670000D01*
X202080000Y-134670000D02*
G75*
G02*
X200080000Y-134670000I-1000000J0D01*
G01*
%TD*%
M02*
