%TF.GenerationSoftware,KiCad,Pcbnew,10.0.3*%
%TF.CreationDate,2026-09-10T12:51:26+03:00*%
%TF.ProjectId,atc-roip-gateway,6174632d-726f-4697-902d-676174657761,rev?*%
%TF.SameCoordinates,Original*%
%TF.FileFunction,Copper,L4,Bot*%
%TF.FilePolarity,Positive*%
%FSLAX46Y46*%
G04 Gerber Fmt 4.6, Leading zero omitted, Abs format (unit mm)*
G04 Created by KiCad (PCBNEW 10.0.3) date 2026-09-10 12:51:26*
%MOMM*%
%LPD*%
G01*
G04 APERTURE LIST*
G04 Aperture macros list*
%AMRoundRect*
0 Rectangle with rounded corners*
0 $1 Rounding radius*
0 $2 $3 $4 $5 $6 $7 $8 $9 X,Y pos of 4 corners*
0 Add a 4 corners polygon primitive as box body*
4,1,4,$2,$3,$4,$5,$6,$7,$8,$9,$2,$3,0*
0 Add four circle primitives for the rounded corners*
1,1,$1+$1,$2,$3*
1,1,$1+$1,$4,$5*
1,1,$1+$1,$6,$7*
1,1,$1+$1,$8,$9*
0 Add four rect primitives between the rounded corners*
20,1,$1+$1,$2,$3,$4,$5,0*
20,1,$1+$1,$4,$5,$6,$7,0*
20,1,$1+$1,$6,$7,$8,$9,0*
20,1,$1+$1,$8,$9,$2,$3,0*%
G04 Aperture macros list end*
%TA.AperFunction,ComponentPad*%
%ADD10RoundRect,0.250000X-0.550000X-0.550000X0.550000X-0.550000X0.550000X0.550000X-0.550000X0.550000X0*%
%TD*%
%TA.AperFunction,ComponentPad*%
%ADD11C,1.600000*%
%TD*%
%TA.AperFunction,ComponentPad*%
%ADD12RoundRect,0.250000X1.050000X1.050000X-1.050000X1.050000X-1.050000X-1.050000X1.050000X-1.050000X0*%
%TD*%
%TA.AperFunction,ComponentPad*%
%ADD13C,2.600000*%
%TD*%
%TA.AperFunction,ComponentPad*%
%ADD14C,1.890000*%
%TD*%
%TA.AperFunction,ComponentPad*%
%ADD15R,1.900000X1.900000*%
%TD*%
%TA.AperFunction,ComponentPad*%
%ADD16C,1.900000*%
%TD*%
%TA.AperFunction,ComponentPad*%
%ADD17R,1.600000X1.600000*%
%TD*%
%TA.AperFunction,ComponentPad*%
%ADD18C,4.000000*%
%TD*%
%TA.AperFunction,ComponentPad*%
%ADD19R,1.700000X1.700000*%
%TD*%
%TA.AperFunction,ComponentPad*%
%ADD20C,1.700000*%
%TD*%
%TA.AperFunction,ViaPad*%
%ADD21C,0.450000*%
%TD*%
%TA.AperFunction,ViaPad*%
%ADD22C,0.400000*%
%TD*%
%TA.AperFunction,ViaPad*%
%ADD23C,0.600000*%
%TD*%
%TA.AperFunction,Conductor*%
%ADD24C,0.200000*%
%TD*%
G04 APERTURE END LIST*
D10*
%TO.P,U6,1*%
%TO.N,PTT_VHF_A*%
X193000000Y-155000000D03*
D11*
%TO.P,U6,2*%
%TO.N,GND*%
X193000000Y-157540000D03*
%TO.P,U6,3*%
%TO.N,VHF_PTT_RET*%
X200620000Y-157540000D03*
%TO.P,U6,4*%
%TO.N,VHF_PTT_KEY*%
X200620000Y-155000000D03*
%TD*%
D12*
%TO.P,J1,1*%
%TO.N,VBUS_IN*%
X110000000Y-180000000D03*
D13*
%TO.P,J1,2*%
%TO.N,GND*%
X105000000Y-180000000D03*
%TD*%
D14*
%TO.P,J4,L1*%
%TO.N,LEDJ1_A*%
X103780000Y-142770000D03*
%TO.P,J4,L2*%
%TO.N,PHY_LED1*%
X102260000Y-140230000D03*
%TO.P,J4,L3*%
%TO.N,PHY_LED2*%
X103780000Y-132660000D03*
%TO.P,J4,L4*%
%TO.N,LEDJ2_A*%
X102260000Y-130120000D03*
D15*
%TO.P,J4,R1*%
%TO.N,ETH_TXP*%
X113500000Y-132000000D03*
D16*
%TO.P,J4,R2*%
%TO.N,ETH_TXN*%
X116040000Y-133270000D03*
%TO.P,J4,R3*%
%TO.N,ETH_RXP*%
X113500000Y-134540000D03*
%TO.P,J4,R4*%
%TO.N,ETH_VCT*%
X116040000Y-135810000D03*
%TO.P,J4,R5*%
X113500000Y-137080000D03*
%TO.P,J4,R6*%
%TO.N,ETH_RXN*%
X116040000Y-138350000D03*
%TO.P,J4,R7*%
%TO.N,unconnected-(J4-NC-PadR7)*%
X113500000Y-139620000D03*
%TO.P,J4,R8*%
%TO.N,GND*%
X116040000Y-140890000D03*
D13*
%TO.P,J4,SH*%
X110210000Y-128670000D03*
X110210000Y-144220000D03*
%TD*%
D17*
%TO.P,J5,1*%
%TO.N,VHF_RX_HI*%
X214000000Y-147000000D03*
D11*
%TO.P,J5,2*%
%TO.N,VHF_MIC_HI*%
X214000000Y-144230000D03*
%TO.P,J5,3*%
%TO.N,VHF_PTT_KEY*%
X214000000Y-141460000D03*
%TO.P,J5,4*%
%TO.N,VHF_COR_HI*%
X214000000Y-138690000D03*
%TO.P,J5,5*%
%TO.N,unconnected-(J5-Pad5)*%
X214000000Y-135920000D03*
%TO.P,J5,6*%
%TO.N,HF_RX_HI*%
X214000000Y-133150000D03*
%TO.P,J5,7*%
%TO.N,HF_MIC_HI*%
X214000000Y-130380000D03*
%TO.P,J5,8*%
%TO.N,HF_PTT_KEY*%
X214000000Y-127610000D03*
%TO.P,J5,9*%
%TO.N,HF_COR_HI*%
X214000000Y-124840000D03*
%TO.P,J5,10*%
%TO.N,unconnected-(J5-Pad10)*%
X214000000Y-122070000D03*
%TO.P,J5,11*%
%TO.N,unconnected-(J5-Pad11)*%
X214000000Y-119300000D03*
%TO.P,J5,12*%
%TO.N,unconnected-(J5-Pad12)*%
X214000000Y-116530000D03*
%TO.P,J5,13*%
%TO.N,GND*%
X214000000Y-113760000D03*
%TO.P,J5,14*%
%TO.N,VHF_RX_LO*%
X216840000Y-145615000D03*
%TO.P,J5,15*%
%TO.N,VHF_MIC_LO*%
X216840000Y-142845000D03*
%TO.P,J5,16*%
%TO.N,VHF_PTT_RET*%
X216840000Y-140075000D03*
%TO.P,J5,17*%
%TO.N,VHF_COR_LO*%
X216840000Y-137305000D03*
%TO.P,J5,18*%
%TO.N,unconnected-(J5-P18-Pad18)*%
X216840000Y-134535000D03*
%TO.P,J5,19*%
%TO.N,HF_RX_LO*%
X216840000Y-131765000D03*
%TO.P,J5,20*%
%TO.N,HF_MIC_LO*%
X216840000Y-128995000D03*
%TO.P,J5,21*%
%TO.N,HF_PTT_RET*%
X216840000Y-126225000D03*
%TO.P,J5,22*%
%TO.N,HF_COR_LO*%
X216840000Y-123455000D03*
%TO.P,J5,23*%
%TO.N,unconnected-(J5-P23-Pad23)*%
X216840000Y-120685000D03*
%TO.P,J5,24*%
%TO.N,unconnected-(J5-P24-Pad24)*%
X216840000Y-117915000D03*
%TO.P,J5,25*%
%TO.N,GND*%
X216840000Y-115145000D03*
D18*
%TO.P,J5,SH*%
X215420000Y-153930000D03*
X215420000Y-106830000D03*
%TD*%
D19*
%TO.P,J2,1*%
%TO.N,+3V3*%
X140000000Y-107000000D03*
D20*
%TO.P,J2,2*%
%TO.N,SWDIO*%
X142540000Y-107000000D03*
%TO.P,J2,3*%
%TO.N,SWCLK*%
X145080000Y-107000000D03*
%TO.P,J2,4*%
%TO.N,GND*%
X147620000Y-107000000D03*
%TO.P,J2,5*%
%TO.N,NRST*%
X150160000Y-107000000D03*
%TD*%
D10*
%TO.P,U8,1*%
%TO.N,PTT_HF_A*%
X193000000Y-168000000D03*
D11*
%TO.P,U8,2*%
%TO.N,GND*%
X193000000Y-170540000D03*
%TO.P,U8,3*%
%TO.N,HF_PTT_RET*%
X200620000Y-170540000D03*
%TO.P,U8,4*%
%TO.N,HF_PTT_KEY*%
X200620000Y-168000000D03*
%TD*%
D10*
%TO.P,U9,1*%
%TO.N,HF_COR_A*%
X193000000Y-174500000D03*
D11*
%TO.P,U9,2*%
%TO.N,HF_COR_LO*%
X193000000Y-177040000D03*
%TO.P,U9,3*%
%TO.N,GND*%
X200620000Y-177040000D03*
%TO.P,U9,4*%
%TO.N,COR_HF*%
X200620000Y-174500000D03*
%TD*%
D10*
%TO.P,T4,1*%
%TO.N,HF_MIC_HI*%
X196000000Y-148000000D03*
D11*
%TO.P,T4,2*%
%TO.N,HF_MIC_LO*%
X196000000Y-150540000D03*
%TO.P,T4,3*%
%TO.N,GNDA*%
X206160000Y-150540000D03*
%TO.P,T4,4*%
%TO.N,HF_TX_XFMR*%
X206160000Y-148000000D03*
%TD*%
D10*
%TO.P,T2,1*%
%TO.N,VHF_MIC_HI*%
X196000000Y-124000000D03*
D11*
%TO.P,T2,2*%
%TO.N,VHF_MIC_LO*%
X196000000Y-126540000D03*
%TO.P,T2,3*%
%TO.N,GNDA*%
X206160000Y-126540000D03*
%TO.P,T2,4*%
%TO.N,VHF_TX_XFMR*%
X206160000Y-124000000D03*
%TD*%
D10*
%TO.P,T1,1*%
%TO.N,VHF_RX_HI*%
X196000000Y-112000000D03*
D11*
%TO.P,T1,2*%
%TO.N,VHF_RX_LO*%
X196000000Y-114540000D03*
%TO.P,T1,3*%
%TO.N,GNDA*%
X206160000Y-114540000D03*
%TO.P,T1,4*%
%TO.N,VHF_RX_SEC*%
X206160000Y-112000000D03*
%TD*%
D19*
%TO.P,J3,1*%
%TO.N,UART1_TX*%
X157000000Y-107000000D03*
D20*
%TO.P,J3,2*%
%TO.N,UART1_RX*%
X159540000Y-107000000D03*
%TO.P,J3,3*%
%TO.N,GND*%
X162080000Y-107000000D03*
%TO.P,J3,4*%
%TO.N,unconnected-(J3-Pin_4-Pad4)*%
X164620000Y-107000000D03*
%TD*%
D10*
%TO.P,U7,1*%
%TO.N,VHF_COR_A*%
X193000000Y-161500000D03*
D11*
%TO.P,U7,2*%
%TO.N,VHF_COR_LO*%
X193000000Y-164040000D03*
%TO.P,U7,3*%
%TO.N,GND*%
X200620000Y-164040000D03*
%TO.P,U7,4*%
%TO.N,COR_VHF*%
X200620000Y-161500000D03*
%TD*%
D10*
%TO.P,T3,1*%
%TO.N,HF_RX_HI*%
X196000000Y-136000000D03*
D11*
%TO.P,T3,2*%
%TO.N,HF_RX_LO*%
X196000000Y-138540000D03*
%TO.P,T3,3*%
%TO.N,GNDA*%
X206160000Y-138540000D03*
%TO.P,T3,4*%
%TO.N,HF_RX_SEC*%
X206160000Y-136000000D03*
%TD*%
D21*
%TO.N,GND*%
X172575000Y-113800000D03*
X129000000Y-132000000D03*
X203650000Y-178887500D03*
X202850000Y-174862500D03*
X110575000Y-146950000D03*
X173395000Y-188750000D03*
X174012500Y-109800000D03*
X147975000Y-119800000D03*
X110012500Y-172800000D03*
X166750000Y-143800000D03*
X135355000Y-183000000D03*
X172575000Y-119800000D03*
X134800000Y-124975000D03*
X182662500Y-127575000D03*
X152575000Y-119800000D03*
X182662500Y-131875000D03*
X124230000Y-121025000D03*
X146800000Y-114975000D03*
X199800000Y-182025000D03*
X167575000Y-119800000D03*
X162575000Y-119800000D03*
X150800000Y-137475000D03*
X124575000Y-148800000D03*
X124575000Y-144800000D03*
X153350000Y-185400000D03*
X151575000Y-148800000D03*
X214737500Y-186800000D03*
X136300000Y-137175000D03*
X195250000Y-183370000D03*
X142575000Y-115800000D03*
X134575000Y-148800000D03*
X142575000Y-119800000D03*
X129575000Y-117800000D03*
X162500000Y-136775000D03*
X150225000Y-128500000D03*
X134800000Y-121025000D03*
X146040000Y-183000000D03*
X153350000Y-182000000D03*
X148425000Y-133000000D03*
X169012500Y-109800000D03*
X171650000Y-144000000D03*
X151500000Y-121425000D03*
X162500000Y-182000000D03*
X177750000Y-119800000D03*
X212800000Y-174850000D03*
X149220000Y-181850000D03*
X141575000Y-148800000D03*
X116575000Y-146950000D03*
X179012500Y-109800000D03*
D22*
X165535000Y-124500000D03*
D21*
%TO.N,+3V3*%
X166525000Y-120000000D03*
X123800000Y-142625000D03*
X159800000Y-116625000D03*
X155800000Y-116625000D03*
X128850000Y-134900000D03*
X104975000Y-115800000D03*
X134800000Y-122575000D03*
X122370000Y-122625000D03*
X110737500Y-115800000D03*
X210150000Y-181387500D03*
D22*
X151500000Y-138200000D03*
D21*
X146025000Y-119800000D03*
X124230000Y-126625000D03*
X116975000Y-115800000D03*
X122800000Y-132625000D03*
X148425000Y-129000000D03*
X122370000Y-127625000D03*
X171025000Y-113800000D03*
X141025000Y-119800000D03*
X182562500Y-128425000D03*
X175850000Y-119800000D03*
X150800000Y-122125000D03*
X149125000Y-133700000D03*
X164200000Y-116625000D03*
X203650000Y-181187500D03*
X151800000Y-116625000D03*
X212800000Y-176750000D03*
X128025000Y-117800000D03*
X130450000Y-129862500D03*
X171025000Y-119800000D03*
X161025000Y-119800000D03*
X151025000Y-119800000D03*
X148425000Y-126500000D03*
X122800000Y-137625000D03*
X163200000Y-137475000D03*
X214737500Y-182800000D03*
X177637500Y-127675000D03*
X164475000Y-123800000D03*
X105800000Y-173380000D03*
X125162500Y-130350000D03*
D23*
%TO.N,LEDJ1_A*%
X104946600Y-117112900D03*
%TO.N,SAI1_MCLK*%
X161403100Y-127328600D03*
X168624800Y-126941900D03*
%TO.N,I2S_DOUT*%
X166910100Y-131025000D03*
X148017200Y-124500000D03*
%TO.N,SAI1_FS*%
X160790900Y-128429400D03*
X171145000Y-130375000D03*
%TO.N,SAI1_BCLK*%
X168517000Y-129075000D03*
X155299600Y-125500000D03*
%TO.N,I2S_DIN*%
X154262800Y-126121500D03*
X168118700Y-129823500D03*
%TO.N,OSC_IN*%
X146948000Y-129500000D03*
X146948000Y-145954100D03*
%TO.N,OSC_OUT*%
X146000000Y-130164800D03*
X146000000Y-144064400D03*
%TO.N,NRST*%
X150646400Y-130068600D03*
%TO.N,RMII_REF_CLK*%
X133272600Y-132850000D03*
X137670300Y-134882800D03*
%TO.N,RMII_MDIO*%
X131095500Y-125175000D03*
X131095500Y-134238000D03*
D21*
%TO.N,RMII_RXD0*%
X130900000Y-136900000D03*
X128350000Y-135900000D03*
D23*
%TO.N,ETH_NRST*%
X125361600Y-141220900D03*
X132009900Y-132246900D03*
X131975500Y-139964000D03*
%TO.N,RMII_TX_EN*%
X134029000Y-140592700D03*
X134029000Y-131623900D03*
%TO.N,RMII_TXD0*%
X158458000Y-136000000D03*
X148021100Y-130825800D03*
%TO.N,RMII_TXD1*%
X147572900Y-127937500D03*
X150632100Y-134112500D03*
%TO.N,COR_VHF*%
X156382400Y-110741800D03*
X159667200Y-129036600D03*
%TO.N,COR_HF*%
X166486000Y-128533300D03*
X172196900Y-132500000D03*
%TO.N,UART1_TX*%
X163287600Y-127448400D03*
%TO.N,UART1_RX*%
X163369600Y-126541600D03*
%TO.N,SWDIO*%
X165998900Y-125500000D03*
%TO.N,VCAP2*%
X169953500Y-142738300D03*
X163352900Y-130660500D03*
%TO.N,I2C1_SCL*%
X168071400Y-126340200D03*
X158607000Y-123681600D03*
%TO.N,I2C1_SDA*%
X180269800Y-131025000D03*
X157988600Y-124283800D03*
%TO.N,+3.3VA*%
X176852700Y-114881100D03*
X178943300Y-128847700D03*
%TO.N,GNDA*%
X201850200Y-136696200D03*
%TO.N,VMID*%
X178090100Y-140915400D03*
X181602400Y-135575000D03*
%TO.N,PHY_LED2*%
X126446000Y-125929100D03*
X125661300Y-131135700D03*
%TO.N,VDDCR*%
X127062400Y-122775000D03*
X127062400Y-133914600D03*
%TO.N,ETH_TXP*%
X124552300Y-128265600D03*
%TO.N,ETH_RXN*%
X124038400Y-128916700D03*
%TO.N,RBIAS*%
X126263000Y-130062500D03*
X128823900Y-138754800D03*
%TO.N,ETH_VCT*%
X113299100Y-146367500D03*
X114770000Y-116000000D03*
%TO.N,VHF_RX_HI*%
X197124700Y-141109800D03*
%TO.N,VHF_MIC_HI*%
X197782600Y-140341700D03*
%TO.N,VHF_COR_HI*%
X192516000Y-159825000D03*
%TO.N,HF_COR_HI*%
X187000200Y-170038500D03*
%TD*%
%TO.N,VHF_PTT_RET*%
D24*
X200620000Y-157540000D02*
X201884800Y-157540000D01*
X213750800Y-142845000D02*
X214273900Y-142845000D01*
X201884800Y-157540000D02*
X211014000Y-148410800D01*
X211014000Y-148410800D02*
X211014000Y-145581800D01*
X214273900Y-142845000D02*
X216840000Y-140278900D01*
X216840000Y-140278900D02*
X216840000Y-140075000D01*
X211014000Y-145581800D02*
X213750800Y-142845000D01*
%TO.N,VHF_PTT_KEY*%
X205124800Y-153732000D02*
X207875700Y-150981100D01*
X209598500Y-145861500D02*
X214000000Y-141460000D01*
X207875700Y-150981100D02*
X207875700Y-150413100D01*
X209598500Y-148690300D02*
X209598500Y-145861500D01*
X207875700Y-150413100D02*
X209598500Y-148690300D01*
X200620000Y-155000000D02*
X201888000Y-153732000D01*
X201888000Y-153732000D02*
X205124800Y-153732000D01*
%TO.N,LEDJ1_A*%
X103780000Y-141028300D02*
X105030600Y-139777700D01*
X105030600Y-131738000D02*
X104946600Y-131654000D01*
X105030600Y-139777700D02*
X105030600Y-131738000D01*
X103780000Y-142770000D02*
X103780000Y-141028300D01*
X104946600Y-131654000D02*
X104946600Y-117112900D01*
%TO.N,SAI1_MCLK*%
X164972000Y-128050200D02*
X164306500Y-128050200D01*
X163904800Y-128451900D02*
X162526400Y-128451900D01*
X164306500Y-128050200D02*
X163904800Y-128451900D01*
X166080300Y-126941900D02*
X164972000Y-128050200D01*
X168624800Y-126941900D02*
X166080300Y-126941900D01*
X162526400Y-128451900D02*
X161403100Y-127328600D01*
%TO.N,I2S_DOUT*%
X166910100Y-131025000D02*
X166672900Y-131262200D01*
X154779400Y-131262200D02*
X148017200Y-124500000D01*
X166672900Y-131262200D02*
X154779400Y-131262200D01*
%TO.N,SAI1_FS*%
X164639200Y-128853600D02*
X165304600Y-128853600D01*
X164237500Y-129255300D02*
X164639200Y-128853600D01*
X165304600Y-128853600D02*
X166269300Y-127888900D01*
X171145000Y-130142600D02*
X171145000Y-130375000D01*
X166269300Y-127888900D02*
X166747700Y-127888900D01*
X168947800Y-127945400D02*
X171145000Y-130142600D01*
X166747700Y-127888900D02*
X166804200Y-127945400D01*
X160790900Y-128429400D02*
X161616800Y-129255300D01*
X166804200Y-127945400D02*
X168947800Y-127945400D01*
X161616800Y-129255300D02*
X164237500Y-129255300D01*
%TO.N,SAI1_BCLK*%
X165007000Y-129255300D02*
X165470900Y-129255300D01*
X165470900Y-129255300D02*
X165781300Y-128944900D01*
X166643500Y-129267700D02*
X166836200Y-129075000D01*
X155299600Y-125519800D02*
X159436800Y-129657000D01*
X159436800Y-129657000D02*
X164605300Y-129657000D01*
X166104200Y-129267700D02*
X166643500Y-129267700D01*
X165781300Y-128944900D02*
X165781400Y-128944900D01*
X164605300Y-129657000D02*
X165007000Y-129255300D01*
X165781400Y-128944900D02*
X166104200Y-129267700D01*
X155299600Y-125500000D02*
X155299600Y-125519800D01*
X166836200Y-129075000D02*
X168517000Y-129075000D01*
%TO.N,I2S_DIN*%
X165781300Y-129512900D02*
X165781400Y-129512900D01*
X165637200Y-129657000D02*
X165781300Y-129512900D01*
X158200000Y-130058700D02*
X164771700Y-130058700D01*
X165781400Y-129512900D02*
X166092000Y-129823500D01*
X154262800Y-126121500D02*
X158200000Y-130058700D01*
X165173400Y-129657000D02*
X165637200Y-129657000D01*
X166092000Y-129823500D02*
X168118700Y-129823500D01*
X164771700Y-130058700D02*
X165173400Y-129657000D01*
%TO.N,OSC_IN*%
X146948000Y-129500000D02*
X146948000Y-145954100D01*
%TO.N,OSC_OUT*%
X146000000Y-144064400D02*
X146000000Y-130164800D01*
%TO.N,NRST*%
X147386800Y-109773200D02*
X147386800Y-126809000D01*
X147386800Y-126809000D02*
X150646400Y-130068600D01*
X150160000Y-107000000D02*
X147386800Y-109773200D01*
%TO.N,RMII_REF_CLK*%
X134373500Y-131022100D02*
X137670300Y-134318900D01*
X137670300Y-134318900D02*
X137670300Y-134882800D01*
X133731300Y-131022100D02*
X134373500Y-131022100D01*
X133272600Y-132850000D02*
X133272600Y-131480800D01*
X133272600Y-131480800D02*
X133731300Y-131022100D01*
%TO.N,RMII_MDIO*%
X131095500Y-134238000D02*
X131095500Y-125175000D01*
%TO.N,RMII_RXD0*%
X128350000Y-135900000D02*
X130900000Y-136900000D01*
%TO.N,ETH_NRST*%
X132009900Y-139929600D02*
X132009900Y-132246900D01*
X131975500Y-139964000D02*
X132009900Y-139929600D01*
X125361600Y-141220900D02*
X126618500Y-139964000D01*
X126618500Y-139964000D02*
X131975500Y-139964000D01*
%TO.N,RMII_TX_EN*%
X134029000Y-131623900D02*
X134029000Y-140592700D01*
%TO.N,RMII_TXD0*%
X153283800Y-130825800D02*
X158458000Y-136000000D01*
X148021100Y-130825800D02*
X153283800Y-130825800D01*
%TO.N,RMII_TXD1*%
X147572900Y-130422900D02*
X147572900Y-127937500D01*
X147384000Y-130611800D02*
X147572900Y-130422900D01*
X147384000Y-131119900D02*
X147384000Y-130611800D01*
X150376600Y-134112500D02*
X147384000Y-131119900D01*
X150632100Y-134112500D02*
X150376600Y-134112500D01*
%TO.N,COR_VHF*%
X156382400Y-125751800D02*
X159667200Y-129036600D01*
X156382400Y-110741800D02*
X156382400Y-125751800D01*
%TO.N,COR_HF*%
X170405800Y-130076200D02*
X170405800Y-130708900D01*
X166486000Y-128533300D02*
X166565800Y-128453500D01*
X188399400Y-172331400D02*
X172196900Y-156128900D01*
X172196900Y-156128900D02*
X172196900Y-132500000D01*
X168783100Y-128453500D02*
X170405800Y-130076200D01*
X200620000Y-174500000D02*
X198451400Y-172331400D01*
X170405800Y-130708900D02*
X172196900Y-132500000D01*
X166565800Y-128453500D02*
X168783100Y-128453500D01*
X198451400Y-172331400D02*
X188399400Y-172331400D01*
%TO.N,UART1_TX*%
X157000000Y-107000000D02*
X157000000Y-121160800D01*
X157000000Y-121160800D02*
X163287600Y-127448400D01*
%TO.N,UART1_RX*%
X163369600Y-110829600D02*
X163369600Y-126541600D01*
X159540000Y-107000000D02*
X163369600Y-110829600D01*
%TO.N,SWDIO*%
X160015500Y-105796500D02*
X160928300Y-106709300D01*
X160928300Y-107477000D02*
X165998900Y-112547600D01*
X165998900Y-112547600D02*
X165998900Y-125500000D01*
X143743500Y-105796500D02*
X160015500Y-105796500D01*
X142540000Y-107000000D02*
X143743500Y-105796500D01*
X160928300Y-106709300D02*
X160928300Y-107477000D01*
%TO.N,VCAP2*%
X165139600Y-130258800D02*
X167054700Y-130258800D01*
X167054700Y-130258800D02*
X169953500Y-133157600D01*
X169953500Y-133157600D02*
X169953500Y-142738300D01*
X164737900Y-130660500D02*
X165139600Y-130258800D01*
X163352900Y-130660500D02*
X164737900Y-130660500D01*
%TO.N,I2C1_SCL*%
X158607000Y-123681600D02*
X162975500Y-128050100D01*
X165448500Y-126340200D02*
X168071400Y-126340200D01*
X163738600Y-128050100D02*
X165448500Y-126340200D01*
X162975500Y-128050100D02*
X163738600Y-128050100D01*
%TO.N,I2C1_SDA*%
X162077300Y-128853600D02*
X157988600Y-124764900D01*
X164071100Y-128853600D02*
X162077300Y-128853600D01*
X180269800Y-131025000D02*
X176788500Y-127543700D01*
X176788500Y-127543700D02*
X166970500Y-127543700D01*
X166103000Y-127487200D02*
X165138300Y-128451900D01*
X157988600Y-124764900D02*
X157988600Y-124283800D01*
X165138300Y-128451900D02*
X164472800Y-128451900D01*
X166914000Y-127487200D02*
X166103000Y-127487200D01*
X166970500Y-127543700D02*
X166914000Y-127487200D01*
X164472800Y-128451900D02*
X164071100Y-128853600D01*
%TO.N,+3.3VA*%
X178943300Y-116971700D02*
X176852700Y-114881100D01*
X178943300Y-128847700D02*
X178943300Y-116971700D01*
%TO.N,GNDA*%
X206160000Y-138540000D02*
X207278200Y-139658200D01*
X201850200Y-136696200D02*
X201850200Y-130849800D01*
X206160000Y-114540000D02*
X207329800Y-115709800D01*
X207329800Y-115709800D02*
X207329800Y-125370200D01*
X207278200Y-149421800D02*
X206160000Y-150540000D01*
X207329800Y-125370200D02*
X206160000Y-126540000D01*
X201850200Y-130849800D02*
X206160000Y-126540000D01*
X207278200Y-139658200D02*
X207278200Y-149421800D01*
%TO.N,VMID*%
X178090100Y-139087300D02*
X181602400Y-135575000D01*
X178090100Y-140915400D02*
X178090100Y-139087300D01*
%TO.N,PHY_LED2*%
X125661300Y-131135700D02*
X125661300Y-126713800D01*
X125661300Y-126713800D02*
X126446000Y-125929100D01*
%TO.N,VDDCR*%
X127062400Y-122775000D02*
X127062400Y-133914600D01*
%TO.N,ETH_TXP*%
X112242200Y-133961900D02*
X112242200Y-135076700D01*
X123774000Y-128265600D02*
X124552300Y-128265600D01*
X116540300Y-137080000D02*
X121901200Y-131719100D01*
X113500000Y-132000000D02*
X113500000Y-133251700D01*
X115476200Y-137080000D02*
X116540300Y-137080000D01*
X113500000Y-133251700D02*
X112952400Y-133251700D01*
X112975400Y-135809900D02*
X114206100Y-135809900D01*
X121901200Y-130138400D02*
X123774000Y-128265600D01*
X121901200Y-131719100D02*
X121901200Y-130138400D01*
X114206100Y-135809900D02*
X115476200Y-137080000D01*
X112952400Y-133251700D02*
X112242200Y-133961900D01*
X112242200Y-135076700D02*
X112975400Y-135809900D01*
%TO.N,ETH_RXN*%
X116040000Y-138350000D02*
X124038400Y-130351600D01*
X124038400Y-130351600D02*
X124038400Y-128916700D01*
%TO.N,RBIAS*%
X128823900Y-138754800D02*
X126263000Y-136193900D01*
X126263000Y-136193900D02*
X126263000Y-130062500D01*
%TO.N,ETH_VCT*%
X114751700Y-144914900D02*
X113299100Y-146367500D01*
X116040000Y-135810000D02*
X114770000Y-134540000D01*
X114770000Y-134540000D02*
X114770000Y-116000000D01*
X113500000Y-137080000D02*
X114751700Y-138331700D01*
X114751700Y-138331700D02*
X114751700Y-144914900D01*
%TO.N,VHF_RX_HI*%
X197124700Y-134986800D02*
X197124700Y-141109800D01*
X194895700Y-113104300D02*
X194895700Y-132757800D01*
X194895700Y-132757800D02*
X197124700Y-134986800D01*
X196000000Y-112000000D02*
X194895700Y-113104300D01*
%TO.N,VHF_MIC_HI*%
X196000000Y-124000000D02*
X197782600Y-125782600D01*
X197782600Y-125782600D02*
X197782600Y-140341700D01*
%TO.N,VHF_COR_HI*%
X207432700Y-150856100D02*
X204958500Y-153330300D01*
X207772000Y-144918000D02*
X207772000Y-149505600D01*
X214000000Y-138690000D02*
X207772000Y-144918000D01*
X207432700Y-149844900D02*
X207432700Y-150856100D01*
X207772000Y-149505600D02*
X207432700Y-149844900D01*
X199010700Y-153330300D02*
X192516000Y-159825000D01*
X204958500Y-153330300D02*
X199010700Y-153330300D01*
%TO.N,HF_MIC_HI*%
X206958700Y-137421300D02*
X214000000Y-130380000D01*
X205667400Y-137421300D02*
X206958700Y-137421300D01*
X196000000Y-148000000D02*
X196000000Y-147088700D01*
X196000000Y-147088700D02*
X205667400Y-137421300D01*
%TO.N,HF_PTT_KEY*%
X216867200Y-130228600D02*
X216467300Y-130228600D01*
X205869000Y-162751000D02*
X205869000Y-158712100D01*
X200620000Y-168000000D02*
X205869000Y-162751000D01*
X205869000Y-158712100D02*
X218813700Y-145767400D01*
X214000000Y-127761300D02*
X214000000Y-127610000D01*
X216467300Y-130228600D02*
X214000000Y-127761300D01*
X218813700Y-132175100D02*
X216867200Y-130228600D01*
X218813700Y-145767400D02*
X218813700Y-132175100D01*
%TO.N,HF_COR_HI*%
X187000200Y-170038500D02*
X187000200Y-152397100D01*
X214000000Y-125397300D02*
X214000000Y-124840000D01*
X187000200Y-152397100D02*
X214000000Y-125397300D01*
%TO.N,VHF_RX_LO*%
X215179900Y-129915700D02*
X215179900Y-137255200D01*
X206636500Y-113408800D02*
X212287600Y-119059900D01*
X215179900Y-137255200D02*
X216614700Y-138690000D01*
X212869200Y-127120900D02*
X212869200Y-128109800D01*
X214279100Y-123455000D02*
X215114800Y-124290700D01*
X197131200Y-113408800D02*
X206636500Y-113408800D01*
X217948000Y-139624900D02*
X217948000Y-143308500D01*
X217013100Y-138690000D02*
X217948000Y-139624900D01*
X216840000Y-144416500D02*
X216840000Y-145615000D01*
X215114800Y-125335600D02*
X214225400Y-126225000D01*
X196000000Y-114540000D02*
X197131200Y-113408800D01*
X213765100Y-126225000D02*
X212869200Y-127120900D01*
X216614700Y-138690000D02*
X217013100Y-138690000D01*
X213754400Y-128995000D02*
X214259200Y-128995000D01*
X213817700Y-123455000D02*
X214279100Y-123455000D01*
X214225400Y-126225000D02*
X213765100Y-126225000D01*
X214259200Y-128995000D02*
X215179900Y-129915700D01*
X212869200Y-128109800D02*
X213754400Y-128995000D01*
X212287600Y-119059900D02*
X212287600Y-121924900D01*
X215114800Y-124290700D02*
X215114800Y-125335600D01*
X217948000Y-143308500D02*
X216840000Y-144416500D01*
X212287600Y-121924900D02*
X213817700Y-123455000D01*
%TO.N,VHF_COR_LO*%
X211040100Y-149492800D02*
X214235000Y-149492800D01*
X216247700Y-147480100D02*
X216533000Y-147480100D01*
X196492900Y-164040000D02*
X211040100Y-149492800D01*
X218361800Y-138826800D02*
X216840000Y-137305000D01*
X216533000Y-147480100D02*
X218010300Y-146002800D01*
X214235000Y-149492800D02*
X216247700Y-147480100D01*
X218361800Y-143761500D02*
X218361800Y-138826800D01*
X218010300Y-144113000D02*
X218361800Y-143761500D01*
X218010300Y-146002800D02*
X218010300Y-144113000D01*
X193000000Y-164040000D02*
X196492900Y-164040000D01*
%TO.N,HF_PTT_RET*%
X200620000Y-170540000D02*
X206311900Y-164848100D01*
X206311900Y-164848100D02*
X206311900Y-158854400D01*
X219215400Y-145950900D02*
X219215400Y-128600400D01*
X206311900Y-158854400D02*
X219215400Y-145950900D01*
X219215400Y-128600400D02*
X216840000Y-126225000D01*
%TO.N,HF_COR_LO*%
X193000000Y-177040000D02*
X194270000Y-175770000D01*
X219617100Y-126232100D02*
X216840000Y-123455000D01*
X219617100Y-157146800D02*
X219617100Y-126232100D01*
X200993900Y-175770000D02*
X219617100Y-157146800D01*
X194270000Y-175770000D02*
X200993900Y-175770000D01*
%TD*%
M02*
