%TF.GenerationSoftware,KiCad,Pcbnew,10.0.3*%
%TF.CreationDate,2026-09-10T12:51:26+03:00*%
%TF.ProjectId,atc-roip-gateway,6174632d-726f-4697-902d-676174657761,rev?*%
%TF.SameCoordinates,Original*%
%TF.FileFunction,Drillmap*%
%TF.FilePolarity,Positive*%
%FSLAX45Y45*%
G04 Gerber Fmt 4.5, Leading zero omitted, Abs format (unit mm)*
G04 Created by KiCad (PCBNEW 10.0.3) date 2026-09-10 12:51:26*
%MOMM*%
%LPD*%
G01*
G04 APERTURE LIST*
%ADD10C,0.100000*%
%ADD11C,0.200000*%
%ADD12C,0.130000*%
%ADD13C,0.160000*%
%ADD14C,0.320000*%
%ADD15C,0.325000*%
G04 APERTURE END LIST*
D10*
X10000000Y-10000000D02*
X22500000Y-10000000D01*
X10000000Y-19500000D02*
X10000000Y-10000000D01*
X22500000Y-10000000D02*
X22500000Y-19500000D01*
X22500000Y-19500000D02*
X10000000Y-19500000D01*
D11*
D10*
X10487500Y-11570000D02*
X10507500Y-11590000D01*
X10507500Y-11570000D02*
X10487500Y-11590000D01*
X10570000Y-17328000D02*
X10590000Y-17348000D01*
X10590000Y-17328000D02*
X10570000Y-17348000D01*
X10991250Y-17270000D02*
X11011250Y-17290000D01*
X11011250Y-17270000D02*
X10991250Y-17290000D01*
X11047500Y-14685000D02*
X11067500Y-14705000D01*
X11067500Y-14685000D02*
X11047500Y-14705000D01*
X11063750Y-11570000D02*
X11083750Y-11590000D01*
X11083750Y-11570000D02*
X11063750Y-11590000D01*
X11647500Y-14685000D02*
X11667500Y-14705000D01*
X11667500Y-14685000D02*
X11647500Y-14705000D01*
X11687500Y-11570000D02*
X11707500Y-11590000D01*
X11707500Y-11570000D02*
X11687500Y-11590000D01*
X12227000Y-12252500D02*
X12247000Y-12272500D01*
X12247000Y-12252500D02*
X12227000Y-12272500D01*
X12227000Y-12752500D02*
X12247000Y-12772500D01*
X12247000Y-12752500D02*
X12227000Y-12772500D01*
X12270000Y-13252500D02*
X12290000Y-13272500D01*
X12290000Y-13252500D02*
X12270000Y-13272500D01*
X12270000Y-13752500D02*
X12290000Y-13772500D01*
X12290000Y-13752500D02*
X12270000Y-13772500D01*
X12370000Y-14252500D02*
X12390000Y-14272500D01*
X12390000Y-14252500D02*
X12370000Y-14272500D01*
X12413000Y-12092500D02*
X12433000Y-12112500D01*
X12433000Y-12092500D02*
X12413000Y-12112500D01*
X12413000Y-12652500D02*
X12433000Y-12672500D01*
X12433000Y-12652500D02*
X12413000Y-12672500D01*
X12447500Y-14470000D02*
X12467500Y-14490000D01*
X12467500Y-14470000D02*
X12447500Y-14490000D01*
X12447500Y-14870000D02*
X12467500Y-14890000D01*
X12467500Y-14870000D02*
X12447500Y-14890000D01*
X12506250Y-13025000D02*
X12526250Y-13045000D01*
X12526250Y-13025000D02*
X12506250Y-13045000D01*
X12792500Y-11770000D02*
X12812500Y-11790000D01*
X12812500Y-11770000D02*
X12792500Y-11790000D01*
X12825000Y-13580000D02*
X12845000Y-13600000D01*
X12845000Y-13580000D02*
X12825000Y-13600000D01*
X12875000Y-13480000D02*
X12895000Y-13500000D01*
X12895000Y-13480000D02*
X12875000Y-13500000D01*
X12890000Y-13190000D02*
X12910000Y-13210000D01*
X12910000Y-13190000D02*
X12890000Y-13210000D01*
X12947500Y-11770000D02*
X12967500Y-11790000D01*
X12967500Y-11770000D02*
X12947500Y-11790000D01*
X13035000Y-12976250D02*
X13055000Y-12996250D01*
X13055000Y-12976250D02*
X13035000Y-12996250D01*
X13080000Y-13680000D02*
X13100000Y-13700000D01*
X13100000Y-13680000D02*
X13080000Y-13700000D01*
X13447500Y-14870000D02*
X13467500Y-14890000D01*
X13467500Y-14870000D02*
X13447500Y-14890000D01*
X13470000Y-12092500D02*
X13490000Y-12112500D01*
X13490000Y-12092500D02*
X13470000Y-12112500D01*
X13470000Y-12247500D02*
X13490000Y-12267500D01*
X13490000Y-12247500D02*
X13470000Y-12267500D01*
X13470000Y-12487500D02*
X13490000Y-12507500D01*
X13490000Y-12487500D02*
X13470000Y-12507500D01*
X13525500Y-18290000D02*
X13545500Y-18310000D01*
X13545500Y-18290000D02*
X13525500Y-18310000D01*
X13620000Y-13707500D02*
X13640000Y-13727500D01*
X13640000Y-13707500D02*
X13620000Y-13727500D01*
X14092500Y-11970000D02*
X14112500Y-11990000D01*
X14112500Y-11970000D02*
X14092500Y-11990000D01*
X14147500Y-14870000D02*
X14167500Y-14890000D01*
X14167500Y-14870000D02*
X14147500Y-14890000D01*
X14247500Y-11570000D02*
X14267500Y-11590000D01*
X14267500Y-11570000D02*
X14247500Y-11590000D01*
X14247500Y-11970000D02*
X14267500Y-11990000D01*
X14267500Y-11970000D02*
X14247500Y-11990000D01*
X14592500Y-11970000D02*
X14612500Y-11990000D01*
X14612500Y-11970000D02*
X14592500Y-11990000D01*
X14594000Y-18290000D02*
X14614000Y-18310000D01*
X14614000Y-18290000D02*
X14594000Y-18310000D01*
X14670000Y-11487500D02*
X14690000Y-11507500D01*
X14690000Y-11487500D02*
X14670000Y-11507500D01*
X14787500Y-11970000D02*
X14807500Y-11990000D01*
X14807500Y-11970000D02*
X14787500Y-11990000D01*
X14832500Y-12640000D02*
X14852500Y-12660000D01*
X14852500Y-12640000D02*
X14832500Y-12660000D01*
X14832500Y-12890000D02*
X14852500Y-12910000D01*
X14852500Y-12890000D02*
X14832500Y-12910000D01*
X14832500Y-13290000D02*
X14852500Y-13310000D01*
X14852500Y-13290000D02*
X14832500Y-13310000D01*
X14902500Y-13360000D02*
X14922500Y-13380000D01*
X14922500Y-13360000D02*
X14902500Y-13380000D01*
X14912000Y-18175000D02*
X14932000Y-18195000D01*
X14932000Y-18175000D02*
X14912000Y-18195000D01*
X15012500Y-12840000D02*
X15032500Y-12860000D01*
X15032500Y-12840000D02*
X15012500Y-12860000D01*
X15070000Y-12202500D02*
X15090000Y-12222500D01*
X15090000Y-12202500D02*
X15070000Y-12222500D01*
X15070000Y-13737500D02*
X15090000Y-13757500D01*
X15090000Y-13737500D02*
X15070000Y-13757500D01*
X15092500Y-11970000D02*
X15112500Y-11990000D01*
X15112500Y-11970000D02*
X15092500Y-11990000D01*
X15140000Y-12132500D02*
X15160000Y-12152500D01*
X15160000Y-12132500D02*
X15140000Y-12152500D01*
X15140000Y-13810000D02*
X15160000Y-13830000D01*
X15160000Y-13810000D02*
X15140000Y-13830000D01*
X15147500Y-14870000D02*
X15167500Y-14890000D01*
X15167500Y-14870000D02*
X15147500Y-14890000D01*
X15170000Y-11652500D02*
X15190000Y-11672500D01*
X15190000Y-11652500D02*
X15170000Y-11672500D01*
X15247500Y-11970000D02*
X15267500Y-11990000D01*
X15267500Y-11970000D02*
X15247500Y-11990000D01*
X15325000Y-18190000D02*
X15345000Y-18210000D01*
X15345000Y-18190000D02*
X15325000Y-18210000D01*
X15325000Y-18530000D02*
X15345000Y-18550000D01*
X15345000Y-18530000D02*
X15325000Y-18550000D01*
X15570000Y-11652500D02*
X15590000Y-11672500D01*
X15590000Y-11652500D02*
X15570000Y-11672500D01*
X15970000Y-11652500D02*
X15990000Y-11672500D01*
X15990000Y-11652500D02*
X15970000Y-11672500D01*
X16092500Y-11970000D02*
X16112500Y-11990000D01*
X16112500Y-11970000D02*
X16092500Y-11990000D01*
X16240000Y-13667500D02*
X16260000Y-13687500D01*
X16260000Y-13667500D02*
X16240000Y-13687500D01*
X16240000Y-18190000D02*
X16260000Y-18210000D01*
X16260000Y-18190000D02*
X16240000Y-18210000D01*
X16247500Y-11970000D02*
X16267500Y-11990000D01*
X16267500Y-11970000D02*
X16247500Y-11990000D01*
X16310000Y-13737500D02*
X16330000Y-13757500D01*
X16330000Y-13737500D02*
X16310000Y-13757500D01*
X16410000Y-11652500D02*
X16430000Y-11672500D01*
X16430000Y-11652500D02*
X16410000Y-11672500D01*
X16437500Y-12370000D02*
X16457500Y-12390000D01*
X16457500Y-12370000D02*
X16437500Y-12390000D01*
X16543500Y-12440000D02*
X16563500Y-12460000D01*
X16563500Y-12440000D02*
X16543500Y-12460000D01*
X16642500Y-11990000D02*
X16662500Y-12010000D01*
X16662500Y-11990000D02*
X16642500Y-12010000D01*
X16665000Y-14370000D02*
X16685000Y-14390000D01*
X16685000Y-14370000D02*
X16665000Y-14390000D01*
X16747500Y-11970000D02*
X16767500Y-11990000D01*
X16767500Y-11970000D02*
X16747500Y-11990000D01*
X16891250Y-10970000D02*
X16911250Y-10990000D01*
X16911250Y-10970000D02*
X16891250Y-10990000D01*
X17092500Y-11370000D02*
X17112500Y-11390000D01*
X17112500Y-11370000D02*
X17092500Y-11390000D01*
X17092500Y-11970000D02*
X17112500Y-11990000D01*
X17112500Y-11970000D02*
X17092500Y-11990000D01*
X17155000Y-14390000D02*
X17175000Y-14410000D01*
X17175000Y-14390000D02*
X17155000Y-14410000D01*
X17247500Y-11370000D02*
X17267500Y-11390000D01*
X17267500Y-11370000D02*
X17247500Y-11390000D01*
X17247500Y-11970000D02*
X17267500Y-11990000D01*
X17267500Y-11970000D02*
X17247500Y-11990000D01*
X17329500Y-18865000D02*
X17349500Y-18885000D01*
X17349500Y-18865000D02*
X17329500Y-18885000D01*
X17391250Y-10970000D02*
X17411250Y-10990000D01*
X17411250Y-10970000D02*
X17391250Y-10990000D01*
X17575000Y-11970000D02*
X17595000Y-11990000D01*
X17595000Y-11970000D02*
X17575000Y-11990000D01*
X17753750Y-12757500D02*
X17773750Y-12777500D01*
X17773750Y-12757500D02*
X17753750Y-12777500D01*
X17765000Y-11970000D02*
X17785000Y-11990000D01*
X17785000Y-11970000D02*
X17765000Y-11990000D01*
X17891250Y-10970000D02*
X17911250Y-10990000D01*
X17911250Y-10970000D02*
X17891250Y-10990000D01*
X18246250Y-12832500D02*
X18266250Y-12852500D01*
X18266250Y-12832500D02*
X18246250Y-12852500D01*
X18256250Y-12747500D02*
X18276250Y-12767500D01*
X18276250Y-12747500D02*
X18256250Y-12767500D01*
X18256250Y-13177500D02*
X18276250Y-13197500D01*
X18276250Y-13177500D02*
X18256250Y-13197500D01*
X19515000Y-18327000D02*
X19535000Y-18347000D01*
X19535000Y-18327000D02*
X19515000Y-18347000D01*
X19970000Y-18192500D02*
X19990000Y-18212500D01*
X19990000Y-18192500D02*
X19970000Y-18212500D01*
X20275000Y-17476250D02*
X20295000Y-17496250D01*
X20295000Y-17476250D02*
X20275000Y-17496250D01*
X20355000Y-17878750D02*
X20375000Y-17898750D01*
X20375000Y-17878750D02*
X20355000Y-17898750D01*
X20355000Y-18108750D02*
X20375000Y-18128750D01*
X20375000Y-18108750D02*
X20355000Y-18128750D01*
X21005000Y-18128750D02*
X21025000Y-18148750D01*
X21025000Y-18128750D02*
X21005000Y-18148750D01*
X21270000Y-17475000D02*
X21290000Y-17495000D01*
X21290000Y-17475000D02*
X21270000Y-17495000D01*
X21270000Y-17665000D02*
X21290000Y-17685000D01*
X21290000Y-17665000D02*
X21270000Y-17685000D01*
X21463750Y-18270000D02*
X21483750Y-18290000D01*
X21483750Y-18270000D02*
X21463750Y-18290000D01*
X21463750Y-18670000D02*
X21483750Y-18690000D01*
X21483750Y-18670000D02*
X21463750Y-18690000D01*
X10509660Y-11711290D02*
G75*
G02*
X10479660Y-11711290I-15000J0D01*
G01*
X10479660Y-11711290D02*
G75*
G02*
X10509660Y-11711290I15000J0D01*
G01*
X11344910Y-14636750D02*
G75*
G02*
X11314910Y-14636750I-15000J0D01*
G01*
X11314910Y-14636750D02*
G75*
G02*
X11344910Y-14636750I15000J0D01*
G01*
X11492000Y-11600000D02*
G75*
G02*
X11462000Y-11600000I-15000J0D01*
G01*
X11462000Y-11600000D02*
G75*
G02*
X11492000Y-11600000I15000J0D01*
G01*
X12418840Y-12891670D02*
G75*
G02*
X12388840Y-12891670I-15000J0D01*
G01*
X12388840Y-12891670D02*
G75*
G02*
X12418840Y-12891670I15000J0D01*
G01*
X12470230Y-12826560D02*
G75*
G02*
X12440230Y-12826560I-15000J0D01*
G01*
X12440230Y-12826560D02*
G75*
G02*
X12470230Y-12826560I15000J0D01*
G01*
X12551160Y-14122090D02*
G75*
G02*
X12521160Y-14122090I-15000J0D01*
G01*
X12521160Y-14122090D02*
G75*
G02*
X12551160Y-14122090I15000J0D01*
G01*
X12581130Y-13113570D02*
G75*
G02*
X12551130Y-13113570I-15000J0D01*
G01*
X12551130Y-13113570D02*
G75*
G02*
X12581130Y-13113570I15000J0D01*
G01*
X12641300Y-13006250D02*
G75*
G02*
X12611300Y-13006250I-15000J0D01*
G01*
X12611300Y-13006250D02*
G75*
G02*
X12641300Y-13006250I15000J0D01*
G01*
X12659600Y-12592910D02*
G75*
G02*
X12629600Y-12592910I-15000J0D01*
G01*
X12629600Y-12592910D02*
G75*
G02*
X12659600Y-12592910I15000J0D01*
G01*
X12721240Y-12277500D02*
G75*
G02*
X12691240Y-12277500I-15000J0D01*
G01*
X12691240Y-12277500D02*
G75*
G02*
X12721240Y-12277500I15000J0D01*
G01*
X12721240Y-13391460D02*
G75*
G02*
X12691240Y-13391460I-15000J0D01*
G01*
X12691240Y-13391460D02*
G75*
G02*
X12721240Y-13391460I15000J0D01*
G01*
X12897390Y-13875480D02*
G75*
G02*
X12867390Y-13875480I-15000J0D01*
G01*
X12867390Y-13875480D02*
G75*
G02*
X12897390Y-13875480I15000J0D01*
G01*
X13124550Y-12517500D02*
G75*
G02*
X13094550Y-12517500I-15000J0D01*
G01*
X13094550Y-12517500D02*
G75*
G02*
X13124550Y-12517500I15000J0D01*
G01*
X13124550Y-13423800D02*
G75*
G02*
X13094550Y-13423800I-15000J0D01*
G01*
X13094550Y-13423800D02*
G75*
G02*
X13124550Y-13423800I15000J0D01*
G01*
X13212550Y-13996400D02*
G75*
G02*
X13182550Y-13996400I-15000J0D01*
G01*
X13182550Y-13996400D02*
G75*
G02*
X13212550Y-13996400I15000J0D01*
G01*
X13215990Y-13224690D02*
G75*
G02*
X13185990Y-13224690I-15000J0D01*
G01*
X13185990Y-13224690D02*
G75*
G02*
X13215990Y-13224690I15000J0D01*
G01*
X13342260Y-13285000D02*
G75*
G02*
X13312260Y-13285000I-15000J0D01*
G01*
X13312260Y-13285000D02*
G75*
G02*
X13342260Y-13285000I15000J0D01*
G01*
X13417900Y-13162390D02*
G75*
G02*
X13387900Y-13162390I-15000J0D01*
G01*
X13387900Y-13162390D02*
G75*
G02*
X13417900Y-13162390I15000J0D01*
G01*
X13417900Y-14059270D02*
G75*
G02*
X13387900Y-14059270I-15000J0D01*
G01*
X13387900Y-14059270D02*
G75*
G02*
X13417900Y-14059270I15000J0D01*
G01*
X13782030Y-13488280D02*
G75*
G02*
X13752030Y-13488280I-15000J0D01*
G01*
X13752030Y-13488280D02*
G75*
G02*
X13782030Y-13488280I15000J0D01*
G01*
X14615000Y-13016480D02*
G75*
G02*
X14585000Y-13016480I-15000J0D01*
G01*
X14585000Y-13016480D02*
G75*
G02*
X14615000Y-13016480I15000J0D01*
G01*
X14615000Y-14406440D02*
G75*
G02*
X14585000Y-14406440I-15000J0D01*
G01*
X14585000Y-14406440D02*
G75*
G02*
X14615000Y-14406440I15000J0D01*
G01*
X14709800Y-12950000D02*
G75*
G02*
X14679800Y-12950000I-15000J0D01*
G01*
X14679800Y-12950000D02*
G75*
G02*
X14709800Y-12950000I15000J0D01*
G01*
X14709800Y-14595410D02*
G75*
G02*
X14679800Y-14595410I-15000J0D01*
G01*
X14679800Y-14595410D02*
G75*
G02*
X14709800Y-14595410I15000J0D01*
G01*
X14772290Y-12793750D02*
G75*
G02*
X14742290Y-12793750I-15000J0D01*
G01*
X14742290Y-12793750D02*
G75*
G02*
X14772290Y-12793750I15000J0D01*
G01*
X14816720Y-12450000D02*
G75*
G02*
X14786720Y-12450000I-15000J0D01*
G01*
X14786720Y-12450000D02*
G75*
G02*
X14816720Y-12450000I15000J0D01*
G01*
X14817110Y-13082580D02*
G75*
G02*
X14787110Y-13082580I-15000J0D01*
G01*
X14787110Y-13082580D02*
G75*
G02*
X14817110Y-13082580I15000J0D01*
G01*
X15078210Y-13411250D02*
G75*
G02*
X15048210Y-13411250I-15000J0D01*
G01*
X15048210Y-13411250D02*
G75*
G02*
X15078210Y-13411250I15000J0D01*
G01*
X15079640Y-13006860D02*
G75*
G02*
X15049640Y-13006860I-15000J0D01*
G01*
X15049640Y-13006860D02*
G75*
G02*
X15079640Y-13006860I15000J0D01*
G01*
X15441280Y-12612150D02*
G75*
G02*
X15411280Y-12612150I-15000J0D01*
G01*
X15411280Y-12612150D02*
G75*
G02*
X15441280Y-12612150I15000J0D01*
G01*
X15544960Y-12550000D02*
G75*
G02*
X15514960Y-12550000I-15000J0D01*
G01*
X15514960Y-12550000D02*
G75*
G02*
X15544960Y-12550000I15000J0D01*
G01*
X15653240Y-11074180D02*
G75*
G02*
X15623240Y-11074180I-15000J0D01*
G01*
X15623240Y-11074180D02*
G75*
G02*
X15653240Y-11074180I15000J0D01*
G01*
X15813860Y-12428380D02*
G75*
G02*
X15783860Y-12428380I-15000J0D01*
G01*
X15783860Y-12428380D02*
G75*
G02*
X15813860Y-12428380I15000J0D01*
G01*
X15860800Y-13600000D02*
G75*
G02*
X15830800Y-13600000I-15000J0D01*
G01*
X15830800Y-13600000D02*
G75*
G02*
X15860800Y-13600000I15000J0D01*
G01*
X15875700Y-12368160D02*
G75*
G02*
X15845700Y-12368160I-15000J0D01*
G01*
X15845700Y-12368160D02*
G75*
G02*
X15875700Y-12368160I15000J0D01*
G01*
X15981720Y-12903660D02*
G75*
G02*
X15951720Y-12903660I-15000J0D01*
G01*
X15951720Y-12903660D02*
G75*
G02*
X15981720Y-12903660I15000J0D01*
G01*
X16094090Y-12842940D02*
G75*
G02*
X16064090Y-12842940I-15000J0D01*
G01*
X16064090Y-12842940D02*
G75*
G02*
X16094090Y-12842940I15000J0D01*
G01*
X16155310Y-12732860D02*
G75*
G02*
X16125310Y-12732860I-15000J0D01*
G01*
X16125310Y-12732860D02*
G75*
G02*
X16155310Y-12732860I15000J0D01*
G01*
X16343760Y-12744840D02*
G75*
G02*
X16313760Y-12744840I-15000J0D01*
G01*
X16313760Y-12744840D02*
G75*
G02*
X16343760Y-12744840I15000J0D01*
G01*
X16350290Y-13066050D02*
G75*
G02*
X16320290Y-13066050I-15000J0D01*
G01*
X16320290Y-13066050D02*
G75*
G02*
X16350290Y-13066050I15000J0D01*
G01*
X16351960Y-12654160D02*
G75*
G02*
X16321960Y-12654160I-15000J0D01*
G01*
X16321960Y-12654160D02*
G75*
G02*
X16351960Y-12654160I15000J0D01*
G01*
X16614890Y-12550000D02*
G75*
G02*
X16584890Y-12550000I-15000J0D01*
G01*
X16584890Y-12550000D02*
G75*
G02*
X16614890Y-12550000I15000J0D01*
G01*
X16663600Y-12853330D02*
G75*
G02*
X16633600Y-12853330I-15000J0D01*
G01*
X16633600Y-12853330D02*
G75*
G02*
X16663600Y-12853330I15000J0D01*
G01*
X16706010Y-13102500D02*
G75*
G02*
X16676010Y-13102500I-15000J0D01*
G01*
X16676010Y-13102500D02*
G75*
G02*
X16706010Y-13102500I15000J0D01*
G01*
X16822140Y-12634020D02*
G75*
G02*
X16792140Y-12634020I-15000J0D01*
G01*
X16792140Y-12634020D02*
G75*
G02*
X16822140Y-12634020I15000J0D01*
G01*
X16826870Y-12982350D02*
G75*
G02*
X16796870Y-12982350I-15000J0D01*
G01*
X16796870Y-12982350D02*
G75*
G02*
X16826870Y-12982350I15000J0D01*
G01*
X16866700Y-12907500D02*
G75*
G02*
X16836700Y-12907500I-15000J0D01*
G01*
X16836700Y-12907500D02*
G75*
G02*
X16866700Y-12907500I15000J0D01*
G01*
X16877480Y-12694190D02*
G75*
G02*
X16847480Y-12694190I-15000J0D01*
G01*
X16847480Y-12694190D02*
G75*
G02*
X16877480Y-12694190I15000J0D01*
G01*
X17010350Y-14273830D02*
G75*
G02*
X16980350Y-14273830I-15000J0D01*
G01*
X16980350Y-14273830D02*
G75*
G02*
X17010350Y-14273830I15000J0D01*
G01*
X17129500Y-13037500D02*
G75*
G02*
X17099500Y-13037500I-15000J0D01*
G01*
X17099500Y-13037500D02*
G75*
G02*
X17129500Y-13037500I15000J0D01*
G01*
X17234690Y-13250000D02*
G75*
G02*
X17204690Y-13250000I-15000J0D01*
G01*
X17204690Y-13250000D02*
G75*
G02*
X17234690Y-13250000I15000J0D01*
G01*
X17700270Y-11488110D02*
G75*
G02*
X17670270Y-11488110I-15000J0D01*
G01*
X17670270Y-11488110D02*
G75*
G02*
X17700270Y-11488110I15000J0D01*
G01*
X17824010Y-14091540D02*
G75*
G02*
X17794010Y-14091540I-15000J0D01*
G01*
X17794010Y-14091540D02*
G75*
G02*
X17824010Y-14091540I15000J0D01*
G01*
X17909330Y-12884770D02*
G75*
G02*
X17879330Y-12884770I-15000J0D01*
G01*
X17879330Y-12884770D02*
G75*
G02*
X17909330Y-12884770I15000J0D01*
G01*
X18041980Y-13102500D02*
G75*
G02*
X18011980Y-13102500I-15000J0D01*
G01*
X18011980Y-13102500D02*
G75*
G02*
X18041980Y-13102500I15000J0D01*
G01*
X18175240Y-13557500D02*
G75*
G02*
X18145240Y-13557500I-15000J0D01*
G01*
X18145240Y-13557500D02*
G75*
G02*
X18175240Y-13557500I15000J0D01*
G01*
X18715020Y-17003850D02*
G75*
G02*
X18685020Y-17003850I-15000J0D01*
G01*
X18685020Y-17003850D02*
G75*
G02*
X18715020Y-17003850I15000J0D01*
G01*
X19266600Y-15982500D02*
G75*
G02*
X19236600Y-15982500I-15000J0D01*
G01*
X19236600Y-15982500D02*
G75*
G02*
X19266600Y-15982500I15000J0D01*
G01*
X19727470Y-14110980D02*
G75*
G02*
X19697470Y-14110980I-15000J0D01*
G01*
X19697470Y-14110980D02*
G75*
G02*
X19727470Y-14110980I15000J0D01*
G01*
X19793260Y-14034170D02*
G75*
G02*
X19763260Y-14034170I-15000J0D01*
G01*
X19763260Y-14034170D02*
G75*
G02*
X19793260Y-14034170I15000J0D01*
G01*
X20200020Y-13669620D02*
G75*
G02*
X20170020Y-13669620I-15000J0D01*
G01*
X20170020Y-13669620D02*
G75*
G02*
X20200020Y-13669620I15000J0D01*
G01*
X19300000Y-15460000D02*
X19300000Y-15540000D01*
X19260000Y-15500000D02*
X19340000Y-15500000D01*
X19300000Y-15714000D02*
X19300000Y-15794000D01*
X19260000Y-15754000D02*
X19340000Y-15754000D01*
X19300000Y-16110000D02*
X19300000Y-16190000D01*
X19260000Y-16150000D02*
X19340000Y-16150000D01*
X19300000Y-16364000D02*
X19300000Y-16444000D01*
X19260000Y-16404000D02*
X19340000Y-16404000D01*
X19300000Y-16760000D02*
X19300000Y-16840000D01*
X19260000Y-16800000D02*
X19340000Y-16800000D01*
X19300000Y-17014000D02*
X19300000Y-17094000D01*
X19260000Y-17054000D02*
X19340000Y-17054000D01*
X19300000Y-17410000D02*
X19300000Y-17490000D01*
X19260000Y-17450000D02*
X19340000Y-17450000D01*
X19300000Y-17664000D02*
X19300000Y-17744000D01*
X19260000Y-17704000D02*
X19340000Y-17704000D01*
X19600000Y-11160000D02*
X19600000Y-11240000D01*
X19560000Y-11200000D02*
X19640000Y-11200000D01*
X19600000Y-11414000D02*
X19600000Y-11494000D01*
X19560000Y-11454000D02*
X19640000Y-11454000D01*
X19600000Y-12360000D02*
X19600000Y-12440000D01*
X19560000Y-12400000D02*
X19640000Y-12400000D01*
X19600000Y-12614000D02*
X19600000Y-12694000D01*
X19560000Y-12654000D02*
X19640000Y-12654000D01*
X19600000Y-13560000D02*
X19600000Y-13640000D01*
X19560000Y-13600000D02*
X19640000Y-13600000D01*
X19600000Y-13814000D02*
X19600000Y-13894000D01*
X19560000Y-13854000D02*
X19640000Y-13854000D01*
X19600000Y-14760000D02*
X19600000Y-14840000D01*
X19560000Y-14800000D02*
X19640000Y-14800000D01*
X19600000Y-15014000D02*
X19600000Y-15094000D01*
X19560000Y-15054000D02*
X19640000Y-15054000D01*
X20062000Y-15460000D02*
X20062000Y-15540000D01*
X20022000Y-15500000D02*
X20102000Y-15500000D01*
X20062000Y-15714000D02*
X20062000Y-15794000D01*
X20022000Y-15754000D02*
X20102000Y-15754000D01*
X20062000Y-16110000D02*
X20062000Y-16190000D01*
X20022000Y-16150000D02*
X20102000Y-16150000D01*
X20062000Y-16364000D02*
X20062000Y-16444000D01*
X20022000Y-16404000D02*
X20102000Y-16404000D01*
X20062000Y-16760000D02*
X20062000Y-16840000D01*
X20022000Y-16800000D02*
X20102000Y-16800000D01*
X20062000Y-17014000D02*
X20062000Y-17094000D01*
X20022000Y-17054000D02*
X20102000Y-17054000D01*
X20062000Y-17410000D02*
X20062000Y-17490000D01*
X20022000Y-17450000D02*
X20102000Y-17450000D01*
X20062000Y-17664000D02*
X20062000Y-17744000D01*
X20022000Y-17704000D02*
X20102000Y-17704000D01*
X20616000Y-11160000D02*
X20616000Y-11240000D01*
X20576000Y-11200000D02*
X20656000Y-11200000D01*
X20616000Y-11414000D02*
X20616000Y-11494000D01*
X20576000Y-11454000D02*
X20656000Y-11454000D01*
X20616000Y-12360000D02*
X20616000Y-12440000D01*
X20576000Y-12400000D02*
X20656000Y-12400000D01*
X20616000Y-12614000D02*
X20616000Y-12694000D01*
X20576000Y-12654000D02*
X20656000Y-12654000D01*
X20616000Y-13560000D02*
X20616000Y-13640000D01*
X20576000Y-13600000D02*
X20656000Y-13600000D01*
X20616000Y-13814000D02*
X20616000Y-13894000D01*
X20576000Y-13854000D02*
X20656000Y-13854000D01*
X20616000Y-14760000D02*
X20616000Y-14840000D01*
X20576000Y-14800000D02*
X20656000Y-14800000D01*
X20616000Y-15014000D02*
X20616000Y-15094000D01*
X20576000Y-15054000D02*
X20656000Y-15054000D01*
X10257467Y-13043467D02*
X10257467Y-12980533D01*
X10194533Y-12980533D01*
X10194533Y-13043467D01*
X10257467Y-13043467D01*
X10257467Y-14054467D02*
X10257467Y-13991533D01*
X10194533Y-13991533D01*
X10194533Y-14054467D01*
X10257467Y-14054467D01*
X10409467Y-13297467D02*
X10409467Y-13234533D01*
X10346533Y-13234533D01*
X10346533Y-13297467D01*
X10409467Y-13297467D01*
X10409467Y-14308467D02*
X10409467Y-14245533D01*
X10346533Y-14245533D01*
X10346533Y-14308467D01*
X10409467Y-14308467D01*
X11350000Y-13245000D02*
X11395000Y-13200000D01*
X11350000Y-13155000D01*
X11305000Y-13200000D01*
X11350000Y-13245000D01*
X11350000Y-13499000D02*
X11395000Y-13454000D01*
X11350000Y-13409000D01*
X11305000Y-13454000D01*
X11350000Y-13499000D01*
X11350000Y-13753000D02*
X11395000Y-13708000D01*
X11350000Y-13663000D01*
X11305000Y-13708000D01*
X11350000Y-13753000D01*
X11350000Y-14007000D02*
X11395000Y-13962000D01*
X11350000Y-13917000D01*
X11305000Y-13962000D01*
X11350000Y-14007000D01*
X11604000Y-13372000D02*
X11649000Y-13327000D01*
X11604000Y-13282000D01*
X11559000Y-13327000D01*
X11604000Y-13372000D01*
X11604000Y-13626000D02*
X11649000Y-13581000D01*
X11604000Y-13536000D01*
X11559000Y-13581000D01*
X11604000Y-13626000D01*
X11604000Y-13880000D02*
X11649000Y-13835000D01*
X11604000Y-13790000D01*
X11559000Y-13835000D01*
X11604000Y-13880000D01*
X11604000Y-14134000D02*
X11649000Y-14089000D01*
X11604000Y-14044000D01*
X11559000Y-14089000D01*
X11604000Y-14134000D01*
X13950000Y-10650000D02*
X14050000Y-10750000D01*
X14050000Y-10650000D02*
X13950000Y-10750000D01*
X14050000Y-10700000D02*
G75*
G02*
X13950000Y-10700000I-50000J0D01*
G01*
X13950000Y-10700000D02*
G75*
G02*
X14050000Y-10700000I50000J0D01*
G01*
X14204000Y-10650000D02*
X14304000Y-10750000D01*
X14304000Y-10650000D02*
X14204000Y-10750000D01*
X14304000Y-10700000D02*
G75*
G02*
X14204000Y-10700000I-50000J0D01*
G01*
X14204000Y-10700000D02*
G75*
G02*
X14304000Y-10700000I50000J0D01*
G01*
X14458000Y-10650000D02*
X14558000Y-10750000D01*
X14558000Y-10650000D02*
X14458000Y-10750000D01*
X14558000Y-10700000D02*
G75*
G02*
X14458000Y-10700000I-50000J0D01*
G01*
X14458000Y-10700000D02*
G75*
G02*
X14558000Y-10700000I50000J0D01*
G01*
X14712000Y-10650000D02*
X14812000Y-10750000D01*
X14812000Y-10650000D02*
X14712000Y-10750000D01*
X14812000Y-10700000D02*
G75*
G02*
X14712000Y-10700000I-50000J0D01*
G01*
X14712000Y-10700000D02*
G75*
G02*
X14812000Y-10700000I50000J0D01*
G01*
X14966000Y-10650000D02*
X15066000Y-10750000D01*
X15066000Y-10650000D02*
X14966000Y-10750000D01*
X15066000Y-10700000D02*
G75*
G02*
X14966000Y-10700000I-50000J0D01*
G01*
X14966000Y-10700000D02*
G75*
G02*
X15066000Y-10700000I50000J0D01*
G01*
X15650000Y-10650000D02*
X15750000Y-10750000D01*
X15750000Y-10650000D02*
X15650000Y-10750000D01*
X15750000Y-10700000D02*
G75*
G02*
X15650000Y-10700000I-50000J0D01*
G01*
X15650000Y-10700000D02*
G75*
G02*
X15750000Y-10700000I50000J0D01*
G01*
X15904000Y-10650000D02*
X16004000Y-10750000D01*
X16004000Y-10650000D02*
X15904000Y-10750000D01*
X16004000Y-10700000D02*
G75*
G02*
X15904000Y-10700000I-50000J0D01*
G01*
X15904000Y-10700000D02*
G75*
G02*
X16004000Y-10700000I50000J0D01*
G01*
X16158000Y-10650000D02*
X16258000Y-10750000D01*
X16258000Y-10650000D02*
X16158000Y-10750000D01*
X16258000Y-10700000D02*
G75*
G02*
X16158000Y-10700000I-50000J0D01*
G01*
X16158000Y-10700000D02*
G75*
G02*
X16258000Y-10700000I50000J0D01*
G01*
X16412000Y-10650000D02*
X16512000Y-10750000D01*
X16512000Y-10650000D02*
X16412000Y-10750000D01*
X16512000Y-10700000D02*
G75*
G02*
X16412000Y-10700000I-50000J0D01*
G01*
X16412000Y-10700000D02*
G75*
G02*
X16512000Y-10700000I50000J0D01*
G01*
X21350000Y-11326000D02*
X21450000Y-11426000D01*
X21450000Y-11326000D02*
X21350000Y-11426000D01*
X21450000Y-11376000D02*
G75*
G02*
X21350000Y-11376000I-50000J0D01*
G01*
X21350000Y-11376000D02*
G75*
G02*
X21450000Y-11376000I50000J0D01*
G01*
X21350000Y-11603000D02*
X21450000Y-11703000D01*
X21450000Y-11603000D02*
X21350000Y-11703000D01*
X21450000Y-11653000D02*
G75*
G02*
X21350000Y-11653000I-50000J0D01*
G01*
X21350000Y-11653000D02*
G75*
G02*
X21450000Y-11653000I50000J0D01*
G01*
X21350000Y-11880000D02*
X21450000Y-11980000D01*
X21450000Y-11880000D02*
X21350000Y-11980000D01*
X21450000Y-11930000D02*
G75*
G02*
X21350000Y-11930000I-50000J0D01*
G01*
X21350000Y-11930000D02*
G75*
G02*
X21450000Y-11930000I50000J0D01*
G01*
X21350000Y-12157000D02*
X21450000Y-12257000D01*
X21450000Y-12157000D02*
X21350000Y-12257000D01*
X21450000Y-12207000D02*
G75*
G02*
X21350000Y-12207000I-50000J0D01*
G01*
X21350000Y-12207000D02*
G75*
G02*
X21450000Y-12207000I50000J0D01*
G01*
X21350000Y-12434000D02*
X21450000Y-12534000D01*
X21450000Y-12434000D02*
X21350000Y-12534000D01*
X21450000Y-12484000D02*
G75*
G02*
X21350000Y-12484000I-50000J0D01*
G01*
X21350000Y-12484000D02*
G75*
G02*
X21450000Y-12484000I50000J0D01*
G01*
X21350000Y-12711000D02*
X21450000Y-12811000D01*
X21450000Y-12711000D02*
X21350000Y-12811000D01*
X21450000Y-12761000D02*
G75*
G02*
X21350000Y-12761000I-50000J0D01*
G01*
X21350000Y-12761000D02*
G75*
G02*
X21450000Y-12761000I50000J0D01*
G01*
X21350000Y-12988000D02*
X21450000Y-13088000D01*
X21450000Y-12988000D02*
X21350000Y-13088000D01*
X21450000Y-13038000D02*
G75*
G02*
X21350000Y-13038000I-50000J0D01*
G01*
X21350000Y-13038000D02*
G75*
G02*
X21450000Y-13038000I50000J0D01*
G01*
X21350000Y-13265000D02*
X21450000Y-13365000D01*
X21450000Y-13265000D02*
X21350000Y-13365000D01*
X21450000Y-13315000D02*
G75*
G02*
X21350000Y-13315000I-50000J0D01*
G01*
X21350000Y-13315000D02*
G75*
G02*
X21450000Y-13315000I50000J0D01*
G01*
X21350000Y-13542000D02*
X21450000Y-13642000D01*
X21450000Y-13542000D02*
X21350000Y-13642000D01*
X21450000Y-13592000D02*
G75*
G02*
X21350000Y-13592000I-50000J0D01*
G01*
X21350000Y-13592000D02*
G75*
G02*
X21450000Y-13592000I50000J0D01*
G01*
X21350000Y-13819000D02*
X21450000Y-13919000D01*
X21450000Y-13819000D02*
X21350000Y-13919000D01*
X21450000Y-13869000D02*
G75*
G02*
X21350000Y-13869000I-50000J0D01*
G01*
X21350000Y-13869000D02*
G75*
G02*
X21450000Y-13869000I50000J0D01*
G01*
X21350000Y-14096000D02*
X21450000Y-14196000D01*
X21450000Y-14096000D02*
X21350000Y-14196000D01*
X21450000Y-14146000D02*
G75*
G02*
X21350000Y-14146000I-50000J0D01*
G01*
X21350000Y-14146000D02*
G75*
G02*
X21450000Y-14146000I50000J0D01*
G01*
X21350000Y-14373000D02*
X21450000Y-14473000D01*
X21450000Y-14373000D02*
X21350000Y-14473000D01*
X21450000Y-14423000D02*
G75*
G02*
X21350000Y-14423000I-50000J0D01*
G01*
X21350000Y-14423000D02*
G75*
G02*
X21450000Y-14423000I50000J0D01*
G01*
X21350000Y-14650000D02*
X21450000Y-14750000D01*
X21450000Y-14650000D02*
X21350000Y-14750000D01*
X21450000Y-14700000D02*
G75*
G02*
X21350000Y-14700000I-50000J0D01*
G01*
X21350000Y-14700000D02*
G75*
G02*
X21450000Y-14700000I50000J0D01*
G01*
X21634000Y-11464500D02*
X21734000Y-11564500D01*
X21734000Y-11464500D02*
X21634000Y-11564500D01*
X21734000Y-11514500D02*
G75*
G02*
X21634000Y-11514500I-50000J0D01*
G01*
X21634000Y-11514500D02*
G75*
G02*
X21734000Y-11514500I50000J0D01*
G01*
X21634000Y-11741500D02*
X21734000Y-11841500D01*
X21734000Y-11741500D02*
X21634000Y-11841500D01*
X21734000Y-11791500D02*
G75*
G02*
X21634000Y-11791500I-50000J0D01*
G01*
X21634000Y-11791500D02*
G75*
G02*
X21734000Y-11791500I50000J0D01*
G01*
X21634000Y-12018500D02*
X21734000Y-12118500D01*
X21734000Y-12018500D02*
X21634000Y-12118500D01*
X21734000Y-12068500D02*
G75*
G02*
X21634000Y-12068500I-50000J0D01*
G01*
X21634000Y-12068500D02*
G75*
G02*
X21734000Y-12068500I50000J0D01*
G01*
X21634000Y-12295500D02*
X21734000Y-12395500D01*
X21734000Y-12295500D02*
X21634000Y-12395500D01*
X21734000Y-12345500D02*
G75*
G02*
X21634000Y-12345500I-50000J0D01*
G01*
X21634000Y-12345500D02*
G75*
G02*
X21734000Y-12345500I50000J0D01*
G01*
X21634000Y-12572500D02*
X21734000Y-12672500D01*
X21734000Y-12572500D02*
X21634000Y-12672500D01*
X21734000Y-12622500D02*
G75*
G02*
X21634000Y-12622500I-50000J0D01*
G01*
X21634000Y-12622500D02*
G75*
G02*
X21734000Y-12622500I50000J0D01*
G01*
X21634000Y-12849500D02*
X21734000Y-12949500D01*
X21734000Y-12849500D02*
X21634000Y-12949500D01*
X21734000Y-12899500D02*
G75*
G02*
X21634000Y-12899500I-50000J0D01*
G01*
X21634000Y-12899500D02*
G75*
G02*
X21734000Y-12899500I50000J0D01*
G01*
X21634000Y-13126500D02*
X21734000Y-13226500D01*
X21734000Y-13126500D02*
X21634000Y-13226500D01*
X21734000Y-13176500D02*
G75*
G02*
X21634000Y-13176500I-50000J0D01*
G01*
X21634000Y-13176500D02*
G75*
G02*
X21734000Y-13176500I50000J0D01*
G01*
X21634000Y-13403500D02*
X21734000Y-13503500D01*
X21734000Y-13403500D02*
X21634000Y-13503500D01*
X21734000Y-13453500D02*
G75*
G02*
X21634000Y-13453500I-50000J0D01*
G01*
X21634000Y-13453500D02*
G75*
G02*
X21734000Y-13453500I50000J0D01*
G01*
X21634000Y-13680500D02*
X21734000Y-13780500D01*
X21734000Y-13680500D02*
X21634000Y-13780500D01*
X21734000Y-13730500D02*
G75*
G02*
X21634000Y-13730500I-50000J0D01*
G01*
X21634000Y-13730500D02*
G75*
G02*
X21734000Y-13730500I50000J0D01*
G01*
X21634000Y-13957500D02*
X21734000Y-14057500D01*
X21734000Y-13957500D02*
X21634000Y-14057500D01*
X21734000Y-14007500D02*
G75*
G02*
X21634000Y-14007500I-50000J0D01*
G01*
X21634000Y-14007500D02*
G75*
G02*
X21734000Y-14007500I50000J0D01*
G01*
X21634000Y-14234500D02*
X21734000Y-14334500D01*
X21734000Y-14234500D02*
X21634000Y-14334500D01*
X21734000Y-14284500D02*
G75*
G02*
X21634000Y-14284500I-50000J0D01*
G01*
X21634000Y-14284500D02*
G75*
G02*
X21734000Y-14284500I50000J0D01*
G01*
X21634000Y-14511500D02*
X21734000Y-14611500D01*
X21734000Y-14511500D02*
X21634000Y-14611500D01*
X21734000Y-14561500D02*
G75*
G02*
X21634000Y-14561500I-50000J0D01*
G01*
X21634000Y-14561500D02*
G75*
G02*
X21734000Y-14561500I50000J0D01*
G01*
D12*
X10435000Y-17935000D02*
X10565000Y-18065000D01*
X10565000Y-17935000D02*
X10435000Y-18065000D01*
X10500000Y-17935000D02*
X10500000Y-18065000D01*
X10435000Y-18000000D02*
X10565000Y-18000000D01*
X10935000Y-17935000D02*
X11065000Y-18065000D01*
X11065000Y-17935000D02*
X10935000Y-18065000D01*
X11000000Y-17935000D02*
X11000000Y-18065000D01*
X10935000Y-18000000D02*
X11065000Y-18000000D01*
D13*
X10941000Y-12787000D02*
X11101000Y-12947000D01*
X11101000Y-12787000D02*
X10941000Y-12947000D01*
X11077569Y-12923569D02*
X11077569Y-12810431D01*
X10964431Y-12810431D01*
X10964431Y-12923569D01*
X11077569Y-12923569D01*
X10941000Y-14342000D02*
X11101000Y-14502000D01*
X11101000Y-14342000D02*
X10941000Y-14502000D01*
X11077569Y-14478569D02*
X11077569Y-14365431D01*
X10964431Y-14365431D01*
X10964431Y-14478569D01*
X11077569Y-14478569D01*
D14*
X21382000Y-10523000D02*
X21702000Y-10843000D01*
X21702000Y-10523000D02*
X21382000Y-10843000D01*
X21542000Y-10843000D02*
X21702000Y-10683000D01*
X21542000Y-10523000D01*
X21382000Y-10683000D01*
X21542000Y-10843000D01*
X21382000Y-15233000D02*
X21702000Y-15553000D01*
X21702000Y-15233000D02*
X21382000Y-15553000D01*
X21542000Y-15553000D02*
X21702000Y-15393000D01*
X21542000Y-15233000D01*
X21382000Y-15393000D01*
X21542000Y-15553000D01*
X10500000Y-10340000D02*
X10500000Y-10660000D01*
X10340000Y-10500000D02*
X10660000Y-10500000D01*
X10660000Y-10500000D02*
G75*
G02*
X10340000Y-10500000I-160000J0D01*
G01*
X10340000Y-10500000D02*
G75*
G02*
X10660000Y-10500000I160000J0D01*
G01*
X10500000Y-18840000D02*
X10500000Y-19160000D01*
X10340000Y-19000000D02*
X10660000Y-19000000D01*
X10660000Y-19000000D02*
G75*
G02*
X10340000Y-19000000I-160000J0D01*
G01*
X10340000Y-19000000D02*
G75*
G02*
X10660000Y-19000000I160000J0D01*
G01*
X19600000Y-10200000D02*
X19600000Y-10520000D01*
X19440000Y-10360000D02*
X19760000Y-10360000D01*
X19760000Y-10360000D02*
G75*
G02*
X19440000Y-10360000I-160000J0D01*
G01*
X19440000Y-10360000D02*
G75*
G02*
X19760000Y-10360000I160000J0D01*
G01*
X19600000Y-18980000D02*
X19600000Y-19300000D01*
X19440000Y-19140000D02*
X19760000Y-19140000D01*
X19760000Y-19140000D02*
G75*
G02*
X19440000Y-19140000I-160000J0D01*
G01*
X19440000Y-19140000D02*
G75*
G02*
X19760000Y-19140000I160000J0D01*
G01*
D15*
X10830906Y-13187906D02*
X10830906Y-12958094D01*
X10601094Y-12958094D01*
X10601094Y-13187906D01*
X10830906Y-13187906D01*
X10878500Y-13073000D02*
G75*
G02*
X10553500Y-13073000I-162500J0D01*
G01*
X10553500Y-13073000D02*
G75*
G02*
X10878500Y-13073000I162500J0D01*
G01*
X10830906Y-14330906D02*
X10830906Y-14101094D01*
X10601094Y-14101094D01*
X10601094Y-14330906D01*
X10830906Y-14330906D01*
X10878500Y-14216000D02*
G75*
G02*
X10553500Y-14216000I-162500J0D01*
G01*
X10553500Y-14216000D02*
G75*
G02*
X10878500Y-14216000I162500J0D01*
G01*
D11*
X10255777Y-19816484D02*
X10255777Y-19616484D01*
X10255777Y-19616484D02*
X10303396Y-19616484D01*
X10303396Y-19616484D02*
X10331967Y-19626008D01*
X10331967Y-19626008D02*
X10351015Y-19645055D01*
X10351015Y-19645055D02*
X10360539Y-19664103D01*
X10360539Y-19664103D02*
X10370063Y-19702198D01*
X10370063Y-19702198D02*
X10370063Y-19730770D01*
X10370063Y-19730770D02*
X10360539Y-19768865D01*
X10360539Y-19768865D02*
X10351015Y-19787912D01*
X10351015Y-19787912D02*
X10331967Y-19806960D01*
X10331967Y-19806960D02*
X10303396Y-19816484D01*
X10303396Y-19816484D02*
X10255777Y-19816484D01*
X10455777Y-19816484D02*
X10455777Y-19683150D01*
X10455777Y-19721246D02*
X10465301Y-19702198D01*
X10465301Y-19702198D02*
X10474824Y-19692674D01*
X10474824Y-19692674D02*
X10493872Y-19683150D01*
X10493872Y-19683150D02*
X10512920Y-19683150D01*
X10579586Y-19816484D02*
X10579586Y-19683150D01*
X10579586Y-19616484D02*
X10570063Y-19626008D01*
X10570063Y-19626008D02*
X10579586Y-19635531D01*
X10579586Y-19635531D02*
X10589110Y-19626008D01*
X10589110Y-19626008D02*
X10579586Y-19616484D01*
X10579586Y-19616484D02*
X10579586Y-19635531D01*
X10703396Y-19816484D02*
X10684348Y-19806960D01*
X10684348Y-19806960D02*
X10674824Y-19787912D01*
X10674824Y-19787912D02*
X10674824Y-19616484D01*
X10808158Y-19816484D02*
X10789110Y-19806960D01*
X10789110Y-19806960D02*
X10779586Y-19787912D01*
X10779586Y-19787912D02*
X10779586Y-19616484D01*
X11036729Y-19816484D02*
X11036729Y-19616484D01*
X11036729Y-19616484D02*
X11103396Y-19759341D01*
X11103396Y-19759341D02*
X11170063Y-19616484D01*
X11170063Y-19616484D02*
X11170063Y-19816484D01*
X11351015Y-19816484D02*
X11351015Y-19711722D01*
X11351015Y-19711722D02*
X11341491Y-19692674D01*
X11341491Y-19692674D02*
X11322443Y-19683150D01*
X11322443Y-19683150D02*
X11284348Y-19683150D01*
X11284348Y-19683150D02*
X11265301Y-19692674D01*
X11351015Y-19806960D02*
X11331967Y-19816484D01*
X11331967Y-19816484D02*
X11284348Y-19816484D01*
X11284348Y-19816484D02*
X11265301Y-19806960D01*
X11265301Y-19806960D02*
X11255777Y-19787912D01*
X11255777Y-19787912D02*
X11255777Y-19768865D01*
X11255777Y-19768865D02*
X11265301Y-19749817D01*
X11265301Y-19749817D02*
X11284348Y-19740293D01*
X11284348Y-19740293D02*
X11331967Y-19740293D01*
X11331967Y-19740293D02*
X11351015Y-19730770D01*
X11446253Y-19683150D02*
X11446253Y-19883150D01*
X11446253Y-19692674D02*
X11465301Y-19683150D01*
X11465301Y-19683150D02*
X11503396Y-19683150D01*
X11503396Y-19683150D02*
X11522443Y-19692674D01*
X11522443Y-19692674D02*
X11531967Y-19702198D01*
X11531967Y-19702198D02*
X11541491Y-19721246D01*
X11541491Y-19721246D02*
X11541491Y-19778389D01*
X11541491Y-19778389D02*
X11531967Y-19797436D01*
X11531967Y-19797436D02*
X11522443Y-19806960D01*
X11522443Y-19806960D02*
X11503396Y-19816484D01*
X11503396Y-19816484D02*
X11465301Y-19816484D01*
X11465301Y-19816484D02*
X11446253Y-19806960D01*
X11627205Y-19797436D02*
X11636729Y-19806960D01*
X11636729Y-19806960D02*
X11627205Y-19816484D01*
X11627205Y-19816484D02*
X11617682Y-19806960D01*
X11617682Y-19806960D02*
X11627205Y-19797436D01*
X11627205Y-19797436D02*
X11627205Y-19816484D01*
X11627205Y-19692674D02*
X11636729Y-19702198D01*
X11636729Y-19702198D02*
X11627205Y-19711722D01*
X11627205Y-19711722D02*
X11617682Y-19702198D01*
X11617682Y-19702198D02*
X11627205Y-19692674D01*
X11627205Y-19692674D02*
X11627205Y-19711722D01*
D10*
X9975000Y-20135000D02*
X9995000Y-20155000D01*
X9995000Y-20135000D02*
X9975000Y-20155000D01*
D11*
X10293872Y-20036484D02*
X10312920Y-20036484D01*
X10312920Y-20036484D02*
X10331967Y-20046008D01*
X10331967Y-20046008D02*
X10341491Y-20055531D01*
X10341491Y-20055531D02*
X10351015Y-20074579D01*
X10351015Y-20074579D02*
X10360539Y-20112674D01*
X10360539Y-20112674D02*
X10360539Y-20160293D01*
X10360539Y-20160293D02*
X10351015Y-20198389D01*
X10351015Y-20198389D02*
X10341491Y-20217436D01*
X10341491Y-20217436D02*
X10331967Y-20226960D01*
X10331967Y-20226960D02*
X10312920Y-20236484D01*
X10312920Y-20236484D02*
X10293872Y-20236484D01*
X10293872Y-20236484D02*
X10274824Y-20226960D01*
X10274824Y-20226960D02*
X10265301Y-20217436D01*
X10265301Y-20217436D02*
X10255777Y-20198389D01*
X10255777Y-20198389D02*
X10246253Y-20160293D01*
X10246253Y-20160293D02*
X10246253Y-20112674D01*
X10246253Y-20112674D02*
X10255777Y-20074579D01*
X10255777Y-20074579D02*
X10265301Y-20055531D01*
X10265301Y-20055531D02*
X10274824Y-20046008D01*
X10274824Y-20046008D02*
X10293872Y-20036484D01*
X10446253Y-20217436D02*
X10455777Y-20226960D01*
X10455777Y-20226960D02*
X10446253Y-20236484D01*
X10446253Y-20236484D02*
X10436729Y-20226960D01*
X10436729Y-20226960D02*
X10446253Y-20217436D01*
X10446253Y-20217436D02*
X10446253Y-20236484D01*
X10531967Y-20055531D02*
X10541491Y-20046008D01*
X10541491Y-20046008D02*
X10560539Y-20036484D01*
X10560539Y-20036484D02*
X10608158Y-20036484D01*
X10608158Y-20036484D02*
X10627205Y-20046008D01*
X10627205Y-20046008D02*
X10636729Y-20055531D01*
X10636729Y-20055531D02*
X10646253Y-20074579D01*
X10646253Y-20074579D02*
X10646253Y-20093627D01*
X10646253Y-20093627D02*
X10636729Y-20122198D01*
X10636729Y-20122198D02*
X10522444Y-20236484D01*
X10522444Y-20236484D02*
X10646253Y-20236484D01*
X10770063Y-20036484D02*
X10789110Y-20036484D01*
X10789110Y-20036484D02*
X10808158Y-20046008D01*
X10808158Y-20046008D02*
X10817682Y-20055531D01*
X10817682Y-20055531D02*
X10827205Y-20074579D01*
X10827205Y-20074579D02*
X10836729Y-20112674D01*
X10836729Y-20112674D02*
X10836729Y-20160293D01*
X10836729Y-20160293D02*
X10827205Y-20198389D01*
X10827205Y-20198389D02*
X10817682Y-20217436D01*
X10817682Y-20217436D02*
X10808158Y-20226960D01*
X10808158Y-20226960D02*
X10789110Y-20236484D01*
X10789110Y-20236484D02*
X10770063Y-20236484D01*
X10770063Y-20236484D02*
X10751015Y-20226960D01*
X10751015Y-20226960D02*
X10741491Y-20217436D01*
X10741491Y-20217436D02*
X10731967Y-20198389D01*
X10731967Y-20198389D02*
X10722444Y-20160293D01*
X10722444Y-20160293D02*
X10722444Y-20112674D01*
X10722444Y-20112674D02*
X10731967Y-20074579D01*
X10731967Y-20074579D02*
X10741491Y-20055531D01*
X10741491Y-20055531D02*
X10751015Y-20046008D01*
X10751015Y-20046008D02*
X10770063Y-20036484D01*
X10960539Y-20036484D02*
X10979586Y-20036484D01*
X10979586Y-20036484D02*
X10998634Y-20046008D01*
X10998634Y-20046008D02*
X11008158Y-20055531D01*
X11008158Y-20055531D02*
X11017682Y-20074579D01*
X11017682Y-20074579D02*
X11027205Y-20112674D01*
X11027205Y-20112674D02*
X11027205Y-20160293D01*
X11027205Y-20160293D02*
X11017682Y-20198389D01*
X11017682Y-20198389D02*
X11008158Y-20217436D01*
X11008158Y-20217436D02*
X10998634Y-20226960D01*
X10998634Y-20226960D02*
X10979586Y-20236484D01*
X10979586Y-20236484D02*
X10960539Y-20236484D01*
X10960539Y-20236484D02*
X10941491Y-20226960D01*
X10941491Y-20226960D02*
X10931967Y-20217436D01*
X10931967Y-20217436D02*
X10922444Y-20198389D01*
X10922444Y-20198389D02*
X10912920Y-20160293D01*
X10912920Y-20160293D02*
X10912920Y-20112674D01*
X10912920Y-20112674D02*
X10922444Y-20074579D01*
X10922444Y-20074579D02*
X10931967Y-20055531D01*
X10931967Y-20055531D02*
X10941491Y-20046008D01*
X10941491Y-20046008D02*
X10960539Y-20036484D01*
X11112920Y-20236484D02*
X11112920Y-20103150D01*
X11112920Y-20122198D02*
X11122444Y-20112674D01*
X11122444Y-20112674D02*
X11141491Y-20103150D01*
X11141491Y-20103150D02*
X11170063Y-20103150D01*
X11170063Y-20103150D02*
X11189110Y-20112674D01*
X11189110Y-20112674D02*
X11198634Y-20131722D01*
X11198634Y-20131722D02*
X11198634Y-20236484D01*
X11198634Y-20131722D02*
X11208158Y-20112674D01*
X11208158Y-20112674D02*
X11227205Y-20103150D01*
X11227205Y-20103150D02*
X11255777Y-20103150D01*
X11255777Y-20103150D02*
X11274824Y-20112674D01*
X11274824Y-20112674D02*
X11284348Y-20131722D01*
X11284348Y-20131722D02*
X11284348Y-20236484D01*
X11379586Y-20236484D02*
X11379586Y-20103150D01*
X11379586Y-20122198D02*
X11389110Y-20112674D01*
X11389110Y-20112674D02*
X11408158Y-20103150D01*
X11408158Y-20103150D02*
X11436729Y-20103150D01*
X11436729Y-20103150D02*
X11455777Y-20112674D01*
X11455777Y-20112674D02*
X11465301Y-20131722D01*
X11465301Y-20131722D02*
X11465301Y-20236484D01*
X11465301Y-20131722D02*
X11474824Y-20112674D01*
X11474824Y-20112674D02*
X11493872Y-20103150D01*
X11493872Y-20103150D02*
X11522443Y-20103150D01*
X11522443Y-20103150D02*
X11541491Y-20112674D01*
X11541491Y-20112674D02*
X11551015Y-20131722D01*
X11551015Y-20131722D02*
X11551015Y-20236484D01*
X11941491Y-20026960D02*
X11770063Y-20284103D01*
X12198634Y-20036484D02*
X12217682Y-20036484D01*
X12217682Y-20036484D02*
X12236729Y-20046008D01*
X12236729Y-20046008D02*
X12246253Y-20055531D01*
X12246253Y-20055531D02*
X12255777Y-20074579D01*
X12255777Y-20074579D02*
X12265301Y-20112674D01*
X12265301Y-20112674D02*
X12265301Y-20160293D01*
X12265301Y-20160293D02*
X12255777Y-20198389D01*
X12255777Y-20198389D02*
X12246253Y-20217436D01*
X12246253Y-20217436D02*
X12236729Y-20226960D01*
X12236729Y-20226960D02*
X12217682Y-20236484D01*
X12217682Y-20236484D02*
X12198634Y-20236484D01*
X12198634Y-20236484D02*
X12179586Y-20226960D01*
X12179586Y-20226960D02*
X12170063Y-20217436D01*
X12170063Y-20217436D02*
X12160539Y-20198389D01*
X12160539Y-20198389D02*
X12151015Y-20160293D01*
X12151015Y-20160293D02*
X12151015Y-20112674D01*
X12151015Y-20112674D02*
X12160539Y-20074579D01*
X12160539Y-20074579D02*
X12170063Y-20055531D01*
X12170063Y-20055531D02*
X12179586Y-20046008D01*
X12179586Y-20046008D02*
X12198634Y-20036484D01*
X12351015Y-20217436D02*
X12360539Y-20226960D01*
X12360539Y-20226960D02*
X12351015Y-20236484D01*
X12351015Y-20236484D02*
X12341491Y-20226960D01*
X12341491Y-20226960D02*
X12351015Y-20217436D01*
X12351015Y-20217436D02*
X12351015Y-20236484D01*
X12484348Y-20036484D02*
X12503396Y-20036484D01*
X12503396Y-20036484D02*
X12522444Y-20046008D01*
X12522444Y-20046008D02*
X12531967Y-20055531D01*
X12531967Y-20055531D02*
X12541491Y-20074579D01*
X12541491Y-20074579D02*
X12551015Y-20112674D01*
X12551015Y-20112674D02*
X12551015Y-20160293D01*
X12551015Y-20160293D02*
X12541491Y-20198389D01*
X12541491Y-20198389D02*
X12531967Y-20217436D01*
X12531967Y-20217436D02*
X12522444Y-20226960D01*
X12522444Y-20226960D02*
X12503396Y-20236484D01*
X12503396Y-20236484D02*
X12484348Y-20236484D01*
X12484348Y-20236484D02*
X12465301Y-20226960D01*
X12465301Y-20226960D02*
X12455777Y-20217436D01*
X12455777Y-20217436D02*
X12446253Y-20198389D01*
X12446253Y-20198389D02*
X12436729Y-20160293D01*
X12436729Y-20160293D02*
X12436729Y-20112674D01*
X12436729Y-20112674D02*
X12446253Y-20074579D01*
X12446253Y-20074579D02*
X12455777Y-20055531D01*
X12455777Y-20055531D02*
X12465301Y-20046008D01*
X12465301Y-20046008D02*
X12484348Y-20036484D01*
X12674825Y-20036484D02*
X12693872Y-20036484D01*
X12693872Y-20036484D02*
X12712920Y-20046008D01*
X12712920Y-20046008D02*
X12722444Y-20055531D01*
X12722444Y-20055531D02*
X12731967Y-20074579D01*
X12731967Y-20074579D02*
X12741491Y-20112674D01*
X12741491Y-20112674D02*
X12741491Y-20160293D01*
X12741491Y-20160293D02*
X12731967Y-20198389D01*
X12731967Y-20198389D02*
X12722444Y-20217436D01*
X12722444Y-20217436D02*
X12712920Y-20226960D01*
X12712920Y-20226960D02*
X12693872Y-20236484D01*
X12693872Y-20236484D02*
X12674825Y-20236484D01*
X12674825Y-20236484D02*
X12655777Y-20226960D01*
X12655777Y-20226960D02*
X12646253Y-20217436D01*
X12646253Y-20217436D02*
X12636729Y-20198389D01*
X12636729Y-20198389D02*
X12627206Y-20160293D01*
X12627206Y-20160293D02*
X12627206Y-20112674D01*
X12627206Y-20112674D02*
X12636729Y-20074579D01*
X12636729Y-20074579D02*
X12646253Y-20055531D01*
X12646253Y-20055531D02*
X12655777Y-20046008D01*
X12655777Y-20046008D02*
X12674825Y-20036484D01*
X12808158Y-20036484D02*
X12941491Y-20036484D01*
X12941491Y-20036484D02*
X12855777Y-20236484D01*
X13027206Y-20236484D02*
X13065301Y-20236484D01*
X13065301Y-20236484D02*
X13084348Y-20226960D01*
X13084348Y-20226960D02*
X13093872Y-20217436D01*
X13093872Y-20217436D02*
X13112920Y-20188865D01*
X13112920Y-20188865D02*
X13122444Y-20150770D01*
X13122444Y-20150770D02*
X13122444Y-20074579D01*
X13122444Y-20074579D02*
X13112920Y-20055531D01*
X13112920Y-20055531D02*
X13103396Y-20046008D01*
X13103396Y-20046008D02*
X13084348Y-20036484D01*
X13084348Y-20036484D02*
X13046253Y-20036484D01*
X13046253Y-20036484D02*
X13027206Y-20046008D01*
X13027206Y-20046008D02*
X13017682Y-20055531D01*
X13017682Y-20055531D02*
X13008158Y-20074579D01*
X13008158Y-20074579D02*
X13008158Y-20122198D01*
X13008158Y-20122198D02*
X13017682Y-20141246D01*
X13017682Y-20141246D02*
X13027206Y-20150770D01*
X13027206Y-20150770D02*
X13046253Y-20160293D01*
X13046253Y-20160293D02*
X13084348Y-20160293D01*
X13084348Y-20160293D02*
X13103396Y-20150770D01*
X13103396Y-20150770D02*
X13112920Y-20141246D01*
X13112920Y-20141246D02*
X13122444Y-20122198D01*
X13198634Y-20036484D02*
X13198634Y-20074579D01*
X13274825Y-20036484D02*
X13274825Y-20074579D01*
X13570063Y-20312674D02*
X13560539Y-20303150D01*
X13560539Y-20303150D02*
X13541491Y-20274579D01*
X13541491Y-20274579D02*
X13531968Y-20255531D01*
X13531968Y-20255531D02*
X13522444Y-20226960D01*
X13522444Y-20226960D02*
X13512920Y-20179341D01*
X13512920Y-20179341D02*
X13512920Y-20141246D01*
X13512920Y-20141246D02*
X13522444Y-20093627D01*
X13522444Y-20093627D02*
X13531968Y-20065055D01*
X13531968Y-20065055D02*
X13541491Y-20046008D01*
X13541491Y-20046008D02*
X13560539Y-20017436D01*
X13560539Y-20017436D02*
X13570063Y-20007912D01*
X13655777Y-20236484D02*
X13693872Y-20236484D01*
X13693872Y-20236484D02*
X13712920Y-20226960D01*
X13712920Y-20226960D02*
X13722444Y-20217436D01*
X13722444Y-20217436D02*
X13741491Y-20188865D01*
X13741491Y-20188865D02*
X13751015Y-20150770D01*
X13751015Y-20150770D02*
X13751015Y-20074579D01*
X13751015Y-20074579D02*
X13741491Y-20055531D01*
X13741491Y-20055531D02*
X13731968Y-20046008D01*
X13731968Y-20046008D02*
X13712920Y-20036484D01*
X13712920Y-20036484D02*
X13674825Y-20036484D01*
X13674825Y-20036484D02*
X13655777Y-20046008D01*
X13655777Y-20046008D02*
X13646253Y-20055531D01*
X13646253Y-20055531D02*
X13636729Y-20074579D01*
X13636729Y-20074579D02*
X13636729Y-20122198D01*
X13636729Y-20122198D02*
X13646253Y-20141246D01*
X13646253Y-20141246D02*
X13655777Y-20150770D01*
X13655777Y-20150770D02*
X13674825Y-20160293D01*
X13674825Y-20160293D02*
X13712920Y-20160293D01*
X13712920Y-20160293D02*
X13731968Y-20150770D01*
X13731968Y-20150770D02*
X13741491Y-20141246D01*
X13741491Y-20141246D02*
X13751015Y-20122198D01*
X13827206Y-20055531D02*
X13836729Y-20046008D01*
X13836729Y-20046008D02*
X13855777Y-20036484D01*
X13855777Y-20036484D02*
X13903396Y-20036484D01*
X13903396Y-20036484D02*
X13922444Y-20046008D01*
X13922444Y-20046008D02*
X13931968Y-20055531D01*
X13931968Y-20055531D02*
X13941491Y-20074579D01*
X13941491Y-20074579D02*
X13941491Y-20093627D01*
X13941491Y-20093627D02*
X13931968Y-20122198D01*
X13931968Y-20122198D02*
X13817682Y-20236484D01*
X13817682Y-20236484D02*
X13941491Y-20236484D01*
X14179587Y-20236484D02*
X14179587Y-20036484D01*
X14265301Y-20236484D02*
X14265301Y-20131722D01*
X14265301Y-20131722D02*
X14255777Y-20112674D01*
X14255777Y-20112674D02*
X14236730Y-20103150D01*
X14236730Y-20103150D02*
X14208158Y-20103150D01*
X14208158Y-20103150D02*
X14189110Y-20112674D01*
X14189110Y-20112674D02*
X14179587Y-20122198D01*
X14389110Y-20236484D02*
X14370063Y-20226960D01*
X14370063Y-20226960D02*
X14360539Y-20217436D01*
X14360539Y-20217436D02*
X14351015Y-20198389D01*
X14351015Y-20198389D02*
X14351015Y-20141246D01*
X14351015Y-20141246D02*
X14360539Y-20122198D01*
X14360539Y-20122198D02*
X14370063Y-20112674D01*
X14370063Y-20112674D02*
X14389110Y-20103150D01*
X14389110Y-20103150D02*
X14417682Y-20103150D01*
X14417682Y-20103150D02*
X14436730Y-20112674D01*
X14436730Y-20112674D02*
X14446253Y-20122198D01*
X14446253Y-20122198D02*
X14455777Y-20141246D01*
X14455777Y-20141246D02*
X14455777Y-20198389D01*
X14455777Y-20198389D02*
X14446253Y-20217436D01*
X14446253Y-20217436D02*
X14436730Y-20226960D01*
X14436730Y-20226960D02*
X14417682Y-20236484D01*
X14417682Y-20236484D02*
X14389110Y-20236484D01*
X14570063Y-20236484D02*
X14551015Y-20226960D01*
X14551015Y-20226960D02*
X14541491Y-20207912D01*
X14541491Y-20207912D02*
X14541491Y-20036484D01*
X14722444Y-20226960D02*
X14703396Y-20236484D01*
X14703396Y-20236484D02*
X14665301Y-20236484D01*
X14665301Y-20236484D02*
X14646253Y-20226960D01*
X14646253Y-20226960D02*
X14636730Y-20207912D01*
X14636730Y-20207912D02*
X14636730Y-20131722D01*
X14636730Y-20131722D02*
X14646253Y-20112674D01*
X14646253Y-20112674D02*
X14665301Y-20103150D01*
X14665301Y-20103150D02*
X14703396Y-20103150D01*
X14703396Y-20103150D02*
X14722444Y-20112674D01*
X14722444Y-20112674D02*
X14731968Y-20131722D01*
X14731968Y-20131722D02*
X14731968Y-20150770D01*
X14731968Y-20150770D02*
X14636730Y-20169817D01*
X14808158Y-20226960D02*
X14827206Y-20236484D01*
X14827206Y-20236484D02*
X14865301Y-20236484D01*
X14865301Y-20236484D02*
X14884349Y-20226960D01*
X14884349Y-20226960D02*
X14893872Y-20207912D01*
X14893872Y-20207912D02*
X14893872Y-20198389D01*
X14893872Y-20198389D02*
X14884349Y-20179341D01*
X14884349Y-20179341D02*
X14865301Y-20169817D01*
X14865301Y-20169817D02*
X14836730Y-20169817D01*
X14836730Y-20169817D02*
X14817682Y-20160293D01*
X14817682Y-20160293D02*
X14808158Y-20141246D01*
X14808158Y-20141246D02*
X14808158Y-20131722D01*
X14808158Y-20131722D02*
X14817682Y-20112674D01*
X14817682Y-20112674D02*
X14836730Y-20103150D01*
X14836730Y-20103150D02*
X14865301Y-20103150D01*
X14865301Y-20103150D02*
X14884349Y-20112674D01*
X14960539Y-20312674D02*
X14970063Y-20303150D01*
X14970063Y-20303150D02*
X14989111Y-20274579D01*
X14989111Y-20274579D02*
X14998634Y-20255531D01*
X14998634Y-20255531D02*
X15008158Y-20226960D01*
X15008158Y-20226960D02*
X15017682Y-20179341D01*
X15017682Y-20179341D02*
X15017682Y-20141246D01*
X15017682Y-20141246D02*
X15008158Y-20093627D01*
X15008158Y-20093627D02*
X14998634Y-20065055D01*
X14998634Y-20065055D02*
X14989111Y-20046008D01*
X14989111Y-20046008D02*
X14970063Y-20017436D01*
X14970063Y-20017436D02*
X14960539Y-20007912D01*
D10*
X9995000Y-20409000D02*
G75*
G02*
X9965000Y-20409000I-15000J0D01*
G01*
X9965000Y-20409000D02*
G75*
G02*
X9995000Y-20409000I15000J0D01*
G01*
D11*
X10293872Y-20300484D02*
X10312920Y-20300484D01*
X10312920Y-20300484D02*
X10331967Y-20310008D01*
X10331967Y-20310008D02*
X10341491Y-20319531D01*
X10341491Y-20319531D02*
X10351015Y-20338579D01*
X10351015Y-20338579D02*
X10360539Y-20376674D01*
X10360539Y-20376674D02*
X10360539Y-20424293D01*
X10360539Y-20424293D02*
X10351015Y-20462389D01*
X10351015Y-20462389D02*
X10341491Y-20481436D01*
X10341491Y-20481436D02*
X10331967Y-20490960D01*
X10331967Y-20490960D02*
X10312920Y-20500484D01*
X10312920Y-20500484D02*
X10293872Y-20500484D01*
X10293872Y-20500484D02*
X10274824Y-20490960D01*
X10274824Y-20490960D02*
X10265301Y-20481436D01*
X10265301Y-20481436D02*
X10255777Y-20462389D01*
X10255777Y-20462389D02*
X10246253Y-20424293D01*
X10246253Y-20424293D02*
X10246253Y-20376674D01*
X10246253Y-20376674D02*
X10255777Y-20338579D01*
X10255777Y-20338579D02*
X10265301Y-20319531D01*
X10265301Y-20319531D02*
X10274824Y-20310008D01*
X10274824Y-20310008D02*
X10293872Y-20300484D01*
X10446253Y-20481436D02*
X10455777Y-20490960D01*
X10455777Y-20490960D02*
X10446253Y-20500484D01*
X10446253Y-20500484D02*
X10436729Y-20490960D01*
X10436729Y-20490960D02*
X10446253Y-20481436D01*
X10446253Y-20481436D02*
X10446253Y-20500484D01*
X10522444Y-20300484D02*
X10646253Y-20300484D01*
X10646253Y-20300484D02*
X10579586Y-20376674D01*
X10579586Y-20376674D02*
X10608158Y-20376674D01*
X10608158Y-20376674D02*
X10627205Y-20386198D01*
X10627205Y-20386198D02*
X10636729Y-20395722D01*
X10636729Y-20395722D02*
X10646253Y-20414770D01*
X10646253Y-20414770D02*
X10646253Y-20462389D01*
X10646253Y-20462389D02*
X10636729Y-20481436D01*
X10636729Y-20481436D02*
X10627205Y-20490960D01*
X10627205Y-20490960D02*
X10608158Y-20500484D01*
X10608158Y-20500484D02*
X10551015Y-20500484D01*
X10551015Y-20500484D02*
X10531967Y-20490960D01*
X10531967Y-20490960D02*
X10522444Y-20481436D01*
X10770063Y-20300484D02*
X10789110Y-20300484D01*
X10789110Y-20300484D02*
X10808158Y-20310008D01*
X10808158Y-20310008D02*
X10817682Y-20319531D01*
X10817682Y-20319531D02*
X10827205Y-20338579D01*
X10827205Y-20338579D02*
X10836729Y-20376674D01*
X10836729Y-20376674D02*
X10836729Y-20424293D01*
X10836729Y-20424293D02*
X10827205Y-20462389D01*
X10827205Y-20462389D02*
X10817682Y-20481436D01*
X10817682Y-20481436D02*
X10808158Y-20490960D01*
X10808158Y-20490960D02*
X10789110Y-20500484D01*
X10789110Y-20500484D02*
X10770063Y-20500484D01*
X10770063Y-20500484D02*
X10751015Y-20490960D01*
X10751015Y-20490960D02*
X10741491Y-20481436D01*
X10741491Y-20481436D02*
X10731967Y-20462389D01*
X10731967Y-20462389D02*
X10722444Y-20424293D01*
X10722444Y-20424293D02*
X10722444Y-20376674D01*
X10722444Y-20376674D02*
X10731967Y-20338579D01*
X10731967Y-20338579D02*
X10741491Y-20319531D01*
X10741491Y-20319531D02*
X10751015Y-20310008D01*
X10751015Y-20310008D02*
X10770063Y-20300484D01*
X10960539Y-20300484D02*
X10979586Y-20300484D01*
X10979586Y-20300484D02*
X10998634Y-20310008D01*
X10998634Y-20310008D02*
X11008158Y-20319531D01*
X11008158Y-20319531D02*
X11017682Y-20338579D01*
X11017682Y-20338579D02*
X11027205Y-20376674D01*
X11027205Y-20376674D02*
X11027205Y-20424293D01*
X11027205Y-20424293D02*
X11017682Y-20462389D01*
X11017682Y-20462389D02*
X11008158Y-20481436D01*
X11008158Y-20481436D02*
X10998634Y-20490960D01*
X10998634Y-20490960D02*
X10979586Y-20500484D01*
X10979586Y-20500484D02*
X10960539Y-20500484D01*
X10960539Y-20500484D02*
X10941491Y-20490960D01*
X10941491Y-20490960D02*
X10931967Y-20481436D01*
X10931967Y-20481436D02*
X10922444Y-20462389D01*
X10922444Y-20462389D02*
X10912920Y-20424293D01*
X10912920Y-20424293D02*
X10912920Y-20376674D01*
X10912920Y-20376674D02*
X10922444Y-20338579D01*
X10922444Y-20338579D02*
X10931967Y-20319531D01*
X10931967Y-20319531D02*
X10941491Y-20310008D01*
X10941491Y-20310008D02*
X10960539Y-20300484D01*
X11112920Y-20500484D02*
X11112920Y-20367150D01*
X11112920Y-20386198D02*
X11122444Y-20376674D01*
X11122444Y-20376674D02*
X11141491Y-20367150D01*
X11141491Y-20367150D02*
X11170063Y-20367150D01*
X11170063Y-20367150D02*
X11189110Y-20376674D01*
X11189110Y-20376674D02*
X11198634Y-20395722D01*
X11198634Y-20395722D02*
X11198634Y-20500484D01*
X11198634Y-20395722D02*
X11208158Y-20376674D01*
X11208158Y-20376674D02*
X11227205Y-20367150D01*
X11227205Y-20367150D02*
X11255777Y-20367150D01*
X11255777Y-20367150D02*
X11274824Y-20376674D01*
X11274824Y-20376674D02*
X11284348Y-20395722D01*
X11284348Y-20395722D02*
X11284348Y-20500484D01*
X11379586Y-20500484D02*
X11379586Y-20367150D01*
X11379586Y-20386198D02*
X11389110Y-20376674D01*
X11389110Y-20376674D02*
X11408158Y-20367150D01*
X11408158Y-20367150D02*
X11436729Y-20367150D01*
X11436729Y-20367150D02*
X11455777Y-20376674D01*
X11455777Y-20376674D02*
X11465301Y-20395722D01*
X11465301Y-20395722D02*
X11465301Y-20500484D01*
X11465301Y-20395722D02*
X11474824Y-20376674D01*
X11474824Y-20376674D02*
X11493872Y-20367150D01*
X11493872Y-20367150D02*
X11522443Y-20367150D01*
X11522443Y-20367150D02*
X11541491Y-20376674D01*
X11541491Y-20376674D02*
X11551015Y-20395722D01*
X11551015Y-20395722D02*
X11551015Y-20500484D01*
X11941491Y-20290960D02*
X11770063Y-20548103D01*
X12198634Y-20300484D02*
X12217682Y-20300484D01*
X12217682Y-20300484D02*
X12236729Y-20310008D01*
X12236729Y-20310008D02*
X12246253Y-20319531D01*
X12246253Y-20319531D02*
X12255777Y-20338579D01*
X12255777Y-20338579D02*
X12265301Y-20376674D01*
X12265301Y-20376674D02*
X12265301Y-20424293D01*
X12265301Y-20424293D02*
X12255777Y-20462389D01*
X12255777Y-20462389D02*
X12246253Y-20481436D01*
X12246253Y-20481436D02*
X12236729Y-20490960D01*
X12236729Y-20490960D02*
X12217682Y-20500484D01*
X12217682Y-20500484D02*
X12198634Y-20500484D01*
X12198634Y-20500484D02*
X12179586Y-20490960D01*
X12179586Y-20490960D02*
X12170063Y-20481436D01*
X12170063Y-20481436D02*
X12160539Y-20462389D01*
X12160539Y-20462389D02*
X12151015Y-20424293D01*
X12151015Y-20424293D02*
X12151015Y-20376674D01*
X12151015Y-20376674D02*
X12160539Y-20338579D01*
X12160539Y-20338579D02*
X12170063Y-20319531D01*
X12170063Y-20319531D02*
X12179586Y-20310008D01*
X12179586Y-20310008D02*
X12198634Y-20300484D01*
X12351015Y-20481436D02*
X12360539Y-20490960D01*
X12360539Y-20490960D02*
X12351015Y-20500484D01*
X12351015Y-20500484D02*
X12341491Y-20490960D01*
X12341491Y-20490960D02*
X12351015Y-20481436D01*
X12351015Y-20481436D02*
X12351015Y-20500484D01*
X12484348Y-20300484D02*
X12503396Y-20300484D01*
X12503396Y-20300484D02*
X12522444Y-20310008D01*
X12522444Y-20310008D02*
X12531967Y-20319531D01*
X12531967Y-20319531D02*
X12541491Y-20338579D01*
X12541491Y-20338579D02*
X12551015Y-20376674D01*
X12551015Y-20376674D02*
X12551015Y-20424293D01*
X12551015Y-20424293D02*
X12541491Y-20462389D01*
X12541491Y-20462389D02*
X12531967Y-20481436D01*
X12531967Y-20481436D02*
X12522444Y-20490960D01*
X12522444Y-20490960D02*
X12503396Y-20500484D01*
X12503396Y-20500484D02*
X12484348Y-20500484D01*
X12484348Y-20500484D02*
X12465301Y-20490960D01*
X12465301Y-20490960D02*
X12455777Y-20481436D01*
X12455777Y-20481436D02*
X12446253Y-20462389D01*
X12446253Y-20462389D02*
X12436729Y-20424293D01*
X12436729Y-20424293D02*
X12436729Y-20376674D01*
X12436729Y-20376674D02*
X12446253Y-20338579D01*
X12446253Y-20338579D02*
X12455777Y-20319531D01*
X12455777Y-20319531D02*
X12465301Y-20310008D01*
X12465301Y-20310008D02*
X12484348Y-20300484D01*
X12741491Y-20500484D02*
X12627206Y-20500484D01*
X12684348Y-20500484D02*
X12684348Y-20300484D01*
X12684348Y-20300484D02*
X12665301Y-20329055D01*
X12665301Y-20329055D02*
X12646253Y-20348103D01*
X12646253Y-20348103D02*
X12627206Y-20357627D01*
X12931967Y-20500484D02*
X12817682Y-20500484D01*
X12874825Y-20500484D02*
X12874825Y-20300484D01*
X12874825Y-20300484D02*
X12855777Y-20329055D01*
X12855777Y-20329055D02*
X12836729Y-20348103D01*
X12836729Y-20348103D02*
X12817682Y-20357627D01*
X13046253Y-20386198D02*
X13027206Y-20376674D01*
X13027206Y-20376674D02*
X13017682Y-20367150D01*
X13017682Y-20367150D02*
X13008158Y-20348103D01*
X13008158Y-20348103D02*
X13008158Y-20338579D01*
X13008158Y-20338579D02*
X13017682Y-20319531D01*
X13017682Y-20319531D02*
X13027206Y-20310008D01*
X13027206Y-20310008D02*
X13046253Y-20300484D01*
X13046253Y-20300484D02*
X13084348Y-20300484D01*
X13084348Y-20300484D02*
X13103396Y-20310008D01*
X13103396Y-20310008D02*
X13112920Y-20319531D01*
X13112920Y-20319531D02*
X13122444Y-20338579D01*
X13122444Y-20338579D02*
X13122444Y-20348103D01*
X13122444Y-20348103D02*
X13112920Y-20367150D01*
X13112920Y-20367150D02*
X13103396Y-20376674D01*
X13103396Y-20376674D02*
X13084348Y-20386198D01*
X13084348Y-20386198D02*
X13046253Y-20386198D01*
X13046253Y-20386198D02*
X13027206Y-20395722D01*
X13027206Y-20395722D02*
X13017682Y-20405246D01*
X13017682Y-20405246D02*
X13008158Y-20424293D01*
X13008158Y-20424293D02*
X13008158Y-20462389D01*
X13008158Y-20462389D02*
X13017682Y-20481436D01*
X13017682Y-20481436D02*
X13027206Y-20490960D01*
X13027206Y-20490960D02*
X13046253Y-20500484D01*
X13046253Y-20500484D02*
X13084348Y-20500484D01*
X13084348Y-20500484D02*
X13103396Y-20490960D01*
X13103396Y-20490960D02*
X13112920Y-20481436D01*
X13112920Y-20481436D02*
X13122444Y-20462389D01*
X13122444Y-20462389D02*
X13122444Y-20424293D01*
X13122444Y-20424293D02*
X13112920Y-20405246D01*
X13112920Y-20405246D02*
X13103396Y-20395722D01*
X13103396Y-20395722D02*
X13084348Y-20386198D01*
X13198634Y-20300484D02*
X13198634Y-20338579D01*
X13274825Y-20300484D02*
X13274825Y-20338579D01*
X13570063Y-20576674D02*
X13560539Y-20567150D01*
X13560539Y-20567150D02*
X13541491Y-20538579D01*
X13541491Y-20538579D02*
X13531968Y-20519531D01*
X13531968Y-20519531D02*
X13522444Y-20490960D01*
X13522444Y-20490960D02*
X13512920Y-20443341D01*
X13512920Y-20443341D02*
X13512920Y-20405246D01*
X13512920Y-20405246D02*
X13522444Y-20357627D01*
X13522444Y-20357627D02*
X13531968Y-20329055D01*
X13531968Y-20329055D02*
X13541491Y-20310008D01*
X13541491Y-20310008D02*
X13560539Y-20281436D01*
X13560539Y-20281436D02*
X13570063Y-20271912D01*
X13731968Y-20300484D02*
X13693872Y-20300484D01*
X13693872Y-20300484D02*
X13674825Y-20310008D01*
X13674825Y-20310008D02*
X13665301Y-20319531D01*
X13665301Y-20319531D02*
X13646253Y-20348103D01*
X13646253Y-20348103D02*
X13636729Y-20386198D01*
X13636729Y-20386198D02*
X13636729Y-20462389D01*
X13636729Y-20462389D02*
X13646253Y-20481436D01*
X13646253Y-20481436D02*
X13655777Y-20490960D01*
X13655777Y-20490960D02*
X13674825Y-20500484D01*
X13674825Y-20500484D02*
X13712920Y-20500484D01*
X13712920Y-20500484D02*
X13731968Y-20490960D01*
X13731968Y-20490960D02*
X13741491Y-20481436D01*
X13741491Y-20481436D02*
X13751015Y-20462389D01*
X13751015Y-20462389D02*
X13751015Y-20414770D01*
X13751015Y-20414770D02*
X13741491Y-20395722D01*
X13741491Y-20395722D02*
X13731968Y-20386198D01*
X13731968Y-20386198D02*
X13712920Y-20376674D01*
X13712920Y-20376674D02*
X13674825Y-20376674D01*
X13674825Y-20376674D02*
X13655777Y-20386198D01*
X13655777Y-20386198D02*
X13646253Y-20395722D01*
X13646253Y-20395722D02*
X13636729Y-20414770D01*
X13941491Y-20500484D02*
X13827206Y-20500484D01*
X13884348Y-20500484D02*
X13884348Y-20300484D01*
X13884348Y-20300484D02*
X13865301Y-20329055D01*
X13865301Y-20329055D02*
X13846253Y-20348103D01*
X13846253Y-20348103D02*
X13827206Y-20357627D01*
X14179587Y-20500484D02*
X14179587Y-20300484D01*
X14265301Y-20500484D02*
X14265301Y-20395722D01*
X14265301Y-20395722D02*
X14255777Y-20376674D01*
X14255777Y-20376674D02*
X14236730Y-20367150D01*
X14236730Y-20367150D02*
X14208158Y-20367150D01*
X14208158Y-20367150D02*
X14189110Y-20376674D01*
X14189110Y-20376674D02*
X14179587Y-20386198D01*
X14389110Y-20500484D02*
X14370063Y-20490960D01*
X14370063Y-20490960D02*
X14360539Y-20481436D01*
X14360539Y-20481436D02*
X14351015Y-20462389D01*
X14351015Y-20462389D02*
X14351015Y-20405246D01*
X14351015Y-20405246D02*
X14360539Y-20386198D01*
X14360539Y-20386198D02*
X14370063Y-20376674D01*
X14370063Y-20376674D02*
X14389110Y-20367150D01*
X14389110Y-20367150D02*
X14417682Y-20367150D01*
X14417682Y-20367150D02*
X14436730Y-20376674D01*
X14436730Y-20376674D02*
X14446253Y-20386198D01*
X14446253Y-20386198D02*
X14455777Y-20405246D01*
X14455777Y-20405246D02*
X14455777Y-20462389D01*
X14455777Y-20462389D02*
X14446253Y-20481436D01*
X14446253Y-20481436D02*
X14436730Y-20490960D01*
X14436730Y-20490960D02*
X14417682Y-20500484D01*
X14417682Y-20500484D02*
X14389110Y-20500484D01*
X14570063Y-20500484D02*
X14551015Y-20490960D01*
X14551015Y-20490960D02*
X14541491Y-20471912D01*
X14541491Y-20471912D02*
X14541491Y-20300484D01*
X14722444Y-20490960D02*
X14703396Y-20500484D01*
X14703396Y-20500484D02*
X14665301Y-20500484D01*
X14665301Y-20500484D02*
X14646253Y-20490960D01*
X14646253Y-20490960D02*
X14636730Y-20471912D01*
X14636730Y-20471912D02*
X14636730Y-20395722D01*
X14636730Y-20395722D02*
X14646253Y-20376674D01*
X14646253Y-20376674D02*
X14665301Y-20367150D01*
X14665301Y-20367150D02*
X14703396Y-20367150D01*
X14703396Y-20367150D02*
X14722444Y-20376674D01*
X14722444Y-20376674D02*
X14731968Y-20395722D01*
X14731968Y-20395722D02*
X14731968Y-20414770D01*
X14731968Y-20414770D02*
X14636730Y-20433817D01*
X14808158Y-20490960D02*
X14827206Y-20500484D01*
X14827206Y-20500484D02*
X14865301Y-20500484D01*
X14865301Y-20500484D02*
X14884349Y-20490960D01*
X14884349Y-20490960D02*
X14893872Y-20471912D01*
X14893872Y-20471912D02*
X14893872Y-20462389D01*
X14893872Y-20462389D02*
X14884349Y-20443341D01*
X14884349Y-20443341D02*
X14865301Y-20433817D01*
X14865301Y-20433817D02*
X14836730Y-20433817D01*
X14836730Y-20433817D02*
X14817682Y-20424293D01*
X14817682Y-20424293D02*
X14808158Y-20405246D01*
X14808158Y-20405246D02*
X14808158Y-20395722D01*
X14808158Y-20395722D02*
X14817682Y-20376674D01*
X14817682Y-20376674D02*
X14836730Y-20367150D01*
X14836730Y-20367150D02*
X14865301Y-20367150D01*
X14865301Y-20367150D02*
X14884349Y-20376674D01*
X14960539Y-20576674D02*
X14970063Y-20567150D01*
X14970063Y-20567150D02*
X14989111Y-20538579D01*
X14989111Y-20538579D02*
X14998634Y-20519531D01*
X14998634Y-20519531D02*
X15008158Y-20490960D01*
X15008158Y-20490960D02*
X15017682Y-20443341D01*
X15017682Y-20443341D02*
X15017682Y-20405246D01*
X15017682Y-20405246D02*
X15008158Y-20357627D01*
X15008158Y-20357627D02*
X14998634Y-20329055D01*
X14998634Y-20329055D02*
X14989111Y-20310008D01*
X14989111Y-20310008D02*
X14970063Y-20281436D01*
X14970063Y-20281436D02*
X14960539Y-20271912D01*
D10*
X9955000Y-20633000D02*
X9955000Y-20713000D01*
X9915000Y-20673000D02*
X9995000Y-20673000D01*
D11*
X10293872Y-20564484D02*
X10312920Y-20564484D01*
X10312920Y-20564484D02*
X10331967Y-20574008D01*
X10331967Y-20574008D02*
X10341491Y-20583531D01*
X10341491Y-20583531D02*
X10351015Y-20602579D01*
X10351015Y-20602579D02*
X10360539Y-20640674D01*
X10360539Y-20640674D02*
X10360539Y-20688293D01*
X10360539Y-20688293D02*
X10351015Y-20726389D01*
X10351015Y-20726389D02*
X10341491Y-20745436D01*
X10341491Y-20745436D02*
X10331967Y-20754960D01*
X10331967Y-20754960D02*
X10312920Y-20764484D01*
X10312920Y-20764484D02*
X10293872Y-20764484D01*
X10293872Y-20764484D02*
X10274824Y-20754960D01*
X10274824Y-20754960D02*
X10265301Y-20745436D01*
X10265301Y-20745436D02*
X10255777Y-20726389D01*
X10255777Y-20726389D02*
X10246253Y-20688293D01*
X10246253Y-20688293D02*
X10246253Y-20640674D01*
X10246253Y-20640674D02*
X10255777Y-20602579D01*
X10255777Y-20602579D02*
X10265301Y-20583531D01*
X10265301Y-20583531D02*
X10274824Y-20574008D01*
X10274824Y-20574008D02*
X10293872Y-20564484D01*
X10446253Y-20745436D02*
X10455777Y-20754960D01*
X10455777Y-20754960D02*
X10446253Y-20764484D01*
X10446253Y-20764484D02*
X10436729Y-20754960D01*
X10436729Y-20754960D02*
X10446253Y-20745436D01*
X10446253Y-20745436D02*
X10446253Y-20764484D01*
X10570063Y-20650198D02*
X10551015Y-20640674D01*
X10551015Y-20640674D02*
X10541491Y-20631150D01*
X10541491Y-20631150D02*
X10531967Y-20612103D01*
X10531967Y-20612103D02*
X10531967Y-20602579D01*
X10531967Y-20602579D02*
X10541491Y-20583531D01*
X10541491Y-20583531D02*
X10551015Y-20574008D01*
X10551015Y-20574008D02*
X10570063Y-20564484D01*
X10570063Y-20564484D02*
X10608158Y-20564484D01*
X10608158Y-20564484D02*
X10627205Y-20574008D01*
X10627205Y-20574008D02*
X10636729Y-20583531D01*
X10636729Y-20583531D02*
X10646253Y-20602579D01*
X10646253Y-20602579D02*
X10646253Y-20612103D01*
X10646253Y-20612103D02*
X10636729Y-20631150D01*
X10636729Y-20631150D02*
X10627205Y-20640674D01*
X10627205Y-20640674D02*
X10608158Y-20650198D01*
X10608158Y-20650198D02*
X10570063Y-20650198D01*
X10570063Y-20650198D02*
X10551015Y-20659722D01*
X10551015Y-20659722D02*
X10541491Y-20669246D01*
X10541491Y-20669246D02*
X10531967Y-20688293D01*
X10531967Y-20688293D02*
X10531967Y-20726389D01*
X10531967Y-20726389D02*
X10541491Y-20745436D01*
X10541491Y-20745436D02*
X10551015Y-20754960D01*
X10551015Y-20754960D02*
X10570063Y-20764484D01*
X10570063Y-20764484D02*
X10608158Y-20764484D01*
X10608158Y-20764484D02*
X10627205Y-20754960D01*
X10627205Y-20754960D02*
X10636729Y-20745436D01*
X10636729Y-20745436D02*
X10646253Y-20726389D01*
X10646253Y-20726389D02*
X10646253Y-20688293D01*
X10646253Y-20688293D02*
X10636729Y-20669246D01*
X10636729Y-20669246D02*
X10627205Y-20659722D01*
X10627205Y-20659722D02*
X10608158Y-20650198D01*
X10770063Y-20564484D02*
X10789110Y-20564484D01*
X10789110Y-20564484D02*
X10808158Y-20574008D01*
X10808158Y-20574008D02*
X10817682Y-20583531D01*
X10817682Y-20583531D02*
X10827205Y-20602579D01*
X10827205Y-20602579D02*
X10836729Y-20640674D01*
X10836729Y-20640674D02*
X10836729Y-20688293D01*
X10836729Y-20688293D02*
X10827205Y-20726389D01*
X10827205Y-20726389D02*
X10817682Y-20745436D01*
X10817682Y-20745436D02*
X10808158Y-20754960D01*
X10808158Y-20754960D02*
X10789110Y-20764484D01*
X10789110Y-20764484D02*
X10770063Y-20764484D01*
X10770063Y-20764484D02*
X10751015Y-20754960D01*
X10751015Y-20754960D02*
X10741491Y-20745436D01*
X10741491Y-20745436D02*
X10731967Y-20726389D01*
X10731967Y-20726389D02*
X10722444Y-20688293D01*
X10722444Y-20688293D02*
X10722444Y-20640674D01*
X10722444Y-20640674D02*
X10731967Y-20602579D01*
X10731967Y-20602579D02*
X10741491Y-20583531D01*
X10741491Y-20583531D02*
X10751015Y-20574008D01*
X10751015Y-20574008D02*
X10770063Y-20564484D01*
X10960539Y-20564484D02*
X10979586Y-20564484D01*
X10979586Y-20564484D02*
X10998634Y-20574008D01*
X10998634Y-20574008D02*
X11008158Y-20583531D01*
X11008158Y-20583531D02*
X11017682Y-20602579D01*
X11017682Y-20602579D02*
X11027205Y-20640674D01*
X11027205Y-20640674D02*
X11027205Y-20688293D01*
X11027205Y-20688293D02*
X11017682Y-20726389D01*
X11017682Y-20726389D02*
X11008158Y-20745436D01*
X11008158Y-20745436D02*
X10998634Y-20754960D01*
X10998634Y-20754960D02*
X10979586Y-20764484D01*
X10979586Y-20764484D02*
X10960539Y-20764484D01*
X10960539Y-20764484D02*
X10941491Y-20754960D01*
X10941491Y-20754960D02*
X10931967Y-20745436D01*
X10931967Y-20745436D02*
X10922444Y-20726389D01*
X10922444Y-20726389D02*
X10912920Y-20688293D01*
X10912920Y-20688293D02*
X10912920Y-20640674D01*
X10912920Y-20640674D02*
X10922444Y-20602579D01*
X10922444Y-20602579D02*
X10931967Y-20583531D01*
X10931967Y-20583531D02*
X10941491Y-20574008D01*
X10941491Y-20574008D02*
X10960539Y-20564484D01*
X11112920Y-20764484D02*
X11112920Y-20631150D01*
X11112920Y-20650198D02*
X11122444Y-20640674D01*
X11122444Y-20640674D02*
X11141491Y-20631150D01*
X11141491Y-20631150D02*
X11170063Y-20631150D01*
X11170063Y-20631150D02*
X11189110Y-20640674D01*
X11189110Y-20640674D02*
X11198634Y-20659722D01*
X11198634Y-20659722D02*
X11198634Y-20764484D01*
X11198634Y-20659722D02*
X11208158Y-20640674D01*
X11208158Y-20640674D02*
X11227205Y-20631150D01*
X11227205Y-20631150D02*
X11255777Y-20631150D01*
X11255777Y-20631150D02*
X11274824Y-20640674D01*
X11274824Y-20640674D02*
X11284348Y-20659722D01*
X11284348Y-20659722D02*
X11284348Y-20764484D01*
X11379586Y-20764484D02*
X11379586Y-20631150D01*
X11379586Y-20650198D02*
X11389110Y-20640674D01*
X11389110Y-20640674D02*
X11408158Y-20631150D01*
X11408158Y-20631150D02*
X11436729Y-20631150D01*
X11436729Y-20631150D02*
X11455777Y-20640674D01*
X11455777Y-20640674D02*
X11465301Y-20659722D01*
X11465301Y-20659722D02*
X11465301Y-20764484D01*
X11465301Y-20659722D02*
X11474824Y-20640674D01*
X11474824Y-20640674D02*
X11493872Y-20631150D01*
X11493872Y-20631150D02*
X11522443Y-20631150D01*
X11522443Y-20631150D02*
X11541491Y-20640674D01*
X11541491Y-20640674D02*
X11551015Y-20659722D01*
X11551015Y-20659722D02*
X11551015Y-20764484D01*
X11941491Y-20554960D02*
X11770063Y-20812103D01*
X12198634Y-20564484D02*
X12217682Y-20564484D01*
X12217682Y-20564484D02*
X12236729Y-20574008D01*
X12236729Y-20574008D02*
X12246253Y-20583531D01*
X12246253Y-20583531D02*
X12255777Y-20602579D01*
X12255777Y-20602579D02*
X12265301Y-20640674D01*
X12265301Y-20640674D02*
X12265301Y-20688293D01*
X12265301Y-20688293D02*
X12255777Y-20726389D01*
X12255777Y-20726389D02*
X12246253Y-20745436D01*
X12246253Y-20745436D02*
X12236729Y-20754960D01*
X12236729Y-20754960D02*
X12217682Y-20764484D01*
X12217682Y-20764484D02*
X12198634Y-20764484D01*
X12198634Y-20764484D02*
X12179586Y-20754960D01*
X12179586Y-20754960D02*
X12170063Y-20745436D01*
X12170063Y-20745436D02*
X12160539Y-20726389D01*
X12160539Y-20726389D02*
X12151015Y-20688293D01*
X12151015Y-20688293D02*
X12151015Y-20640674D01*
X12151015Y-20640674D02*
X12160539Y-20602579D01*
X12160539Y-20602579D02*
X12170063Y-20583531D01*
X12170063Y-20583531D02*
X12179586Y-20574008D01*
X12179586Y-20574008D02*
X12198634Y-20564484D01*
X12351015Y-20745436D02*
X12360539Y-20754960D01*
X12360539Y-20754960D02*
X12351015Y-20764484D01*
X12351015Y-20764484D02*
X12341491Y-20754960D01*
X12341491Y-20754960D02*
X12351015Y-20745436D01*
X12351015Y-20745436D02*
X12351015Y-20764484D01*
X12484348Y-20564484D02*
X12503396Y-20564484D01*
X12503396Y-20564484D02*
X12522444Y-20574008D01*
X12522444Y-20574008D02*
X12531967Y-20583531D01*
X12531967Y-20583531D02*
X12541491Y-20602579D01*
X12541491Y-20602579D02*
X12551015Y-20640674D01*
X12551015Y-20640674D02*
X12551015Y-20688293D01*
X12551015Y-20688293D02*
X12541491Y-20726389D01*
X12541491Y-20726389D02*
X12531967Y-20745436D01*
X12531967Y-20745436D02*
X12522444Y-20754960D01*
X12522444Y-20754960D02*
X12503396Y-20764484D01*
X12503396Y-20764484D02*
X12484348Y-20764484D01*
X12484348Y-20764484D02*
X12465301Y-20754960D01*
X12465301Y-20754960D02*
X12455777Y-20745436D01*
X12455777Y-20745436D02*
X12446253Y-20726389D01*
X12446253Y-20726389D02*
X12436729Y-20688293D01*
X12436729Y-20688293D02*
X12436729Y-20640674D01*
X12436729Y-20640674D02*
X12446253Y-20602579D01*
X12446253Y-20602579D02*
X12455777Y-20583531D01*
X12455777Y-20583531D02*
X12465301Y-20574008D01*
X12465301Y-20574008D02*
X12484348Y-20564484D01*
X12617682Y-20564484D02*
X12741491Y-20564484D01*
X12741491Y-20564484D02*
X12674825Y-20640674D01*
X12674825Y-20640674D02*
X12703396Y-20640674D01*
X12703396Y-20640674D02*
X12722444Y-20650198D01*
X12722444Y-20650198D02*
X12731967Y-20659722D01*
X12731967Y-20659722D02*
X12741491Y-20678770D01*
X12741491Y-20678770D02*
X12741491Y-20726389D01*
X12741491Y-20726389D02*
X12731967Y-20745436D01*
X12731967Y-20745436D02*
X12722444Y-20754960D01*
X12722444Y-20754960D02*
X12703396Y-20764484D01*
X12703396Y-20764484D02*
X12646253Y-20764484D01*
X12646253Y-20764484D02*
X12627206Y-20754960D01*
X12627206Y-20754960D02*
X12617682Y-20745436D01*
X12931967Y-20764484D02*
X12817682Y-20764484D01*
X12874825Y-20764484D02*
X12874825Y-20564484D01*
X12874825Y-20564484D02*
X12855777Y-20593055D01*
X12855777Y-20593055D02*
X12836729Y-20612103D01*
X12836729Y-20612103D02*
X12817682Y-20621627D01*
X13112920Y-20564484D02*
X13017682Y-20564484D01*
X13017682Y-20564484D02*
X13008158Y-20659722D01*
X13008158Y-20659722D02*
X13017682Y-20650198D01*
X13017682Y-20650198D02*
X13036729Y-20640674D01*
X13036729Y-20640674D02*
X13084348Y-20640674D01*
X13084348Y-20640674D02*
X13103396Y-20650198D01*
X13103396Y-20650198D02*
X13112920Y-20659722D01*
X13112920Y-20659722D02*
X13122444Y-20678770D01*
X13122444Y-20678770D02*
X13122444Y-20726389D01*
X13122444Y-20726389D02*
X13112920Y-20745436D01*
X13112920Y-20745436D02*
X13103396Y-20754960D01*
X13103396Y-20754960D02*
X13084348Y-20764484D01*
X13084348Y-20764484D02*
X13036729Y-20764484D01*
X13036729Y-20764484D02*
X13017682Y-20754960D01*
X13017682Y-20754960D02*
X13008158Y-20745436D01*
X13198634Y-20564484D02*
X13198634Y-20602579D01*
X13274825Y-20564484D02*
X13274825Y-20602579D01*
X13570063Y-20840674D02*
X13560539Y-20831150D01*
X13560539Y-20831150D02*
X13541491Y-20802579D01*
X13541491Y-20802579D02*
X13531968Y-20783531D01*
X13531968Y-20783531D02*
X13522444Y-20754960D01*
X13522444Y-20754960D02*
X13512920Y-20707341D01*
X13512920Y-20707341D02*
X13512920Y-20669246D01*
X13512920Y-20669246D02*
X13522444Y-20621627D01*
X13522444Y-20621627D02*
X13531968Y-20593055D01*
X13531968Y-20593055D02*
X13541491Y-20574008D01*
X13541491Y-20574008D02*
X13560539Y-20545436D01*
X13560539Y-20545436D02*
X13570063Y-20535912D01*
X13627206Y-20564484D02*
X13751015Y-20564484D01*
X13751015Y-20564484D02*
X13684348Y-20640674D01*
X13684348Y-20640674D02*
X13712920Y-20640674D01*
X13712920Y-20640674D02*
X13731968Y-20650198D01*
X13731968Y-20650198D02*
X13741491Y-20659722D01*
X13741491Y-20659722D02*
X13751015Y-20678770D01*
X13751015Y-20678770D02*
X13751015Y-20726389D01*
X13751015Y-20726389D02*
X13741491Y-20745436D01*
X13741491Y-20745436D02*
X13731968Y-20754960D01*
X13731968Y-20754960D02*
X13712920Y-20764484D01*
X13712920Y-20764484D02*
X13655777Y-20764484D01*
X13655777Y-20764484D02*
X13636729Y-20754960D01*
X13636729Y-20754960D02*
X13627206Y-20745436D01*
X13827206Y-20583531D02*
X13836729Y-20574008D01*
X13836729Y-20574008D02*
X13855777Y-20564484D01*
X13855777Y-20564484D02*
X13903396Y-20564484D01*
X13903396Y-20564484D02*
X13922444Y-20574008D01*
X13922444Y-20574008D02*
X13931968Y-20583531D01*
X13931968Y-20583531D02*
X13941491Y-20602579D01*
X13941491Y-20602579D02*
X13941491Y-20621627D01*
X13941491Y-20621627D02*
X13931968Y-20650198D01*
X13931968Y-20650198D02*
X13817682Y-20764484D01*
X13817682Y-20764484D02*
X13941491Y-20764484D01*
X14179587Y-20764484D02*
X14179587Y-20564484D01*
X14265301Y-20764484D02*
X14265301Y-20659722D01*
X14265301Y-20659722D02*
X14255777Y-20640674D01*
X14255777Y-20640674D02*
X14236730Y-20631150D01*
X14236730Y-20631150D02*
X14208158Y-20631150D01*
X14208158Y-20631150D02*
X14189110Y-20640674D01*
X14189110Y-20640674D02*
X14179587Y-20650198D01*
X14389110Y-20764484D02*
X14370063Y-20754960D01*
X14370063Y-20754960D02*
X14360539Y-20745436D01*
X14360539Y-20745436D02*
X14351015Y-20726389D01*
X14351015Y-20726389D02*
X14351015Y-20669246D01*
X14351015Y-20669246D02*
X14360539Y-20650198D01*
X14360539Y-20650198D02*
X14370063Y-20640674D01*
X14370063Y-20640674D02*
X14389110Y-20631150D01*
X14389110Y-20631150D02*
X14417682Y-20631150D01*
X14417682Y-20631150D02*
X14436730Y-20640674D01*
X14436730Y-20640674D02*
X14446253Y-20650198D01*
X14446253Y-20650198D02*
X14455777Y-20669246D01*
X14455777Y-20669246D02*
X14455777Y-20726389D01*
X14455777Y-20726389D02*
X14446253Y-20745436D01*
X14446253Y-20745436D02*
X14436730Y-20754960D01*
X14436730Y-20754960D02*
X14417682Y-20764484D01*
X14417682Y-20764484D02*
X14389110Y-20764484D01*
X14570063Y-20764484D02*
X14551015Y-20754960D01*
X14551015Y-20754960D02*
X14541491Y-20735912D01*
X14541491Y-20735912D02*
X14541491Y-20564484D01*
X14722444Y-20754960D02*
X14703396Y-20764484D01*
X14703396Y-20764484D02*
X14665301Y-20764484D01*
X14665301Y-20764484D02*
X14646253Y-20754960D01*
X14646253Y-20754960D02*
X14636730Y-20735912D01*
X14636730Y-20735912D02*
X14636730Y-20659722D01*
X14636730Y-20659722D02*
X14646253Y-20640674D01*
X14646253Y-20640674D02*
X14665301Y-20631150D01*
X14665301Y-20631150D02*
X14703396Y-20631150D01*
X14703396Y-20631150D02*
X14722444Y-20640674D01*
X14722444Y-20640674D02*
X14731968Y-20659722D01*
X14731968Y-20659722D02*
X14731968Y-20678770D01*
X14731968Y-20678770D02*
X14636730Y-20697817D01*
X14808158Y-20754960D02*
X14827206Y-20764484D01*
X14827206Y-20764484D02*
X14865301Y-20764484D01*
X14865301Y-20764484D02*
X14884349Y-20754960D01*
X14884349Y-20754960D02*
X14893872Y-20735912D01*
X14893872Y-20735912D02*
X14893872Y-20726389D01*
X14893872Y-20726389D02*
X14884349Y-20707341D01*
X14884349Y-20707341D02*
X14865301Y-20697817D01*
X14865301Y-20697817D02*
X14836730Y-20697817D01*
X14836730Y-20697817D02*
X14817682Y-20688293D01*
X14817682Y-20688293D02*
X14808158Y-20669246D01*
X14808158Y-20669246D02*
X14808158Y-20659722D01*
X14808158Y-20659722D02*
X14817682Y-20640674D01*
X14817682Y-20640674D02*
X14836730Y-20631150D01*
X14836730Y-20631150D02*
X14865301Y-20631150D01*
X14865301Y-20631150D02*
X14884349Y-20640674D01*
X14960539Y-20840674D02*
X14970063Y-20831150D01*
X14970063Y-20831150D02*
X14989111Y-20802579D01*
X14989111Y-20802579D02*
X14998634Y-20783531D01*
X14998634Y-20783531D02*
X15008158Y-20754960D01*
X15008158Y-20754960D02*
X15017682Y-20707341D01*
X15017682Y-20707341D02*
X15017682Y-20669246D01*
X15017682Y-20669246D02*
X15008158Y-20621627D01*
X15008158Y-20621627D02*
X14998634Y-20593055D01*
X14998634Y-20593055D02*
X14989111Y-20574008D01*
X14989111Y-20574008D02*
X14970063Y-20545436D01*
X14970063Y-20545436D02*
X14960539Y-20535912D01*
D10*
X9981967Y-20968467D02*
X9981967Y-20905533D01*
X9919033Y-20905533D01*
X9919033Y-20968467D01*
X9981967Y-20968467D01*
D11*
X10293872Y-20828484D02*
X10312920Y-20828484D01*
X10312920Y-20828484D02*
X10331967Y-20838008D01*
X10331967Y-20838008D02*
X10341491Y-20847531D01*
X10341491Y-20847531D02*
X10351015Y-20866579D01*
X10351015Y-20866579D02*
X10360539Y-20904674D01*
X10360539Y-20904674D02*
X10360539Y-20952293D01*
X10360539Y-20952293D02*
X10351015Y-20990389D01*
X10351015Y-20990389D02*
X10341491Y-21009436D01*
X10341491Y-21009436D02*
X10331967Y-21018960D01*
X10331967Y-21018960D02*
X10312920Y-21028484D01*
X10312920Y-21028484D02*
X10293872Y-21028484D01*
X10293872Y-21028484D02*
X10274824Y-21018960D01*
X10274824Y-21018960D02*
X10265301Y-21009436D01*
X10265301Y-21009436D02*
X10255777Y-20990389D01*
X10255777Y-20990389D02*
X10246253Y-20952293D01*
X10246253Y-20952293D02*
X10246253Y-20904674D01*
X10246253Y-20904674D02*
X10255777Y-20866579D01*
X10255777Y-20866579D02*
X10265301Y-20847531D01*
X10265301Y-20847531D02*
X10274824Y-20838008D01*
X10274824Y-20838008D02*
X10293872Y-20828484D01*
X10446253Y-21009436D02*
X10455777Y-21018960D01*
X10455777Y-21018960D02*
X10446253Y-21028484D01*
X10446253Y-21028484D02*
X10436729Y-21018960D01*
X10436729Y-21018960D02*
X10446253Y-21009436D01*
X10446253Y-21009436D02*
X10446253Y-21028484D01*
X10570063Y-20914198D02*
X10551015Y-20904674D01*
X10551015Y-20904674D02*
X10541491Y-20895150D01*
X10541491Y-20895150D02*
X10531967Y-20876103D01*
X10531967Y-20876103D02*
X10531967Y-20866579D01*
X10531967Y-20866579D02*
X10541491Y-20847531D01*
X10541491Y-20847531D02*
X10551015Y-20838008D01*
X10551015Y-20838008D02*
X10570063Y-20828484D01*
X10570063Y-20828484D02*
X10608158Y-20828484D01*
X10608158Y-20828484D02*
X10627205Y-20838008D01*
X10627205Y-20838008D02*
X10636729Y-20847531D01*
X10636729Y-20847531D02*
X10646253Y-20866579D01*
X10646253Y-20866579D02*
X10646253Y-20876103D01*
X10646253Y-20876103D02*
X10636729Y-20895150D01*
X10636729Y-20895150D02*
X10627205Y-20904674D01*
X10627205Y-20904674D02*
X10608158Y-20914198D01*
X10608158Y-20914198D02*
X10570063Y-20914198D01*
X10570063Y-20914198D02*
X10551015Y-20923722D01*
X10551015Y-20923722D02*
X10541491Y-20933246D01*
X10541491Y-20933246D02*
X10531967Y-20952293D01*
X10531967Y-20952293D02*
X10531967Y-20990389D01*
X10531967Y-20990389D02*
X10541491Y-21009436D01*
X10541491Y-21009436D02*
X10551015Y-21018960D01*
X10551015Y-21018960D02*
X10570063Y-21028484D01*
X10570063Y-21028484D02*
X10608158Y-21028484D01*
X10608158Y-21028484D02*
X10627205Y-21018960D01*
X10627205Y-21018960D02*
X10636729Y-21009436D01*
X10636729Y-21009436D02*
X10646253Y-20990389D01*
X10646253Y-20990389D02*
X10646253Y-20952293D01*
X10646253Y-20952293D02*
X10636729Y-20933246D01*
X10636729Y-20933246D02*
X10627205Y-20923722D01*
X10627205Y-20923722D02*
X10608158Y-20914198D01*
X10741491Y-21028484D02*
X10779586Y-21028484D01*
X10779586Y-21028484D02*
X10798634Y-21018960D01*
X10798634Y-21018960D02*
X10808158Y-21009436D01*
X10808158Y-21009436D02*
X10827205Y-20980865D01*
X10827205Y-20980865D02*
X10836729Y-20942770D01*
X10836729Y-20942770D02*
X10836729Y-20866579D01*
X10836729Y-20866579D02*
X10827205Y-20847531D01*
X10827205Y-20847531D02*
X10817682Y-20838008D01*
X10817682Y-20838008D02*
X10798634Y-20828484D01*
X10798634Y-20828484D02*
X10760539Y-20828484D01*
X10760539Y-20828484D02*
X10741491Y-20838008D01*
X10741491Y-20838008D02*
X10731967Y-20847531D01*
X10731967Y-20847531D02*
X10722444Y-20866579D01*
X10722444Y-20866579D02*
X10722444Y-20914198D01*
X10722444Y-20914198D02*
X10731967Y-20933246D01*
X10731967Y-20933246D02*
X10741491Y-20942770D01*
X10741491Y-20942770D02*
X10760539Y-20952293D01*
X10760539Y-20952293D02*
X10798634Y-20952293D01*
X10798634Y-20952293D02*
X10817682Y-20942770D01*
X10817682Y-20942770D02*
X10827205Y-20933246D01*
X10827205Y-20933246D02*
X10836729Y-20914198D01*
X10960539Y-20828484D02*
X10979586Y-20828484D01*
X10979586Y-20828484D02*
X10998634Y-20838008D01*
X10998634Y-20838008D02*
X11008158Y-20847531D01*
X11008158Y-20847531D02*
X11017682Y-20866579D01*
X11017682Y-20866579D02*
X11027205Y-20904674D01*
X11027205Y-20904674D02*
X11027205Y-20952293D01*
X11027205Y-20952293D02*
X11017682Y-20990389D01*
X11017682Y-20990389D02*
X11008158Y-21009436D01*
X11008158Y-21009436D02*
X10998634Y-21018960D01*
X10998634Y-21018960D02*
X10979586Y-21028484D01*
X10979586Y-21028484D02*
X10960539Y-21028484D01*
X10960539Y-21028484D02*
X10941491Y-21018960D01*
X10941491Y-21018960D02*
X10931967Y-21009436D01*
X10931967Y-21009436D02*
X10922444Y-20990389D01*
X10922444Y-20990389D02*
X10912920Y-20952293D01*
X10912920Y-20952293D02*
X10912920Y-20904674D01*
X10912920Y-20904674D02*
X10922444Y-20866579D01*
X10922444Y-20866579D02*
X10931967Y-20847531D01*
X10931967Y-20847531D02*
X10941491Y-20838008D01*
X10941491Y-20838008D02*
X10960539Y-20828484D01*
X11112920Y-21028484D02*
X11112920Y-20895150D01*
X11112920Y-20914198D02*
X11122444Y-20904674D01*
X11122444Y-20904674D02*
X11141491Y-20895150D01*
X11141491Y-20895150D02*
X11170063Y-20895150D01*
X11170063Y-20895150D02*
X11189110Y-20904674D01*
X11189110Y-20904674D02*
X11198634Y-20923722D01*
X11198634Y-20923722D02*
X11198634Y-21028484D01*
X11198634Y-20923722D02*
X11208158Y-20904674D01*
X11208158Y-20904674D02*
X11227205Y-20895150D01*
X11227205Y-20895150D02*
X11255777Y-20895150D01*
X11255777Y-20895150D02*
X11274824Y-20904674D01*
X11274824Y-20904674D02*
X11284348Y-20923722D01*
X11284348Y-20923722D02*
X11284348Y-21028484D01*
X11379586Y-21028484D02*
X11379586Y-20895150D01*
X11379586Y-20914198D02*
X11389110Y-20904674D01*
X11389110Y-20904674D02*
X11408158Y-20895150D01*
X11408158Y-20895150D02*
X11436729Y-20895150D01*
X11436729Y-20895150D02*
X11455777Y-20904674D01*
X11455777Y-20904674D02*
X11465301Y-20923722D01*
X11465301Y-20923722D02*
X11465301Y-21028484D01*
X11465301Y-20923722D02*
X11474824Y-20904674D01*
X11474824Y-20904674D02*
X11493872Y-20895150D01*
X11493872Y-20895150D02*
X11522443Y-20895150D01*
X11522443Y-20895150D02*
X11541491Y-20904674D01*
X11541491Y-20904674D02*
X11551015Y-20923722D01*
X11551015Y-20923722D02*
X11551015Y-21028484D01*
X11941491Y-20818960D02*
X11770063Y-21076103D01*
X12198634Y-20828484D02*
X12217682Y-20828484D01*
X12217682Y-20828484D02*
X12236729Y-20838008D01*
X12236729Y-20838008D02*
X12246253Y-20847531D01*
X12246253Y-20847531D02*
X12255777Y-20866579D01*
X12255777Y-20866579D02*
X12265301Y-20904674D01*
X12265301Y-20904674D02*
X12265301Y-20952293D01*
X12265301Y-20952293D02*
X12255777Y-20990389D01*
X12255777Y-20990389D02*
X12246253Y-21009436D01*
X12246253Y-21009436D02*
X12236729Y-21018960D01*
X12236729Y-21018960D02*
X12217682Y-21028484D01*
X12217682Y-21028484D02*
X12198634Y-21028484D01*
X12198634Y-21028484D02*
X12179586Y-21018960D01*
X12179586Y-21018960D02*
X12170063Y-21009436D01*
X12170063Y-21009436D02*
X12160539Y-20990389D01*
X12160539Y-20990389D02*
X12151015Y-20952293D01*
X12151015Y-20952293D02*
X12151015Y-20904674D01*
X12151015Y-20904674D02*
X12160539Y-20866579D01*
X12160539Y-20866579D02*
X12170063Y-20847531D01*
X12170063Y-20847531D02*
X12179586Y-20838008D01*
X12179586Y-20838008D02*
X12198634Y-20828484D01*
X12351015Y-21009436D02*
X12360539Y-21018960D01*
X12360539Y-21018960D02*
X12351015Y-21028484D01*
X12351015Y-21028484D02*
X12341491Y-21018960D01*
X12341491Y-21018960D02*
X12351015Y-21009436D01*
X12351015Y-21009436D02*
X12351015Y-21028484D01*
X12484348Y-20828484D02*
X12503396Y-20828484D01*
X12503396Y-20828484D02*
X12522444Y-20838008D01*
X12522444Y-20838008D02*
X12531967Y-20847531D01*
X12531967Y-20847531D02*
X12541491Y-20866579D01*
X12541491Y-20866579D02*
X12551015Y-20904674D01*
X12551015Y-20904674D02*
X12551015Y-20952293D01*
X12551015Y-20952293D02*
X12541491Y-20990389D01*
X12541491Y-20990389D02*
X12531967Y-21009436D01*
X12531967Y-21009436D02*
X12522444Y-21018960D01*
X12522444Y-21018960D02*
X12503396Y-21028484D01*
X12503396Y-21028484D02*
X12484348Y-21028484D01*
X12484348Y-21028484D02*
X12465301Y-21018960D01*
X12465301Y-21018960D02*
X12455777Y-21009436D01*
X12455777Y-21009436D02*
X12446253Y-20990389D01*
X12446253Y-20990389D02*
X12436729Y-20952293D01*
X12436729Y-20952293D02*
X12436729Y-20904674D01*
X12436729Y-20904674D02*
X12446253Y-20866579D01*
X12446253Y-20866579D02*
X12455777Y-20847531D01*
X12455777Y-20847531D02*
X12465301Y-20838008D01*
X12465301Y-20838008D02*
X12484348Y-20828484D01*
X12617682Y-20828484D02*
X12741491Y-20828484D01*
X12741491Y-20828484D02*
X12674825Y-20904674D01*
X12674825Y-20904674D02*
X12703396Y-20904674D01*
X12703396Y-20904674D02*
X12722444Y-20914198D01*
X12722444Y-20914198D02*
X12731967Y-20923722D01*
X12731967Y-20923722D02*
X12741491Y-20942770D01*
X12741491Y-20942770D02*
X12741491Y-20990389D01*
X12741491Y-20990389D02*
X12731967Y-21009436D01*
X12731967Y-21009436D02*
X12722444Y-21018960D01*
X12722444Y-21018960D02*
X12703396Y-21028484D01*
X12703396Y-21028484D02*
X12646253Y-21028484D01*
X12646253Y-21028484D02*
X12627206Y-21018960D01*
X12627206Y-21018960D02*
X12617682Y-21009436D01*
X12922444Y-20828484D02*
X12827206Y-20828484D01*
X12827206Y-20828484D02*
X12817682Y-20923722D01*
X12817682Y-20923722D02*
X12827206Y-20914198D01*
X12827206Y-20914198D02*
X12846253Y-20904674D01*
X12846253Y-20904674D02*
X12893872Y-20904674D01*
X12893872Y-20904674D02*
X12912920Y-20914198D01*
X12912920Y-20914198D02*
X12922444Y-20923722D01*
X12922444Y-20923722D02*
X12931967Y-20942770D01*
X12931967Y-20942770D02*
X12931967Y-20990389D01*
X12931967Y-20990389D02*
X12922444Y-21009436D01*
X12922444Y-21009436D02*
X12912920Y-21018960D01*
X12912920Y-21018960D02*
X12893872Y-21028484D01*
X12893872Y-21028484D02*
X12846253Y-21028484D01*
X12846253Y-21028484D02*
X12827206Y-21018960D01*
X12827206Y-21018960D02*
X12817682Y-21009436D01*
X13055777Y-20828484D02*
X13074825Y-20828484D01*
X13074825Y-20828484D02*
X13093872Y-20838008D01*
X13093872Y-20838008D02*
X13103396Y-20847531D01*
X13103396Y-20847531D02*
X13112920Y-20866579D01*
X13112920Y-20866579D02*
X13122444Y-20904674D01*
X13122444Y-20904674D02*
X13122444Y-20952293D01*
X13122444Y-20952293D02*
X13112920Y-20990389D01*
X13112920Y-20990389D02*
X13103396Y-21009436D01*
X13103396Y-21009436D02*
X13093872Y-21018960D01*
X13093872Y-21018960D02*
X13074825Y-21028484D01*
X13074825Y-21028484D02*
X13055777Y-21028484D01*
X13055777Y-21028484D02*
X13036729Y-21018960D01*
X13036729Y-21018960D02*
X13027206Y-21009436D01*
X13027206Y-21009436D02*
X13017682Y-20990389D01*
X13017682Y-20990389D02*
X13008158Y-20952293D01*
X13008158Y-20952293D02*
X13008158Y-20904674D01*
X13008158Y-20904674D02*
X13017682Y-20866579D01*
X13017682Y-20866579D02*
X13027206Y-20847531D01*
X13027206Y-20847531D02*
X13036729Y-20838008D01*
X13036729Y-20838008D02*
X13055777Y-20828484D01*
X13198634Y-20828484D02*
X13198634Y-20866579D01*
X13274825Y-20828484D02*
X13274825Y-20866579D01*
X13570063Y-21104674D02*
X13560539Y-21095150D01*
X13560539Y-21095150D02*
X13541491Y-21066579D01*
X13541491Y-21066579D02*
X13531968Y-21047531D01*
X13531968Y-21047531D02*
X13522444Y-21018960D01*
X13522444Y-21018960D02*
X13512920Y-20971341D01*
X13512920Y-20971341D02*
X13512920Y-20933246D01*
X13512920Y-20933246D02*
X13522444Y-20885627D01*
X13522444Y-20885627D02*
X13531968Y-20857055D01*
X13531968Y-20857055D02*
X13541491Y-20838008D01*
X13541491Y-20838008D02*
X13560539Y-20809436D01*
X13560539Y-20809436D02*
X13570063Y-20799912D01*
X13731968Y-20895150D02*
X13731968Y-21028484D01*
X13684348Y-20818960D02*
X13636729Y-20961817D01*
X13636729Y-20961817D02*
X13760539Y-20961817D01*
X13989110Y-21028484D02*
X13989110Y-20828484D01*
X14074825Y-21028484D02*
X14074825Y-20923722D01*
X14074825Y-20923722D02*
X14065301Y-20904674D01*
X14065301Y-20904674D02*
X14046253Y-20895150D01*
X14046253Y-20895150D02*
X14017682Y-20895150D01*
X14017682Y-20895150D02*
X13998634Y-20904674D01*
X13998634Y-20904674D02*
X13989110Y-20914198D01*
X14198634Y-21028484D02*
X14179587Y-21018960D01*
X14179587Y-21018960D02*
X14170063Y-21009436D01*
X14170063Y-21009436D02*
X14160539Y-20990389D01*
X14160539Y-20990389D02*
X14160539Y-20933246D01*
X14160539Y-20933246D02*
X14170063Y-20914198D01*
X14170063Y-20914198D02*
X14179587Y-20904674D01*
X14179587Y-20904674D02*
X14198634Y-20895150D01*
X14198634Y-20895150D02*
X14227206Y-20895150D01*
X14227206Y-20895150D02*
X14246253Y-20904674D01*
X14246253Y-20904674D02*
X14255777Y-20914198D01*
X14255777Y-20914198D02*
X14265301Y-20933246D01*
X14265301Y-20933246D02*
X14265301Y-20990389D01*
X14265301Y-20990389D02*
X14255777Y-21009436D01*
X14255777Y-21009436D02*
X14246253Y-21018960D01*
X14246253Y-21018960D02*
X14227206Y-21028484D01*
X14227206Y-21028484D02*
X14198634Y-21028484D01*
X14379587Y-21028484D02*
X14360539Y-21018960D01*
X14360539Y-21018960D02*
X14351015Y-20999912D01*
X14351015Y-20999912D02*
X14351015Y-20828484D01*
X14531968Y-21018960D02*
X14512920Y-21028484D01*
X14512920Y-21028484D02*
X14474825Y-21028484D01*
X14474825Y-21028484D02*
X14455777Y-21018960D01*
X14455777Y-21018960D02*
X14446253Y-20999912D01*
X14446253Y-20999912D02*
X14446253Y-20923722D01*
X14446253Y-20923722D02*
X14455777Y-20904674D01*
X14455777Y-20904674D02*
X14474825Y-20895150D01*
X14474825Y-20895150D02*
X14512920Y-20895150D01*
X14512920Y-20895150D02*
X14531968Y-20904674D01*
X14531968Y-20904674D02*
X14541491Y-20923722D01*
X14541491Y-20923722D02*
X14541491Y-20942770D01*
X14541491Y-20942770D02*
X14446253Y-20961817D01*
X14617682Y-21018960D02*
X14636730Y-21028484D01*
X14636730Y-21028484D02*
X14674825Y-21028484D01*
X14674825Y-21028484D02*
X14693872Y-21018960D01*
X14693872Y-21018960D02*
X14703396Y-20999912D01*
X14703396Y-20999912D02*
X14703396Y-20990389D01*
X14703396Y-20990389D02*
X14693872Y-20971341D01*
X14693872Y-20971341D02*
X14674825Y-20961817D01*
X14674825Y-20961817D02*
X14646253Y-20961817D01*
X14646253Y-20961817D02*
X14627206Y-20952293D01*
X14627206Y-20952293D02*
X14617682Y-20933246D01*
X14617682Y-20933246D02*
X14617682Y-20923722D01*
X14617682Y-20923722D02*
X14627206Y-20904674D01*
X14627206Y-20904674D02*
X14646253Y-20895150D01*
X14646253Y-20895150D02*
X14674825Y-20895150D01*
X14674825Y-20895150D02*
X14693872Y-20904674D01*
X14770063Y-21104674D02*
X14779587Y-21095150D01*
X14779587Y-21095150D02*
X14798634Y-21066579D01*
X14798634Y-21066579D02*
X14808158Y-21047531D01*
X14808158Y-21047531D02*
X14817682Y-21018960D01*
X14817682Y-21018960D02*
X14827206Y-20971341D01*
X14827206Y-20971341D02*
X14827206Y-20933246D01*
X14827206Y-20933246D02*
X14817682Y-20885627D01*
X14817682Y-20885627D02*
X14808158Y-20857055D01*
X14808158Y-20857055D02*
X14798634Y-20838008D01*
X14798634Y-20838008D02*
X14779587Y-20809436D01*
X14779587Y-20809436D02*
X14770063Y-20799912D01*
D10*
X9950000Y-21246000D02*
X9995000Y-21201000D01*
X9950000Y-21156000D01*
X9905000Y-21201000D01*
X9950000Y-21246000D01*
D11*
X10293872Y-21092484D02*
X10312920Y-21092484D01*
X10312920Y-21092484D02*
X10331967Y-21102008D01*
X10331967Y-21102008D02*
X10341491Y-21111531D01*
X10341491Y-21111531D02*
X10351015Y-21130579D01*
X10351015Y-21130579D02*
X10360539Y-21168674D01*
X10360539Y-21168674D02*
X10360539Y-21216293D01*
X10360539Y-21216293D02*
X10351015Y-21254389D01*
X10351015Y-21254389D02*
X10341491Y-21273436D01*
X10341491Y-21273436D02*
X10331967Y-21282960D01*
X10331967Y-21282960D02*
X10312920Y-21292484D01*
X10312920Y-21292484D02*
X10293872Y-21292484D01*
X10293872Y-21292484D02*
X10274824Y-21282960D01*
X10274824Y-21282960D02*
X10265301Y-21273436D01*
X10265301Y-21273436D02*
X10255777Y-21254389D01*
X10255777Y-21254389D02*
X10246253Y-21216293D01*
X10246253Y-21216293D02*
X10246253Y-21168674D01*
X10246253Y-21168674D02*
X10255777Y-21130579D01*
X10255777Y-21130579D02*
X10265301Y-21111531D01*
X10265301Y-21111531D02*
X10274824Y-21102008D01*
X10274824Y-21102008D02*
X10293872Y-21092484D01*
X10446253Y-21273436D02*
X10455777Y-21282960D01*
X10455777Y-21282960D02*
X10446253Y-21292484D01*
X10446253Y-21292484D02*
X10436729Y-21282960D01*
X10436729Y-21282960D02*
X10446253Y-21273436D01*
X10446253Y-21273436D02*
X10446253Y-21292484D01*
X10551015Y-21292484D02*
X10589110Y-21292484D01*
X10589110Y-21292484D02*
X10608158Y-21282960D01*
X10608158Y-21282960D02*
X10617682Y-21273436D01*
X10617682Y-21273436D02*
X10636729Y-21244865D01*
X10636729Y-21244865D02*
X10646253Y-21206770D01*
X10646253Y-21206770D02*
X10646253Y-21130579D01*
X10646253Y-21130579D02*
X10636729Y-21111531D01*
X10636729Y-21111531D02*
X10627205Y-21102008D01*
X10627205Y-21102008D02*
X10608158Y-21092484D01*
X10608158Y-21092484D02*
X10570063Y-21092484D01*
X10570063Y-21092484D02*
X10551015Y-21102008D01*
X10551015Y-21102008D02*
X10541491Y-21111531D01*
X10541491Y-21111531D02*
X10531967Y-21130579D01*
X10531967Y-21130579D02*
X10531967Y-21178198D01*
X10531967Y-21178198D02*
X10541491Y-21197246D01*
X10541491Y-21197246D02*
X10551015Y-21206770D01*
X10551015Y-21206770D02*
X10570063Y-21216293D01*
X10570063Y-21216293D02*
X10608158Y-21216293D01*
X10608158Y-21216293D02*
X10627205Y-21206770D01*
X10627205Y-21206770D02*
X10636729Y-21197246D01*
X10636729Y-21197246D02*
X10646253Y-21178198D01*
X10770063Y-21092484D02*
X10789110Y-21092484D01*
X10789110Y-21092484D02*
X10808158Y-21102008D01*
X10808158Y-21102008D02*
X10817682Y-21111531D01*
X10817682Y-21111531D02*
X10827205Y-21130579D01*
X10827205Y-21130579D02*
X10836729Y-21168674D01*
X10836729Y-21168674D02*
X10836729Y-21216293D01*
X10836729Y-21216293D02*
X10827205Y-21254389D01*
X10827205Y-21254389D02*
X10817682Y-21273436D01*
X10817682Y-21273436D02*
X10808158Y-21282960D01*
X10808158Y-21282960D02*
X10789110Y-21292484D01*
X10789110Y-21292484D02*
X10770063Y-21292484D01*
X10770063Y-21292484D02*
X10751015Y-21282960D01*
X10751015Y-21282960D02*
X10741491Y-21273436D01*
X10741491Y-21273436D02*
X10731967Y-21254389D01*
X10731967Y-21254389D02*
X10722444Y-21216293D01*
X10722444Y-21216293D02*
X10722444Y-21168674D01*
X10722444Y-21168674D02*
X10731967Y-21130579D01*
X10731967Y-21130579D02*
X10741491Y-21111531D01*
X10741491Y-21111531D02*
X10751015Y-21102008D01*
X10751015Y-21102008D02*
X10770063Y-21092484D01*
X10960539Y-21092484D02*
X10979586Y-21092484D01*
X10979586Y-21092484D02*
X10998634Y-21102008D01*
X10998634Y-21102008D02*
X11008158Y-21111531D01*
X11008158Y-21111531D02*
X11017682Y-21130579D01*
X11017682Y-21130579D02*
X11027205Y-21168674D01*
X11027205Y-21168674D02*
X11027205Y-21216293D01*
X11027205Y-21216293D02*
X11017682Y-21254389D01*
X11017682Y-21254389D02*
X11008158Y-21273436D01*
X11008158Y-21273436D02*
X10998634Y-21282960D01*
X10998634Y-21282960D02*
X10979586Y-21292484D01*
X10979586Y-21292484D02*
X10960539Y-21292484D01*
X10960539Y-21292484D02*
X10941491Y-21282960D01*
X10941491Y-21282960D02*
X10931967Y-21273436D01*
X10931967Y-21273436D02*
X10922444Y-21254389D01*
X10922444Y-21254389D02*
X10912920Y-21216293D01*
X10912920Y-21216293D02*
X10912920Y-21168674D01*
X10912920Y-21168674D02*
X10922444Y-21130579D01*
X10922444Y-21130579D02*
X10931967Y-21111531D01*
X10931967Y-21111531D02*
X10941491Y-21102008D01*
X10941491Y-21102008D02*
X10960539Y-21092484D01*
X11112920Y-21292484D02*
X11112920Y-21159150D01*
X11112920Y-21178198D02*
X11122444Y-21168674D01*
X11122444Y-21168674D02*
X11141491Y-21159150D01*
X11141491Y-21159150D02*
X11170063Y-21159150D01*
X11170063Y-21159150D02*
X11189110Y-21168674D01*
X11189110Y-21168674D02*
X11198634Y-21187722D01*
X11198634Y-21187722D02*
X11198634Y-21292484D01*
X11198634Y-21187722D02*
X11208158Y-21168674D01*
X11208158Y-21168674D02*
X11227205Y-21159150D01*
X11227205Y-21159150D02*
X11255777Y-21159150D01*
X11255777Y-21159150D02*
X11274824Y-21168674D01*
X11274824Y-21168674D02*
X11284348Y-21187722D01*
X11284348Y-21187722D02*
X11284348Y-21292484D01*
X11379586Y-21292484D02*
X11379586Y-21159150D01*
X11379586Y-21178198D02*
X11389110Y-21168674D01*
X11389110Y-21168674D02*
X11408158Y-21159150D01*
X11408158Y-21159150D02*
X11436729Y-21159150D01*
X11436729Y-21159150D02*
X11455777Y-21168674D01*
X11455777Y-21168674D02*
X11465301Y-21187722D01*
X11465301Y-21187722D02*
X11465301Y-21292484D01*
X11465301Y-21187722D02*
X11474824Y-21168674D01*
X11474824Y-21168674D02*
X11493872Y-21159150D01*
X11493872Y-21159150D02*
X11522443Y-21159150D01*
X11522443Y-21159150D02*
X11541491Y-21168674D01*
X11541491Y-21168674D02*
X11551015Y-21187722D01*
X11551015Y-21187722D02*
X11551015Y-21292484D01*
X11941491Y-21082960D02*
X11770063Y-21340103D01*
X12198634Y-21092484D02*
X12217682Y-21092484D01*
X12217682Y-21092484D02*
X12236729Y-21102008D01*
X12236729Y-21102008D02*
X12246253Y-21111531D01*
X12246253Y-21111531D02*
X12255777Y-21130579D01*
X12255777Y-21130579D02*
X12265301Y-21168674D01*
X12265301Y-21168674D02*
X12265301Y-21216293D01*
X12265301Y-21216293D02*
X12255777Y-21254389D01*
X12255777Y-21254389D02*
X12246253Y-21273436D01*
X12246253Y-21273436D02*
X12236729Y-21282960D01*
X12236729Y-21282960D02*
X12217682Y-21292484D01*
X12217682Y-21292484D02*
X12198634Y-21292484D01*
X12198634Y-21292484D02*
X12179586Y-21282960D01*
X12179586Y-21282960D02*
X12170063Y-21273436D01*
X12170063Y-21273436D02*
X12160539Y-21254389D01*
X12160539Y-21254389D02*
X12151015Y-21216293D01*
X12151015Y-21216293D02*
X12151015Y-21168674D01*
X12151015Y-21168674D02*
X12160539Y-21130579D01*
X12160539Y-21130579D02*
X12170063Y-21111531D01*
X12170063Y-21111531D02*
X12179586Y-21102008D01*
X12179586Y-21102008D02*
X12198634Y-21092484D01*
X12351015Y-21273436D02*
X12360539Y-21282960D01*
X12360539Y-21282960D02*
X12351015Y-21292484D01*
X12351015Y-21292484D02*
X12341491Y-21282960D01*
X12341491Y-21282960D02*
X12351015Y-21273436D01*
X12351015Y-21273436D02*
X12351015Y-21292484D01*
X12484348Y-21092484D02*
X12503396Y-21092484D01*
X12503396Y-21092484D02*
X12522444Y-21102008D01*
X12522444Y-21102008D02*
X12531967Y-21111531D01*
X12531967Y-21111531D02*
X12541491Y-21130579D01*
X12541491Y-21130579D02*
X12551015Y-21168674D01*
X12551015Y-21168674D02*
X12551015Y-21216293D01*
X12551015Y-21216293D02*
X12541491Y-21254389D01*
X12541491Y-21254389D02*
X12531967Y-21273436D01*
X12531967Y-21273436D02*
X12522444Y-21282960D01*
X12522444Y-21282960D02*
X12503396Y-21292484D01*
X12503396Y-21292484D02*
X12484348Y-21292484D01*
X12484348Y-21292484D02*
X12465301Y-21282960D01*
X12465301Y-21282960D02*
X12455777Y-21273436D01*
X12455777Y-21273436D02*
X12446253Y-21254389D01*
X12446253Y-21254389D02*
X12436729Y-21216293D01*
X12436729Y-21216293D02*
X12436729Y-21168674D01*
X12436729Y-21168674D02*
X12446253Y-21130579D01*
X12446253Y-21130579D02*
X12455777Y-21111531D01*
X12455777Y-21111531D02*
X12465301Y-21102008D01*
X12465301Y-21102008D02*
X12484348Y-21092484D01*
X12617682Y-21092484D02*
X12741491Y-21092484D01*
X12741491Y-21092484D02*
X12674825Y-21168674D01*
X12674825Y-21168674D02*
X12703396Y-21168674D01*
X12703396Y-21168674D02*
X12722444Y-21178198D01*
X12722444Y-21178198D02*
X12731967Y-21187722D01*
X12731967Y-21187722D02*
X12741491Y-21206770D01*
X12741491Y-21206770D02*
X12741491Y-21254389D01*
X12741491Y-21254389D02*
X12731967Y-21273436D01*
X12731967Y-21273436D02*
X12722444Y-21282960D01*
X12722444Y-21282960D02*
X12703396Y-21292484D01*
X12703396Y-21292484D02*
X12646253Y-21292484D01*
X12646253Y-21292484D02*
X12627206Y-21282960D01*
X12627206Y-21282960D02*
X12617682Y-21273436D01*
X12922444Y-21092484D02*
X12827206Y-21092484D01*
X12827206Y-21092484D02*
X12817682Y-21187722D01*
X12817682Y-21187722D02*
X12827206Y-21178198D01*
X12827206Y-21178198D02*
X12846253Y-21168674D01*
X12846253Y-21168674D02*
X12893872Y-21168674D01*
X12893872Y-21168674D02*
X12912920Y-21178198D01*
X12912920Y-21178198D02*
X12922444Y-21187722D01*
X12922444Y-21187722D02*
X12931967Y-21206770D01*
X12931967Y-21206770D02*
X12931967Y-21254389D01*
X12931967Y-21254389D02*
X12922444Y-21273436D01*
X12922444Y-21273436D02*
X12912920Y-21282960D01*
X12912920Y-21282960D02*
X12893872Y-21292484D01*
X12893872Y-21292484D02*
X12846253Y-21292484D01*
X12846253Y-21292484D02*
X12827206Y-21282960D01*
X12827206Y-21282960D02*
X12817682Y-21273436D01*
X13103396Y-21159150D02*
X13103396Y-21292484D01*
X13055777Y-21082960D02*
X13008158Y-21225817D01*
X13008158Y-21225817D02*
X13131967Y-21225817D01*
X13198634Y-21092484D02*
X13198634Y-21130579D01*
X13274825Y-21092484D02*
X13274825Y-21130579D01*
X13570063Y-21368674D02*
X13560539Y-21359150D01*
X13560539Y-21359150D02*
X13541491Y-21330579D01*
X13541491Y-21330579D02*
X13531968Y-21311531D01*
X13531968Y-21311531D02*
X13522444Y-21282960D01*
X13522444Y-21282960D02*
X13512920Y-21235341D01*
X13512920Y-21235341D02*
X13512920Y-21197246D01*
X13512920Y-21197246D02*
X13522444Y-21149627D01*
X13522444Y-21149627D02*
X13531968Y-21121055D01*
X13531968Y-21121055D02*
X13541491Y-21102008D01*
X13541491Y-21102008D02*
X13560539Y-21073436D01*
X13560539Y-21073436D02*
X13570063Y-21063912D01*
X13674825Y-21178198D02*
X13655777Y-21168674D01*
X13655777Y-21168674D02*
X13646253Y-21159150D01*
X13646253Y-21159150D02*
X13636729Y-21140103D01*
X13636729Y-21140103D02*
X13636729Y-21130579D01*
X13636729Y-21130579D02*
X13646253Y-21111531D01*
X13646253Y-21111531D02*
X13655777Y-21102008D01*
X13655777Y-21102008D02*
X13674825Y-21092484D01*
X13674825Y-21092484D02*
X13712920Y-21092484D01*
X13712920Y-21092484D02*
X13731968Y-21102008D01*
X13731968Y-21102008D02*
X13741491Y-21111531D01*
X13741491Y-21111531D02*
X13751015Y-21130579D01*
X13751015Y-21130579D02*
X13751015Y-21140103D01*
X13751015Y-21140103D02*
X13741491Y-21159150D01*
X13741491Y-21159150D02*
X13731968Y-21168674D01*
X13731968Y-21168674D02*
X13712920Y-21178198D01*
X13712920Y-21178198D02*
X13674825Y-21178198D01*
X13674825Y-21178198D02*
X13655777Y-21187722D01*
X13655777Y-21187722D02*
X13646253Y-21197246D01*
X13646253Y-21197246D02*
X13636729Y-21216293D01*
X13636729Y-21216293D02*
X13636729Y-21254389D01*
X13636729Y-21254389D02*
X13646253Y-21273436D01*
X13646253Y-21273436D02*
X13655777Y-21282960D01*
X13655777Y-21282960D02*
X13674825Y-21292484D01*
X13674825Y-21292484D02*
X13712920Y-21292484D01*
X13712920Y-21292484D02*
X13731968Y-21282960D01*
X13731968Y-21282960D02*
X13741491Y-21273436D01*
X13741491Y-21273436D02*
X13751015Y-21254389D01*
X13751015Y-21254389D02*
X13751015Y-21216293D01*
X13751015Y-21216293D02*
X13741491Y-21197246D01*
X13741491Y-21197246D02*
X13731968Y-21187722D01*
X13731968Y-21187722D02*
X13712920Y-21178198D01*
X13989110Y-21292484D02*
X13989110Y-21092484D01*
X14074825Y-21292484D02*
X14074825Y-21187722D01*
X14074825Y-21187722D02*
X14065301Y-21168674D01*
X14065301Y-21168674D02*
X14046253Y-21159150D01*
X14046253Y-21159150D02*
X14017682Y-21159150D01*
X14017682Y-21159150D02*
X13998634Y-21168674D01*
X13998634Y-21168674D02*
X13989110Y-21178198D01*
X14198634Y-21292484D02*
X14179587Y-21282960D01*
X14179587Y-21282960D02*
X14170063Y-21273436D01*
X14170063Y-21273436D02*
X14160539Y-21254389D01*
X14160539Y-21254389D02*
X14160539Y-21197246D01*
X14160539Y-21197246D02*
X14170063Y-21178198D01*
X14170063Y-21178198D02*
X14179587Y-21168674D01*
X14179587Y-21168674D02*
X14198634Y-21159150D01*
X14198634Y-21159150D02*
X14227206Y-21159150D01*
X14227206Y-21159150D02*
X14246253Y-21168674D01*
X14246253Y-21168674D02*
X14255777Y-21178198D01*
X14255777Y-21178198D02*
X14265301Y-21197246D01*
X14265301Y-21197246D02*
X14265301Y-21254389D01*
X14265301Y-21254389D02*
X14255777Y-21273436D01*
X14255777Y-21273436D02*
X14246253Y-21282960D01*
X14246253Y-21282960D02*
X14227206Y-21292484D01*
X14227206Y-21292484D02*
X14198634Y-21292484D01*
X14379587Y-21292484D02*
X14360539Y-21282960D01*
X14360539Y-21282960D02*
X14351015Y-21263912D01*
X14351015Y-21263912D02*
X14351015Y-21092484D01*
X14531968Y-21282960D02*
X14512920Y-21292484D01*
X14512920Y-21292484D02*
X14474825Y-21292484D01*
X14474825Y-21292484D02*
X14455777Y-21282960D01*
X14455777Y-21282960D02*
X14446253Y-21263912D01*
X14446253Y-21263912D02*
X14446253Y-21187722D01*
X14446253Y-21187722D02*
X14455777Y-21168674D01*
X14455777Y-21168674D02*
X14474825Y-21159150D01*
X14474825Y-21159150D02*
X14512920Y-21159150D01*
X14512920Y-21159150D02*
X14531968Y-21168674D01*
X14531968Y-21168674D02*
X14541491Y-21187722D01*
X14541491Y-21187722D02*
X14541491Y-21206770D01*
X14541491Y-21206770D02*
X14446253Y-21225817D01*
X14617682Y-21282960D02*
X14636730Y-21292484D01*
X14636730Y-21292484D02*
X14674825Y-21292484D01*
X14674825Y-21292484D02*
X14693872Y-21282960D01*
X14693872Y-21282960D02*
X14703396Y-21263912D01*
X14703396Y-21263912D02*
X14703396Y-21254389D01*
X14703396Y-21254389D02*
X14693872Y-21235341D01*
X14693872Y-21235341D02*
X14674825Y-21225817D01*
X14674825Y-21225817D02*
X14646253Y-21225817D01*
X14646253Y-21225817D02*
X14627206Y-21216293D01*
X14627206Y-21216293D02*
X14617682Y-21197246D01*
X14617682Y-21197246D02*
X14617682Y-21187722D01*
X14617682Y-21187722D02*
X14627206Y-21168674D01*
X14627206Y-21168674D02*
X14646253Y-21159150D01*
X14646253Y-21159150D02*
X14674825Y-21159150D01*
X14674825Y-21159150D02*
X14693872Y-21168674D01*
X14770063Y-21368674D02*
X14779587Y-21359150D01*
X14779587Y-21359150D02*
X14798634Y-21330579D01*
X14798634Y-21330579D02*
X14808158Y-21311531D01*
X14808158Y-21311531D02*
X14817682Y-21282960D01*
X14817682Y-21282960D02*
X14827206Y-21235341D01*
X14827206Y-21235341D02*
X14827206Y-21197246D01*
X14827206Y-21197246D02*
X14817682Y-21149627D01*
X14817682Y-21149627D02*
X14808158Y-21121055D01*
X14808158Y-21121055D02*
X14798634Y-21102008D01*
X14798634Y-21102008D02*
X14779587Y-21073436D01*
X14779587Y-21073436D02*
X14770063Y-21063912D01*
D10*
X9895000Y-21415000D02*
X9995000Y-21515000D01*
X9995000Y-21415000D02*
X9895000Y-21515000D01*
X9995000Y-21465000D02*
G75*
G02*
X9895000Y-21465000I-50000J0D01*
G01*
X9895000Y-21465000D02*
G75*
G02*
X9995000Y-21465000I50000J0D01*
G01*
D11*
X10360539Y-21556484D02*
X10246253Y-21556484D01*
X10303396Y-21556484D02*
X10303396Y-21356484D01*
X10303396Y-21356484D02*
X10284348Y-21385055D01*
X10284348Y-21385055D02*
X10265301Y-21404103D01*
X10265301Y-21404103D02*
X10246253Y-21413627D01*
X10446253Y-21537436D02*
X10455777Y-21546960D01*
X10455777Y-21546960D02*
X10446253Y-21556484D01*
X10446253Y-21556484D02*
X10436729Y-21546960D01*
X10436729Y-21546960D02*
X10446253Y-21537436D01*
X10446253Y-21537436D02*
X10446253Y-21556484D01*
X10579586Y-21356484D02*
X10598634Y-21356484D01*
X10598634Y-21356484D02*
X10617682Y-21366008D01*
X10617682Y-21366008D02*
X10627205Y-21375531D01*
X10627205Y-21375531D02*
X10636729Y-21394579D01*
X10636729Y-21394579D02*
X10646253Y-21432674D01*
X10646253Y-21432674D02*
X10646253Y-21480293D01*
X10646253Y-21480293D02*
X10636729Y-21518389D01*
X10636729Y-21518389D02*
X10627205Y-21537436D01*
X10627205Y-21537436D02*
X10617682Y-21546960D01*
X10617682Y-21546960D02*
X10598634Y-21556484D01*
X10598634Y-21556484D02*
X10579586Y-21556484D01*
X10579586Y-21556484D02*
X10560539Y-21546960D01*
X10560539Y-21546960D02*
X10551015Y-21537436D01*
X10551015Y-21537436D02*
X10541491Y-21518389D01*
X10541491Y-21518389D02*
X10531967Y-21480293D01*
X10531967Y-21480293D02*
X10531967Y-21432674D01*
X10531967Y-21432674D02*
X10541491Y-21394579D01*
X10541491Y-21394579D02*
X10551015Y-21375531D01*
X10551015Y-21375531D02*
X10560539Y-21366008D01*
X10560539Y-21366008D02*
X10579586Y-21356484D01*
X10770063Y-21356484D02*
X10789110Y-21356484D01*
X10789110Y-21356484D02*
X10808158Y-21366008D01*
X10808158Y-21366008D02*
X10817682Y-21375531D01*
X10817682Y-21375531D02*
X10827205Y-21394579D01*
X10827205Y-21394579D02*
X10836729Y-21432674D01*
X10836729Y-21432674D02*
X10836729Y-21480293D01*
X10836729Y-21480293D02*
X10827205Y-21518389D01*
X10827205Y-21518389D02*
X10817682Y-21537436D01*
X10817682Y-21537436D02*
X10808158Y-21546960D01*
X10808158Y-21546960D02*
X10789110Y-21556484D01*
X10789110Y-21556484D02*
X10770063Y-21556484D01*
X10770063Y-21556484D02*
X10751015Y-21546960D01*
X10751015Y-21546960D02*
X10741491Y-21537436D01*
X10741491Y-21537436D02*
X10731967Y-21518389D01*
X10731967Y-21518389D02*
X10722444Y-21480293D01*
X10722444Y-21480293D02*
X10722444Y-21432674D01*
X10722444Y-21432674D02*
X10731967Y-21394579D01*
X10731967Y-21394579D02*
X10741491Y-21375531D01*
X10741491Y-21375531D02*
X10751015Y-21366008D01*
X10751015Y-21366008D02*
X10770063Y-21356484D01*
X10960539Y-21356484D02*
X10979586Y-21356484D01*
X10979586Y-21356484D02*
X10998634Y-21366008D01*
X10998634Y-21366008D02*
X11008158Y-21375531D01*
X11008158Y-21375531D02*
X11017682Y-21394579D01*
X11017682Y-21394579D02*
X11027205Y-21432674D01*
X11027205Y-21432674D02*
X11027205Y-21480293D01*
X11027205Y-21480293D02*
X11017682Y-21518389D01*
X11017682Y-21518389D02*
X11008158Y-21537436D01*
X11008158Y-21537436D02*
X10998634Y-21546960D01*
X10998634Y-21546960D02*
X10979586Y-21556484D01*
X10979586Y-21556484D02*
X10960539Y-21556484D01*
X10960539Y-21556484D02*
X10941491Y-21546960D01*
X10941491Y-21546960D02*
X10931967Y-21537436D01*
X10931967Y-21537436D02*
X10922444Y-21518389D01*
X10922444Y-21518389D02*
X10912920Y-21480293D01*
X10912920Y-21480293D02*
X10912920Y-21432674D01*
X10912920Y-21432674D02*
X10922444Y-21394579D01*
X10922444Y-21394579D02*
X10931967Y-21375531D01*
X10931967Y-21375531D02*
X10941491Y-21366008D01*
X10941491Y-21366008D02*
X10960539Y-21356484D01*
X11112920Y-21556484D02*
X11112920Y-21423150D01*
X11112920Y-21442198D02*
X11122444Y-21432674D01*
X11122444Y-21432674D02*
X11141491Y-21423150D01*
X11141491Y-21423150D02*
X11170063Y-21423150D01*
X11170063Y-21423150D02*
X11189110Y-21432674D01*
X11189110Y-21432674D02*
X11198634Y-21451722D01*
X11198634Y-21451722D02*
X11198634Y-21556484D01*
X11198634Y-21451722D02*
X11208158Y-21432674D01*
X11208158Y-21432674D02*
X11227205Y-21423150D01*
X11227205Y-21423150D02*
X11255777Y-21423150D01*
X11255777Y-21423150D02*
X11274824Y-21432674D01*
X11274824Y-21432674D02*
X11284348Y-21451722D01*
X11284348Y-21451722D02*
X11284348Y-21556484D01*
X11379586Y-21556484D02*
X11379586Y-21423150D01*
X11379586Y-21442198D02*
X11389110Y-21432674D01*
X11389110Y-21432674D02*
X11408158Y-21423150D01*
X11408158Y-21423150D02*
X11436729Y-21423150D01*
X11436729Y-21423150D02*
X11455777Y-21432674D01*
X11455777Y-21432674D02*
X11465301Y-21451722D01*
X11465301Y-21451722D02*
X11465301Y-21556484D01*
X11465301Y-21451722D02*
X11474824Y-21432674D01*
X11474824Y-21432674D02*
X11493872Y-21423150D01*
X11493872Y-21423150D02*
X11522443Y-21423150D01*
X11522443Y-21423150D02*
X11541491Y-21432674D01*
X11541491Y-21432674D02*
X11551015Y-21451722D01*
X11551015Y-21451722D02*
X11551015Y-21556484D01*
X11941491Y-21346960D02*
X11770063Y-21604103D01*
X12198634Y-21356484D02*
X12217682Y-21356484D01*
X12217682Y-21356484D02*
X12236729Y-21366008D01*
X12236729Y-21366008D02*
X12246253Y-21375531D01*
X12246253Y-21375531D02*
X12255777Y-21394579D01*
X12255777Y-21394579D02*
X12265301Y-21432674D01*
X12265301Y-21432674D02*
X12265301Y-21480293D01*
X12265301Y-21480293D02*
X12255777Y-21518389D01*
X12255777Y-21518389D02*
X12246253Y-21537436D01*
X12246253Y-21537436D02*
X12236729Y-21546960D01*
X12236729Y-21546960D02*
X12217682Y-21556484D01*
X12217682Y-21556484D02*
X12198634Y-21556484D01*
X12198634Y-21556484D02*
X12179586Y-21546960D01*
X12179586Y-21546960D02*
X12170063Y-21537436D01*
X12170063Y-21537436D02*
X12160539Y-21518389D01*
X12160539Y-21518389D02*
X12151015Y-21480293D01*
X12151015Y-21480293D02*
X12151015Y-21432674D01*
X12151015Y-21432674D02*
X12160539Y-21394579D01*
X12160539Y-21394579D02*
X12170063Y-21375531D01*
X12170063Y-21375531D02*
X12179586Y-21366008D01*
X12179586Y-21366008D02*
X12198634Y-21356484D01*
X12351015Y-21537436D02*
X12360539Y-21546960D01*
X12360539Y-21546960D02*
X12351015Y-21556484D01*
X12351015Y-21556484D02*
X12341491Y-21546960D01*
X12341491Y-21546960D02*
X12351015Y-21537436D01*
X12351015Y-21537436D02*
X12351015Y-21556484D01*
X12484348Y-21356484D02*
X12503396Y-21356484D01*
X12503396Y-21356484D02*
X12522444Y-21366008D01*
X12522444Y-21366008D02*
X12531967Y-21375531D01*
X12531967Y-21375531D02*
X12541491Y-21394579D01*
X12541491Y-21394579D02*
X12551015Y-21432674D01*
X12551015Y-21432674D02*
X12551015Y-21480293D01*
X12551015Y-21480293D02*
X12541491Y-21518389D01*
X12541491Y-21518389D02*
X12531967Y-21537436D01*
X12531967Y-21537436D02*
X12522444Y-21546960D01*
X12522444Y-21546960D02*
X12503396Y-21556484D01*
X12503396Y-21556484D02*
X12484348Y-21556484D01*
X12484348Y-21556484D02*
X12465301Y-21546960D01*
X12465301Y-21546960D02*
X12455777Y-21537436D01*
X12455777Y-21537436D02*
X12446253Y-21518389D01*
X12446253Y-21518389D02*
X12436729Y-21480293D01*
X12436729Y-21480293D02*
X12436729Y-21432674D01*
X12436729Y-21432674D02*
X12446253Y-21394579D01*
X12446253Y-21394579D02*
X12455777Y-21375531D01*
X12455777Y-21375531D02*
X12465301Y-21366008D01*
X12465301Y-21366008D02*
X12484348Y-21356484D01*
X12617682Y-21356484D02*
X12741491Y-21356484D01*
X12741491Y-21356484D02*
X12674825Y-21432674D01*
X12674825Y-21432674D02*
X12703396Y-21432674D01*
X12703396Y-21432674D02*
X12722444Y-21442198D01*
X12722444Y-21442198D02*
X12731967Y-21451722D01*
X12731967Y-21451722D02*
X12741491Y-21470770D01*
X12741491Y-21470770D02*
X12741491Y-21518389D01*
X12741491Y-21518389D02*
X12731967Y-21537436D01*
X12731967Y-21537436D02*
X12722444Y-21546960D01*
X12722444Y-21546960D02*
X12703396Y-21556484D01*
X12703396Y-21556484D02*
X12646253Y-21556484D01*
X12646253Y-21556484D02*
X12627206Y-21546960D01*
X12627206Y-21546960D02*
X12617682Y-21537436D01*
X12836729Y-21556484D02*
X12874825Y-21556484D01*
X12874825Y-21556484D02*
X12893872Y-21546960D01*
X12893872Y-21546960D02*
X12903396Y-21537436D01*
X12903396Y-21537436D02*
X12922444Y-21508865D01*
X12922444Y-21508865D02*
X12931967Y-21470770D01*
X12931967Y-21470770D02*
X12931967Y-21394579D01*
X12931967Y-21394579D02*
X12922444Y-21375531D01*
X12922444Y-21375531D02*
X12912920Y-21366008D01*
X12912920Y-21366008D02*
X12893872Y-21356484D01*
X12893872Y-21356484D02*
X12855777Y-21356484D01*
X12855777Y-21356484D02*
X12836729Y-21366008D01*
X12836729Y-21366008D02*
X12827206Y-21375531D01*
X12827206Y-21375531D02*
X12817682Y-21394579D01*
X12817682Y-21394579D02*
X12817682Y-21442198D01*
X12817682Y-21442198D02*
X12827206Y-21461246D01*
X12827206Y-21461246D02*
X12836729Y-21470770D01*
X12836729Y-21470770D02*
X12855777Y-21480293D01*
X12855777Y-21480293D02*
X12893872Y-21480293D01*
X12893872Y-21480293D02*
X12912920Y-21470770D01*
X12912920Y-21470770D02*
X12922444Y-21461246D01*
X12922444Y-21461246D02*
X12931967Y-21442198D01*
X13103396Y-21423150D02*
X13103396Y-21556484D01*
X13055777Y-21346960D02*
X13008158Y-21489817D01*
X13008158Y-21489817D02*
X13131967Y-21489817D01*
X13198634Y-21356484D02*
X13198634Y-21394579D01*
X13274825Y-21356484D02*
X13274825Y-21394579D01*
X13570063Y-21632674D02*
X13560539Y-21623150D01*
X13560539Y-21623150D02*
X13541491Y-21594579D01*
X13541491Y-21594579D02*
X13531968Y-21575531D01*
X13531968Y-21575531D02*
X13522444Y-21546960D01*
X13522444Y-21546960D02*
X13512920Y-21499341D01*
X13512920Y-21499341D02*
X13512920Y-21461246D01*
X13512920Y-21461246D02*
X13522444Y-21413627D01*
X13522444Y-21413627D02*
X13531968Y-21385055D01*
X13531968Y-21385055D02*
X13541491Y-21366008D01*
X13541491Y-21366008D02*
X13560539Y-21337436D01*
X13560539Y-21337436D02*
X13570063Y-21327912D01*
X13627206Y-21356484D02*
X13751015Y-21356484D01*
X13751015Y-21356484D02*
X13684348Y-21432674D01*
X13684348Y-21432674D02*
X13712920Y-21432674D01*
X13712920Y-21432674D02*
X13731968Y-21442198D01*
X13731968Y-21442198D02*
X13741491Y-21451722D01*
X13741491Y-21451722D02*
X13751015Y-21470770D01*
X13751015Y-21470770D02*
X13751015Y-21518389D01*
X13751015Y-21518389D02*
X13741491Y-21537436D01*
X13741491Y-21537436D02*
X13731968Y-21546960D01*
X13731968Y-21546960D02*
X13712920Y-21556484D01*
X13712920Y-21556484D02*
X13655777Y-21556484D01*
X13655777Y-21556484D02*
X13636729Y-21546960D01*
X13636729Y-21546960D02*
X13627206Y-21537436D01*
X13922444Y-21423150D02*
X13922444Y-21556484D01*
X13874825Y-21346960D02*
X13827206Y-21489817D01*
X13827206Y-21489817D02*
X13951015Y-21489817D01*
X14179587Y-21556484D02*
X14179587Y-21356484D01*
X14265301Y-21556484D02*
X14265301Y-21451722D01*
X14265301Y-21451722D02*
X14255777Y-21432674D01*
X14255777Y-21432674D02*
X14236730Y-21423150D01*
X14236730Y-21423150D02*
X14208158Y-21423150D01*
X14208158Y-21423150D02*
X14189110Y-21432674D01*
X14189110Y-21432674D02*
X14179587Y-21442198D01*
X14389110Y-21556484D02*
X14370063Y-21546960D01*
X14370063Y-21546960D02*
X14360539Y-21537436D01*
X14360539Y-21537436D02*
X14351015Y-21518389D01*
X14351015Y-21518389D02*
X14351015Y-21461246D01*
X14351015Y-21461246D02*
X14360539Y-21442198D01*
X14360539Y-21442198D02*
X14370063Y-21432674D01*
X14370063Y-21432674D02*
X14389110Y-21423150D01*
X14389110Y-21423150D02*
X14417682Y-21423150D01*
X14417682Y-21423150D02*
X14436730Y-21432674D01*
X14436730Y-21432674D02*
X14446253Y-21442198D01*
X14446253Y-21442198D02*
X14455777Y-21461246D01*
X14455777Y-21461246D02*
X14455777Y-21518389D01*
X14455777Y-21518389D02*
X14446253Y-21537436D01*
X14446253Y-21537436D02*
X14436730Y-21546960D01*
X14436730Y-21546960D02*
X14417682Y-21556484D01*
X14417682Y-21556484D02*
X14389110Y-21556484D01*
X14570063Y-21556484D02*
X14551015Y-21546960D01*
X14551015Y-21546960D02*
X14541491Y-21527912D01*
X14541491Y-21527912D02*
X14541491Y-21356484D01*
X14722444Y-21546960D02*
X14703396Y-21556484D01*
X14703396Y-21556484D02*
X14665301Y-21556484D01*
X14665301Y-21556484D02*
X14646253Y-21546960D01*
X14646253Y-21546960D02*
X14636730Y-21527912D01*
X14636730Y-21527912D02*
X14636730Y-21451722D01*
X14636730Y-21451722D02*
X14646253Y-21432674D01*
X14646253Y-21432674D02*
X14665301Y-21423150D01*
X14665301Y-21423150D02*
X14703396Y-21423150D01*
X14703396Y-21423150D02*
X14722444Y-21432674D01*
X14722444Y-21432674D02*
X14731968Y-21451722D01*
X14731968Y-21451722D02*
X14731968Y-21470770D01*
X14731968Y-21470770D02*
X14636730Y-21489817D01*
X14808158Y-21546960D02*
X14827206Y-21556484D01*
X14827206Y-21556484D02*
X14865301Y-21556484D01*
X14865301Y-21556484D02*
X14884349Y-21546960D01*
X14884349Y-21546960D02*
X14893872Y-21527912D01*
X14893872Y-21527912D02*
X14893872Y-21518389D01*
X14893872Y-21518389D02*
X14884349Y-21499341D01*
X14884349Y-21499341D02*
X14865301Y-21489817D01*
X14865301Y-21489817D02*
X14836730Y-21489817D01*
X14836730Y-21489817D02*
X14817682Y-21480293D01*
X14817682Y-21480293D02*
X14808158Y-21461246D01*
X14808158Y-21461246D02*
X14808158Y-21451722D01*
X14808158Y-21451722D02*
X14817682Y-21432674D01*
X14817682Y-21432674D02*
X14836730Y-21423150D01*
X14836730Y-21423150D02*
X14865301Y-21423150D01*
X14865301Y-21423150D02*
X14884349Y-21432674D01*
X14960539Y-21632674D02*
X14970063Y-21623150D01*
X14970063Y-21623150D02*
X14989111Y-21594579D01*
X14989111Y-21594579D02*
X14998634Y-21575531D01*
X14998634Y-21575531D02*
X15008158Y-21546960D01*
X15008158Y-21546960D02*
X15017682Y-21499341D01*
X15017682Y-21499341D02*
X15017682Y-21461246D01*
X15017682Y-21461246D02*
X15008158Y-21413627D01*
X15008158Y-21413627D02*
X14998634Y-21385055D01*
X14998634Y-21385055D02*
X14989111Y-21366008D01*
X14989111Y-21366008D02*
X14970063Y-21337436D01*
X14970063Y-21337436D02*
X14960539Y-21327912D01*
D12*
X9865000Y-21664000D02*
X9995000Y-21794000D01*
X9995000Y-21664000D02*
X9865000Y-21794000D01*
X9930000Y-21664000D02*
X9930000Y-21794000D01*
X9865000Y-21729000D02*
X9995000Y-21729000D01*
D11*
X10360539Y-21820484D02*
X10246253Y-21820484D01*
X10303396Y-21820484D02*
X10303396Y-21620484D01*
X10303396Y-21620484D02*
X10284348Y-21649055D01*
X10284348Y-21649055D02*
X10265301Y-21668103D01*
X10265301Y-21668103D02*
X10246253Y-21677627D01*
X10446253Y-21801436D02*
X10455777Y-21810960D01*
X10455777Y-21810960D02*
X10446253Y-21820484D01*
X10446253Y-21820484D02*
X10436729Y-21810960D01*
X10436729Y-21810960D02*
X10446253Y-21801436D01*
X10446253Y-21801436D02*
X10446253Y-21820484D01*
X10522444Y-21620484D02*
X10646253Y-21620484D01*
X10646253Y-21620484D02*
X10579586Y-21696674D01*
X10579586Y-21696674D02*
X10608158Y-21696674D01*
X10608158Y-21696674D02*
X10627205Y-21706198D01*
X10627205Y-21706198D02*
X10636729Y-21715722D01*
X10636729Y-21715722D02*
X10646253Y-21734770D01*
X10646253Y-21734770D02*
X10646253Y-21782389D01*
X10646253Y-21782389D02*
X10636729Y-21801436D01*
X10636729Y-21801436D02*
X10627205Y-21810960D01*
X10627205Y-21810960D02*
X10608158Y-21820484D01*
X10608158Y-21820484D02*
X10551015Y-21820484D01*
X10551015Y-21820484D02*
X10531967Y-21810960D01*
X10531967Y-21810960D02*
X10522444Y-21801436D01*
X10770063Y-21620484D02*
X10789110Y-21620484D01*
X10789110Y-21620484D02*
X10808158Y-21630008D01*
X10808158Y-21630008D02*
X10817682Y-21639531D01*
X10817682Y-21639531D02*
X10827205Y-21658579D01*
X10827205Y-21658579D02*
X10836729Y-21696674D01*
X10836729Y-21696674D02*
X10836729Y-21744293D01*
X10836729Y-21744293D02*
X10827205Y-21782389D01*
X10827205Y-21782389D02*
X10817682Y-21801436D01*
X10817682Y-21801436D02*
X10808158Y-21810960D01*
X10808158Y-21810960D02*
X10789110Y-21820484D01*
X10789110Y-21820484D02*
X10770063Y-21820484D01*
X10770063Y-21820484D02*
X10751015Y-21810960D01*
X10751015Y-21810960D02*
X10741491Y-21801436D01*
X10741491Y-21801436D02*
X10731967Y-21782389D01*
X10731967Y-21782389D02*
X10722444Y-21744293D01*
X10722444Y-21744293D02*
X10722444Y-21696674D01*
X10722444Y-21696674D02*
X10731967Y-21658579D01*
X10731967Y-21658579D02*
X10741491Y-21639531D01*
X10741491Y-21639531D02*
X10751015Y-21630008D01*
X10751015Y-21630008D02*
X10770063Y-21620484D01*
X10960539Y-21620484D02*
X10979586Y-21620484D01*
X10979586Y-21620484D02*
X10998634Y-21630008D01*
X10998634Y-21630008D02*
X11008158Y-21639531D01*
X11008158Y-21639531D02*
X11017682Y-21658579D01*
X11017682Y-21658579D02*
X11027205Y-21696674D01*
X11027205Y-21696674D02*
X11027205Y-21744293D01*
X11027205Y-21744293D02*
X11017682Y-21782389D01*
X11017682Y-21782389D02*
X11008158Y-21801436D01*
X11008158Y-21801436D02*
X10998634Y-21810960D01*
X10998634Y-21810960D02*
X10979586Y-21820484D01*
X10979586Y-21820484D02*
X10960539Y-21820484D01*
X10960539Y-21820484D02*
X10941491Y-21810960D01*
X10941491Y-21810960D02*
X10931967Y-21801436D01*
X10931967Y-21801436D02*
X10922444Y-21782389D01*
X10922444Y-21782389D02*
X10912920Y-21744293D01*
X10912920Y-21744293D02*
X10912920Y-21696674D01*
X10912920Y-21696674D02*
X10922444Y-21658579D01*
X10922444Y-21658579D02*
X10931967Y-21639531D01*
X10931967Y-21639531D02*
X10941491Y-21630008D01*
X10941491Y-21630008D02*
X10960539Y-21620484D01*
X11112920Y-21820484D02*
X11112920Y-21687150D01*
X11112920Y-21706198D02*
X11122444Y-21696674D01*
X11122444Y-21696674D02*
X11141491Y-21687150D01*
X11141491Y-21687150D02*
X11170063Y-21687150D01*
X11170063Y-21687150D02*
X11189110Y-21696674D01*
X11189110Y-21696674D02*
X11198634Y-21715722D01*
X11198634Y-21715722D02*
X11198634Y-21820484D01*
X11198634Y-21715722D02*
X11208158Y-21696674D01*
X11208158Y-21696674D02*
X11227205Y-21687150D01*
X11227205Y-21687150D02*
X11255777Y-21687150D01*
X11255777Y-21687150D02*
X11274824Y-21696674D01*
X11274824Y-21696674D02*
X11284348Y-21715722D01*
X11284348Y-21715722D02*
X11284348Y-21820484D01*
X11379586Y-21820484D02*
X11379586Y-21687150D01*
X11379586Y-21706198D02*
X11389110Y-21696674D01*
X11389110Y-21696674D02*
X11408158Y-21687150D01*
X11408158Y-21687150D02*
X11436729Y-21687150D01*
X11436729Y-21687150D02*
X11455777Y-21696674D01*
X11455777Y-21696674D02*
X11465301Y-21715722D01*
X11465301Y-21715722D02*
X11465301Y-21820484D01*
X11465301Y-21715722D02*
X11474824Y-21696674D01*
X11474824Y-21696674D02*
X11493872Y-21687150D01*
X11493872Y-21687150D02*
X11522443Y-21687150D01*
X11522443Y-21687150D02*
X11541491Y-21696674D01*
X11541491Y-21696674D02*
X11551015Y-21715722D01*
X11551015Y-21715722D02*
X11551015Y-21820484D01*
X11941491Y-21610960D02*
X11770063Y-21868103D01*
X12198634Y-21620484D02*
X12217682Y-21620484D01*
X12217682Y-21620484D02*
X12236729Y-21630008D01*
X12236729Y-21630008D02*
X12246253Y-21639531D01*
X12246253Y-21639531D02*
X12255777Y-21658579D01*
X12255777Y-21658579D02*
X12265301Y-21696674D01*
X12265301Y-21696674D02*
X12265301Y-21744293D01*
X12265301Y-21744293D02*
X12255777Y-21782389D01*
X12255777Y-21782389D02*
X12246253Y-21801436D01*
X12246253Y-21801436D02*
X12236729Y-21810960D01*
X12236729Y-21810960D02*
X12217682Y-21820484D01*
X12217682Y-21820484D02*
X12198634Y-21820484D01*
X12198634Y-21820484D02*
X12179586Y-21810960D01*
X12179586Y-21810960D02*
X12170063Y-21801436D01*
X12170063Y-21801436D02*
X12160539Y-21782389D01*
X12160539Y-21782389D02*
X12151015Y-21744293D01*
X12151015Y-21744293D02*
X12151015Y-21696674D01*
X12151015Y-21696674D02*
X12160539Y-21658579D01*
X12160539Y-21658579D02*
X12170063Y-21639531D01*
X12170063Y-21639531D02*
X12179586Y-21630008D01*
X12179586Y-21630008D02*
X12198634Y-21620484D01*
X12351015Y-21801436D02*
X12360539Y-21810960D01*
X12360539Y-21810960D02*
X12351015Y-21820484D01*
X12351015Y-21820484D02*
X12341491Y-21810960D01*
X12341491Y-21810960D02*
X12351015Y-21801436D01*
X12351015Y-21801436D02*
X12351015Y-21820484D01*
X12484348Y-21620484D02*
X12503396Y-21620484D01*
X12503396Y-21620484D02*
X12522444Y-21630008D01*
X12522444Y-21630008D02*
X12531967Y-21639531D01*
X12531967Y-21639531D02*
X12541491Y-21658579D01*
X12541491Y-21658579D02*
X12551015Y-21696674D01*
X12551015Y-21696674D02*
X12551015Y-21744293D01*
X12551015Y-21744293D02*
X12541491Y-21782389D01*
X12541491Y-21782389D02*
X12531967Y-21801436D01*
X12531967Y-21801436D02*
X12522444Y-21810960D01*
X12522444Y-21810960D02*
X12503396Y-21820484D01*
X12503396Y-21820484D02*
X12484348Y-21820484D01*
X12484348Y-21820484D02*
X12465301Y-21810960D01*
X12465301Y-21810960D02*
X12455777Y-21801436D01*
X12455777Y-21801436D02*
X12446253Y-21782389D01*
X12446253Y-21782389D02*
X12436729Y-21744293D01*
X12436729Y-21744293D02*
X12436729Y-21696674D01*
X12436729Y-21696674D02*
X12446253Y-21658579D01*
X12446253Y-21658579D02*
X12455777Y-21639531D01*
X12455777Y-21639531D02*
X12465301Y-21630008D01*
X12465301Y-21630008D02*
X12484348Y-21620484D01*
X12731967Y-21620484D02*
X12636729Y-21620484D01*
X12636729Y-21620484D02*
X12627206Y-21715722D01*
X12627206Y-21715722D02*
X12636729Y-21706198D01*
X12636729Y-21706198D02*
X12655777Y-21696674D01*
X12655777Y-21696674D02*
X12703396Y-21696674D01*
X12703396Y-21696674D02*
X12722444Y-21706198D01*
X12722444Y-21706198D02*
X12731967Y-21715722D01*
X12731967Y-21715722D02*
X12741491Y-21734770D01*
X12741491Y-21734770D02*
X12741491Y-21782389D01*
X12741491Y-21782389D02*
X12731967Y-21801436D01*
X12731967Y-21801436D02*
X12722444Y-21810960D01*
X12722444Y-21810960D02*
X12703396Y-21820484D01*
X12703396Y-21820484D02*
X12655777Y-21820484D01*
X12655777Y-21820484D02*
X12636729Y-21810960D01*
X12636729Y-21810960D02*
X12627206Y-21801436D01*
X12931967Y-21820484D02*
X12817682Y-21820484D01*
X12874825Y-21820484D02*
X12874825Y-21620484D01*
X12874825Y-21620484D02*
X12855777Y-21649055D01*
X12855777Y-21649055D02*
X12836729Y-21668103D01*
X12836729Y-21668103D02*
X12817682Y-21677627D01*
X13008158Y-21639531D02*
X13017682Y-21630008D01*
X13017682Y-21630008D02*
X13036729Y-21620484D01*
X13036729Y-21620484D02*
X13084348Y-21620484D01*
X13084348Y-21620484D02*
X13103396Y-21630008D01*
X13103396Y-21630008D02*
X13112920Y-21639531D01*
X13112920Y-21639531D02*
X13122444Y-21658579D01*
X13122444Y-21658579D02*
X13122444Y-21677627D01*
X13122444Y-21677627D02*
X13112920Y-21706198D01*
X13112920Y-21706198D02*
X12998634Y-21820484D01*
X12998634Y-21820484D02*
X13122444Y-21820484D01*
X13198634Y-21620484D02*
X13198634Y-21658579D01*
X13274825Y-21620484D02*
X13274825Y-21658579D01*
X13570063Y-21896674D02*
X13560539Y-21887150D01*
X13560539Y-21887150D02*
X13541491Y-21858579D01*
X13541491Y-21858579D02*
X13531968Y-21839531D01*
X13531968Y-21839531D02*
X13522444Y-21810960D01*
X13522444Y-21810960D02*
X13512920Y-21763341D01*
X13512920Y-21763341D02*
X13512920Y-21725246D01*
X13512920Y-21725246D02*
X13522444Y-21677627D01*
X13522444Y-21677627D02*
X13531968Y-21649055D01*
X13531968Y-21649055D02*
X13541491Y-21630008D01*
X13541491Y-21630008D02*
X13560539Y-21601436D01*
X13560539Y-21601436D02*
X13570063Y-21591912D01*
X13636729Y-21639531D02*
X13646253Y-21630008D01*
X13646253Y-21630008D02*
X13665301Y-21620484D01*
X13665301Y-21620484D02*
X13712920Y-21620484D01*
X13712920Y-21620484D02*
X13731968Y-21630008D01*
X13731968Y-21630008D02*
X13741491Y-21639531D01*
X13741491Y-21639531D02*
X13751015Y-21658579D01*
X13751015Y-21658579D02*
X13751015Y-21677627D01*
X13751015Y-21677627D02*
X13741491Y-21706198D01*
X13741491Y-21706198D02*
X13627206Y-21820484D01*
X13627206Y-21820484D02*
X13751015Y-21820484D01*
X13989110Y-21820484D02*
X13989110Y-21620484D01*
X14074825Y-21820484D02*
X14074825Y-21715722D01*
X14074825Y-21715722D02*
X14065301Y-21696674D01*
X14065301Y-21696674D02*
X14046253Y-21687150D01*
X14046253Y-21687150D02*
X14017682Y-21687150D01*
X14017682Y-21687150D02*
X13998634Y-21696674D01*
X13998634Y-21696674D02*
X13989110Y-21706198D01*
X14198634Y-21820484D02*
X14179587Y-21810960D01*
X14179587Y-21810960D02*
X14170063Y-21801436D01*
X14170063Y-21801436D02*
X14160539Y-21782389D01*
X14160539Y-21782389D02*
X14160539Y-21725246D01*
X14160539Y-21725246D02*
X14170063Y-21706198D01*
X14170063Y-21706198D02*
X14179587Y-21696674D01*
X14179587Y-21696674D02*
X14198634Y-21687150D01*
X14198634Y-21687150D02*
X14227206Y-21687150D01*
X14227206Y-21687150D02*
X14246253Y-21696674D01*
X14246253Y-21696674D02*
X14255777Y-21706198D01*
X14255777Y-21706198D02*
X14265301Y-21725246D01*
X14265301Y-21725246D02*
X14265301Y-21782389D01*
X14265301Y-21782389D02*
X14255777Y-21801436D01*
X14255777Y-21801436D02*
X14246253Y-21810960D01*
X14246253Y-21810960D02*
X14227206Y-21820484D01*
X14227206Y-21820484D02*
X14198634Y-21820484D01*
X14379587Y-21820484D02*
X14360539Y-21810960D01*
X14360539Y-21810960D02*
X14351015Y-21791912D01*
X14351015Y-21791912D02*
X14351015Y-21620484D01*
X14531968Y-21810960D02*
X14512920Y-21820484D01*
X14512920Y-21820484D02*
X14474825Y-21820484D01*
X14474825Y-21820484D02*
X14455777Y-21810960D01*
X14455777Y-21810960D02*
X14446253Y-21791912D01*
X14446253Y-21791912D02*
X14446253Y-21715722D01*
X14446253Y-21715722D02*
X14455777Y-21696674D01*
X14455777Y-21696674D02*
X14474825Y-21687150D01*
X14474825Y-21687150D02*
X14512920Y-21687150D01*
X14512920Y-21687150D02*
X14531968Y-21696674D01*
X14531968Y-21696674D02*
X14541491Y-21715722D01*
X14541491Y-21715722D02*
X14541491Y-21734770D01*
X14541491Y-21734770D02*
X14446253Y-21753817D01*
X14617682Y-21810960D02*
X14636730Y-21820484D01*
X14636730Y-21820484D02*
X14674825Y-21820484D01*
X14674825Y-21820484D02*
X14693872Y-21810960D01*
X14693872Y-21810960D02*
X14703396Y-21791912D01*
X14703396Y-21791912D02*
X14703396Y-21782389D01*
X14703396Y-21782389D02*
X14693872Y-21763341D01*
X14693872Y-21763341D02*
X14674825Y-21753817D01*
X14674825Y-21753817D02*
X14646253Y-21753817D01*
X14646253Y-21753817D02*
X14627206Y-21744293D01*
X14627206Y-21744293D02*
X14617682Y-21725246D01*
X14617682Y-21725246D02*
X14617682Y-21715722D01*
X14617682Y-21715722D02*
X14627206Y-21696674D01*
X14627206Y-21696674D02*
X14646253Y-21687150D01*
X14646253Y-21687150D02*
X14674825Y-21687150D01*
X14674825Y-21687150D02*
X14693872Y-21696674D01*
X14770063Y-21896674D02*
X14779587Y-21887150D01*
X14779587Y-21887150D02*
X14798634Y-21858579D01*
X14798634Y-21858579D02*
X14808158Y-21839531D01*
X14808158Y-21839531D02*
X14817682Y-21810960D01*
X14817682Y-21810960D02*
X14827206Y-21763341D01*
X14827206Y-21763341D02*
X14827206Y-21725246D01*
X14827206Y-21725246D02*
X14817682Y-21677627D01*
X14817682Y-21677627D02*
X14808158Y-21649055D01*
X14808158Y-21649055D02*
X14798634Y-21630008D01*
X14798634Y-21630008D02*
X14779587Y-21601436D01*
X14779587Y-21601436D02*
X14770063Y-21591912D01*
D13*
X9835000Y-21913000D02*
X9995000Y-22073000D01*
X9995000Y-21913000D02*
X9835000Y-22073000D01*
X9971569Y-22049569D02*
X9971569Y-21936431D01*
X9858431Y-21936431D01*
X9858431Y-22049569D01*
X9971569Y-22049569D01*
D11*
X10360539Y-22084484D02*
X10246253Y-22084484D01*
X10303396Y-22084484D02*
X10303396Y-21884484D01*
X10303396Y-21884484D02*
X10284348Y-21913055D01*
X10284348Y-21913055D02*
X10265301Y-21932103D01*
X10265301Y-21932103D02*
X10246253Y-21941627D01*
X10446253Y-22065436D02*
X10455777Y-22074960D01*
X10455777Y-22074960D02*
X10446253Y-22084484D01*
X10446253Y-22084484D02*
X10436729Y-22074960D01*
X10436729Y-22074960D02*
X10446253Y-22065436D01*
X10446253Y-22065436D02*
X10446253Y-22084484D01*
X10627205Y-21884484D02*
X10589110Y-21884484D01*
X10589110Y-21884484D02*
X10570063Y-21894008D01*
X10570063Y-21894008D02*
X10560539Y-21903531D01*
X10560539Y-21903531D02*
X10541491Y-21932103D01*
X10541491Y-21932103D02*
X10531967Y-21970198D01*
X10531967Y-21970198D02*
X10531967Y-22046389D01*
X10531967Y-22046389D02*
X10541491Y-22065436D01*
X10541491Y-22065436D02*
X10551015Y-22074960D01*
X10551015Y-22074960D02*
X10570063Y-22084484D01*
X10570063Y-22084484D02*
X10608158Y-22084484D01*
X10608158Y-22084484D02*
X10627205Y-22074960D01*
X10627205Y-22074960D02*
X10636729Y-22065436D01*
X10636729Y-22065436D02*
X10646253Y-22046389D01*
X10646253Y-22046389D02*
X10646253Y-21998770D01*
X10646253Y-21998770D02*
X10636729Y-21979722D01*
X10636729Y-21979722D02*
X10627205Y-21970198D01*
X10627205Y-21970198D02*
X10608158Y-21960674D01*
X10608158Y-21960674D02*
X10570063Y-21960674D01*
X10570063Y-21960674D02*
X10551015Y-21970198D01*
X10551015Y-21970198D02*
X10541491Y-21979722D01*
X10541491Y-21979722D02*
X10531967Y-21998770D01*
X10770063Y-21884484D02*
X10789110Y-21884484D01*
X10789110Y-21884484D02*
X10808158Y-21894008D01*
X10808158Y-21894008D02*
X10817682Y-21903531D01*
X10817682Y-21903531D02*
X10827205Y-21922579D01*
X10827205Y-21922579D02*
X10836729Y-21960674D01*
X10836729Y-21960674D02*
X10836729Y-22008293D01*
X10836729Y-22008293D02*
X10827205Y-22046389D01*
X10827205Y-22046389D02*
X10817682Y-22065436D01*
X10817682Y-22065436D02*
X10808158Y-22074960D01*
X10808158Y-22074960D02*
X10789110Y-22084484D01*
X10789110Y-22084484D02*
X10770063Y-22084484D01*
X10770063Y-22084484D02*
X10751015Y-22074960D01*
X10751015Y-22074960D02*
X10741491Y-22065436D01*
X10741491Y-22065436D02*
X10731967Y-22046389D01*
X10731967Y-22046389D02*
X10722444Y-22008293D01*
X10722444Y-22008293D02*
X10722444Y-21960674D01*
X10722444Y-21960674D02*
X10731967Y-21922579D01*
X10731967Y-21922579D02*
X10741491Y-21903531D01*
X10741491Y-21903531D02*
X10751015Y-21894008D01*
X10751015Y-21894008D02*
X10770063Y-21884484D01*
X10960539Y-21884484D02*
X10979586Y-21884484D01*
X10979586Y-21884484D02*
X10998634Y-21894008D01*
X10998634Y-21894008D02*
X11008158Y-21903531D01*
X11008158Y-21903531D02*
X11017682Y-21922579D01*
X11017682Y-21922579D02*
X11027205Y-21960674D01*
X11027205Y-21960674D02*
X11027205Y-22008293D01*
X11027205Y-22008293D02*
X11017682Y-22046389D01*
X11017682Y-22046389D02*
X11008158Y-22065436D01*
X11008158Y-22065436D02*
X10998634Y-22074960D01*
X10998634Y-22074960D02*
X10979586Y-22084484D01*
X10979586Y-22084484D02*
X10960539Y-22084484D01*
X10960539Y-22084484D02*
X10941491Y-22074960D01*
X10941491Y-22074960D02*
X10931967Y-22065436D01*
X10931967Y-22065436D02*
X10922444Y-22046389D01*
X10922444Y-22046389D02*
X10912920Y-22008293D01*
X10912920Y-22008293D02*
X10912920Y-21960674D01*
X10912920Y-21960674D02*
X10922444Y-21922579D01*
X10922444Y-21922579D02*
X10931967Y-21903531D01*
X10931967Y-21903531D02*
X10941491Y-21894008D01*
X10941491Y-21894008D02*
X10960539Y-21884484D01*
X11112920Y-22084484D02*
X11112920Y-21951150D01*
X11112920Y-21970198D02*
X11122444Y-21960674D01*
X11122444Y-21960674D02*
X11141491Y-21951150D01*
X11141491Y-21951150D02*
X11170063Y-21951150D01*
X11170063Y-21951150D02*
X11189110Y-21960674D01*
X11189110Y-21960674D02*
X11198634Y-21979722D01*
X11198634Y-21979722D02*
X11198634Y-22084484D01*
X11198634Y-21979722D02*
X11208158Y-21960674D01*
X11208158Y-21960674D02*
X11227205Y-21951150D01*
X11227205Y-21951150D02*
X11255777Y-21951150D01*
X11255777Y-21951150D02*
X11274824Y-21960674D01*
X11274824Y-21960674D02*
X11284348Y-21979722D01*
X11284348Y-21979722D02*
X11284348Y-22084484D01*
X11379586Y-22084484D02*
X11379586Y-21951150D01*
X11379586Y-21970198D02*
X11389110Y-21960674D01*
X11389110Y-21960674D02*
X11408158Y-21951150D01*
X11408158Y-21951150D02*
X11436729Y-21951150D01*
X11436729Y-21951150D02*
X11455777Y-21960674D01*
X11455777Y-21960674D02*
X11465301Y-21979722D01*
X11465301Y-21979722D02*
X11465301Y-22084484D01*
X11465301Y-21979722D02*
X11474824Y-21960674D01*
X11474824Y-21960674D02*
X11493872Y-21951150D01*
X11493872Y-21951150D02*
X11522443Y-21951150D01*
X11522443Y-21951150D02*
X11541491Y-21960674D01*
X11541491Y-21960674D02*
X11551015Y-21979722D01*
X11551015Y-21979722D02*
X11551015Y-22084484D01*
X11941491Y-21874960D02*
X11770063Y-22132103D01*
X12198634Y-21884484D02*
X12217682Y-21884484D01*
X12217682Y-21884484D02*
X12236729Y-21894008D01*
X12236729Y-21894008D02*
X12246253Y-21903531D01*
X12246253Y-21903531D02*
X12255777Y-21922579D01*
X12255777Y-21922579D02*
X12265301Y-21960674D01*
X12265301Y-21960674D02*
X12265301Y-22008293D01*
X12265301Y-22008293D02*
X12255777Y-22046389D01*
X12255777Y-22046389D02*
X12246253Y-22065436D01*
X12246253Y-22065436D02*
X12236729Y-22074960D01*
X12236729Y-22074960D02*
X12217682Y-22084484D01*
X12217682Y-22084484D02*
X12198634Y-22084484D01*
X12198634Y-22084484D02*
X12179586Y-22074960D01*
X12179586Y-22074960D02*
X12170063Y-22065436D01*
X12170063Y-22065436D02*
X12160539Y-22046389D01*
X12160539Y-22046389D02*
X12151015Y-22008293D01*
X12151015Y-22008293D02*
X12151015Y-21960674D01*
X12151015Y-21960674D02*
X12160539Y-21922579D01*
X12160539Y-21922579D02*
X12170063Y-21903531D01*
X12170063Y-21903531D02*
X12179586Y-21894008D01*
X12179586Y-21894008D02*
X12198634Y-21884484D01*
X12351015Y-22065436D02*
X12360539Y-22074960D01*
X12360539Y-22074960D02*
X12351015Y-22084484D01*
X12351015Y-22084484D02*
X12341491Y-22074960D01*
X12341491Y-22074960D02*
X12351015Y-22065436D01*
X12351015Y-22065436D02*
X12351015Y-22084484D01*
X12484348Y-21884484D02*
X12503396Y-21884484D01*
X12503396Y-21884484D02*
X12522444Y-21894008D01*
X12522444Y-21894008D02*
X12531967Y-21903531D01*
X12531967Y-21903531D02*
X12541491Y-21922579D01*
X12541491Y-21922579D02*
X12551015Y-21960674D01*
X12551015Y-21960674D02*
X12551015Y-22008293D01*
X12551015Y-22008293D02*
X12541491Y-22046389D01*
X12541491Y-22046389D02*
X12531967Y-22065436D01*
X12531967Y-22065436D02*
X12522444Y-22074960D01*
X12522444Y-22074960D02*
X12503396Y-22084484D01*
X12503396Y-22084484D02*
X12484348Y-22084484D01*
X12484348Y-22084484D02*
X12465301Y-22074960D01*
X12465301Y-22074960D02*
X12455777Y-22065436D01*
X12455777Y-22065436D02*
X12446253Y-22046389D01*
X12446253Y-22046389D02*
X12436729Y-22008293D01*
X12436729Y-22008293D02*
X12436729Y-21960674D01*
X12436729Y-21960674D02*
X12446253Y-21922579D01*
X12446253Y-21922579D02*
X12455777Y-21903531D01*
X12455777Y-21903531D02*
X12465301Y-21894008D01*
X12465301Y-21894008D02*
X12484348Y-21884484D01*
X12722444Y-21884484D02*
X12684348Y-21884484D01*
X12684348Y-21884484D02*
X12665301Y-21894008D01*
X12665301Y-21894008D02*
X12655777Y-21903531D01*
X12655777Y-21903531D02*
X12636729Y-21932103D01*
X12636729Y-21932103D02*
X12627206Y-21970198D01*
X12627206Y-21970198D02*
X12627206Y-22046389D01*
X12627206Y-22046389D02*
X12636729Y-22065436D01*
X12636729Y-22065436D02*
X12646253Y-22074960D01*
X12646253Y-22074960D02*
X12665301Y-22084484D01*
X12665301Y-22084484D02*
X12703396Y-22084484D01*
X12703396Y-22084484D02*
X12722444Y-22074960D01*
X12722444Y-22074960D02*
X12731967Y-22065436D01*
X12731967Y-22065436D02*
X12741491Y-22046389D01*
X12741491Y-22046389D02*
X12741491Y-21998770D01*
X12741491Y-21998770D02*
X12731967Y-21979722D01*
X12731967Y-21979722D02*
X12722444Y-21970198D01*
X12722444Y-21970198D02*
X12703396Y-21960674D01*
X12703396Y-21960674D02*
X12665301Y-21960674D01*
X12665301Y-21960674D02*
X12646253Y-21970198D01*
X12646253Y-21970198D02*
X12636729Y-21979722D01*
X12636729Y-21979722D02*
X12627206Y-21998770D01*
X12808158Y-21884484D02*
X12931967Y-21884484D01*
X12931967Y-21884484D02*
X12865301Y-21960674D01*
X12865301Y-21960674D02*
X12893872Y-21960674D01*
X12893872Y-21960674D02*
X12912920Y-21970198D01*
X12912920Y-21970198D02*
X12922444Y-21979722D01*
X12922444Y-21979722D02*
X12931967Y-21998770D01*
X12931967Y-21998770D02*
X12931967Y-22046389D01*
X12931967Y-22046389D02*
X12922444Y-22065436D01*
X12922444Y-22065436D02*
X12912920Y-22074960D01*
X12912920Y-22074960D02*
X12893872Y-22084484D01*
X12893872Y-22084484D02*
X12836729Y-22084484D01*
X12836729Y-22084484D02*
X12817682Y-22074960D01*
X12817682Y-22074960D02*
X12808158Y-22065436D01*
X13055777Y-21884484D02*
X13074825Y-21884484D01*
X13074825Y-21884484D02*
X13093872Y-21894008D01*
X13093872Y-21894008D02*
X13103396Y-21903531D01*
X13103396Y-21903531D02*
X13112920Y-21922579D01*
X13112920Y-21922579D02*
X13122444Y-21960674D01*
X13122444Y-21960674D02*
X13122444Y-22008293D01*
X13122444Y-22008293D02*
X13112920Y-22046389D01*
X13112920Y-22046389D02*
X13103396Y-22065436D01*
X13103396Y-22065436D02*
X13093872Y-22074960D01*
X13093872Y-22074960D02*
X13074825Y-22084484D01*
X13074825Y-22084484D02*
X13055777Y-22084484D01*
X13055777Y-22084484D02*
X13036729Y-22074960D01*
X13036729Y-22074960D02*
X13027206Y-22065436D01*
X13027206Y-22065436D02*
X13017682Y-22046389D01*
X13017682Y-22046389D02*
X13008158Y-22008293D01*
X13008158Y-22008293D02*
X13008158Y-21960674D01*
X13008158Y-21960674D02*
X13017682Y-21922579D01*
X13017682Y-21922579D02*
X13027206Y-21903531D01*
X13027206Y-21903531D02*
X13036729Y-21894008D01*
X13036729Y-21894008D02*
X13055777Y-21884484D01*
X13198634Y-21884484D02*
X13198634Y-21922579D01*
X13274825Y-21884484D02*
X13274825Y-21922579D01*
X13570063Y-22160674D02*
X13560539Y-22151150D01*
X13560539Y-22151150D02*
X13541491Y-22122579D01*
X13541491Y-22122579D02*
X13531968Y-22103531D01*
X13531968Y-22103531D02*
X13522444Y-22074960D01*
X13522444Y-22074960D02*
X13512920Y-22027341D01*
X13512920Y-22027341D02*
X13512920Y-21989246D01*
X13512920Y-21989246D02*
X13522444Y-21941627D01*
X13522444Y-21941627D02*
X13531968Y-21913055D01*
X13531968Y-21913055D02*
X13541491Y-21894008D01*
X13541491Y-21894008D02*
X13560539Y-21865436D01*
X13560539Y-21865436D02*
X13570063Y-21855912D01*
X13636729Y-21903531D02*
X13646253Y-21894008D01*
X13646253Y-21894008D02*
X13665301Y-21884484D01*
X13665301Y-21884484D02*
X13712920Y-21884484D01*
X13712920Y-21884484D02*
X13731968Y-21894008D01*
X13731968Y-21894008D02*
X13741491Y-21903531D01*
X13741491Y-21903531D02*
X13751015Y-21922579D01*
X13751015Y-21922579D02*
X13751015Y-21941627D01*
X13751015Y-21941627D02*
X13741491Y-21970198D01*
X13741491Y-21970198D02*
X13627206Y-22084484D01*
X13627206Y-22084484D02*
X13751015Y-22084484D01*
X13989110Y-22084484D02*
X13989110Y-21884484D01*
X14074825Y-22084484D02*
X14074825Y-21979722D01*
X14074825Y-21979722D02*
X14065301Y-21960674D01*
X14065301Y-21960674D02*
X14046253Y-21951150D01*
X14046253Y-21951150D02*
X14017682Y-21951150D01*
X14017682Y-21951150D02*
X13998634Y-21960674D01*
X13998634Y-21960674D02*
X13989110Y-21970198D01*
X14198634Y-22084484D02*
X14179587Y-22074960D01*
X14179587Y-22074960D02*
X14170063Y-22065436D01*
X14170063Y-22065436D02*
X14160539Y-22046389D01*
X14160539Y-22046389D02*
X14160539Y-21989246D01*
X14160539Y-21989246D02*
X14170063Y-21970198D01*
X14170063Y-21970198D02*
X14179587Y-21960674D01*
X14179587Y-21960674D02*
X14198634Y-21951150D01*
X14198634Y-21951150D02*
X14227206Y-21951150D01*
X14227206Y-21951150D02*
X14246253Y-21960674D01*
X14246253Y-21960674D02*
X14255777Y-21970198D01*
X14255777Y-21970198D02*
X14265301Y-21989246D01*
X14265301Y-21989246D02*
X14265301Y-22046389D01*
X14265301Y-22046389D02*
X14255777Y-22065436D01*
X14255777Y-22065436D02*
X14246253Y-22074960D01*
X14246253Y-22074960D02*
X14227206Y-22084484D01*
X14227206Y-22084484D02*
X14198634Y-22084484D01*
X14379587Y-22084484D02*
X14360539Y-22074960D01*
X14360539Y-22074960D02*
X14351015Y-22055912D01*
X14351015Y-22055912D02*
X14351015Y-21884484D01*
X14531968Y-22074960D02*
X14512920Y-22084484D01*
X14512920Y-22084484D02*
X14474825Y-22084484D01*
X14474825Y-22084484D02*
X14455777Y-22074960D01*
X14455777Y-22074960D02*
X14446253Y-22055912D01*
X14446253Y-22055912D02*
X14446253Y-21979722D01*
X14446253Y-21979722D02*
X14455777Y-21960674D01*
X14455777Y-21960674D02*
X14474825Y-21951150D01*
X14474825Y-21951150D02*
X14512920Y-21951150D01*
X14512920Y-21951150D02*
X14531968Y-21960674D01*
X14531968Y-21960674D02*
X14541491Y-21979722D01*
X14541491Y-21979722D02*
X14541491Y-21998770D01*
X14541491Y-21998770D02*
X14446253Y-22017817D01*
X14617682Y-22074960D02*
X14636730Y-22084484D01*
X14636730Y-22084484D02*
X14674825Y-22084484D01*
X14674825Y-22084484D02*
X14693872Y-22074960D01*
X14693872Y-22074960D02*
X14703396Y-22055912D01*
X14703396Y-22055912D02*
X14703396Y-22046389D01*
X14703396Y-22046389D02*
X14693872Y-22027341D01*
X14693872Y-22027341D02*
X14674825Y-22017817D01*
X14674825Y-22017817D02*
X14646253Y-22017817D01*
X14646253Y-22017817D02*
X14627206Y-22008293D01*
X14627206Y-22008293D02*
X14617682Y-21989246D01*
X14617682Y-21989246D02*
X14617682Y-21979722D01*
X14617682Y-21979722D02*
X14627206Y-21960674D01*
X14627206Y-21960674D02*
X14646253Y-21951150D01*
X14646253Y-21951150D02*
X14674825Y-21951150D01*
X14674825Y-21951150D02*
X14693872Y-21960674D01*
X14770063Y-22160674D02*
X14779587Y-22151150D01*
X14779587Y-22151150D02*
X14798634Y-22122579D01*
X14798634Y-22122579D02*
X14808158Y-22103531D01*
X14808158Y-22103531D02*
X14817682Y-22074960D01*
X14817682Y-22074960D02*
X14827206Y-22027341D01*
X14827206Y-22027341D02*
X14827206Y-21989246D01*
X14827206Y-21989246D02*
X14817682Y-21941627D01*
X14817682Y-21941627D02*
X14808158Y-21913055D01*
X14808158Y-21913055D02*
X14798634Y-21894008D01*
X14798634Y-21894008D02*
X14779587Y-21865436D01*
X14779587Y-21865436D02*
X14770063Y-21855912D01*
X9795000Y-22173000D02*
X9995000Y-22373000D01*
X9995000Y-22173000D02*
X9795000Y-22373000D01*
X9895000Y-22373000D02*
X9995000Y-22273000D01*
X9895000Y-22173000D01*
X9795000Y-22273000D01*
X9895000Y-22373000D01*
X10236729Y-22164484D02*
X10360539Y-22164484D01*
X10360539Y-22164484D02*
X10293872Y-22240674D01*
X10293872Y-22240674D02*
X10322444Y-22240674D01*
X10322444Y-22240674D02*
X10341491Y-22250198D01*
X10341491Y-22250198D02*
X10351015Y-22259722D01*
X10351015Y-22259722D02*
X10360539Y-22278770D01*
X10360539Y-22278770D02*
X10360539Y-22326389D01*
X10360539Y-22326389D02*
X10351015Y-22345436D01*
X10351015Y-22345436D02*
X10341491Y-22354960D01*
X10341491Y-22354960D02*
X10322444Y-22364484D01*
X10322444Y-22364484D02*
X10265301Y-22364484D01*
X10265301Y-22364484D02*
X10246253Y-22354960D01*
X10246253Y-22354960D02*
X10236729Y-22345436D01*
X10446253Y-22345436D02*
X10455777Y-22354960D01*
X10455777Y-22354960D02*
X10446253Y-22364484D01*
X10446253Y-22364484D02*
X10436729Y-22354960D01*
X10436729Y-22354960D02*
X10446253Y-22345436D01*
X10446253Y-22345436D02*
X10446253Y-22364484D01*
X10531967Y-22183531D02*
X10541491Y-22174008D01*
X10541491Y-22174008D02*
X10560539Y-22164484D01*
X10560539Y-22164484D02*
X10608158Y-22164484D01*
X10608158Y-22164484D02*
X10627205Y-22174008D01*
X10627205Y-22174008D02*
X10636729Y-22183531D01*
X10636729Y-22183531D02*
X10646253Y-22202579D01*
X10646253Y-22202579D02*
X10646253Y-22221627D01*
X10646253Y-22221627D02*
X10636729Y-22250198D01*
X10636729Y-22250198D02*
X10522444Y-22364484D01*
X10522444Y-22364484D02*
X10646253Y-22364484D01*
X10770063Y-22164484D02*
X10789110Y-22164484D01*
X10789110Y-22164484D02*
X10808158Y-22174008D01*
X10808158Y-22174008D02*
X10817682Y-22183531D01*
X10817682Y-22183531D02*
X10827205Y-22202579D01*
X10827205Y-22202579D02*
X10836729Y-22240674D01*
X10836729Y-22240674D02*
X10836729Y-22288293D01*
X10836729Y-22288293D02*
X10827205Y-22326389D01*
X10827205Y-22326389D02*
X10817682Y-22345436D01*
X10817682Y-22345436D02*
X10808158Y-22354960D01*
X10808158Y-22354960D02*
X10789110Y-22364484D01*
X10789110Y-22364484D02*
X10770063Y-22364484D01*
X10770063Y-22364484D02*
X10751015Y-22354960D01*
X10751015Y-22354960D02*
X10741491Y-22345436D01*
X10741491Y-22345436D02*
X10731967Y-22326389D01*
X10731967Y-22326389D02*
X10722444Y-22288293D01*
X10722444Y-22288293D02*
X10722444Y-22240674D01*
X10722444Y-22240674D02*
X10731967Y-22202579D01*
X10731967Y-22202579D02*
X10741491Y-22183531D01*
X10741491Y-22183531D02*
X10751015Y-22174008D01*
X10751015Y-22174008D02*
X10770063Y-22164484D01*
X10960539Y-22164484D02*
X10979586Y-22164484D01*
X10979586Y-22164484D02*
X10998634Y-22174008D01*
X10998634Y-22174008D02*
X11008158Y-22183531D01*
X11008158Y-22183531D02*
X11017682Y-22202579D01*
X11017682Y-22202579D02*
X11027205Y-22240674D01*
X11027205Y-22240674D02*
X11027205Y-22288293D01*
X11027205Y-22288293D02*
X11017682Y-22326389D01*
X11017682Y-22326389D02*
X11008158Y-22345436D01*
X11008158Y-22345436D02*
X10998634Y-22354960D01*
X10998634Y-22354960D02*
X10979586Y-22364484D01*
X10979586Y-22364484D02*
X10960539Y-22364484D01*
X10960539Y-22364484D02*
X10941491Y-22354960D01*
X10941491Y-22354960D02*
X10931967Y-22345436D01*
X10931967Y-22345436D02*
X10922444Y-22326389D01*
X10922444Y-22326389D02*
X10912920Y-22288293D01*
X10912920Y-22288293D02*
X10912920Y-22240674D01*
X10912920Y-22240674D02*
X10922444Y-22202579D01*
X10922444Y-22202579D02*
X10931967Y-22183531D01*
X10931967Y-22183531D02*
X10941491Y-22174008D01*
X10941491Y-22174008D02*
X10960539Y-22164484D01*
X11112920Y-22364484D02*
X11112920Y-22231150D01*
X11112920Y-22250198D02*
X11122444Y-22240674D01*
X11122444Y-22240674D02*
X11141491Y-22231150D01*
X11141491Y-22231150D02*
X11170063Y-22231150D01*
X11170063Y-22231150D02*
X11189110Y-22240674D01*
X11189110Y-22240674D02*
X11198634Y-22259722D01*
X11198634Y-22259722D02*
X11198634Y-22364484D01*
X11198634Y-22259722D02*
X11208158Y-22240674D01*
X11208158Y-22240674D02*
X11227205Y-22231150D01*
X11227205Y-22231150D02*
X11255777Y-22231150D01*
X11255777Y-22231150D02*
X11274824Y-22240674D01*
X11274824Y-22240674D02*
X11284348Y-22259722D01*
X11284348Y-22259722D02*
X11284348Y-22364484D01*
X11379586Y-22364484D02*
X11379586Y-22231150D01*
X11379586Y-22250198D02*
X11389110Y-22240674D01*
X11389110Y-22240674D02*
X11408158Y-22231150D01*
X11408158Y-22231150D02*
X11436729Y-22231150D01*
X11436729Y-22231150D02*
X11455777Y-22240674D01*
X11455777Y-22240674D02*
X11465301Y-22259722D01*
X11465301Y-22259722D02*
X11465301Y-22364484D01*
X11465301Y-22259722D02*
X11474824Y-22240674D01*
X11474824Y-22240674D02*
X11493872Y-22231150D01*
X11493872Y-22231150D02*
X11522443Y-22231150D01*
X11522443Y-22231150D02*
X11541491Y-22240674D01*
X11541491Y-22240674D02*
X11551015Y-22259722D01*
X11551015Y-22259722D02*
X11551015Y-22364484D01*
X11941491Y-22154960D02*
X11770063Y-22412103D01*
X12198634Y-22164484D02*
X12217682Y-22164484D01*
X12217682Y-22164484D02*
X12236729Y-22174008D01*
X12236729Y-22174008D02*
X12246253Y-22183531D01*
X12246253Y-22183531D02*
X12255777Y-22202579D01*
X12255777Y-22202579D02*
X12265301Y-22240674D01*
X12265301Y-22240674D02*
X12265301Y-22288293D01*
X12265301Y-22288293D02*
X12255777Y-22326389D01*
X12255777Y-22326389D02*
X12246253Y-22345436D01*
X12246253Y-22345436D02*
X12236729Y-22354960D01*
X12236729Y-22354960D02*
X12217682Y-22364484D01*
X12217682Y-22364484D02*
X12198634Y-22364484D01*
X12198634Y-22364484D02*
X12179586Y-22354960D01*
X12179586Y-22354960D02*
X12170063Y-22345436D01*
X12170063Y-22345436D02*
X12160539Y-22326389D01*
X12160539Y-22326389D02*
X12151015Y-22288293D01*
X12151015Y-22288293D02*
X12151015Y-22240674D01*
X12151015Y-22240674D02*
X12160539Y-22202579D01*
X12160539Y-22202579D02*
X12170063Y-22183531D01*
X12170063Y-22183531D02*
X12179586Y-22174008D01*
X12179586Y-22174008D02*
X12198634Y-22164484D01*
X12351015Y-22345436D02*
X12360539Y-22354960D01*
X12360539Y-22354960D02*
X12351015Y-22364484D01*
X12351015Y-22364484D02*
X12341491Y-22354960D01*
X12341491Y-22354960D02*
X12351015Y-22345436D01*
X12351015Y-22345436D02*
X12351015Y-22364484D01*
X12551015Y-22364484D02*
X12436729Y-22364484D01*
X12493872Y-22364484D02*
X12493872Y-22164484D01*
X12493872Y-22164484D02*
X12474825Y-22193055D01*
X12474825Y-22193055D02*
X12455777Y-22212103D01*
X12455777Y-22212103D02*
X12436729Y-22221627D01*
X12627206Y-22183531D02*
X12636729Y-22174008D01*
X12636729Y-22174008D02*
X12655777Y-22164484D01*
X12655777Y-22164484D02*
X12703396Y-22164484D01*
X12703396Y-22164484D02*
X12722444Y-22174008D01*
X12722444Y-22174008D02*
X12731967Y-22183531D01*
X12731967Y-22183531D02*
X12741491Y-22202579D01*
X12741491Y-22202579D02*
X12741491Y-22221627D01*
X12741491Y-22221627D02*
X12731967Y-22250198D01*
X12731967Y-22250198D02*
X12617682Y-22364484D01*
X12617682Y-22364484D02*
X12741491Y-22364484D01*
X12912920Y-22164484D02*
X12874825Y-22164484D01*
X12874825Y-22164484D02*
X12855777Y-22174008D01*
X12855777Y-22174008D02*
X12846253Y-22183531D01*
X12846253Y-22183531D02*
X12827206Y-22212103D01*
X12827206Y-22212103D02*
X12817682Y-22250198D01*
X12817682Y-22250198D02*
X12817682Y-22326389D01*
X12817682Y-22326389D02*
X12827206Y-22345436D01*
X12827206Y-22345436D02*
X12836729Y-22354960D01*
X12836729Y-22354960D02*
X12855777Y-22364484D01*
X12855777Y-22364484D02*
X12893872Y-22364484D01*
X12893872Y-22364484D02*
X12912920Y-22354960D01*
X12912920Y-22354960D02*
X12922444Y-22345436D01*
X12922444Y-22345436D02*
X12931967Y-22326389D01*
X12931967Y-22326389D02*
X12931967Y-22278770D01*
X12931967Y-22278770D02*
X12922444Y-22259722D01*
X12922444Y-22259722D02*
X12912920Y-22250198D01*
X12912920Y-22250198D02*
X12893872Y-22240674D01*
X12893872Y-22240674D02*
X12855777Y-22240674D01*
X12855777Y-22240674D02*
X12836729Y-22250198D01*
X12836729Y-22250198D02*
X12827206Y-22259722D01*
X12827206Y-22259722D02*
X12817682Y-22278770D01*
X13055777Y-22164484D02*
X13074825Y-22164484D01*
X13074825Y-22164484D02*
X13093872Y-22174008D01*
X13093872Y-22174008D02*
X13103396Y-22183531D01*
X13103396Y-22183531D02*
X13112920Y-22202579D01*
X13112920Y-22202579D02*
X13122444Y-22240674D01*
X13122444Y-22240674D02*
X13122444Y-22288293D01*
X13122444Y-22288293D02*
X13112920Y-22326389D01*
X13112920Y-22326389D02*
X13103396Y-22345436D01*
X13103396Y-22345436D02*
X13093872Y-22354960D01*
X13093872Y-22354960D02*
X13074825Y-22364484D01*
X13074825Y-22364484D02*
X13055777Y-22364484D01*
X13055777Y-22364484D02*
X13036729Y-22354960D01*
X13036729Y-22354960D02*
X13027206Y-22345436D01*
X13027206Y-22345436D02*
X13017682Y-22326389D01*
X13017682Y-22326389D02*
X13008158Y-22288293D01*
X13008158Y-22288293D02*
X13008158Y-22240674D01*
X13008158Y-22240674D02*
X13017682Y-22202579D01*
X13017682Y-22202579D02*
X13027206Y-22183531D01*
X13027206Y-22183531D02*
X13036729Y-22174008D01*
X13036729Y-22174008D02*
X13055777Y-22164484D01*
X13198634Y-22164484D02*
X13198634Y-22202579D01*
X13274825Y-22164484D02*
X13274825Y-22202579D01*
X13570063Y-22440674D02*
X13560539Y-22431150D01*
X13560539Y-22431150D02*
X13541491Y-22402579D01*
X13541491Y-22402579D02*
X13531968Y-22383531D01*
X13531968Y-22383531D02*
X13522444Y-22354960D01*
X13522444Y-22354960D02*
X13512920Y-22307341D01*
X13512920Y-22307341D02*
X13512920Y-22269246D01*
X13512920Y-22269246D02*
X13522444Y-22221627D01*
X13522444Y-22221627D02*
X13531968Y-22193055D01*
X13531968Y-22193055D02*
X13541491Y-22174008D01*
X13541491Y-22174008D02*
X13560539Y-22145436D01*
X13560539Y-22145436D02*
X13570063Y-22135912D01*
X13636729Y-22183531D02*
X13646253Y-22174008D01*
X13646253Y-22174008D02*
X13665301Y-22164484D01*
X13665301Y-22164484D02*
X13712920Y-22164484D01*
X13712920Y-22164484D02*
X13731968Y-22174008D01*
X13731968Y-22174008D02*
X13741491Y-22183531D01*
X13741491Y-22183531D02*
X13751015Y-22202579D01*
X13751015Y-22202579D02*
X13751015Y-22221627D01*
X13751015Y-22221627D02*
X13741491Y-22250198D01*
X13741491Y-22250198D02*
X13627206Y-22364484D01*
X13627206Y-22364484D02*
X13751015Y-22364484D01*
X13989110Y-22364484D02*
X13989110Y-22164484D01*
X14074825Y-22364484D02*
X14074825Y-22259722D01*
X14074825Y-22259722D02*
X14065301Y-22240674D01*
X14065301Y-22240674D02*
X14046253Y-22231150D01*
X14046253Y-22231150D02*
X14017682Y-22231150D01*
X14017682Y-22231150D02*
X13998634Y-22240674D01*
X13998634Y-22240674D02*
X13989110Y-22250198D01*
X14198634Y-22364484D02*
X14179587Y-22354960D01*
X14179587Y-22354960D02*
X14170063Y-22345436D01*
X14170063Y-22345436D02*
X14160539Y-22326389D01*
X14160539Y-22326389D02*
X14160539Y-22269246D01*
X14160539Y-22269246D02*
X14170063Y-22250198D01*
X14170063Y-22250198D02*
X14179587Y-22240674D01*
X14179587Y-22240674D02*
X14198634Y-22231150D01*
X14198634Y-22231150D02*
X14227206Y-22231150D01*
X14227206Y-22231150D02*
X14246253Y-22240674D01*
X14246253Y-22240674D02*
X14255777Y-22250198D01*
X14255777Y-22250198D02*
X14265301Y-22269246D01*
X14265301Y-22269246D02*
X14265301Y-22326389D01*
X14265301Y-22326389D02*
X14255777Y-22345436D01*
X14255777Y-22345436D02*
X14246253Y-22354960D01*
X14246253Y-22354960D02*
X14227206Y-22364484D01*
X14227206Y-22364484D02*
X14198634Y-22364484D01*
X14379587Y-22364484D02*
X14360539Y-22354960D01*
X14360539Y-22354960D02*
X14351015Y-22335912D01*
X14351015Y-22335912D02*
X14351015Y-22164484D01*
X14531968Y-22354960D02*
X14512920Y-22364484D01*
X14512920Y-22364484D02*
X14474825Y-22364484D01*
X14474825Y-22364484D02*
X14455777Y-22354960D01*
X14455777Y-22354960D02*
X14446253Y-22335912D01*
X14446253Y-22335912D02*
X14446253Y-22259722D01*
X14446253Y-22259722D02*
X14455777Y-22240674D01*
X14455777Y-22240674D02*
X14474825Y-22231150D01*
X14474825Y-22231150D02*
X14512920Y-22231150D01*
X14512920Y-22231150D02*
X14531968Y-22240674D01*
X14531968Y-22240674D02*
X14541491Y-22259722D01*
X14541491Y-22259722D02*
X14541491Y-22278770D01*
X14541491Y-22278770D02*
X14446253Y-22297817D01*
X14617682Y-22354960D02*
X14636730Y-22364484D01*
X14636730Y-22364484D02*
X14674825Y-22364484D01*
X14674825Y-22364484D02*
X14693872Y-22354960D01*
X14693872Y-22354960D02*
X14703396Y-22335912D01*
X14703396Y-22335912D02*
X14703396Y-22326389D01*
X14703396Y-22326389D02*
X14693872Y-22307341D01*
X14693872Y-22307341D02*
X14674825Y-22297817D01*
X14674825Y-22297817D02*
X14646253Y-22297817D01*
X14646253Y-22297817D02*
X14627206Y-22288293D01*
X14627206Y-22288293D02*
X14617682Y-22269246D01*
X14617682Y-22269246D02*
X14617682Y-22259722D01*
X14617682Y-22259722D02*
X14627206Y-22240674D01*
X14627206Y-22240674D02*
X14646253Y-22231150D01*
X14646253Y-22231150D02*
X14674825Y-22231150D01*
X14674825Y-22231150D02*
X14693872Y-22240674D01*
X14770063Y-22440674D02*
X14779587Y-22431150D01*
X14779587Y-22431150D02*
X14798634Y-22402579D01*
X14798634Y-22402579D02*
X14808158Y-22383531D01*
X14808158Y-22383531D02*
X14817682Y-22354960D01*
X14817682Y-22354960D02*
X14827206Y-22307341D01*
X14827206Y-22307341D02*
X14827206Y-22269246D01*
X14827206Y-22269246D02*
X14817682Y-22221627D01*
X14817682Y-22221627D02*
X14808158Y-22193055D01*
X14808158Y-22193055D02*
X14798634Y-22174008D01*
X14798634Y-22174008D02*
X14779587Y-22145436D01*
X14779587Y-22145436D02*
X14770063Y-22135912D01*
X9895000Y-22493000D02*
X9895000Y-22693000D01*
X9795000Y-22593000D02*
X9995000Y-22593000D01*
X9995000Y-22593000D02*
G75*
G02*
X9795000Y-22593000I-100000J0D01*
G01*
X9795000Y-22593000D02*
G75*
G02*
X9995000Y-22593000I100000J0D01*
G01*
X10236729Y-22484484D02*
X10360539Y-22484484D01*
X10360539Y-22484484D02*
X10293872Y-22560674D01*
X10293872Y-22560674D02*
X10322444Y-22560674D01*
X10322444Y-22560674D02*
X10341491Y-22570198D01*
X10341491Y-22570198D02*
X10351015Y-22579722D01*
X10351015Y-22579722D02*
X10360539Y-22598769D01*
X10360539Y-22598769D02*
X10360539Y-22646388D01*
X10360539Y-22646388D02*
X10351015Y-22665436D01*
X10351015Y-22665436D02*
X10341491Y-22674960D01*
X10341491Y-22674960D02*
X10322444Y-22684484D01*
X10322444Y-22684484D02*
X10265301Y-22684484D01*
X10265301Y-22684484D02*
X10246253Y-22674960D01*
X10246253Y-22674960D02*
X10236729Y-22665436D01*
X10446253Y-22665436D02*
X10455777Y-22674960D01*
X10455777Y-22674960D02*
X10446253Y-22684484D01*
X10446253Y-22684484D02*
X10436729Y-22674960D01*
X10436729Y-22674960D02*
X10446253Y-22665436D01*
X10446253Y-22665436D02*
X10446253Y-22684484D01*
X10531967Y-22503531D02*
X10541491Y-22494008D01*
X10541491Y-22494008D02*
X10560539Y-22484484D01*
X10560539Y-22484484D02*
X10608158Y-22484484D01*
X10608158Y-22484484D02*
X10627205Y-22494008D01*
X10627205Y-22494008D02*
X10636729Y-22503531D01*
X10636729Y-22503531D02*
X10646253Y-22522579D01*
X10646253Y-22522579D02*
X10646253Y-22541627D01*
X10646253Y-22541627D02*
X10636729Y-22570198D01*
X10636729Y-22570198D02*
X10522444Y-22684484D01*
X10522444Y-22684484D02*
X10646253Y-22684484D01*
X10770063Y-22484484D02*
X10789110Y-22484484D01*
X10789110Y-22484484D02*
X10808158Y-22494008D01*
X10808158Y-22494008D02*
X10817682Y-22503531D01*
X10817682Y-22503531D02*
X10827205Y-22522579D01*
X10827205Y-22522579D02*
X10836729Y-22560674D01*
X10836729Y-22560674D02*
X10836729Y-22608293D01*
X10836729Y-22608293D02*
X10827205Y-22646388D01*
X10827205Y-22646388D02*
X10817682Y-22665436D01*
X10817682Y-22665436D02*
X10808158Y-22674960D01*
X10808158Y-22674960D02*
X10789110Y-22684484D01*
X10789110Y-22684484D02*
X10770063Y-22684484D01*
X10770063Y-22684484D02*
X10751015Y-22674960D01*
X10751015Y-22674960D02*
X10741491Y-22665436D01*
X10741491Y-22665436D02*
X10731967Y-22646388D01*
X10731967Y-22646388D02*
X10722444Y-22608293D01*
X10722444Y-22608293D02*
X10722444Y-22560674D01*
X10722444Y-22560674D02*
X10731967Y-22522579D01*
X10731967Y-22522579D02*
X10741491Y-22503531D01*
X10741491Y-22503531D02*
X10751015Y-22494008D01*
X10751015Y-22494008D02*
X10770063Y-22484484D01*
X10960539Y-22484484D02*
X10979586Y-22484484D01*
X10979586Y-22484484D02*
X10998634Y-22494008D01*
X10998634Y-22494008D02*
X11008158Y-22503531D01*
X11008158Y-22503531D02*
X11017682Y-22522579D01*
X11017682Y-22522579D02*
X11027205Y-22560674D01*
X11027205Y-22560674D02*
X11027205Y-22608293D01*
X11027205Y-22608293D02*
X11017682Y-22646388D01*
X11017682Y-22646388D02*
X11008158Y-22665436D01*
X11008158Y-22665436D02*
X10998634Y-22674960D01*
X10998634Y-22674960D02*
X10979586Y-22684484D01*
X10979586Y-22684484D02*
X10960539Y-22684484D01*
X10960539Y-22684484D02*
X10941491Y-22674960D01*
X10941491Y-22674960D02*
X10931967Y-22665436D01*
X10931967Y-22665436D02*
X10922444Y-22646388D01*
X10922444Y-22646388D02*
X10912920Y-22608293D01*
X10912920Y-22608293D02*
X10912920Y-22560674D01*
X10912920Y-22560674D02*
X10922444Y-22522579D01*
X10922444Y-22522579D02*
X10931967Y-22503531D01*
X10931967Y-22503531D02*
X10941491Y-22494008D01*
X10941491Y-22494008D02*
X10960539Y-22484484D01*
X11112920Y-22684484D02*
X11112920Y-22551150D01*
X11112920Y-22570198D02*
X11122444Y-22560674D01*
X11122444Y-22560674D02*
X11141491Y-22551150D01*
X11141491Y-22551150D02*
X11170063Y-22551150D01*
X11170063Y-22551150D02*
X11189110Y-22560674D01*
X11189110Y-22560674D02*
X11198634Y-22579722D01*
X11198634Y-22579722D02*
X11198634Y-22684484D01*
X11198634Y-22579722D02*
X11208158Y-22560674D01*
X11208158Y-22560674D02*
X11227205Y-22551150D01*
X11227205Y-22551150D02*
X11255777Y-22551150D01*
X11255777Y-22551150D02*
X11274824Y-22560674D01*
X11274824Y-22560674D02*
X11284348Y-22579722D01*
X11284348Y-22579722D02*
X11284348Y-22684484D01*
X11379586Y-22684484D02*
X11379586Y-22551150D01*
X11379586Y-22570198D02*
X11389110Y-22560674D01*
X11389110Y-22560674D02*
X11408158Y-22551150D01*
X11408158Y-22551150D02*
X11436729Y-22551150D01*
X11436729Y-22551150D02*
X11455777Y-22560674D01*
X11455777Y-22560674D02*
X11465301Y-22579722D01*
X11465301Y-22579722D02*
X11465301Y-22684484D01*
X11465301Y-22579722D02*
X11474824Y-22560674D01*
X11474824Y-22560674D02*
X11493872Y-22551150D01*
X11493872Y-22551150D02*
X11522443Y-22551150D01*
X11522443Y-22551150D02*
X11541491Y-22560674D01*
X11541491Y-22560674D02*
X11551015Y-22579722D01*
X11551015Y-22579722D02*
X11551015Y-22684484D01*
X11941491Y-22474960D02*
X11770063Y-22732103D01*
X12198634Y-22484484D02*
X12217682Y-22484484D01*
X12217682Y-22484484D02*
X12236729Y-22494008D01*
X12236729Y-22494008D02*
X12246253Y-22503531D01*
X12246253Y-22503531D02*
X12255777Y-22522579D01*
X12255777Y-22522579D02*
X12265301Y-22560674D01*
X12265301Y-22560674D02*
X12265301Y-22608293D01*
X12265301Y-22608293D02*
X12255777Y-22646388D01*
X12255777Y-22646388D02*
X12246253Y-22665436D01*
X12246253Y-22665436D02*
X12236729Y-22674960D01*
X12236729Y-22674960D02*
X12217682Y-22684484D01*
X12217682Y-22684484D02*
X12198634Y-22684484D01*
X12198634Y-22684484D02*
X12179586Y-22674960D01*
X12179586Y-22674960D02*
X12170063Y-22665436D01*
X12170063Y-22665436D02*
X12160539Y-22646388D01*
X12160539Y-22646388D02*
X12151015Y-22608293D01*
X12151015Y-22608293D02*
X12151015Y-22560674D01*
X12151015Y-22560674D02*
X12160539Y-22522579D01*
X12160539Y-22522579D02*
X12170063Y-22503531D01*
X12170063Y-22503531D02*
X12179586Y-22494008D01*
X12179586Y-22494008D02*
X12198634Y-22484484D01*
X12351015Y-22665436D02*
X12360539Y-22674960D01*
X12360539Y-22674960D02*
X12351015Y-22684484D01*
X12351015Y-22684484D02*
X12341491Y-22674960D01*
X12341491Y-22674960D02*
X12351015Y-22665436D01*
X12351015Y-22665436D02*
X12351015Y-22684484D01*
X12551015Y-22684484D02*
X12436729Y-22684484D01*
X12493872Y-22684484D02*
X12493872Y-22484484D01*
X12493872Y-22484484D02*
X12474825Y-22513055D01*
X12474825Y-22513055D02*
X12455777Y-22532103D01*
X12455777Y-22532103D02*
X12436729Y-22541627D01*
X12627206Y-22503531D02*
X12636729Y-22494008D01*
X12636729Y-22494008D02*
X12655777Y-22484484D01*
X12655777Y-22484484D02*
X12703396Y-22484484D01*
X12703396Y-22484484D02*
X12722444Y-22494008D01*
X12722444Y-22494008D02*
X12731967Y-22503531D01*
X12731967Y-22503531D02*
X12741491Y-22522579D01*
X12741491Y-22522579D02*
X12741491Y-22541627D01*
X12741491Y-22541627D02*
X12731967Y-22570198D01*
X12731967Y-22570198D02*
X12617682Y-22684484D01*
X12617682Y-22684484D02*
X12741491Y-22684484D01*
X12912920Y-22484484D02*
X12874825Y-22484484D01*
X12874825Y-22484484D02*
X12855777Y-22494008D01*
X12855777Y-22494008D02*
X12846253Y-22503531D01*
X12846253Y-22503531D02*
X12827206Y-22532103D01*
X12827206Y-22532103D02*
X12817682Y-22570198D01*
X12817682Y-22570198D02*
X12817682Y-22646388D01*
X12817682Y-22646388D02*
X12827206Y-22665436D01*
X12827206Y-22665436D02*
X12836729Y-22674960D01*
X12836729Y-22674960D02*
X12855777Y-22684484D01*
X12855777Y-22684484D02*
X12893872Y-22684484D01*
X12893872Y-22684484D02*
X12912920Y-22674960D01*
X12912920Y-22674960D02*
X12922444Y-22665436D01*
X12922444Y-22665436D02*
X12931967Y-22646388D01*
X12931967Y-22646388D02*
X12931967Y-22598769D01*
X12931967Y-22598769D02*
X12922444Y-22579722D01*
X12922444Y-22579722D02*
X12912920Y-22570198D01*
X12912920Y-22570198D02*
X12893872Y-22560674D01*
X12893872Y-22560674D02*
X12855777Y-22560674D01*
X12855777Y-22560674D02*
X12836729Y-22570198D01*
X12836729Y-22570198D02*
X12827206Y-22579722D01*
X12827206Y-22579722D02*
X12817682Y-22598769D01*
X13055777Y-22484484D02*
X13074825Y-22484484D01*
X13074825Y-22484484D02*
X13093872Y-22494008D01*
X13093872Y-22494008D02*
X13103396Y-22503531D01*
X13103396Y-22503531D02*
X13112920Y-22522579D01*
X13112920Y-22522579D02*
X13122444Y-22560674D01*
X13122444Y-22560674D02*
X13122444Y-22608293D01*
X13122444Y-22608293D02*
X13112920Y-22646388D01*
X13112920Y-22646388D02*
X13103396Y-22665436D01*
X13103396Y-22665436D02*
X13093872Y-22674960D01*
X13093872Y-22674960D02*
X13074825Y-22684484D01*
X13074825Y-22684484D02*
X13055777Y-22684484D01*
X13055777Y-22684484D02*
X13036729Y-22674960D01*
X13036729Y-22674960D02*
X13027206Y-22665436D01*
X13027206Y-22665436D02*
X13017682Y-22646388D01*
X13017682Y-22646388D02*
X13008158Y-22608293D01*
X13008158Y-22608293D02*
X13008158Y-22560674D01*
X13008158Y-22560674D02*
X13017682Y-22522579D01*
X13017682Y-22522579D02*
X13027206Y-22503531D01*
X13027206Y-22503531D02*
X13036729Y-22494008D01*
X13036729Y-22494008D02*
X13055777Y-22484484D01*
X13198634Y-22484484D02*
X13198634Y-22522579D01*
X13274825Y-22484484D02*
X13274825Y-22522579D01*
X13570063Y-22760674D02*
X13560539Y-22751150D01*
X13560539Y-22751150D02*
X13541491Y-22722579D01*
X13541491Y-22722579D02*
X13531968Y-22703531D01*
X13531968Y-22703531D02*
X13522444Y-22674960D01*
X13522444Y-22674960D02*
X13512920Y-22627341D01*
X13512920Y-22627341D02*
X13512920Y-22589246D01*
X13512920Y-22589246D02*
X13522444Y-22541627D01*
X13522444Y-22541627D02*
X13531968Y-22513055D01*
X13531968Y-22513055D02*
X13541491Y-22494008D01*
X13541491Y-22494008D02*
X13560539Y-22465436D01*
X13560539Y-22465436D02*
X13570063Y-22455912D01*
X13731968Y-22551150D02*
X13731968Y-22684484D01*
X13684348Y-22474960D02*
X13636729Y-22617817D01*
X13636729Y-22617817D02*
X13760539Y-22617817D01*
X13989110Y-22684484D02*
X13989110Y-22484484D01*
X14074825Y-22684484D02*
X14074825Y-22579722D01*
X14074825Y-22579722D02*
X14065301Y-22560674D01*
X14065301Y-22560674D02*
X14046253Y-22551150D01*
X14046253Y-22551150D02*
X14017682Y-22551150D01*
X14017682Y-22551150D02*
X13998634Y-22560674D01*
X13998634Y-22560674D02*
X13989110Y-22570198D01*
X14198634Y-22684484D02*
X14179587Y-22674960D01*
X14179587Y-22674960D02*
X14170063Y-22665436D01*
X14170063Y-22665436D02*
X14160539Y-22646388D01*
X14160539Y-22646388D02*
X14160539Y-22589246D01*
X14160539Y-22589246D02*
X14170063Y-22570198D01*
X14170063Y-22570198D02*
X14179587Y-22560674D01*
X14179587Y-22560674D02*
X14198634Y-22551150D01*
X14198634Y-22551150D02*
X14227206Y-22551150D01*
X14227206Y-22551150D02*
X14246253Y-22560674D01*
X14246253Y-22560674D02*
X14255777Y-22570198D01*
X14255777Y-22570198D02*
X14265301Y-22589246D01*
X14265301Y-22589246D02*
X14265301Y-22646388D01*
X14265301Y-22646388D02*
X14255777Y-22665436D01*
X14255777Y-22665436D02*
X14246253Y-22674960D01*
X14246253Y-22674960D02*
X14227206Y-22684484D01*
X14227206Y-22684484D02*
X14198634Y-22684484D01*
X14379587Y-22684484D02*
X14360539Y-22674960D01*
X14360539Y-22674960D02*
X14351015Y-22655912D01*
X14351015Y-22655912D02*
X14351015Y-22484484D01*
X14531968Y-22674960D02*
X14512920Y-22684484D01*
X14512920Y-22684484D02*
X14474825Y-22684484D01*
X14474825Y-22684484D02*
X14455777Y-22674960D01*
X14455777Y-22674960D02*
X14446253Y-22655912D01*
X14446253Y-22655912D02*
X14446253Y-22579722D01*
X14446253Y-22579722D02*
X14455777Y-22560674D01*
X14455777Y-22560674D02*
X14474825Y-22551150D01*
X14474825Y-22551150D02*
X14512920Y-22551150D01*
X14512920Y-22551150D02*
X14531968Y-22560674D01*
X14531968Y-22560674D02*
X14541491Y-22579722D01*
X14541491Y-22579722D02*
X14541491Y-22598769D01*
X14541491Y-22598769D02*
X14446253Y-22617817D01*
X14617682Y-22674960D02*
X14636730Y-22684484D01*
X14636730Y-22684484D02*
X14674825Y-22684484D01*
X14674825Y-22684484D02*
X14693872Y-22674960D01*
X14693872Y-22674960D02*
X14703396Y-22655912D01*
X14703396Y-22655912D02*
X14703396Y-22646388D01*
X14703396Y-22646388D02*
X14693872Y-22627341D01*
X14693872Y-22627341D02*
X14674825Y-22617817D01*
X14674825Y-22617817D02*
X14646253Y-22617817D01*
X14646253Y-22617817D02*
X14627206Y-22608293D01*
X14627206Y-22608293D02*
X14617682Y-22589246D01*
X14617682Y-22589246D02*
X14617682Y-22579722D01*
X14617682Y-22579722D02*
X14627206Y-22560674D01*
X14627206Y-22560674D02*
X14646253Y-22551150D01*
X14646253Y-22551150D02*
X14674825Y-22551150D01*
X14674825Y-22551150D02*
X14693872Y-22560674D01*
X14770063Y-22760674D02*
X14779587Y-22751150D01*
X14779587Y-22751150D02*
X14798634Y-22722579D01*
X14798634Y-22722579D02*
X14808158Y-22703531D01*
X14808158Y-22703531D02*
X14817682Y-22674960D01*
X14817682Y-22674960D02*
X14827206Y-22627341D01*
X14827206Y-22627341D02*
X14827206Y-22589246D01*
X14827206Y-22589246D02*
X14817682Y-22541627D01*
X14817682Y-22541627D02*
X14808158Y-22513055D01*
X14808158Y-22513055D02*
X14798634Y-22494008D01*
X14798634Y-22494008D02*
X14779587Y-22465436D01*
X14779587Y-22465436D02*
X14770063Y-22455912D01*
X15131968Y-22760674D02*
X15122444Y-22751150D01*
X15122444Y-22751150D02*
X15103396Y-22722579D01*
X15103396Y-22722579D02*
X15093872Y-22703531D01*
X15093872Y-22703531D02*
X15084349Y-22674960D01*
X15084349Y-22674960D02*
X15074825Y-22627341D01*
X15074825Y-22627341D02*
X15074825Y-22589246D01*
X15074825Y-22589246D02*
X15084349Y-22541627D01*
X15084349Y-22541627D02*
X15093872Y-22513055D01*
X15093872Y-22513055D02*
X15103396Y-22494008D01*
X15103396Y-22494008D02*
X15122444Y-22465436D01*
X15122444Y-22465436D02*
X15131968Y-22455912D01*
X15208158Y-22551150D02*
X15208158Y-22684484D01*
X15208158Y-22570198D02*
X15217682Y-22560674D01*
X15217682Y-22560674D02*
X15236730Y-22551150D01*
X15236730Y-22551150D02*
X15265301Y-22551150D01*
X15265301Y-22551150D02*
X15284349Y-22560674D01*
X15284349Y-22560674D02*
X15293872Y-22579722D01*
X15293872Y-22579722D02*
X15293872Y-22684484D01*
X15417682Y-22684484D02*
X15398634Y-22674960D01*
X15398634Y-22674960D02*
X15389111Y-22665436D01*
X15389111Y-22665436D02*
X15379587Y-22646388D01*
X15379587Y-22646388D02*
X15379587Y-22589246D01*
X15379587Y-22589246D02*
X15389111Y-22570198D01*
X15389111Y-22570198D02*
X15398634Y-22560674D01*
X15398634Y-22560674D02*
X15417682Y-22551150D01*
X15417682Y-22551150D02*
X15446253Y-22551150D01*
X15446253Y-22551150D02*
X15465301Y-22560674D01*
X15465301Y-22560674D02*
X15474825Y-22570198D01*
X15474825Y-22570198D02*
X15484349Y-22589246D01*
X15484349Y-22589246D02*
X15484349Y-22646388D01*
X15484349Y-22646388D02*
X15474825Y-22665436D01*
X15474825Y-22665436D02*
X15465301Y-22674960D01*
X15465301Y-22674960D02*
X15446253Y-22684484D01*
X15446253Y-22684484D02*
X15417682Y-22684484D01*
X15541492Y-22551150D02*
X15617682Y-22551150D01*
X15570063Y-22484484D02*
X15570063Y-22655912D01*
X15570063Y-22655912D02*
X15579587Y-22674960D01*
X15579587Y-22674960D02*
X15598634Y-22684484D01*
X15598634Y-22684484D02*
X15617682Y-22684484D01*
X15836730Y-22551150D02*
X15836730Y-22751150D01*
X15836730Y-22560674D02*
X15855777Y-22551150D01*
X15855777Y-22551150D02*
X15893873Y-22551150D01*
X15893873Y-22551150D02*
X15912920Y-22560674D01*
X15912920Y-22560674D02*
X15922444Y-22570198D01*
X15922444Y-22570198D02*
X15931968Y-22589246D01*
X15931968Y-22589246D02*
X15931968Y-22646388D01*
X15931968Y-22646388D02*
X15922444Y-22665436D01*
X15922444Y-22665436D02*
X15912920Y-22674960D01*
X15912920Y-22674960D02*
X15893873Y-22684484D01*
X15893873Y-22684484D02*
X15855777Y-22684484D01*
X15855777Y-22684484D02*
X15836730Y-22674960D01*
X16046253Y-22684484D02*
X16027206Y-22674960D01*
X16027206Y-22674960D02*
X16017682Y-22655912D01*
X16017682Y-22655912D02*
X16017682Y-22484484D01*
X16208158Y-22684484D02*
X16208158Y-22579722D01*
X16208158Y-22579722D02*
X16198634Y-22560674D01*
X16198634Y-22560674D02*
X16179587Y-22551150D01*
X16179587Y-22551150D02*
X16141492Y-22551150D01*
X16141492Y-22551150D02*
X16122444Y-22560674D01*
X16208158Y-22674960D02*
X16189111Y-22684484D01*
X16189111Y-22684484D02*
X16141492Y-22684484D01*
X16141492Y-22684484D02*
X16122444Y-22674960D01*
X16122444Y-22674960D02*
X16112920Y-22655912D01*
X16112920Y-22655912D02*
X16112920Y-22636865D01*
X16112920Y-22636865D02*
X16122444Y-22617817D01*
X16122444Y-22617817D02*
X16141492Y-22608293D01*
X16141492Y-22608293D02*
X16189111Y-22608293D01*
X16189111Y-22608293D02*
X16208158Y-22598769D01*
X16274825Y-22551150D02*
X16351015Y-22551150D01*
X16303396Y-22484484D02*
X16303396Y-22655912D01*
X16303396Y-22655912D02*
X16312920Y-22674960D01*
X16312920Y-22674960D02*
X16331968Y-22684484D01*
X16331968Y-22684484D02*
X16351015Y-22684484D01*
X16493873Y-22674960D02*
X16474825Y-22684484D01*
X16474825Y-22684484D02*
X16436730Y-22684484D01*
X16436730Y-22684484D02*
X16417682Y-22674960D01*
X16417682Y-22674960D02*
X16408158Y-22655912D01*
X16408158Y-22655912D02*
X16408158Y-22579722D01*
X16408158Y-22579722D02*
X16417682Y-22560674D01*
X16417682Y-22560674D02*
X16436730Y-22551150D01*
X16436730Y-22551150D02*
X16474825Y-22551150D01*
X16474825Y-22551150D02*
X16493873Y-22560674D01*
X16493873Y-22560674D02*
X16503396Y-22579722D01*
X16503396Y-22579722D02*
X16503396Y-22598769D01*
X16503396Y-22598769D02*
X16408158Y-22617817D01*
X16674825Y-22684484D02*
X16674825Y-22484484D01*
X16674825Y-22674960D02*
X16655777Y-22684484D01*
X16655777Y-22684484D02*
X16617682Y-22684484D01*
X16617682Y-22684484D02*
X16598634Y-22674960D01*
X16598634Y-22674960D02*
X16589111Y-22665436D01*
X16589111Y-22665436D02*
X16579587Y-22646388D01*
X16579587Y-22646388D02*
X16579587Y-22589246D01*
X16579587Y-22589246D02*
X16589111Y-22570198D01*
X16589111Y-22570198D02*
X16598634Y-22560674D01*
X16598634Y-22560674D02*
X16617682Y-22551150D01*
X16617682Y-22551150D02*
X16655777Y-22551150D01*
X16655777Y-22551150D02*
X16674825Y-22560674D01*
X16751015Y-22760674D02*
X16760539Y-22751150D01*
X16760539Y-22751150D02*
X16779587Y-22722579D01*
X16779587Y-22722579D02*
X16789111Y-22703531D01*
X16789111Y-22703531D02*
X16798635Y-22674960D01*
X16798635Y-22674960D02*
X16808158Y-22627341D01*
X16808158Y-22627341D02*
X16808158Y-22589246D01*
X16808158Y-22589246D02*
X16798635Y-22541627D01*
X16798635Y-22541627D02*
X16789111Y-22513055D01*
X16789111Y-22513055D02*
X16779587Y-22494008D01*
X16779587Y-22494008D02*
X16760539Y-22465436D01*
X16760539Y-22465436D02*
X16751015Y-22455912D01*
X9965711Y-22983711D02*
X9965711Y-22842289D01*
X9824289Y-22842289D01*
X9824289Y-22983711D01*
X9965711Y-22983711D01*
X9995000Y-22913000D02*
G75*
G02*
X9795000Y-22913000I-100000J0D01*
G01*
X9795000Y-22913000D02*
G75*
G02*
X9995000Y-22913000I100000J0D01*
G01*
X10236729Y-22804484D02*
X10360539Y-22804484D01*
X10360539Y-22804484D02*
X10293872Y-22880674D01*
X10293872Y-22880674D02*
X10322444Y-22880674D01*
X10322444Y-22880674D02*
X10341491Y-22890198D01*
X10341491Y-22890198D02*
X10351015Y-22899722D01*
X10351015Y-22899722D02*
X10360539Y-22918769D01*
X10360539Y-22918769D02*
X10360539Y-22966388D01*
X10360539Y-22966388D02*
X10351015Y-22985436D01*
X10351015Y-22985436D02*
X10341491Y-22994960D01*
X10341491Y-22994960D02*
X10322444Y-23004484D01*
X10322444Y-23004484D02*
X10265301Y-23004484D01*
X10265301Y-23004484D02*
X10246253Y-22994960D01*
X10246253Y-22994960D02*
X10236729Y-22985436D01*
X10446253Y-22985436D02*
X10455777Y-22994960D01*
X10455777Y-22994960D02*
X10446253Y-23004484D01*
X10446253Y-23004484D02*
X10436729Y-22994960D01*
X10436729Y-22994960D02*
X10446253Y-22985436D01*
X10446253Y-22985436D02*
X10446253Y-23004484D01*
X10531967Y-22823531D02*
X10541491Y-22814008D01*
X10541491Y-22814008D02*
X10560539Y-22804484D01*
X10560539Y-22804484D02*
X10608158Y-22804484D01*
X10608158Y-22804484D02*
X10627205Y-22814008D01*
X10627205Y-22814008D02*
X10636729Y-22823531D01*
X10636729Y-22823531D02*
X10646253Y-22842579D01*
X10646253Y-22842579D02*
X10646253Y-22861627D01*
X10646253Y-22861627D02*
X10636729Y-22890198D01*
X10636729Y-22890198D02*
X10522444Y-23004484D01*
X10522444Y-23004484D02*
X10646253Y-23004484D01*
X10827205Y-22804484D02*
X10731967Y-22804484D01*
X10731967Y-22804484D02*
X10722444Y-22899722D01*
X10722444Y-22899722D02*
X10731967Y-22890198D01*
X10731967Y-22890198D02*
X10751015Y-22880674D01*
X10751015Y-22880674D02*
X10798634Y-22880674D01*
X10798634Y-22880674D02*
X10817682Y-22890198D01*
X10817682Y-22890198D02*
X10827205Y-22899722D01*
X10827205Y-22899722D02*
X10836729Y-22918769D01*
X10836729Y-22918769D02*
X10836729Y-22966388D01*
X10836729Y-22966388D02*
X10827205Y-22985436D01*
X10827205Y-22985436D02*
X10817682Y-22994960D01*
X10817682Y-22994960D02*
X10798634Y-23004484D01*
X10798634Y-23004484D02*
X10751015Y-23004484D01*
X10751015Y-23004484D02*
X10731967Y-22994960D01*
X10731967Y-22994960D02*
X10722444Y-22985436D01*
X10960539Y-22804484D02*
X10979586Y-22804484D01*
X10979586Y-22804484D02*
X10998634Y-22814008D01*
X10998634Y-22814008D02*
X11008158Y-22823531D01*
X11008158Y-22823531D02*
X11017682Y-22842579D01*
X11017682Y-22842579D02*
X11027205Y-22880674D01*
X11027205Y-22880674D02*
X11027205Y-22928293D01*
X11027205Y-22928293D02*
X11017682Y-22966388D01*
X11017682Y-22966388D02*
X11008158Y-22985436D01*
X11008158Y-22985436D02*
X10998634Y-22994960D01*
X10998634Y-22994960D02*
X10979586Y-23004484D01*
X10979586Y-23004484D02*
X10960539Y-23004484D01*
X10960539Y-23004484D02*
X10941491Y-22994960D01*
X10941491Y-22994960D02*
X10931967Y-22985436D01*
X10931967Y-22985436D02*
X10922444Y-22966388D01*
X10922444Y-22966388D02*
X10912920Y-22928293D01*
X10912920Y-22928293D02*
X10912920Y-22880674D01*
X10912920Y-22880674D02*
X10922444Y-22842579D01*
X10922444Y-22842579D02*
X10931967Y-22823531D01*
X10931967Y-22823531D02*
X10941491Y-22814008D01*
X10941491Y-22814008D02*
X10960539Y-22804484D01*
X11112920Y-23004484D02*
X11112920Y-22871150D01*
X11112920Y-22890198D02*
X11122444Y-22880674D01*
X11122444Y-22880674D02*
X11141491Y-22871150D01*
X11141491Y-22871150D02*
X11170063Y-22871150D01*
X11170063Y-22871150D02*
X11189110Y-22880674D01*
X11189110Y-22880674D02*
X11198634Y-22899722D01*
X11198634Y-22899722D02*
X11198634Y-23004484D01*
X11198634Y-22899722D02*
X11208158Y-22880674D01*
X11208158Y-22880674D02*
X11227205Y-22871150D01*
X11227205Y-22871150D02*
X11255777Y-22871150D01*
X11255777Y-22871150D02*
X11274824Y-22880674D01*
X11274824Y-22880674D02*
X11284348Y-22899722D01*
X11284348Y-22899722D02*
X11284348Y-23004484D01*
X11379586Y-23004484D02*
X11379586Y-22871150D01*
X11379586Y-22890198D02*
X11389110Y-22880674D01*
X11389110Y-22880674D02*
X11408158Y-22871150D01*
X11408158Y-22871150D02*
X11436729Y-22871150D01*
X11436729Y-22871150D02*
X11455777Y-22880674D01*
X11455777Y-22880674D02*
X11465301Y-22899722D01*
X11465301Y-22899722D02*
X11465301Y-23004484D01*
X11465301Y-22899722D02*
X11474824Y-22880674D01*
X11474824Y-22880674D02*
X11493872Y-22871150D01*
X11493872Y-22871150D02*
X11522443Y-22871150D01*
X11522443Y-22871150D02*
X11541491Y-22880674D01*
X11541491Y-22880674D02*
X11551015Y-22899722D01*
X11551015Y-22899722D02*
X11551015Y-23004484D01*
X11941491Y-22794960D02*
X11770063Y-23052103D01*
X12198634Y-22804484D02*
X12217682Y-22804484D01*
X12217682Y-22804484D02*
X12236729Y-22814008D01*
X12236729Y-22814008D02*
X12246253Y-22823531D01*
X12246253Y-22823531D02*
X12255777Y-22842579D01*
X12255777Y-22842579D02*
X12265301Y-22880674D01*
X12265301Y-22880674D02*
X12265301Y-22928293D01*
X12265301Y-22928293D02*
X12255777Y-22966388D01*
X12255777Y-22966388D02*
X12246253Y-22985436D01*
X12246253Y-22985436D02*
X12236729Y-22994960D01*
X12236729Y-22994960D02*
X12217682Y-23004484D01*
X12217682Y-23004484D02*
X12198634Y-23004484D01*
X12198634Y-23004484D02*
X12179586Y-22994960D01*
X12179586Y-22994960D02*
X12170063Y-22985436D01*
X12170063Y-22985436D02*
X12160539Y-22966388D01*
X12160539Y-22966388D02*
X12151015Y-22928293D01*
X12151015Y-22928293D02*
X12151015Y-22880674D01*
X12151015Y-22880674D02*
X12160539Y-22842579D01*
X12160539Y-22842579D02*
X12170063Y-22823531D01*
X12170063Y-22823531D02*
X12179586Y-22814008D01*
X12179586Y-22814008D02*
X12198634Y-22804484D01*
X12351015Y-22985436D02*
X12360539Y-22994960D01*
X12360539Y-22994960D02*
X12351015Y-23004484D01*
X12351015Y-23004484D02*
X12341491Y-22994960D01*
X12341491Y-22994960D02*
X12351015Y-22985436D01*
X12351015Y-22985436D02*
X12351015Y-23004484D01*
X12551015Y-23004484D02*
X12436729Y-23004484D01*
X12493872Y-23004484D02*
X12493872Y-22804484D01*
X12493872Y-22804484D02*
X12474825Y-22833055D01*
X12474825Y-22833055D02*
X12455777Y-22852103D01*
X12455777Y-22852103D02*
X12436729Y-22861627D01*
X12627206Y-22823531D02*
X12636729Y-22814008D01*
X12636729Y-22814008D02*
X12655777Y-22804484D01*
X12655777Y-22804484D02*
X12703396Y-22804484D01*
X12703396Y-22804484D02*
X12722444Y-22814008D01*
X12722444Y-22814008D02*
X12731967Y-22823531D01*
X12731967Y-22823531D02*
X12741491Y-22842579D01*
X12741491Y-22842579D02*
X12741491Y-22861627D01*
X12741491Y-22861627D02*
X12731967Y-22890198D01*
X12731967Y-22890198D02*
X12617682Y-23004484D01*
X12617682Y-23004484D02*
X12741491Y-23004484D01*
X12855777Y-22890198D02*
X12836729Y-22880674D01*
X12836729Y-22880674D02*
X12827206Y-22871150D01*
X12827206Y-22871150D02*
X12817682Y-22852103D01*
X12817682Y-22852103D02*
X12817682Y-22842579D01*
X12817682Y-22842579D02*
X12827206Y-22823531D01*
X12827206Y-22823531D02*
X12836729Y-22814008D01*
X12836729Y-22814008D02*
X12855777Y-22804484D01*
X12855777Y-22804484D02*
X12893872Y-22804484D01*
X12893872Y-22804484D02*
X12912920Y-22814008D01*
X12912920Y-22814008D02*
X12922444Y-22823531D01*
X12922444Y-22823531D02*
X12931967Y-22842579D01*
X12931967Y-22842579D02*
X12931967Y-22852103D01*
X12931967Y-22852103D02*
X12922444Y-22871150D01*
X12922444Y-22871150D02*
X12912920Y-22880674D01*
X12912920Y-22880674D02*
X12893872Y-22890198D01*
X12893872Y-22890198D02*
X12855777Y-22890198D01*
X12855777Y-22890198D02*
X12836729Y-22899722D01*
X12836729Y-22899722D02*
X12827206Y-22909246D01*
X12827206Y-22909246D02*
X12817682Y-22928293D01*
X12817682Y-22928293D02*
X12817682Y-22966388D01*
X12817682Y-22966388D02*
X12827206Y-22985436D01*
X12827206Y-22985436D02*
X12836729Y-22994960D01*
X12836729Y-22994960D02*
X12855777Y-23004484D01*
X12855777Y-23004484D02*
X12893872Y-23004484D01*
X12893872Y-23004484D02*
X12912920Y-22994960D01*
X12912920Y-22994960D02*
X12922444Y-22985436D01*
X12922444Y-22985436D02*
X12931967Y-22966388D01*
X12931967Y-22966388D02*
X12931967Y-22928293D01*
X12931967Y-22928293D02*
X12922444Y-22909246D01*
X12922444Y-22909246D02*
X12912920Y-22899722D01*
X12912920Y-22899722D02*
X12893872Y-22890198D01*
X13055777Y-22804484D02*
X13074825Y-22804484D01*
X13074825Y-22804484D02*
X13093872Y-22814008D01*
X13093872Y-22814008D02*
X13103396Y-22823531D01*
X13103396Y-22823531D02*
X13112920Y-22842579D01*
X13112920Y-22842579D02*
X13122444Y-22880674D01*
X13122444Y-22880674D02*
X13122444Y-22928293D01*
X13122444Y-22928293D02*
X13112920Y-22966388D01*
X13112920Y-22966388D02*
X13103396Y-22985436D01*
X13103396Y-22985436D02*
X13093872Y-22994960D01*
X13093872Y-22994960D02*
X13074825Y-23004484D01*
X13074825Y-23004484D02*
X13055777Y-23004484D01*
X13055777Y-23004484D02*
X13036729Y-22994960D01*
X13036729Y-22994960D02*
X13027206Y-22985436D01*
X13027206Y-22985436D02*
X13017682Y-22966388D01*
X13017682Y-22966388D02*
X13008158Y-22928293D01*
X13008158Y-22928293D02*
X13008158Y-22880674D01*
X13008158Y-22880674D02*
X13017682Y-22842579D01*
X13017682Y-22842579D02*
X13027206Y-22823531D01*
X13027206Y-22823531D02*
X13036729Y-22814008D01*
X13036729Y-22814008D02*
X13055777Y-22804484D01*
X13198634Y-22804484D02*
X13198634Y-22842579D01*
X13274825Y-22804484D02*
X13274825Y-22842579D01*
X13570063Y-23080674D02*
X13560539Y-23071150D01*
X13560539Y-23071150D02*
X13541491Y-23042579D01*
X13541491Y-23042579D02*
X13531968Y-23023531D01*
X13531968Y-23023531D02*
X13522444Y-22994960D01*
X13522444Y-22994960D02*
X13512920Y-22947341D01*
X13512920Y-22947341D02*
X13512920Y-22909246D01*
X13512920Y-22909246D02*
X13522444Y-22861627D01*
X13522444Y-22861627D02*
X13531968Y-22833055D01*
X13531968Y-22833055D02*
X13541491Y-22814008D01*
X13541491Y-22814008D02*
X13560539Y-22785436D01*
X13560539Y-22785436D02*
X13570063Y-22775912D01*
X13636729Y-22823531D02*
X13646253Y-22814008D01*
X13646253Y-22814008D02*
X13665301Y-22804484D01*
X13665301Y-22804484D02*
X13712920Y-22804484D01*
X13712920Y-22804484D02*
X13731968Y-22814008D01*
X13731968Y-22814008D02*
X13741491Y-22823531D01*
X13741491Y-22823531D02*
X13751015Y-22842579D01*
X13751015Y-22842579D02*
X13751015Y-22861627D01*
X13751015Y-22861627D02*
X13741491Y-22890198D01*
X13741491Y-22890198D02*
X13627206Y-23004484D01*
X13627206Y-23004484D02*
X13751015Y-23004484D01*
X13989110Y-23004484D02*
X13989110Y-22804484D01*
X14074825Y-23004484D02*
X14074825Y-22899722D01*
X14074825Y-22899722D02*
X14065301Y-22880674D01*
X14065301Y-22880674D02*
X14046253Y-22871150D01*
X14046253Y-22871150D02*
X14017682Y-22871150D01*
X14017682Y-22871150D02*
X13998634Y-22880674D01*
X13998634Y-22880674D02*
X13989110Y-22890198D01*
X14198634Y-23004484D02*
X14179587Y-22994960D01*
X14179587Y-22994960D02*
X14170063Y-22985436D01*
X14170063Y-22985436D02*
X14160539Y-22966388D01*
X14160539Y-22966388D02*
X14160539Y-22909246D01*
X14160539Y-22909246D02*
X14170063Y-22890198D01*
X14170063Y-22890198D02*
X14179587Y-22880674D01*
X14179587Y-22880674D02*
X14198634Y-22871150D01*
X14198634Y-22871150D02*
X14227206Y-22871150D01*
X14227206Y-22871150D02*
X14246253Y-22880674D01*
X14246253Y-22880674D02*
X14255777Y-22890198D01*
X14255777Y-22890198D02*
X14265301Y-22909246D01*
X14265301Y-22909246D02*
X14265301Y-22966388D01*
X14265301Y-22966388D02*
X14255777Y-22985436D01*
X14255777Y-22985436D02*
X14246253Y-22994960D01*
X14246253Y-22994960D02*
X14227206Y-23004484D01*
X14227206Y-23004484D02*
X14198634Y-23004484D01*
X14379587Y-23004484D02*
X14360539Y-22994960D01*
X14360539Y-22994960D02*
X14351015Y-22975912D01*
X14351015Y-22975912D02*
X14351015Y-22804484D01*
X14531968Y-22994960D02*
X14512920Y-23004484D01*
X14512920Y-23004484D02*
X14474825Y-23004484D01*
X14474825Y-23004484D02*
X14455777Y-22994960D01*
X14455777Y-22994960D02*
X14446253Y-22975912D01*
X14446253Y-22975912D02*
X14446253Y-22899722D01*
X14446253Y-22899722D02*
X14455777Y-22880674D01*
X14455777Y-22880674D02*
X14474825Y-22871150D01*
X14474825Y-22871150D02*
X14512920Y-22871150D01*
X14512920Y-22871150D02*
X14531968Y-22880674D01*
X14531968Y-22880674D02*
X14541491Y-22899722D01*
X14541491Y-22899722D02*
X14541491Y-22918769D01*
X14541491Y-22918769D02*
X14446253Y-22937817D01*
X14617682Y-22994960D02*
X14636730Y-23004484D01*
X14636730Y-23004484D02*
X14674825Y-23004484D01*
X14674825Y-23004484D02*
X14693872Y-22994960D01*
X14693872Y-22994960D02*
X14703396Y-22975912D01*
X14703396Y-22975912D02*
X14703396Y-22966388D01*
X14703396Y-22966388D02*
X14693872Y-22947341D01*
X14693872Y-22947341D02*
X14674825Y-22937817D01*
X14674825Y-22937817D02*
X14646253Y-22937817D01*
X14646253Y-22937817D02*
X14627206Y-22928293D01*
X14627206Y-22928293D02*
X14617682Y-22909246D01*
X14617682Y-22909246D02*
X14617682Y-22899722D01*
X14617682Y-22899722D02*
X14627206Y-22880674D01*
X14627206Y-22880674D02*
X14646253Y-22871150D01*
X14646253Y-22871150D02*
X14674825Y-22871150D01*
X14674825Y-22871150D02*
X14693872Y-22880674D01*
X14770063Y-23080674D02*
X14779587Y-23071150D01*
X14779587Y-23071150D02*
X14798634Y-23042579D01*
X14798634Y-23042579D02*
X14808158Y-23023531D01*
X14808158Y-23023531D02*
X14817682Y-22994960D01*
X14817682Y-22994960D02*
X14827206Y-22947341D01*
X14827206Y-22947341D02*
X14827206Y-22909246D01*
X14827206Y-22909246D02*
X14817682Y-22861627D01*
X14817682Y-22861627D02*
X14808158Y-22833055D01*
X14808158Y-22833055D02*
X14798634Y-22814008D01*
X14798634Y-22814008D02*
X14779587Y-22785436D01*
X14779587Y-22785436D02*
X14770063Y-22775912D01*
X15131968Y-23080674D02*
X15122444Y-23071150D01*
X15122444Y-23071150D02*
X15103396Y-23042579D01*
X15103396Y-23042579D02*
X15093872Y-23023531D01*
X15093872Y-23023531D02*
X15084349Y-22994960D01*
X15084349Y-22994960D02*
X15074825Y-22947341D01*
X15074825Y-22947341D02*
X15074825Y-22909246D01*
X15074825Y-22909246D02*
X15084349Y-22861627D01*
X15084349Y-22861627D02*
X15093872Y-22833055D01*
X15093872Y-22833055D02*
X15103396Y-22814008D01*
X15103396Y-22814008D02*
X15122444Y-22785436D01*
X15122444Y-22785436D02*
X15131968Y-22775912D01*
X15208158Y-22871150D02*
X15208158Y-23004484D01*
X15208158Y-22890198D02*
X15217682Y-22880674D01*
X15217682Y-22880674D02*
X15236730Y-22871150D01*
X15236730Y-22871150D02*
X15265301Y-22871150D01*
X15265301Y-22871150D02*
X15284349Y-22880674D01*
X15284349Y-22880674D02*
X15293872Y-22899722D01*
X15293872Y-22899722D02*
X15293872Y-23004484D01*
X15417682Y-23004484D02*
X15398634Y-22994960D01*
X15398634Y-22994960D02*
X15389111Y-22985436D01*
X15389111Y-22985436D02*
X15379587Y-22966388D01*
X15379587Y-22966388D02*
X15379587Y-22909246D01*
X15379587Y-22909246D02*
X15389111Y-22890198D01*
X15389111Y-22890198D02*
X15398634Y-22880674D01*
X15398634Y-22880674D02*
X15417682Y-22871150D01*
X15417682Y-22871150D02*
X15446253Y-22871150D01*
X15446253Y-22871150D02*
X15465301Y-22880674D01*
X15465301Y-22880674D02*
X15474825Y-22890198D01*
X15474825Y-22890198D02*
X15484349Y-22909246D01*
X15484349Y-22909246D02*
X15484349Y-22966388D01*
X15484349Y-22966388D02*
X15474825Y-22985436D01*
X15474825Y-22985436D02*
X15465301Y-22994960D01*
X15465301Y-22994960D02*
X15446253Y-23004484D01*
X15446253Y-23004484D02*
X15417682Y-23004484D01*
X15541492Y-22871150D02*
X15617682Y-22871150D01*
X15570063Y-22804484D02*
X15570063Y-22975912D01*
X15570063Y-22975912D02*
X15579587Y-22994960D01*
X15579587Y-22994960D02*
X15598634Y-23004484D01*
X15598634Y-23004484D02*
X15617682Y-23004484D01*
X15836730Y-22871150D02*
X15836730Y-23071150D01*
X15836730Y-22880674D02*
X15855777Y-22871150D01*
X15855777Y-22871150D02*
X15893873Y-22871150D01*
X15893873Y-22871150D02*
X15912920Y-22880674D01*
X15912920Y-22880674D02*
X15922444Y-22890198D01*
X15922444Y-22890198D02*
X15931968Y-22909246D01*
X15931968Y-22909246D02*
X15931968Y-22966388D01*
X15931968Y-22966388D02*
X15922444Y-22985436D01*
X15922444Y-22985436D02*
X15912920Y-22994960D01*
X15912920Y-22994960D02*
X15893873Y-23004484D01*
X15893873Y-23004484D02*
X15855777Y-23004484D01*
X15855777Y-23004484D02*
X15836730Y-22994960D01*
X16046253Y-23004484D02*
X16027206Y-22994960D01*
X16027206Y-22994960D02*
X16017682Y-22975912D01*
X16017682Y-22975912D02*
X16017682Y-22804484D01*
X16208158Y-23004484D02*
X16208158Y-22899722D01*
X16208158Y-22899722D02*
X16198634Y-22880674D01*
X16198634Y-22880674D02*
X16179587Y-22871150D01*
X16179587Y-22871150D02*
X16141492Y-22871150D01*
X16141492Y-22871150D02*
X16122444Y-22880674D01*
X16208158Y-22994960D02*
X16189111Y-23004484D01*
X16189111Y-23004484D02*
X16141492Y-23004484D01*
X16141492Y-23004484D02*
X16122444Y-22994960D01*
X16122444Y-22994960D02*
X16112920Y-22975912D01*
X16112920Y-22975912D02*
X16112920Y-22956865D01*
X16112920Y-22956865D02*
X16122444Y-22937817D01*
X16122444Y-22937817D02*
X16141492Y-22928293D01*
X16141492Y-22928293D02*
X16189111Y-22928293D01*
X16189111Y-22928293D02*
X16208158Y-22918769D01*
X16274825Y-22871150D02*
X16351015Y-22871150D01*
X16303396Y-22804484D02*
X16303396Y-22975912D01*
X16303396Y-22975912D02*
X16312920Y-22994960D01*
X16312920Y-22994960D02*
X16331968Y-23004484D01*
X16331968Y-23004484D02*
X16351015Y-23004484D01*
X16493873Y-22994960D02*
X16474825Y-23004484D01*
X16474825Y-23004484D02*
X16436730Y-23004484D01*
X16436730Y-23004484D02*
X16417682Y-22994960D01*
X16417682Y-22994960D02*
X16408158Y-22975912D01*
X16408158Y-22975912D02*
X16408158Y-22899722D01*
X16408158Y-22899722D02*
X16417682Y-22880674D01*
X16417682Y-22880674D02*
X16436730Y-22871150D01*
X16436730Y-22871150D02*
X16474825Y-22871150D01*
X16474825Y-22871150D02*
X16493873Y-22880674D01*
X16493873Y-22880674D02*
X16503396Y-22899722D01*
X16503396Y-22899722D02*
X16503396Y-22918769D01*
X16503396Y-22918769D02*
X16408158Y-22937817D01*
X16674825Y-23004484D02*
X16674825Y-22804484D01*
X16674825Y-22994960D02*
X16655777Y-23004484D01*
X16655777Y-23004484D02*
X16617682Y-23004484D01*
X16617682Y-23004484D02*
X16598634Y-22994960D01*
X16598634Y-22994960D02*
X16589111Y-22985436D01*
X16589111Y-22985436D02*
X16579587Y-22966388D01*
X16579587Y-22966388D02*
X16579587Y-22909246D01*
X16579587Y-22909246D02*
X16589111Y-22890198D01*
X16589111Y-22890198D02*
X16598634Y-22880674D01*
X16598634Y-22880674D02*
X16617682Y-22871150D01*
X16617682Y-22871150D02*
X16655777Y-22871150D01*
X16655777Y-22871150D02*
X16674825Y-22880674D01*
X16751015Y-23080674D02*
X16760539Y-23071150D01*
X16760539Y-23071150D02*
X16779587Y-23042579D01*
X16779587Y-23042579D02*
X16789111Y-23023531D01*
X16789111Y-23023531D02*
X16798635Y-22994960D01*
X16798635Y-22994960D02*
X16808158Y-22947341D01*
X16808158Y-22947341D02*
X16808158Y-22909246D01*
X16808158Y-22909246D02*
X16798635Y-22861627D01*
X16798635Y-22861627D02*
X16789111Y-22833055D01*
X16789111Y-22833055D02*
X16779587Y-22814008D01*
X16779587Y-22814008D02*
X16760539Y-22785436D01*
X16760539Y-22785436D02*
X16751015Y-22775912D01*
M02*
