M48
; DRILL file KiCad 10.0.3 date 2026-09-10T12:51:26
; FORMAT={-:-/ absolute / metric / decimal}
; #@! TF.CreationDate,2026-09-10T12:51:26+03:00
; #@! TF.GenerationSoftware,Kicad,Pcbnew,10.0.3
; #@! TF.FileFunction,MixedPlating,1,4
FMAT,2
METRIC
; #@! TA.AperFunction,Plated,PTH,ViaDrill
T1C0.200
; #@! TA.AperFunction,Plated,PTH,ViaDrill
T2C0.300
; #@! TA.AperFunction,Plated,PTH,ComponentDrill
T3C0.800
; #@! TA.AperFunction,Plated,PTH,ComponentDrill
T4C0.890
; #@! TA.AperFunction,Plated,PTH,ComponentDrill
T5C0.900
; #@! TA.AperFunction,Plated,PTH,ComponentDrill
T6C1.000
; #@! TA.AperFunction,Plated,PTH,ComponentDrill
T7C1.300
; #@! TA.AperFunction,Plated,PTH,ComponentDrill
T8C1.600
; #@! TA.AperFunction,Plated,PTH,ComponentDrill
T9C3.200
; #@! TA.AperFunction,NonPlated,NPTH,ComponentDrill
T10C3.200
; #@! TA.AperFunction,NonPlated,NPTH,ComponentDrill
T11C3.250
%
G90
G05
T1
X104.975Y-115.8
X105.8Y-173.38
X110.012Y-172.8
X110.575Y-146.95
X110.737Y-115.8
X116.575Y-146.95
X116.975Y-115.8
X122.37Y-122.625
X122.37Y-127.625
X122.8Y-132.625
X122.8Y-137.625
X123.8Y-142.625
X124.23Y-121.025
X124.23Y-126.625
X124.575Y-144.8
X124.575Y-148.8
X125.162Y-130.35
X128.025Y-117.8
X128.35Y-135.9
X128.85Y-134.9
X129.0Y-132.0
X129.575Y-117.8
X130.45Y-129.862
X130.9Y-136.9
X134.575Y-148.8
X134.8Y-121.025
X134.8Y-122.575
X134.8Y-124.975
X135.355Y-183.0
X136.3Y-137.175
X141.025Y-119.8
X141.575Y-148.8
X142.575Y-115.8
X142.575Y-119.8
X146.025Y-119.8
X146.04Y-183.0
X146.8Y-114.975
X147.975Y-119.8
X148.425Y-126.5
X148.425Y-129.0
X148.425Y-133.0
X149.125Y-133.7
X149.22Y-181.85
X150.225Y-128.5
X150.8Y-122.125
X150.8Y-137.475
X151.025Y-119.8
X151.5Y-121.425
X151.5Y-138.2
X151.575Y-148.8
X151.8Y-116.625
X152.575Y-119.8
X153.35Y-182.0
X153.35Y-185.4
X155.8Y-116.625
X159.8Y-116.625
X161.025Y-119.8
X162.5Y-136.775
X162.5Y-182.0
X162.575Y-119.8
X163.2Y-137.475
X164.2Y-116.625
X164.475Y-123.8
X165.535Y-124.5
X166.525Y-120.0
X166.75Y-143.8
X167.575Y-119.8
X169.012Y-109.8
X171.025Y-113.8
X171.025Y-119.8
X171.65Y-144.0
X172.575Y-113.8
X172.575Y-119.8
X173.395Y-188.75
X174.012Y-109.8
X175.85Y-119.8
X177.637Y-127.675
X177.75Y-119.8
X179.012Y-109.8
X182.562Y-128.425
X182.662Y-127.575
X182.662Y-131.875
X195.25Y-183.37
X199.8Y-182.025
X202.85Y-174.862
X203.65Y-178.887
X203.65Y-181.188
X210.15Y-181.387
X212.8Y-174.85
X212.8Y-176.75
X214.737Y-182.8
X214.737Y-186.8
T2
X104.947Y-117.113
X113.299Y-146.368
X114.77Y-116.0
X124.038Y-128.917
X124.552Y-128.266
X125.362Y-141.221
X125.661Y-131.136
X126.263Y-130.062
X126.446Y-125.929
X127.062Y-122.775
X127.062Y-133.915
X128.824Y-138.755
X131.095Y-125.175
X131.095Y-134.238
X131.975Y-139.964
X132.01Y-132.247
X133.273Y-132.85
X134.029Y-131.624
X134.029Y-140.593
X137.67Y-134.883
X146.0Y-130.165
X146.0Y-144.064
X146.948Y-129.5
X146.948Y-145.954
X147.573Y-127.938
X148.017Y-124.5
X148.021Y-130.826
X150.632Y-134.112
X150.646Y-130.069
X154.263Y-126.121
X155.3Y-125.5
X156.382Y-110.742
X157.989Y-124.284
X158.458Y-136.0
X158.607Y-123.682
X159.667Y-129.037
X160.791Y-128.429
X161.403Y-127.329
X163.288Y-127.448
X163.353Y-130.66
X163.37Y-126.542
X165.999Y-125.5
X166.486Y-128.533
X166.91Y-131.025
X168.071Y-126.34
X168.119Y-129.823
X168.517Y-129.075
X168.625Y-126.942
X169.953Y-142.738
X171.145Y-130.375
X172.197Y-132.5
X176.853Y-114.881
X178.09Y-140.915
X178.943Y-128.848
X180.27Y-131.025
X181.602Y-135.575
X187.0Y-170.038
X192.516Y-159.825
X197.125Y-141.11
X197.783Y-140.342
X201.85Y-136.696
T3
X193.0Y-155.0
X193.0Y-157.54
X193.0Y-161.5
X193.0Y-164.04
X193.0Y-168.0
X193.0Y-170.54
X193.0Y-174.5
X193.0Y-177.04
X196.0Y-112.0
X196.0Y-114.54
X196.0Y-124.0
X196.0Y-126.54
X196.0Y-136.0
X196.0Y-138.54
X196.0Y-148.0
X196.0Y-150.54
X200.62Y-155.0
X200.62Y-157.54
X200.62Y-161.5
X200.62Y-164.04
X200.62Y-168.0
X200.62Y-170.54
X200.62Y-174.5
X200.62Y-177.04
X206.16Y-112.0
X206.16Y-114.54
X206.16Y-124.0
X206.16Y-126.54
X206.16Y-136.0
X206.16Y-138.54
X206.16Y-148.0
X206.16Y-150.54
T4
X102.26Y-130.12
X102.26Y-140.23
X103.78Y-132.66
X103.78Y-142.77
T5
X113.5Y-132.0
X113.5Y-134.54
X113.5Y-137.08
X113.5Y-139.62
X116.04Y-133.27
X116.04Y-135.81
X116.04Y-138.35
X116.04Y-140.89
T6
X140.0Y-107.0
X142.54Y-107.0
X145.08Y-107.0
X147.62Y-107.0
X150.16Y-107.0
X157.0Y-107.0
X159.54Y-107.0
X162.08Y-107.0
X164.62Y-107.0
X214.0Y-113.76
X214.0Y-116.53
X214.0Y-119.3
X214.0Y-122.07
X214.0Y-124.84
X214.0Y-127.61
X214.0Y-130.38
X214.0Y-133.15
X214.0Y-135.92
X214.0Y-138.69
X214.0Y-141.46
X214.0Y-144.23
X214.0Y-147.0
X216.84Y-115.145
X216.84Y-117.915
X216.84Y-120.685
X216.84Y-123.455
X216.84Y-126.225
X216.84Y-128.995
X216.84Y-131.765
X216.84Y-134.535
X216.84Y-137.305
X216.84Y-140.075
X216.84Y-142.845
X216.84Y-145.615
T7
X105.0Y-180.0
X110.0Y-180.0
T8
X110.21Y-128.67
X110.21Y-144.22
T9
X215.42Y-106.83
X215.42Y-153.93
T10
X105.0Y-105.0
X105.0Y-190.0
X196.0Y-103.6
X196.0Y-191.4
T11
X107.16Y-130.73
X107.16Y-142.16
M30
